<svg width="88" height="54" viewBox="0 0 88 54" fill="none" xmlns="http://www.w3.org/2000/svg">
<path d="M49.8097 20.0513L45.8157 26.9898H63.6459C65.3984 26.9898 66.4886 25.0947 65.6021 23.5868L54.6595 4.61547L52.632 1.13094C51.7659 -0.376981 49.5855 -0.376981 48.6991 1.13094L46.692 4.61547L37.7972 20.0309L32.9169 11.554H38.6633L42.6572 4.61547H24.827C23.0746 4.61547 21.9844 6.51057 22.8708 8.01849L33.8033 26.9694L33.7829 26.9898H33.8033L35.8104 30.4743C36.6765 31.9823 38.8569 31.9823 39.7433 30.4743L41.7504 26.9898L50.6452 11.5743L55.5459 20.0513H49.8097Z" fill="white"/>
<path d="M14.0576 43.5972C14.0576 46.9493 11.7754 49.15 8.29083 49.15H3.52253V53.9795H0.863281V38.0342H8.30102C11.7855 38.0342 14.0576 40.2553 14.0576 43.5972ZM11.4086 43.5972C11.4086 41.7021 10.1044 40.4795 8.14819 40.4795H3.51234V46.7455H8.15838C10.1146 46.7455 11.4086 45.5025 11.4086 43.5972Z" fill="white"/>
<path d="M21.6379 38.0342H24.3074V53.9795H21.6379V38.0342Z" fill="white"/>
<path d="M46.1621 53.9795H42.9526L40.5787 50.5459L38.7753 47.8357L36.9413 50.5459L34.5674 53.9795H31.3987L37.0228 45.8693L31.6228 38.0342H34.7711L36.9515 41.2436L38.7651 44.0047L40.6093 41.2436L42.7896 38.0342H45.9074L40.4768 45.8693L46.1621 53.9795Z" fill="white"/>
<path d="M65.4697 50.8725H63.6051V53.9902H60.9357V50.8725H52.1327L51.8066 48.417L60.5282 38.0449H63.5746V48.417H65.4391V50.8725H65.4697ZM54.8021 48.4272H60.9357V41.2034L54.8021 48.4272Z" fill="white"/>
<path d="M87.5791 46.0223C87.5791 50.811 84.3493 54.0001 79.53 54.0001H73.427V38.0548H79.53C84.3493 38.0344 87.5791 41.2337 87.5791 46.0223ZM84.8995 46.0223C84.8995 42.7416 82.7191 40.5103 79.5504 40.5103H76.1168V51.5446H79.5402C82.7293 51.5242 84.8995 49.2929 84.8995 46.0223Z" fill="white"/>
</svg>
