<svg width="41" height="41" viewBox="0 0 41 41" fill="none" xmlns="http://www.w3.org/2000/svg">
<rect width="41" height="41" fill="#2E3134"/>
<path d="M13 18.5C12.1716 18.5 11.5 19.1716 11.5 20C11.5 20.8284 12.1716 21.5 13 21.5L13 18.5ZM31.0606 21.0607C31.6464 20.4749 31.6464 19.5252 31.0606 18.9394L21.5147 9.39342C20.9289 8.80763 19.9792 8.80763 19.3934 9.39342C18.8076 9.9792 18.8076 10.9289 19.3934 11.5147L27.8786 20L19.3933 28.4853C18.8075 29.0711 18.8075 30.0208 19.3933 30.6066C19.9791 31.1924 20.9289 31.1924 21.5146 30.6066L31.0606 21.0607ZM13 21.5L29.9999 21.5L30 18.5L13 18.5L13 21.5Z" fill="white"/>
</svg>
