<svg xmlns="http://www.w3.org/2000/svg" width="31" height="31" viewBox="0 0 31 31" fill="none">
<path fill-rule="evenodd" clip-rule="evenodd" d="M15.5 30.5C23.7843 30.5 30.5 23.7843 30.5 15.5C30.5 7.21573 23.7843 0.5 15.5 0.5C7.21573 0.5 0.5 7.21573 0.5 15.5C0.5 23.7843 7.21573 30.5 15.5 30.5ZM8.44141 9.38672C8.44141 10.3711 9.2358 11.168 10.2638 11.168C11.2451 11.168 12.0395 10.3711 12.0395 9.38672C12.0395 8.40234 11.2451 7.55859 10.2638 7.55859C9.2358 7.55859 8.44141 8.40234 8.44141 9.38672ZM11.8059 22.5586V12.5742H8.72178V22.5586H11.8059ZM23.4414 22.5586H20.3106V17.6836C20.3106 16.5586 20.3106 15.0586 18.7218 15.0586C17.0863 15.0586 16.8526 16.3242 16.8526 17.6367V22.5586H13.7685V12.5742H16.7124V13.9336H16.7592C17.1797 13.1367 18.2078 12.293 19.7031 12.293C22.8339 12.293 23.4414 14.4023 23.4414 17.0742V22.5586Z" fill="#2C2F32"/>
</svg>