<svg width="30" height="30" viewBox="0 0 30 30" fill="none" xmlns="http://www.w3.org/2000/svg">
<path fill-rule="evenodd" clip-rule="evenodd" d="M15 30C23.2843 30 30 23.2843 30 15C30 6.71573 23.2843 0 15 0C6.71573 0 0 6.71573 0 15C0 23.2843 6.71573 30 15 30ZM7.94141 8.88672C7.94141 9.87109 8.7358 10.668 9.76384 10.668C10.7451 10.668 11.5395 9.87109 11.5395 8.88672C11.5395 7.90234 10.7451 7.05859 9.76384 7.05859C8.7358 7.05859 7.94141 7.90234 7.94141 8.88672ZM11.3059 22.0586V12.0742H8.22178V22.0586H11.3059ZM22.9414 22.0586H19.8106V17.1836C19.8106 16.0586 19.8106 14.5586 18.2218 14.5586C16.5863 14.5586 16.3526 15.8242 16.3526 17.1367V22.0586H13.2685V12.0742H16.2124V13.4336H16.2592C16.6797 12.6367 17.7078 11.793 19.2031 11.793C22.3339 11.793 22.9414 13.9023 22.9414 16.5742V22.0586Z" fill="white"/>
</svg>
