<svg width="387" height="45" viewBox="0 0 197 24" fill="none" xmlns="http://www.w3.org/2000/svg">
<path d="M14.0088 22.8821L13.9647 14.6948L9.97534 21.3592H8.02478L4.05749 14.9144V22.8821H0V7.43359H3.61245L9.06521 16.3494L14.3857 7.43359H17.9981L18.0422 22.8821H14.0088Z" fill="#2E3134"/>
<path d="M31.0106 19.8802H24.4493L23.2304 22.8821H18.752L25.602 7.43359H29.9241L36.7962 22.8821H32.2295L31.0106 19.8802ZM29.7256 16.6568L27.731 11.7129L25.7363 16.6568H29.7256Z" fill="#2E3134"/>
<path d="M44.2897 18.7765H41.8961V22.8821H37.5078V7.43359H44.6004C46.0037 7.43359 47.2225 7.66512 48.259 8.12818C49.2934 8.59123 50.0913 9.25388 50.6526 10.1141C51.2139 10.9744 51.4945 11.9863 51.4945 13.1479C51.4945 14.2657 51.2319 15.2417 50.7067 16.072C50.1815 16.9043 49.4317 17.555 48.4574 18.026L51.8053 22.8821H47.1063L44.2897 18.7765ZM46.3726 11.4714C45.9135 11.0742 45.2339 10.8746 44.3338 10.8746H41.8961V15.3994H44.3338C45.2359 15.3994 45.9155 15.2038 46.3726 14.8146C46.8296 14.4253 47.0602 13.8685 47.0602 13.1479C47.0602 12.4274 46.8316 11.8686 46.3726 11.4714Z" fill="#2E3134"/>
<path d="M55.1733 22.7272C53.9905 22.4178 53.0303 22.0067 52.2905 21.4917L53.7319 18.2703C54.4255 18.7274 55.2314 19.0946 56.1475 19.374C57.0637 19.6535 57.9658 19.7932 58.8519 19.7932C60.5358 19.7932 61.3798 19.374 61.3798 18.5358C61.3798 18.0947 61.1392 17.7673 60.6601 17.5538C60.179 17.3402 59.4072 17.1166 58.3427 16.8811C57.176 16.6316 56.1997 16.3622 55.4158 16.0748C54.632 15.7874 53.9604 15.3283 53.3991 14.6956C52.8378 14.0629 52.5571 13.2086 52.5571 12.1348C52.5571 11.1927 52.8158 10.3444 53.333 9.58599C53.8502 8.82753 54.622 8.22875 55.6504 7.78765C56.6768 7.34655 57.9377 7.125 59.4292 7.125C60.4496 7.125 61.454 7.23877 62.4443 7.46631C63.4346 7.69384 64.3066 8.02916 65.0604 8.47026L63.7072 11.7137C62.2298 10.9193 60.7964 10.5221 59.4072 10.5221C58.5351 10.5221 57.8996 10.6518 57.5007 10.9073C57.1018 11.1648 56.9013 11.5001 56.9013 11.9112C56.9013 12.3224 57.1379 12.6318 57.611 12.8374C58.0841 13.0429 58.8439 13.2565 59.8943 13.4781C61.0771 13.7275 62.0554 13.997 62.8312 14.2844C63.607 14.5718 64.2786 15.0269 64.8479 15.6536C65.4172 16.2783 65.7019 17.1286 65.7019 18.2024C65.7019 19.1285 65.4433 19.9688 64.9261 20.7193C64.4089 21.4698 63.6331 22.0686 62.5986 22.5176C61.5642 22.9667 60.3073 23.1903 58.8298 23.1903C57.5749 23.1903 56.356 23.0366 55.1733 22.7272Z" fill="#2E3134"/>
<path d="M79.8888 18.7765H77.4952V22.8821H73.1069V7.43359H80.1995C81.6028 7.43359 82.8217 7.66512 83.8581 8.12818C84.8925 8.59123 85.6904 9.25388 86.2517 10.1141C86.813 10.9744 87.0937 11.9863 87.0937 13.1479C87.0937 14.2657 86.831 15.2417 86.3058 16.072C85.7806 16.9043 85.0308 17.555 84.0566 18.026L87.4044 22.8821H82.7054L79.8888 18.7765ZM81.9737 11.4714C81.5146 11.0742 80.835 10.8746 79.9349 10.8746H77.4972V15.3994H79.9349C80.837 15.3994 81.5166 15.2038 81.9737 14.8146C82.4307 14.4253 82.6613 13.8685 82.6613 13.1479C82.6613 12.4274 82.4307 11.8686 81.9737 11.4714Z" fill="#2E3134"/>
<path d="M92.38 22.1544C91.0729 21.4638 90.0445 20.5058 89.2988 19.2843C88.553 18.0628 88.1802 16.6876 88.1802 15.1567C88.1802 13.6258 88.553 12.2506 89.2988 11.0291C90.0445 9.80758 91.0729 8.85152 92.38 8.16093C93.6871 7.47034 95.1625 7.12305 96.8024 7.12305C98.4422 7.12305 99.9176 7.46834 101.225 8.16093C102.532 8.85352 103.56 9.80957 104.306 11.0291C105.052 12.2506 105.425 13.6258 105.425 15.1567C105.425 16.6876 105.052 18.0628 104.306 19.2843C103.56 20.5058 102.532 21.4618 101.225 22.1544C99.9176 22.847 98.4422 23.1923 96.8024 23.1923C95.1625 23.1903 93.6891 22.845 92.38 22.1544ZM98.9313 19.0188C99.5668 18.6516 100.07 18.1326 100.439 17.462C100.808 16.7933 100.992 16.0249 100.992 15.1547C100.992 14.2865 100.808 13.518 100.439 12.8474C100.07 12.1787 99.5668 11.6598 98.9313 11.2906C98.2958 10.9233 97.5862 10.7397 96.8024 10.7397C96.0185 10.7397 95.3089 10.9233 94.6734 11.2906C94.0379 11.6578 93.5347 12.1767 93.1658 12.8474C92.797 13.518 92.6125 14.2865 92.6125 15.1547C92.6125 16.0229 92.797 16.7913 93.1658 17.462C93.5347 18.1326 94.0379 18.6496 94.6734 19.0188C95.3089 19.3861 96.0185 19.5697 96.8024 19.5697C97.5862 19.5717 98.2958 19.3881 98.9313 19.0188Z" fill="#2E3134"/>
<path d="M121.209 16.2716C121.713 16.9263 121.963 17.7166 121.963 18.6448C121.963 19.998 121.416 21.0439 120.323 21.7784C119.229 22.5149 117.649 22.8821 115.58 22.8821H107.201V7.43359H115.137C117.118 7.43359 118.625 7.79685 119.66 8.52537C120.694 9.25389 121.211 10.2359 121.211 11.4714C121.211 12.2079 121.031 12.8665 120.668 13.4473C120.305 14.0282 119.792 14.4892 119.127 14.8265C120.013 15.1339 120.706 15.6169 121.209 16.2716ZM111.545 10.5872V13.5671H114.56C116.037 13.5671 116.777 13.0661 116.777 12.0662C116.777 11.0802 116.037 10.5872 114.56 10.5872H111.545ZM117.529 18.1577C117.529 17.1139 116.761 16.5909 115.223 16.5909H111.543V19.7246H115.223C116.761 19.7246 117.529 19.2036 117.529 18.1577Z" fill="#2E3134"/>
<path d="M127.117 22.1544C125.81 21.4638 124.782 20.5058 124.036 19.2843C123.29 18.0628 122.917 16.6876 122.917 15.1567C122.917 13.6258 123.29 12.2506 124.036 11.0291C124.782 9.80758 125.81 8.85152 127.117 8.16093C128.424 7.47034 129.9 7.12305 131.54 7.12305C133.179 7.12305 134.655 7.46834 135.962 8.16093C137.269 8.85352 138.297 9.80957 139.043 11.0291C139.789 12.2506 140.162 13.6258 140.162 15.1567C140.162 16.6876 139.789 18.0628 139.043 19.2843C138.297 20.5058 137.269 21.4618 135.962 22.1544C134.655 22.847 133.179 23.1923 131.54 23.1923C129.898 23.1903 128.424 22.845 127.117 22.1544ZM133.667 19.0188C134.302 18.6516 134.805 18.1326 135.174 17.462C135.543 16.7933 135.727 16.0249 135.727 15.1547C135.727 14.2865 135.543 13.518 135.174 12.8474C134.805 12.1787 134.302 11.6598 133.667 11.2906C133.031 10.9233 132.321 10.7397 131.538 10.7397C130.754 10.7397 130.044 10.9233 129.409 11.2906C128.773 11.6578 128.27 12.1767 127.901 12.8474C127.532 13.518 127.348 14.2865 127.348 15.1547C127.348 16.0229 127.532 16.7913 127.901 17.462C128.27 18.1326 128.773 18.6496 129.409 19.0188C130.044 19.3861 130.754 19.5697 131.538 19.5697C132.321 19.5717 133.031 19.3881 133.667 19.0188Z" fill="#2E3134"/>
<path d="M145.017 10.8976H140.252V7.43262H154.15V10.8976H149.407V22.8811H145.019V10.8976H145.017Z" fill="#2E3134"/>
<path d="M155.257 7.43262H159.646V22.8811H155.257V7.43262Z" fill="#2E3134"/>
<path d="M165.6 22.1644C164.307 21.4798 163.29 20.5277 162.552 19.3062C161.813 18.0847 161.444 16.7015 161.444 15.1567C161.444 13.6118 161.813 12.2286 162.552 11.0071C163.292 9.78562 164.307 8.83356 165.6 8.14896C166.893 7.46435 168.352 7.12305 169.978 7.12305C171.397 7.12305 172.674 7.37254 173.813 7.87352C174.951 8.3745 175.896 9.09503 176.649 10.0371L173.857 12.554C172.853 11.3484 171.632 10.7437 170.198 10.7437C169.356 10.7437 168.607 10.9273 167.949 11.2945C167.292 11.6618 166.782 12.1807 166.419 12.8514C166.057 13.522 165.876 14.2904 165.876 15.1587C165.876 16.0269 166.057 16.7953 166.419 17.466C166.782 18.1366 167.292 18.6536 167.949 19.0228C168.607 19.3901 169.356 19.5737 170.198 19.5737C171.632 19.5737 172.851 18.9709 173.857 17.7634L176.649 20.2802C175.896 21.2223 174.949 21.9429 173.813 22.4438C172.674 22.9448 171.397 23.1943 169.978 23.1943C168.352 23.1903 166.893 22.849 165.6 22.1644Z" fill="#2E3134"/>
<path d="M179.686 22.7272C178.504 22.4178 177.543 22.0067 176.804 21.4917L178.245 18.2703C178.939 18.7274 179.745 19.0946 180.661 19.374C181.577 19.6535 182.479 19.7932 183.365 19.7932C185.049 19.7932 185.893 19.374 185.893 18.5358C185.893 18.0947 185.652 17.7673 185.173 17.5538C184.692 17.3402 183.92 17.1166 182.858 16.8811C181.691 16.6316 180.715 16.3622 179.931 16.0748C179.147 15.7874 178.476 15.3283 177.914 14.6956C177.353 14.0629 177.072 13.2086 177.072 12.1348C177.072 11.1927 177.331 10.3444 177.848 9.58599C178.365 8.82753 179.137 8.22875 180.164 7.78765C181.19 7.34655 182.451 7.125 183.942 7.125C184.963 7.125 185.967 7.23877 186.957 7.46631C187.948 7.69384 188.82 8.02916 189.574 8.47026L188.22 11.7137C186.743 10.9193 185.31 10.5221 183.92 10.5221C183.048 10.5221 182.413 10.6518 182.014 10.9073C181.615 11.1648 181.415 11.5001 181.415 11.9112C181.415 12.3224 181.651 12.6318 182.124 12.8374C182.597 13.0429 183.357 13.2565 184.408 13.4781C185.59 13.7275 186.569 13.997 187.344 14.2844C188.12 14.5718 188.792 15.0269 189.361 15.6536C189.93 16.2783 190.215 17.1286 190.215 18.2024C190.215 19.1285 189.956 19.9688 189.439 20.7193C188.922 21.4698 188.146 22.0686 187.112 22.5176C186.077 22.9667 184.82 23.1903 183.343 23.1903C182.088 23.1903 180.869 23.0366 179.686 22.7272Z" fill="#2E3134"/>
<path d="M196.413 0.444336H184.558V3.87934H196.413V0.444336Z" fill="#FF4713"/>
</svg>
