<svg width="71" height="70" viewBox="0 0 71 70" fill="none" xmlns="http://www.w3.org/2000/svg">
<g id="Layer_1" clip-path="url(#clip0_1896_8004)">
<path id="Vector" d="M35.4897 68.9432C54.2411 68.9432 69.4422 53.7421 69.4422 34.9906C69.4422 16.2392 54.2411 1.03809 35.4897 1.03809C16.7382 1.03809 1.53711 16.2392 1.53711 34.9906C1.53711 53.7421 16.7382 68.9432 35.4897 68.9432Z" stroke="#4B4F55" stroke-width="1.11"/>
<path id="Vector_2" d="M40.076 52.5616C43.0957 52.5616 45.5303 50.127 45.5303 47.1261C45.2661 39.9355 34.867 39.9355 34.6028 47.1261C34.6028 50.127 37.0563 52.5616 40.076 52.5616ZM40.076 39.8789C44.0959 39.8789 47.361 43.1251 47.361 47.1261C46.9646 56.7325 33.1873 56.7325 32.791 47.1261C32.791 43.1251 36.056 39.8789 40.076 39.8789Z" fill="#4A4F54"/>
<path id="Vector_3" d="M37.4916 44.559C37.8502 44.2004 38.4164 44.2004 38.775 44.559L40.0583 45.8423L41.3417 44.559C41.7003 44.2004 42.2665 44.2004 42.6251 44.559C42.9836 44.9176 42.9836 45.4838 42.6251 45.8423L41.3417 47.1257L42.6251 48.4091C42.9836 48.7677 42.9836 49.3338 42.6251 49.6924C42.2665 50.051 41.7003 50.051 41.3417 49.6924L40.0583 48.4091L38.775 49.6924C38.4164 50.051 37.8502 50.051 37.4916 49.6924C37.133 49.3338 37.133 48.7677 37.4916 48.4091L38.775 47.1257L37.4916 45.8423C37.133 45.4838 37.133 44.9176 37.4916 44.559Z" fill="#4A4F54"/>
<path id="Vector_4" d="M53.7217 17.2502C53.7217 14.2494 51.2682 11.8147 48.2674 11.8147C41.039 12.0601 41.039 22.4214 48.2674 22.6856C51.2871 22.6856 53.7217 20.251 53.7217 17.2502ZM40.9824 17.2502C40.9824 13.2491 44.2475 10.0029 48.2674 10.0029C57.9304 10.3993 57.9304 24.1011 48.2674 24.4974C44.2475 24.4974 40.9824 21.2512 40.9824 17.2502Z" fill="#4A4F54"/>
<path id="Vector_5" d="M46.9645 19.8165C46.1152 20.6469 44.8319 19.3824 45.6811 18.5331L46.9645 17.2497L45.6811 15.9664C45.3225 15.6078 45.3225 15.0416 45.6811 14.683C46.0397 14.3244 46.6059 14.3244 46.9645 14.683L48.2479 15.9664L49.5312 14.683C49.8898 14.3244 50.456 14.3244 50.8146 14.683C51.1732 15.0416 51.1732 15.6078 50.8146 15.9664L49.5312 17.2497L50.8146 18.5331C51.1732 18.8917 51.1732 19.4579 50.8146 19.8165C50.456 20.175 49.8898 20.175 49.5312 19.8165L48.2479 18.5331L46.9645 19.8165Z" fill="#4A4F54"/>
<path id="Vector_6" d="M22.7694 20.8732C19.7497 20.8732 17.2962 23.3078 17.2962 26.3086C17.5604 33.4992 27.9594 33.4992 28.2237 26.3086C28.2237 23.3078 25.7702 20.8732 22.7694 20.8732ZM22.7694 33.537C18.7494 33.537 15.4844 30.2908 15.4844 26.2897C15.8807 16.6834 29.658 16.6834 30.0543 26.2897C30.0543 30.2908 26.7893 33.537 22.7694 33.537Z" fill="#4A4F54"/>
<path id="Vector_7" d="M25.336 28.8565C24.9774 29.2151 24.4112 29.2151 24.0526 28.8565L22.7693 27.5731L21.4859 28.8565C21.1273 29.2151 20.5611 29.2151 20.2025 28.8565C19.8439 28.4979 19.8439 27.9317 20.2025 27.5731L21.4859 26.2898L20.2025 25.0064C19.8439 24.6478 19.8439 24.0816 20.2025 23.723C20.5611 23.3645 21.1273 23.3645 21.4859 23.723L22.7693 25.0064L24.0526 23.723C24.4112 23.3645 24.9774 23.3645 25.336 23.723C25.6946 24.0816 25.6946 24.6478 25.336 25.0064L24.0526 26.2898L25.336 27.5731C25.6946 27.9317 25.6946 28.4979 25.336 28.8565Z" fill="#4A4F54"/>
<path id="Vector_8" d="M30.9795 35.2738C34.1502 32.9146 37.4341 30.4989 38.0758 27.1584C38.7741 23.6102 34.471 17.0047 31.6401 13.2678L31.3381 16.4196C31.206 17.6086 29.4319 17.4388 29.5263 16.2498L30.0547 10.8521C30.0925 10.7388 30.1114 10.6256 30.1491 10.5124C30.319 10.1915 30.6776 9.98393 31.0361 10.0405L36.4716 10.569C37.6606 10.7011 37.4907 12.4563 36.3017 12.3808L32.9801 12.06C35.5279 15.4194 40.7557 22.9497 39.8498 27.5358C39.0572 31.5558 35.4902 34.198 32.0364 36.7647C29.0922 38.954 26.299 41.0112 25.5818 43.6722C23.77 50.4099 33.2632 59.0915 33.3575 59.167C34.2257 59.9597 33.0178 61.2996 32.1308 60.507C31.6967 60.1295 21.7129 50.995 23.8267 43.2004C24.7137 39.9354 27.8844 37.5763 30.9418 35.2926L30.9795 35.2738Z" fill="#EF4A26"/>
<path id="Vector_9" d="M46.4368 35.3489V34.443H45.5309C45.0213 34.443 44.625 34.0277 44.625 33.5371C44.625 33.0464 45.0402 32.6311 45.5309 32.6311H46.4368V31.7252C46.4368 31.2345 46.852 30.8193 47.3427 30.8193C47.8334 30.8193 48.2486 31.2157 48.2486 31.7252V32.6311H49.1545C49.6641 32.6311 50.0604 33.0275 50.0604 33.5371C50.0604 34.0466 49.6452 34.443 49.1545 34.443H48.2486V35.3489C48.2297 36.5379 46.4368 36.5379 46.4368 35.3489Z" fill="#EF4A26"/>
<path id="Vector_10" d="M18.2218 56.1849H19.1277V55.279C19.1277 54.7883 19.5429 54.373 20.0336 54.373C20.5243 54.373 20.9395 54.7694 20.9395 55.279V56.1849H21.8454C22.355 56.1849 22.7513 56.5812 22.7513 57.0908C22.7513 57.6003 22.3361 57.9967 21.8454 57.9967H20.9395V58.9026C20.9395 59.4121 20.5243 59.8085 20.0336 59.8085C19.5429 59.8085 19.1277 59.4121 19.1277 58.9026V57.9967H18.2218C17.0328 57.9778 17.0328 56.2037 18.2218 56.1849Z" fill="#EF4A26"/>
<path id="Vector_11" d="M16.3917 39.8782H17.2977V38.9723C17.2977 38.4816 17.7129 38.0664 18.2036 38.0664C18.6943 38.0664 19.1095 38.4627 19.1095 38.9723V39.8782H20.0154C20.5249 39.8782 20.9213 40.2745 20.9213 40.7841C20.9213 41.2937 20.5061 41.69 20.0154 41.69H19.1095V42.5959C19.1095 43.0866 18.6943 43.5018 18.2036 43.5018C17.7129 43.5018 17.2977 43.0866 17.2977 42.5959V41.69H16.3917C15.2028 41.6712 15.2028 39.8971 16.3917 39.8782Z" fill="#EF4A26"/>
</g>
<defs>
<clipPath id="clip0_1896_8004">
<rect width="70" height="70" fill="white" transform="translate(0.5)"/>
</clipPath>
</defs>
</svg>
