<svg width="71" height="70" viewBox="0 0 71 70" fill="none" xmlns="http://www.w3.org/2000/svg">
<g id="Layer_1" clip-path="url(#clip0_1896_8184)">
<path id="Vector" d="M48.6568 66.4347C66.0157 59.2444 74.2589 39.3434 67.0687 21.9845C59.8784 4.62564 39.9774 -3.61763 22.6185 3.57265C5.25964 10.7629 -2.98363 30.6639 4.20665 48.0228C11.3969 65.3817 31.2979 73.6249 48.6568 66.4347Z" stroke="#4B4F55" stroke-width="1.11"/>
<g id="Group">
<path id="Vector_2" d="M42.3582 46.3729C41.4936 46.3729 40.6642 46.2141 39.8702 45.8965C39.3937 45.7024 38.9526 45.473 38.5468 45.173C37.1175 45.8259 35.5294 46.1964 33.853 46.1964C27.6594 46.1964 22.6304 41.1851 22.6304 34.9915C22.6304 28.7979 27.6594 23.7866 33.853 23.7866C39.6231 23.7866 44.3698 28.145 45.005 33.7387C45.7461 34.0739 46.4343 34.5327 47.0166 35.115C47.9166 36.0149 48.5341 37.1266 48.7988 38.3618C49.0106 39.35 48.9929 40.3558 48.7635 41.3263L49.3106 41.8733L53.2632 41.9439C53.7396 40.1793 53.669 40.4263 54.1454 38.6618L50.2811 36.5267V33.474L54.1454 31.3389C53.669 29.5919 53.7396 29.8213 53.2632 28.0568L48.8341 28.1274C48.1459 26.9451 47.9871 26.6628 47.299 25.4805L49.5752 21.6867C48.2871 20.3986 48.4636 20.5751 47.1754 19.2869L43.3816 21.5632C42.1994 20.875 41.9171 20.7162 40.7348 20.028L40.8054 15.6167C39.0408 15.1402 39.2879 15.2108 37.5233 14.7344L35.3706 18.5988H32.3179L30.1651 14.7344C28.4005 15.2108 28.6476 15.1402 26.883 15.6167L26.9536 20.028C25.7714 20.7162 25.489 20.875 24.3068 21.5632L20.513 19.2869C19.2248 20.5751 19.4013 20.3986 18.1132 21.6867L20.3895 25.4805C19.7013 26.6628 19.5425 26.9451 18.8543 28.1274L14.4252 28.0568C13.9488 29.8213 14.0194 29.5743 13.543 31.3389L17.4074 33.474V36.5267L13.543 38.6618C14.0194 40.4263 13.9488 40.1793 14.4252 41.9439L18.8543 41.8733C19.5425 43.0555 19.7013 43.3379 20.3895 44.5201L18.1132 48.3139C19.4013 49.602 19.2248 49.4256 20.513 50.7137L24.3068 48.4374C25.489 49.1256 25.7714 49.2844 26.9536 49.9726L26.883 54.384C28.6476 54.8604 28.4005 54.7898 30.1651 55.2663L32.3179 51.4019H35.3706L37.5233 55.2663C39.2879 54.7898 39.0408 54.8604 40.8054 54.384L40.7348 49.9726C41.9171 49.2844 42.1994 49.1256 43.3816 48.4374L47.1754 50.7137C47.4225 50.4667 47.6342 50.2549 47.793 50.0961L43.8934 46.1964C43.3816 46.32 42.8699 46.3729 42.3405 46.3729" fill="#4A4F54"/>
<path id="Vector_3" d="M56.9848 50.9789L47.6503 41.6267C48.3384 39.6681 47.8973 37.4094 46.3445 35.8566C44.6858 34.1979 42.2507 33.8097 40.2391 34.6744L43.7859 38.2388L40.892 41.1503L37.3453 37.6035C36.4806 39.6328 36.8688 42.0679 38.5275 43.7265C40.0803 45.2793 42.339 45.7205 44.28 45.0323L53.6145 54.3845C54.5497 55.3197 56.0672 55.3197 57.0024 54.3845C57.9376 53.4493 57.9376 51.9141 57.0024 50.9789" fill="#EF4A26"/>
</g>
<path id="Vector_4" d="M26.8813 39.5082V32.7676H28.4165V30.8266H26.8813V28.9385H25.7344V30.8266H24.1992V32.7676H25.7344V39.5082H26.8813Z" fill="#EF4A26"/>
<path id="Vector_5" d="M30.7446 39.5082V37.9201H32.2798V35.9791H30.7446V28.9385H29.6153V35.9791H28.0625V37.9201H29.6153V39.5082H30.7446Z" fill="#EF4A26"/>
<path id="Vector_6" d="M34.6274 39.5082V34.0557H36.1626V32.1147H34.6274V28.9385H33.4981V32.1147H31.9453V34.0557H33.4981V39.5082H34.6274Z" fill="#EF4A26"/>
</g>
<defs>
<clipPath id="clip0_1896_8184">
<rect width="70" height="70" fill="white" transform="translate(0.625)"/>
</clipPath>
</defs>
</svg>
