<svg width="71" height="70" viewBox="0 0 71 70" fill="none" xmlns="http://www.w3.org/2000/svg">
<g id="Layer_1" clip-path="url(#clip0_1896_6661)">
<path id="Vector" d="M64.6939 37.8506C66.2749 21.8702 54.6018 7.6338 38.6213 6.05282C22.6409 4.47184 8.40453 16.1449 6.82355 32.1254C5.24257 48.1058 16.9157 62.3422 32.8961 63.9232C48.8766 65.5041 63.1129 53.8311 64.6939 37.8506Z" stroke="#4B4F55" stroke-width="1.11"/>
<path id="Vector_2" d="M35.7631 39.4854L29.8477 49.7324H41.6625L35.7631 39.4854Z" fill="#F04C24"/>
<path id="Vector_3" d="M23.3178 33.3916L29.2333 23.1445H17.4023L23.3178 33.3916Z" fill="#F04C24"/>
<path id="Vector_4" d="M48.1928 33.3916L54.1083 23.1445H42.2773L48.1928 33.3916Z" fill="#F04C24"/>
<path id="Vector_5" d="M51.375 33.7314H20.1328V39.1459H51.375V33.7314Z" fill="#4B4F55"/>
<path id="Vector_6" d="M35.7315 7.64517C20.6518 7.64517 8.36826 19.9125 8.36826 35.0084C8.36826 50.1042 20.6356 62.3716 35.7315 62.3716C50.8273 62.3716 63.0947 50.1042 63.0947 35.0084C63.0947 19.9125 50.8273 7.64517 35.7315 7.64517ZM35.7315 65.9273C18.68 65.9273 4.8125 52.0598 4.8125 35.0084C4.8125 17.9569 18.68 4.07324 35.7315 4.07324C52.7829 4.07324 66.6504 17.9407 66.6504 34.9922C66.6504 52.0437 52.7829 65.9111 35.7315 65.9111" fill="#4B4F55"/>
<path id="Vector_7" d="M37.5245 0H33.9688V11.7663H37.5245V0Z" fill="#4B4F55"/>
<path id="Vector_8" d="M37.5245 58.2334H33.9688V69.9997H37.5245V58.2334Z" fill="#4B4F55"/>
<path id="Vector_9" d="M70.7546 33.2139H58.9883V36.7696H70.7546V33.2139Z" fill="#4B4F55"/>
<path id="Vector_10" d="M12.5202 33.2139H0.753906V36.7696H12.5202V33.2139Z" fill="#4B4F55"/>
</g>
<defs>
<clipPath id="clip0_1896_6661">
<rect width="70" height="70" fill="white" transform="translate(0.753906)"/>
</clipPath>
</defs>
</svg>
