<svg width="71" height="70" viewBox="0 0 71 70" fill="none" xmlns="http://www.w3.org/2000/svg">
<g id="Layer_1" clip-path="url(#clip0_1896_7964)">
<path id="Vector" d="M53.0853 63.8766C69.0358 54.0177 73.974 33.095 64.1151 17.1444C54.2562 1.19391 33.3335 -3.7443 17.3829 6.11463C1.43241 15.9736 -3.5058 36.8963 6.35314 52.8468C16.2121 68.7973 37.1348 73.7355 53.0853 63.8766Z" stroke="#4B4F55" stroke-width="1.11"/>
<path id="Vector_2" d="M23.8368 46.7865C23.5348 46.7865 23.2517 46.6733 23.0253 46.4468C22.5723 45.9938 22.5723 45.2767 23.0253 44.8237L30.0083 37.8407C30.4612 37.3877 31.1784 37.3877 31.6314 37.8407C32.0654 38.2936 32.0654 39.0108 31.6314 39.4638L24.6483 46.4468C24.4219 46.6733 24.1388 46.7865 23.8368 46.7865Z" fill="#4A4F54"/>
<path id="Vector_3" d="M32.9522 53.6369H14.702C14.0792 53.6369 13.5508 53.1273 13.5508 52.5045V41.0863C13.5508 40.7843 13.664 40.5012 13.8905 40.2748L22.0059 32.1594C22.6853 31.4799 23.629 31.1214 24.5726 31.1591C25.5351 31.1969 26.441 31.6498 27.045 32.3859L30.8762 36.972L38.7085 29.1397C39.3879 28.4603 40.3505 28.1017 41.313 28.1394C42.2755 28.196 43.1814 28.649 43.7853 29.4039L49.6171 36.5757C50.0134 37.0664 49.9379 37.7835 49.4473 38.1799C48.9566 38.5762 48.2394 38.5007 47.843 38.01L42.0113 30.8383C41.8037 30.5929 41.5206 30.4419 41.1809 30.4231C40.86 30.4042 40.5392 30.5174 40.3127 30.7628L31.5934 39.4821C31.3669 39.7086 31.0649 39.8218 30.7441 39.8218C30.4233 39.8218 30.1213 39.652 29.9137 39.4066L25.2898 33.8579C25.0822 33.6126 24.7802 33.4616 24.4594 33.4427C24.1197 33.4427 23.8366 33.5371 23.6101 33.7825L15.8155 41.577V51.3721H32.9334C33.5562 51.3721 34.0657 51.8817 34.0657 52.5045C34.0657 53.1273 33.5562 53.6369 32.9334 53.6369" fill="#4A4F54"/>
<path id="Vector_4" d="M21.5537 20.93H37.6901C37.5203 20.496 37.2561 20.0996 36.8975 19.7599C36.2558 19.156 35.4065 18.8351 34.5384 18.8918L24.6489 19.4202C24.2337 19.4391 23.8374 19.2315 23.6109 18.8729L21.667 15.6267H19.4399L21.5726 20.9489L21.5537 20.93ZM39.049 23.1948H20.7799C20.3081 23.1948 19.8929 22.9117 19.723 22.4776L16.6845 14.8718C16.5524 14.5132 16.5901 14.1169 16.7977 13.8149C17.0053 13.4941 17.3639 13.3242 17.7414 13.3242H22.3086C22.705 13.3242 23.0824 13.5318 23.29 13.8715L25.2151 17.0799L34.4251 16.5892C35.935 16.5138 37.3882 17.0422 38.4828 18.0802C39.5774 19.1182 40.1814 20.5337 40.1814 22.0436C40.1814 22.6852 39.6718 23.1759 39.049 23.1759" fill="#4A4F54"/>
<path id="Vector_5" d="M25.0635 25.4784H27.215L29.8761 23.1948H27.3471L25.0635 25.4784ZM27.6302 27.762H22.3081C21.8551 27.762 21.4399 27.4789 21.2512 27.0637C21.0813 26.6297 21.1757 26.139 21.4965 25.8181L26.0638 21.2508C26.2714 21.0432 26.5734 20.9111 26.8753 20.9111H32.9713C33.4431 20.9111 33.8772 21.2131 34.0471 21.6661C34.2169 22.119 34.0848 22.6097 33.7262 22.9305L28.404 27.4978C28.1964 27.6865 27.9322 27.7809 27.668 27.7809" fill="#4A4F54"/>
<path id="Vector_6" d="M14.702 36.142C14.0792 36.142 13.5508 35.6325 13.5508 35.0097V34.1981C13.5508 33.5753 14.0604 33.0469 14.702 33.0469C15.3437 33.0469 15.8344 33.5564 15.8344 34.1981V35.0097C15.8344 35.6325 15.3248 36.142 14.702 36.142Z" fill="#4A4F54"/>
<path id="Vector_7" d="M14.702 31.2163C14.0792 31.2163 13.5508 30.7067 13.5508 30.0839V29.2723C13.5508 28.6495 14.0604 28.1211 14.702 28.1211C15.3437 28.1211 15.8344 28.6307 15.8344 29.2723V30.0839C15.8344 30.7067 15.3248 31.2163 14.702 31.2163Z" fill="#4A4F54"/>
<path id="Vector_8" d="M14.702 26.3087C14.0792 26.3087 13.5508 25.7992 13.5508 25.1763V24.3648C13.5508 23.742 14.0604 23.2324 14.702 23.2324C15.3437 23.2324 15.8344 23.742 15.8344 24.3648V25.1763C15.8344 25.7992 15.3248 26.3087 14.702 26.3087Z" fill="#4A4F54"/>
<path id="Vector_9" d="M51.1467 49.2772C51.5808 48.8243 52.298 48.7865 52.7698 49.2206C53.2227 49.6547 53.2605 50.3719 52.8264 50.8248L50.5428 53.2594C50.3352 53.4859 50.0332 53.618 49.7124 53.618C49.3915 53.618 49.0896 53.4859 48.8819 53.2594L46.5983 50.8248C46.1642 50.3719 46.1831 49.6358 46.6549 49.2206C47.1079 48.7865 47.8439 48.8054 48.278 49.2772L48.58 49.6169V43.219L48.278 43.5398C47.8439 43.9928 47.1268 44.0305 46.6549 43.5964C46.202 43.1624 46.1642 42.4452 46.5983 41.9922L48.8819 39.5576C49.316 39.1047 50.1087 39.1047 50.5428 39.5576L52.8264 41.9922C53.2605 42.4452 53.2416 43.1812 52.7698 43.5964C52.5433 43.804 52.2602 43.8984 51.996 43.8984C51.694 43.8984 51.3921 43.7852 51.1656 43.5398L50.8636 43.219V49.6169L51.1656 49.2772H51.1467ZM42.8615 42.2187H41.3327C40.7099 42.2187 40.1815 41.7091 40.1815 41.0863C40.1815 40.4635 40.6911 39.954 41.3327 39.954H42.8615C43.4843 39.954 44.0127 40.4635 44.0127 41.0863C44.0127 41.7091 43.5031 42.2187 42.8615 42.2187ZM42.8615 45.7668H41.3327C40.7099 45.7668 40.1815 45.2573 40.1815 44.6345C40.1815 44.0116 40.6911 43.5021 41.3327 43.5021H42.8615C43.4843 43.5021 44.0127 44.0116 44.0127 44.6345C44.0127 45.2573 43.5031 45.7668 42.8615 45.7668ZM42.8615 49.3338H41.3327C40.7099 49.3338 40.1815 48.8243 40.1815 48.2015C40.1815 47.5786 40.6911 47.0691 41.3327 47.0691H42.8615C43.4843 47.0691 44.0127 47.5786 44.0127 48.2015C44.0127 48.8243 43.5031 49.3338 42.8615 49.3338ZM42.8615 52.882H41.3327C40.7099 52.882 40.1815 52.3724 40.1815 51.7496C40.1815 51.1268 40.6911 50.5983 41.3327 50.5983H42.8615C43.4843 50.5983 44.0127 51.1079 44.0127 51.7496C44.0127 52.3913 43.5031 52.882 42.8615 52.882ZM55.7895 36.1416H37.5204C36.8976 36.1416 36.3691 36.6512 36.3691 37.2929V55.5619C36.3691 56.1847 36.8787 56.6943 37.5204 56.6943H55.7895C56.4123 56.6943 56.9219 56.1847 56.9219 55.5619V37.2929C56.9219 36.6512 56.4123 36.1416 55.7895 36.1416Z" fill="#EF4A26"/>
</g>
<defs>
<clipPath id="clip0_1896_7964">
<rect width="70" height="70" fill="white" transform="translate(0.246094)"/>
</clipPath>
</defs>
</svg>
