<svg width="71" height="70" viewBox="0 0 71 70" fill="none" xmlns="http://www.w3.org/2000/svg">
<g id="Layer_1" clip-path="url(#clip0_1896_8026)">
<path id="Vector" d="M35.2358 68.9432C53.9872 68.9432 69.1883 53.7421 69.1883 34.9906C69.1883 16.2392 53.9872 1.03809 35.2358 1.03809C16.4843 1.03809 1.2832 16.2392 1.2832 34.9906C1.2832 53.7421 16.4843 68.9432 35.2358 68.9432Z" stroke="#4B4F55" stroke-width="1.11"/>
<path id="Vector_2" d="M21.7983 31.7636H20.8736C20.666 31.7636 20.4961 31.5937 20.4961 31.3672V30.1971C20.4961 29.9895 20.666 29.8008 20.8736 29.8008H24.6859C24.8935 29.8008 25.0634 29.9706 25.0634 30.1971V31.3672C25.0634 31.5748 24.8935 31.7636 24.6859 31.7636H23.7611V33.1036C23.4403 33.0658 23.1194 33.0469 22.7797 33.0469C22.44 33.0469 22.1192 33.0658 21.7983 33.1036V31.7636Z" fill="#4A4F54"/>
<path id="Vector_3" d="M43.9929 34.1605C44.7478 31.6882 45.163 29.046 45.2007 26.3282H41.5582L49.2207 18.9678L56.8831 26.3282H53.5803C53.5237 41.4455 41.5771 53.713 26.875 53.713C25.1576 53.713 23.459 53.5431 21.8359 53.2223C24.7424 52.8448 27.5167 51.9955 30.0457 50.731C30.1967 50.7688 30.3477 50.7877 30.4987 50.7877H32.9521C34.0468 50.7877 34.9527 49.9006 34.9527 48.7871C34.9527 47.4094 36.6135 46.73 37.576 47.6925C38.3498 48.4852 39.6143 48.4852 40.3881 47.6925L42.1244 45.9373C42.8982 45.1635 42.8982 43.8801 42.1244 43.1064C41.1619 42.125 41.8413 40.4641 43.2191 40.4641C44.3326 40.4641 45.2196 39.5582 45.2196 38.4636V35.9912C45.2196 35.1608 44.71 34.4436 43.9929 34.1417" fill="#4A4F54"/>
<path id="Vector_4" d="M22.875 28.6307L23.8753 27.6305C24.1961 27.3096 24.7057 27.3096 25.0077 27.6305C26.7251 29.3479 29.6504 28.1212 29.6504 25.6865C29.6504 25.2336 30.009 24.875 30.462 24.875H32.9154C33.3684 24.875 33.727 25.2336 33.727 25.6865C33.727 28.1212 36.6523 29.3479 38.3697 27.6305C38.6906 27.3096 39.2002 27.3096 39.521 27.6305L41.2573 29.3856C41.5782 29.7065 41.5782 30.2161 41.2573 30.5369C39.5399 32.2543 40.7666 35.1985 43.1824 35.1985C43.6353 35.1985 43.9939 35.5571 43.9939 36.0101V38.4824C43.9939 38.9354 43.6353 39.294 43.1824 39.294C40.7666 39.294 39.5399 42.2382 41.2573 43.9556C41.5782 44.2765 41.5782 44.786 41.2573 45.1069L39.521 46.8432C39.2002 47.164 38.6906 47.164 38.3697 46.8432C36.6523 45.1257 33.727 46.3525 33.727 48.7871C33.727 49.2401 33.3684 49.5986 32.9154 49.5986H30.462C30.009 49.5986 29.6504 49.2401 29.6504 48.7871C29.6504 47.5981 28.9521 46.7111 28.0462 46.2959C28.8766 45.5032 29.5183 44.5218 29.9335 43.4272C30.4997 43.597 31.0848 43.6725 31.6887 43.6725C35.2179 43.6725 38.1055 40.7849 38.1055 37.2368C38.1055 33.6887 35.2179 30.8011 31.6887 30.8011C29.3862 30.8011 27.3479 32.0279 26.2344 33.8774C25.8003 33.651 25.3662 33.4811 24.8944 33.349C24.8944 33.2735 24.9133 33.198 24.9133 33.1036V32.9338C25.6493 32.8017 26.2344 32.16 26.2344 31.3673V30.1972C26.2344 29.329 25.5361 28.6119 24.6679 28.6119H22.875V28.6307Z" fill="#EF4A26"/>
<path id="Vector_5" d="M27.4609 34.6513L28.3857 33.7265C28.5367 33.5755 28.782 33.5755 28.933 33.7265L29.7634 34.5569C29.9144 34.7079 29.9144 34.9533 29.7634 35.1042L28.8387 36.0479C28.4423 35.5195 27.9705 35.0665 27.4609 34.6513Z" fill="#4A4F54"/>
<path id="Vector_6" d="M16.7223 36.0287L15.8164 35.1228C15.6654 34.9718 15.6654 34.7265 15.8164 34.5755L16.6468 33.7451C16.7978 33.5941 17.0431 33.5941 17.1941 33.7451L18.1 34.651C17.5904 35.0473 17.1186 35.5191 16.7223 36.0476" fill="#4A4F54"/>
<path id="Vector_7" d="M26.0074 38.3308L23.9125 40.4446C23.9125 40.4446 23.9502 40.6333 23.9502 40.7277C23.9502 41.3694 23.4218 41.8978 22.7801 41.8978C22.1384 41.8978 21.61 41.3694 21.61 40.7277C21.61 40.086 22.1384 39.5575 22.7801 39.5575C22.8744 39.5575 22.9877 39.5575 23.0632 39.5953L25.1581 37.5004C25.3846 37.2739 25.762 37.2739 26.0074 37.5004C26.2527 37.7269 26.2338 38.1043 26.0074 38.3497M22.7801 34.2354C19.2131 34.2354 16.3066 37.1607 16.3066 40.7465C16.3066 44.3324 19.2131 47.2577 22.7801 47.2577C26.3471 47.2577 29.2535 44.3324 29.2535 40.7465C29.2535 37.1607 26.3471 34.2354 22.7801 34.2354Z" fill="#4A4F54"/>
</g>
<defs>
<clipPath id="clip0_1896_8026">
<rect width="70" height="70" fill="white" transform="translate(0.246094)"/>
</clipPath>
</defs>
</svg>
