<svg width="71" height="70" viewBox="0 0 71 70" fill="none" xmlns="http://www.w3.org/2000/svg">
<g id="Layer_1" clip-path="url(#clip0_1896_7371)">
<path id="Vector" d="M66.737 47.995C73.9129 30.6709 65.6861 10.8098 48.362 3.6339C31.0379 -3.54197 11.1768 4.68478 4.00089 22.0089C-3.17499 39.333 5.05178 59.1942 22.3759 66.37C39.7 73.5459 59.5611 65.3191 66.737 47.995Z" stroke="#4B4F55" stroke-width="1.11"/>
<path id="Vector_2" d="M43.4965 31.3855L35.3622 17.1553L27.2279 31.3855C26.0578 33.3294 24.0195 38.0288 24.0195 40.5201C24.0195 47.3332 29.0964 52.8441 35.3811 52.8441C41.6658 52.8441 46.7426 47.3332 46.7426 40.5201C46.7426 38.0288 44.6855 33.3294 43.5154 31.3855" fill="#EF4A26"/>
</g>
<defs>
<clipPath id="clip0_1896_7371">
<rect width="70" height="70" fill="white" transform="translate(0.371094)"/>
</clipPath>
</defs>
</svg>
