<svg width="71" height="70" viewBox="0 0 71 70" fill="none" xmlns="http://www.w3.org/2000/svg">
<g id="Layer_1" clip-path="url(#clip0_1896_7983)">
<path id="Vector" d="M35.7436 68.9432C54.495 68.9432 69.6961 53.7421 69.6961 34.9906C69.6961 16.2392 54.495 1.03809 35.7436 1.03809C16.9921 1.03809 1.79102 16.2392 1.79102 34.9906C1.79102 53.7421 16.9921 68.9432 35.7436 68.9432Z" stroke="#4B4F55" stroke-width="1.11"/>
<path id="Vector_2" d="M50.1829 34.1604C46.8613 34.1604 44.1813 31.4616 44.1813 28.1588C44.1813 24.856 46.8801 22.1572 50.1829 22.1572C53.4857 22.1572 56.1845 24.856 56.1845 28.1588C56.1845 31.4616 53.5046 34.1604 50.1829 34.1604ZM60.4687 25.9884H58.4115C58.2039 25.2146 57.902 24.4786 57.4868 23.7992L58.94 22.3648L55.9203 19.3451L54.486 20.7983C53.8065 20.3831 53.0705 20.0812 52.2967 19.8736V17.8164H48.0314V19.8736C47.2576 20.0812 46.5215 20.3831 45.8421 20.7983L44.3889 19.3451L41.3692 22.3648L42.8036 23.7992C42.8036 23.7992 42.7281 23.9313 42.6903 23.9879C42.3317 24.6107 42.0675 25.309 41.8977 25.9884H39.8594V30.2537H41.8977C42.1053 31.0086 42.4072 31.7636 42.8224 32.443L41.3881 33.8962L44.4078 36.9159L45.8421 35.4627C46.5215 35.8779 47.2576 36.1798 48.0314 36.3875V38.4257H52.2967V36.3875C52.5232 36.312 52.7496 36.2553 52.9761 36.1798C53.5046 35.9911 54.0141 35.7646 54.486 35.4627L55.9392 36.9159L58.9589 33.8962L57.5245 32.443C57.9397 31.7636 58.2417 31.0275 58.4493 30.2537H58.4304L60.4876 30.2348V25.9695L60.4687 25.9884Z" fill="#EF4A26"/>
<path id="Vector_3" d="M37.1602 25.2334H28.7617V32.726H37.1602V25.2334Z" fill="#4A4F54"/>
<path id="Vector_4" d="M26.7427 25.2334H19.4766V32.726H26.7427V25.2334Z" fill="#EF4A26"/>
<path id="Vector_5" d="M34.7071 34.6318H19.4766V40.1616H34.7071V34.6318Z" fill="#4A4F54"/>
<path id="Vector_6" d="M54.9377 36.6699V42.445C54.9377 44.5022 53.2768 46.163 51.2197 46.163H40.0091V49.1261H43.1043C43.9913 49.1261 44.7085 49.8433 44.7085 50.7303V52.1835H26.3073V50.7303C26.3073 49.8433 27.0245 49.1261 27.9115 49.1261H31.0067V46.163H19.7961C17.7578 46.163 16.0781 44.5022 16.0781 42.445V23.2512C16.0781 21.194 17.739 19.5332 19.7961 19.5332H43.444L40.613 22.3642L42.1418 23.8929C42.1418 23.8929 42.104 23.9495 42.0851 24.0061H17.9843V41.8222H52.9937V36.7643C53.4844 36.6133 53.9563 36.4057 54.4092 36.1603L54.9188 36.6699H54.9377Z" fill="#4A4F54"/>
</g>
<defs>
<clipPath id="clip0_1896_7983">
<rect width="70" height="70" fill="white" transform="translate(0.753906)"/>
</clipPath>
</defs>
</svg>
