<svg width="71" height="70" viewBox="0 0 71 70" fill="none" xmlns="http://www.w3.org/2000/svg">
<g id="Layer_1" clip-path="url(#clip0_1896_4890)">
<path id="Vector" d="M35.7629 69.0296C54.552 69.0296 69.7835 53.7981 69.7835 35.009C69.7835 16.2199 54.552 0.988281 35.7629 0.988281C16.9738 0.988281 1.74219 16.2199 1.74219 35.009C1.74219 53.7981 16.9738 69.0296 35.7629 69.0296Z" stroke="#4B4F55" stroke-width="1.11"/>
<path id="Vector_2" d="M17.1108 41.4667C17.3579 41.7137 17.3579 42.1196 17.1108 42.3666C16.8638 42.6136 16.4579 42.6136 16.2109 42.3666C14.2522 40.4079 13.1582 37.7611 13.1582 35.0084C13.1582 32.2557 14.2522 29.5912 16.2109 27.6325C16.4579 27.3855 16.8638 27.3855 17.1108 27.6325C17.3579 27.8796 17.3579 28.2854 17.1108 28.5325C15.3815 30.2617 14.4287 32.5557 14.4287 34.9907C14.4287 37.4258 15.3815 39.7198 17.1108 41.449" fill="#EF4A26"/>
<path id="Vector_3" d="M38.4798 32.5028V37.4965C38.4798 37.62 38.374 37.7259 38.2504 37.7259H33.2567C33.1332 37.7259 33.0273 37.62 33.0273 37.4965V32.5028C33.0273 32.3793 33.1332 32.2734 33.2567 32.2734H38.2504C38.374 32.2734 38.4798 32.3793 38.4798 32.5028Z" fill="#EF4A26"/>
<path id="Vector_4" d="M40.5099 34.3555C40.8628 34.3555 41.1451 34.6378 41.1451 34.9907C41.1451 35.3436 40.8628 35.626 40.5099 35.626H39.7688V37.0376H40.5099C40.8628 37.0376 41.1451 37.3199 41.1451 37.6728C41.1451 38.0258 40.8628 38.3081 40.5099 38.3081H39.5041C39.3982 38.4669 39.2571 38.6081 39.0983 38.7139V39.7197C39.0983 40.0726 38.8159 40.355 38.4454 40.355C38.0748 40.355 37.8101 40.0726 37.8101 39.7197V38.9786H36.3985V39.7197C36.3985 40.0726 36.1162 40.355 35.7632 40.355C35.4103 40.355 35.128 40.0726 35.128 39.7197V38.9786H33.7164V39.7197C33.7164 40.0726 33.434 40.355 33.0811 40.355C32.7282 40.355 32.4459 40.0726 32.4459 39.7197V38.7139C32.2871 38.6081 32.1459 38.4669 32.04 38.3081H31.0342C30.6813 38.3081 30.3813 38.0258 30.3813 37.6728C30.3813 37.3199 30.6637 37.0376 31.0342 37.0376H31.7753V35.626H31.0342C30.6813 35.626 30.3813 35.3436 30.3813 34.9907C30.3813 34.6378 30.6637 34.3555 31.0342 34.3555H31.7753V32.9438H31.0342C30.6813 32.9438 30.3813 32.6615 30.3813 32.3086C30.3813 31.9557 30.6637 31.6734 31.0342 31.6734H32.04C32.1459 31.5145 32.2871 31.3734 32.4459 31.2675V30.2617C32.4459 29.9088 32.7282 29.6265 33.0811 29.6265C33.434 29.6265 33.7164 29.9088 33.7164 30.2617V31.0028H35.128V30.2617C35.128 29.9088 35.4103 29.6265 35.7632 29.6265C36.1162 29.6265 36.3985 29.9088 36.3985 30.2617V31.0028H37.8101V30.2617C37.8101 29.9088 38.0925 29.6265 38.4454 29.6265C38.7983 29.6265 39.0983 29.9088 39.0983 30.2617V31.2675C39.2571 31.3734 39.3982 31.5145 39.5041 31.6734H40.5099C40.8628 31.6734 41.1451 31.9557 41.1451 32.3086C41.1451 32.6615 40.8628 32.9438 40.5099 32.9438H39.7688V34.3555H40.5099ZM42.2039 26.9443H29.305C28.4227 26.9443 27.6992 27.6678 27.6992 28.5501V41.449C27.6992 42.3313 28.4227 43.0547 29.305 43.0547H42.2039C43.0862 43.0547 43.8096 42.3313 43.8096 41.449V28.5501C43.8096 27.6678 43.0862 26.9443 42.2039 26.9443Z" fill="#4A4F54"/>
<path id="Vector_5" d="M42.2206 53.6423C42.4676 53.3953 42.8735 53.3953 43.1205 53.6423C43.3675 53.8893 43.3675 54.2952 43.1205 54.5422C41.1618 56.5009 38.515 57.5949 35.7623 57.5949C33.0096 57.5949 30.3451 56.5009 28.3865 54.5422C28.1394 54.2952 28.1394 53.8893 28.3865 53.6423C28.6335 53.3953 29.0393 53.3953 29.2864 53.6423C31.0156 55.3716 33.3096 56.3244 35.7447 56.3244C38.1797 56.3244 40.4737 55.3716 42.2029 53.6423" fill="#EF4A26"/>
<path id="Vector_6" d="M37.863 49.4075C38.11 48.984 38.5159 48.984 38.7629 49.4075C39.0099 49.831 39.0099 50.5015 38.7629 50.925C37.9865 52.2131 36.9278 53.0072 35.7632 53.0072C34.5985 53.0072 33.5575 52.2484 32.7634 50.925C32.5164 50.5015 32.5164 49.831 32.7634 49.4075C33.0104 48.984 33.4163 48.984 33.6633 49.4075C34.228 50.3603 34.9691 50.8544 35.7632 50.8544C36.5572 50.8544 37.3336 50.3074 37.863 49.4075Z" fill="#EF4A26"/>
<path id="Vector_7" d="M30.5759 52.6012C31.9523 54.2599 33.8227 55.1951 35.7637 55.1951C37.7047 55.1951 39.5751 54.2599 40.9515 52.6012C41.1985 52.3013 41.1985 51.8072 40.9515 51.5072C40.7045 51.2072 40.2986 51.2072 40.0516 51.5072C38.9046 52.8836 37.3871 53.6423 35.7637 53.6423C34.1403 53.6423 32.6228 52.8836 31.4758 51.5072C31.2288 51.2072 30.8229 51.2072 30.5759 51.5072C30.3289 51.8072 30.3289 52.3013 30.5759 52.6012Z" fill="#EF4A26"/>
<path id="Vector_8" d="M54.3962 28.5325C54.1492 28.2854 54.1492 27.8796 54.3962 27.6325C54.6433 27.3855 55.0491 27.3855 55.2961 27.6325C57.2548 29.5912 58.3488 32.238 58.3488 35.0084C58.3488 37.7788 57.2548 40.4256 55.2961 42.3842C55.0491 42.6313 54.6433 42.6313 54.3962 42.3842C54.1492 42.1372 54.1492 41.7314 54.3962 41.4843C56.1255 39.7551 57.0783 37.4611 57.0783 35.026C57.0783 32.591 56.1255 30.297 54.3962 28.5678" fill="#EF4A26"/>
<path id="Vector_9" d="M50.1614 32.9094C49.7379 32.6624 49.7379 32.2565 50.1614 32.0095C50.5849 31.7625 51.2554 31.7625 51.6789 32.0095C52.967 32.7859 53.7611 33.8446 53.7611 35.0092C53.7611 36.1739 53.0023 37.2149 51.6789 38.009C51.2554 38.256 50.5849 38.256 50.1614 38.009C49.7379 37.762 49.7379 37.3561 50.1614 37.1091C51.0966 36.5444 51.6083 35.8033 51.6083 35.0092C51.6083 34.2152 51.0436 33.4388 50.1614 32.9094Z" fill="#EF4A26"/>
<path id="Vector_10" d="M53.3561 40.179C55.0148 38.8027 55.95 36.9323 55.95 34.9912C55.95 33.0502 55.0148 31.1798 53.3561 29.8034C53.0561 29.5564 52.5621 29.5564 52.2621 29.8034C51.9621 30.0505 51.9621 30.4563 52.2621 30.7034C53.6384 31.8503 54.3972 33.3679 54.3972 34.9912C54.3972 36.6146 53.6384 38.1322 52.2621 39.2791C51.9621 39.5262 51.9621 39.932 52.2621 40.179C52.5621 40.4261 53.0561 40.4261 53.3561 40.179Z" fill="#EF4A26"/>
<path id="Vector_11" d="M29.2864 16.3579C29.0393 16.6049 28.6335 16.6049 28.3865 16.3579C28.1394 16.1108 28.1394 15.705 28.3865 15.458C30.3451 13.4993 32.9919 12.4053 35.7447 12.4053C38.4974 12.4053 41.1618 13.4993 43.1205 15.458C43.3675 15.705 43.3675 16.1108 43.1205 16.3579C42.8735 16.6049 42.4676 16.6049 42.2206 16.3579C40.4913 14.6286 38.1974 13.6758 35.7623 13.6758C33.3272 13.6758 31.0333 14.6286 29.304 16.3579" fill="#EF4A26"/>
<path id="Vector_12" d="M33.6633 22.1632C33.4163 22.5867 33.0104 22.5867 32.7634 22.1632C32.5164 21.7397 32.5164 21.0691 32.7634 20.6457C33.5398 19.3575 34.5985 18.5635 35.7632 18.5635C36.9278 18.5635 37.9689 19.3222 38.7629 20.6457C39.0099 21.0691 39.0099 21.7397 38.7629 22.1632C38.5159 22.5867 38.11 22.5867 37.863 22.1632C37.2983 21.228 36.5572 20.7162 35.7632 20.7162C34.9691 20.7162 34.1927 21.2632 33.6633 22.1632Z" fill="#EF4A26"/>
<path id="Vector_13" d="M40.932 18.0695C39.5556 16.4108 37.6852 15.4756 35.7442 15.4756C33.8032 15.4756 31.9327 16.4108 30.5564 18.0695C30.3093 18.3695 30.3093 18.8635 30.5564 19.1635C30.8034 19.4635 31.2093 19.4635 31.4563 19.1635C32.6033 17.7872 34.1208 17.0284 35.7442 17.0284C37.3676 17.0284 38.8851 17.7872 40.032 19.1635C40.2791 19.4635 40.6849 19.4635 40.932 19.1635C41.179 18.8635 41.179 18.3695 40.932 18.0695Z" fill="#EF4A26"/>
<path id="Vector_14" d="M38.4798 32.5028V37.4965C38.4798 37.62 38.374 37.7259 38.2504 37.7259H33.2567C33.1332 37.7259 33.0273 37.62 33.0273 37.4965V32.5028C33.0273 32.3793 33.1332 32.2734 33.2567 32.2734H38.2504C38.374 32.2734 38.4798 32.3793 38.4798 32.5028Z" fill="#EF4A26"/>
<path id="Vector_15" d="M38.4798 32.5028V37.4965C38.4798 37.62 38.374 37.7259 38.2504 37.7259H33.2567C33.1332 37.7259 33.0273 37.62 33.0273 37.4965V32.5028C33.0273 32.3793 33.1332 32.2734 33.2567 32.2734H38.2504C38.374 32.2734 38.4798 32.3793 38.4798 32.5028Z" fill="#EF4A26"/>
<path id="Vector_16" d="M37.7396 44.3262H33.8223V46.2848C33.8223 46.8142 33.9458 47.3083 34.1399 47.6612C34.334 48.0141 34.6163 48.2435 34.8986 48.2435H36.6279C36.9279 48.2435 37.1926 48.0141 37.3867 47.6612C37.5808 47.3083 37.7043 46.8142 37.7043 46.2848V44.3262H37.7396Z" fill="#4A4F54"/>
<path id="Vector_17" d="M28.3158 36.9856V33.0859H26.3571C25.2807 33.0859 24.3984 33.58 24.3984 34.18V35.9092C24.3984 36.5092 25.2807 36.9856 26.3571 36.9856H28.3158Z" fill="#4A4F54"/>
<path id="Vector_18" d="M34.0684 27.5628H37.9681V25.6042C37.9681 24.5278 37.474 23.6455 36.8741 23.6455H35.1448C34.5449 23.6455 34.0508 24.5278 34.0508 25.6042V27.5628H34.0684Z" fill="#4A4F54"/>
<path id="Vector_19" d="M45.0801 33.3145V37.2318H47.0387C48.1151 37.2318 48.9974 36.7377 48.9974 36.1377V34.4085C48.9974 33.8085 48.1151 33.3145 47.0387 33.3145H45.0801Z" fill="#4A4F54"/>
<path id="Vector_20" d="M22.9161 37.0915C23.3396 37.3385 23.3396 37.7444 22.9161 37.9914C22.4926 38.2385 21.8221 38.2385 21.3986 37.9914C20.1105 37.2327 19.3164 36.1563 19.3164 34.9917C19.3164 33.8271 20.0752 32.786 21.3986 31.9919C21.8221 31.7449 22.4926 31.7449 22.9161 31.9919C23.3396 32.239 23.3396 32.6448 22.9161 32.8918C21.9809 33.4565 21.4692 34.1976 21.4692 34.9917C21.4692 35.7857 22.0162 36.5621 22.9161 37.0915Z" fill="#EF4A26"/>
<path id="Vector_21" d="M18.8224 29.821C17.1637 31.1974 16.2285 33.0678 16.2285 35.0088C16.2285 36.9498 17.1637 38.8203 18.8224 40.1966C19.1224 40.4437 19.6165 40.4437 19.9164 40.1966C20.2164 39.9496 20.2164 39.5437 19.9164 39.2967C18.5401 38.1497 17.7813 36.6322 17.7813 35.0088C17.7813 33.3854 18.5401 31.8679 19.9164 30.7209C20.2164 30.4739 20.2164 30.0681 19.9164 29.821C19.6165 29.574 19.1224 29.574 18.8224 29.821Z" fill="#EF4A26"/>
</g>
<defs>
<clipPath id="clip0_1896_4890">
<rect width="70" height="70" fill="white" transform="translate(0.753906)"/>
</clipPath>
</defs>
</svg>
