<svg width="71" height="70" viewBox="0 0 71 70" fill="none" xmlns="http://www.w3.org/2000/svg">
<g id="Layer_1" clip-path="url(#clip0_1896_4850)">
<path id="Vector" d="M48.4048 66.4347C65.7637 59.2444 74.007 39.3434 66.8167 21.9845C59.6264 4.62564 39.7254 -3.61763 22.3666 3.57265C5.00769 10.7629 -3.23558 30.6639 3.9547 48.0228C11.145 65.3817 31.046 73.6249 48.4048 66.4347Z" stroke="#4B4F55" stroke-width="1.11"/>
<path id="Vector_2" d="M55.1102 34.621H51.9517C50.9459 32.5741 49.7107 30.6331 48.4049 28.7627C48.352 28.498 48.9166 28.6391 49.1284 28.6038C50.046 28.445 50.5577 28.0921 50.8753 27.1746C51.6164 25.0218 49.8695 23.6631 47.8932 24.3689C47.805 27.3687 47.7697 30.3684 47.8932 33.3682C47.9461 34.021 48.7049 33.9328 49.1813 33.9152V34.621H44.1523V33.9152L45.3875 33.7211C45.6875 30.7213 45.4581 27.6863 45.5111 24.6689L45.3699 24.1925L44.1523 23.9454V23.3102C44.8052 23.2219 45.4581 23.3984 46.0757 23.4161C47.7873 23.4513 51.5458 22.7985 52.7634 24.016C53.8045 25.0394 53.4516 26.8569 52.4811 27.8098C52.2164 28.0745 51.0341 28.6568 51.0694 28.8332C51.0694 28.9744 51.6341 29.8214 51.7576 30.0331C52.1281 30.6331 54.0868 33.6681 54.4927 33.8622C54.9338 34.0563 55.1808 33.7564 55.075 34.621" fill="#4A4F54"/>
<path id="Vector_3" d="M34.8182 30.2273C35.3828 29.0627 35.7181 27.6158 36.2828 26.4688C36.3357 26.363 36.2298 26.2747 36.4945 26.3277L38.065 30.2273C36.9886 30.3862 35.8769 30.3862 34.8182 30.2273ZM38.1708 33.9329V34.6387H43.1998L43.1116 33.9859C42.6705 33.8976 42.3175 34.0211 42.0352 33.58L37.6944 23.3809L36.4592 23.4338L32.3654 33.6859C32.1184 34.0388 31.6596 33.9506 31.2891 33.9506V34.6564H34.9417V33.9506C34.7476 33.9506 33.8124 34.0211 33.7594 33.7917C33.7242 32.9095 34.1653 32.0978 34.4476 31.3037C34.6064 31.1978 37.8532 31.1978 38.2414 31.2508C38.3649 31.2508 38.4355 31.2508 38.5414 31.3567C38.6649 31.4978 39.4237 33.6153 39.3884 33.7917C39.2119 34.0741 38.2591 33.8976 38.2061 33.9506" fill="#4A4F54"/>
<path id="Vector_4" d="M31.8709 23.3096L31.765 26.1152H31.0768L30.8651 24.5271L27.9359 24.4036V33.2617C27.9359 33.2617 28.1476 33.791 28.2006 33.8263L29.3299 33.9675L29.4181 34.6204H24.195L24.2833 33.9675C25.9949 34.0734 25.5008 33.1029 25.5714 31.8677C25.5714 31.603 25.6596 31.356 25.6773 31.0736C25.7478 28.8503 25.5714 26.6269 25.5714 24.4036C24.8126 24.4918 23.7892 24.2801 23.0657 24.4036C22.3422 24.5271 22.6069 25.4976 22.4834 26.0093C22.3952 26.1505 21.954 26.1505 21.8305 26.0623C21.6541 25.9388 21.7423 24.2977 21.7423 23.9448C21.7423 23.7154 21.5306 23.3978 21.7952 23.3096H31.8709Z" fill="#4A4F54"/>
<path id="Vector_5" d="M20.7364 33.9321V34.638H15.6191V33.9321C16.0426 33.9321 16.4838 34.0027 16.8543 33.738C16.8896 33.4204 16.9778 33.1028 16.9955 32.7852C17.1543 30.6501 17.172 26.9974 16.9955 24.88C16.9955 24.7388 16.9249 24.2624 16.8367 24.2094L15.6544 24.033L15.7074 23.3624L20.7364 23.3271L20.6834 24.033C20.454 24.3682 19.5188 23.6624 19.36 24.7917C19.0071 27.315 19.607 30.5795 19.36 33.191C19.36 34.0733 20.1011 33.9498 20.7364 33.9321Z" fill="#4A4F54"/>
<path id="Vector_6" d="M16.4308 45.6137C16.6073 45.5961 16.6426 45.5432 16.6426 45.3491V38.6967C16.6426 38.5026 16.6426 38.4673 16.4308 38.432L15.6191 38.3438V37.3203H22.4127V39.9495L21.001 39.8789L20.8246 38.8908C20.8069 38.7673 20.754 38.7143 20.6128 38.7143H18.6365V41.2553H21.601V42.7022H18.6365V45.3314C18.6365 45.5432 18.6718 45.5784 18.8483 45.5961L20.7364 45.702V46.7254H15.6368V45.7196L16.4485 45.6314L16.4308 45.6137Z" fill="#EF4A26"/>
<path id="Vector_7" d="M31.288 40.0377C31.288 39.0319 30.7409 38.732 29.594 38.732H28.9587V41.52H29.5587C30.4763 41.52 31.3056 41.3082 31.3056 40.0201M29.5587 42.8787H28.9587V45.3138C28.9587 45.5255 28.9587 45.5432 29.1705 45.5784L30.0704 45.6843V46.7254H25.959V45.6843L26.7707 45.5961C26.9648 45.5784 26.9824 45.5255 26.9824 45.3314V38.6967C26.9824 38.5026 26.9471 38.4673 26.7707 38.432L25.959 38.3438V37.3203H30.3527C32.6643 37.3203 33.3525 38.5732 33.3525 39.9142C33.3525 41.2553 32.6643 41.9611 31.6585 42.4022C32.0291 42.5787 32.2055 42.8963 32.3996 43.4433L33.1054 45.2961C33.176 45.4902 33.2995 45.5079 33.4936 45.5432L34.2877 45.6667V46.7078H31.482L30.3174 43.4433C30.1586 43.0022 29.9998 42.861 29.5587 42.861" fill="#EF4A26"/>
<path id="Vector_8" d="M38.1691 45.6137C38.3456 45.5961 38.3809 45.5432 38.3809 45.3491V38.6967C38.3809 38.5026 38.3456 38.4496 38.1691 38.432L37.3574 38.3438V37.3203H44.2039V39.9495L42.7923 39.8789L42.6158 38.8908C42.5982 38.7673 42.5452 38.7143 42.4041 38.7143H40.3748V41.2729H43.3922V42.7199H40.3748V45.3314H42.6864C42.8276 45.3314 42.8628 45.3314 42.8981 45.1902L43.1099 44.0433H44.5215V46.7078H37.3927V45.702L38.2044 45.6137H38.1691Z" fill="#EF4A26"/>
<path id="Vector_9" d="M48.8097 45.6137C48.9862 45.5961 49.0215 45.5432 49.0215 45.3491V38.6967C49.0215 38.5026 48.9862 38.4496 48.8097 38.432L47.998 38.3438V37.3203H54.8445V39.9495L53.4329 39.8789L53.2564 38.8908C53.2211 38.7673 53.1858 38.7143 53.0447 38.7143H51.0154V41.2729H54.0328V42.7199H51.0154V45.3314H53.327C53.4682 45.3314 53.5035 45.3314 53.5388 45.1902L53.7505 44.0433H55.1621V46.7078H48.0333V45.702L48.845 45.6137H48.8097Z" fill="#EF4A26"/>
</g>
<defs>
<clipPath id="clip0_1896_4850">
<rect width="70" height="70" fill="white" transform="translate(0.373047)"/>
</clipPath>
</defs>
</svg>
