<svg width="294" height="294" viewBox="0 0 294 294" fill="none" xmlns="http://www.w3.org/2000/svg">
<path d="M292.946 46.6529C291.933 42.5997 287.879 40.5731 283.826 40.5731H253.427V10.1741C253.427 6.12086 251.401 2.06766 247.347 1.05436C243.294 -0.972243 239.241 0.0410567 236.201 3.08096L195.669 43.613C193.642 45.6396 192.629 47.6662 192.629 50.7061V87.1849L134.871 144.943C130.818 148.996 130.818 155.076 134.871 159.129C136.898 161.156 139.937 162.169 141.964 162.169C143.991 162.169 147.031 161.156 149.057 159.129L206.815 101.371H243.294C246.334 101.371 248.361 100.358 250.387 98.3312L290.919 57.7992C293.959 54.7593 294.972 50.7061 292.946 46.6529Z" fill="#FF4713"/>
<path d="M163.243 173.316C158.177 179.396 150.07 182.436 141.964 182.436C133.857 182.436 125.751 179.396 120.685 173.316C108.525 161.157 108.525 141.904 120.685 130.758L149.057 102.385C147.03 101.372 143.99 101.372 141.964 101.372C113.591 101.372 91.2988 123.665 91.2988 152.037C91.2988 180.41 113.591 202.702 141.964 202.702C170.336 202.702 192.629 180.41 192.629 152.037C192.629 150.011 192.629 146.971 191.616 144.944L163.243 173.316Z" fill="#FF4713"/>
<path d="M264.573 112.518C259.507 118.598 251.4 121.638 243.294 121.638H214.921L207.828 128.731C210.868 135.824 211.881 143.931 211.881 152.037C211.881 191.556 180.469 222.968 140.95 222.968C101.432 222.968 70.0193 191.556 70.0193 152.037C70.0193 112.518 101.432 81.1059 140.95 81.1059C149.057 81.1059 157.163 83.1325 164.256 85.1591L172.363 79.0793V50.7068C172.363 42.6004 175.403 34.494 181.482 29.4275L191.615 19.2945C175.403 13.2147 159.19 10.1748 141.964 10.1748C63.9395 10.1748 0.101562 74.0128 0.101562 152.037C0.101562 230.061 63.9395 293.899 141.964 293.899C219.988 293.899 283.826 230.061 283.826 152.037C283.826 134.811 280.786 118.598 274.706 102.385L264.573 112.518Z" fill="#FF4713"/>
</svg>
