<svg width="321" height="321" viewBox="0 0 321 321" fill="none" xmlns="http://www.w3.org/2000/svg">
<path fill-rule="evenodd" clip-rule="evenodd" d="M321 32.1V112.35C321 121.21 313.81 128.4 304.95 128.4C296.09 128.4 288.9 121.21 288.9 112.35V48.15C288.9 39.2904 281.71 32.1 272.85 32.1H208.65C199.79 32.1 192.6 24.9096 192.6 16.05C192.6 7.1904 199.79 0 208.65 0H288.9C306.635 0 321 14.3647 321 32.1ZM288.9 321H208.65C199.79 321 192.6 313.81 192.6 304.95C192.6 296.09 199.79 288.9 208.65 288.9H272.85C281.71 288.9 288.9 281.71 288.9 272.85V208.65C288.9 199.79 296.09 192.6 304.95 192.6C313.81 192.6 321 199.79 321 208.65V288.9C321 306.635 306.635 321 288.9 321ZM0 288.9V208.65C0 199.79 7.1904 192.6 16.05 192.6C24.9096 192.6 32.1 199.79 32.1 208.65V272.85C32.1 281.71 39.2904 288.9 48.15 288.9H112.35C121.21 288.9 128.4 296.09 128.4 304.95C128.4 313.81 121.21 321 112.35 321H32.1C14.3647 321 0 306.635 0 288.9ZM0 112.35V32.1C0 14.3647 14.3647 0 32.1 0H112.35C121.21 0 128.4 7.1904 128.4 16.05C128.4 24.9096 121.21 32.1 112.35 32.1H48.15C39.2904 32.1 32.1 39.2904 32.1 48.15V112.35C32.1 121.21 24.9096 128.4 16.05 128.4C7.1904 128.4 0 121.21 0 112.35ZM0.160412 160.5L0 160.657V160.343L0.160412 160.5ZM160.5 192.6C142.797 192.6 128.4 178.203 128.4 160.5C128.4 142.797 142.797 128.4 160.5 128.4C178.203 128.4 192.6 142.797 192.6 160.5C192.6 178.203 178.203 192.6 160.5 192.6ZM222.437 176.55H240.75C249.61 176.55 256.8 169.36 256.8 160.5C256.8 151.64 249.61 144.45 240.75 144.45H222.437C216.611 121.964 199.036 104.391 176.55 98.5649V80.25C176.55 71.3904 169.36 64.2 160.5 64.2C151.64 64.2 144.45 71.3904 144.45 80.25V98.5649C121.964 104.391 104.389 121.964 98.5632 144.45H80.25C71.3904 144.45 64.2 151.64 64.2 160.5C64.2 169.36 71.3904 176.55 80.25 176.55H98.5632C104.389 199.036 121.964 216.609 144.45 222.435V240.75C144.45 249.61 151.64 256.8 160.5 256.8C169.36 256.8 176.55 249.61 176.55 240.75V222.435C199.036 216.609 216.611 199.036 222.437 176.55Z" fill="#FF4713"/>
</svg>
