<svg width="71" height="70" viewBox="0 0 71 70" fill="none" xmlns="http://www.w3.org/2000/svg">
<g id="Layer_1" clip-path="url(#clip0_1896_8161)">
<path id="Vector" d="M35.7451 0C16.4232 0 0.753906 15.6693 0.753906 35.0088C0.753906 54.3484 16.4232 70 35.7451 70C55.067 70 70.7539 54.3307 70.7539 35.0088C70.7539 15.6869 55.0846 0 35.7451 0ZM35.7451 68.3413C17.3407 68.3413 2.41259 53.4132 2.41259 35.0088C2.41259 16.6045 17.3407 1.67633 35.7451 1.67633C54.1494 1.67633 69.0952 16.5868 69.0952 35.0088C69.0952 53.4308 54.1671 68.3413 35.7451 68.3413Z" fill="#4A4F54"/>
<path id="Vector_2" d="M19.8476 23.9274C19.23 23.4334 18.4006 23.2393 17.4654 23.2393H13.7422V31.815H16.5478V29.1329H17.4654C18.4006 29.1329 19.23 28.9564 19.8476 28.4623C20.4652 27.9506 20.8181 27.2095 20.8181 26.2037C20.8181 25.1979 20.4652 24.4215 19.8476 23.9274ZM17.6772 26.8742C17.483 26.9978 17.3066 27.0331 16.989 27.0331H16.5302V25.3567H16.989C17.3066 25.3567 17.483 25.3744 17.6772 25.5155C17.8536 25.6391 17.9948 25.8508 17.9948 26.2037C17.9948 26.5566 17.8713 26.7507 17.6772 26.8742Z" fill="#4B4F54"/>
<path id="Vector_3" d="M27.2034 29.5034V31.815H21.5039V23.2393H24.2919V29.5034H27.2034Z" fill="#4B4F54"/>
<g id="Group">
<path id="Vector_4" d="M35.4654 23.2393V28.1447C35.4654 29.5034 35.1655 30.3151 34.5479 30.9327C33.9303 31.568 32.9245 31.9385 31.5658 31.9385C30.207 31.9385 29.2012 31.568 28.5837 30.9327C27.9661 30.3151 27.6484 29.5034 27.6484 28.1447V23.2393H30.4717V28.2682C30.4717 28.78 30.5776 29.0094 30.7541 29.2035C30.9482 29.3799 31.1952 29.5034 31.5658 29.5034C31.9363 29.5034 32.1834 29.3799 32.3775 29.2035C32.5539 29.0094 32.6421 28.7623 32.6421 28.2682V23.2393H35.4654Z" fill="#4B4F54"/>
<path id="Vector_5" d="M44.7825 26.6267V30.3852C44.112 31.0028 43.1062 31.938 40.8123 31.938C38.5183 31.938 36.2773 30.5617 36.2773 27.5266C36.2773 24.4916 38.5183 23.1152 40.8828 23.1152C43.2473 23.1152 44.2355 24.3681 44.4825 24.6151L42.6121 26.1679C42.4357 25.9738 41.871 25.4092 40.8828 25.4092C39.8947 25.4092 39.1006 26.1679 39.1006 27.5266C39.1006 28.8853 39.877 29.6441 40.8828 29.6441C41.8886 29.6441 42.0651 29.3265 42.0651 29.3265V28.7089H40.7593V26.6267H44.7825Z" fill="#4B4F54"/>
<path id="Vector_6" d="M55.809 29.7325C56.3561 29.2914 56.9913 28.5503 57.3619 28.0033L55.4914 26.8739C55.2444 27.2445 54.6797 27.8974 54.3445 28.215L53.6033 27.4563C54.3445 27.0857 55.1209 26.2916 55.1209 25.2682C55.1209 23.6801 53.6739 23.0625 52.1741 23.0625C50.6742 23.0625 49.1037 23.6801 49.1037 25.3211C49.1037 26.0975 49.5096 26.6622 49.9154 27.068C48.892 27.4033 48.0273 28.215 48.0273 29.3267C48.0273 31.1795 49.7037 31.9559 51.38 31.9559C52.2976 31.9559 53.0563 31.8147 53.9739 31.1795L54.5915 31.8147H57.7677V31.6912L55.809 29.7325ZM51.5035 29.9443C51.1153 29.9443 50.6918 29.6972 50.6918 29.2561C50.6918 28.815 51.0094 28.6032 51.1859 28.515L51.3094 28.462L52.5093 29.6796C52.2446 29.8913 51.8741 29.9443 51.5035 29.9443ZM52.2093 26.1328L51.9976 25.9034C51.9976 25.9034 51.6447 25.6564 51.6447 25.3564C51.6447 25.0388 51.8741 24.8623 52.2446 24.8623C52.6152 24.8623 52.8269 25.0388 52.8269 25.3564C52.8269 25.6564 52.5446 25.9034 52.2093 26.1328Z" fill="#4B4F54"/>
<path id="Vector_7" d="M19.8476 38.8199C19.23 38.3259 18.4006 38.1494 17.4654 38.1494H13.7422V46.7075H16.5478V44.043H17.4654C18.4006 44.043 19.23 43.8489 19.8476 43.3549C20.4652 42.8608 20.8181 42.1197 20.8181 41.0962C20.8181 40.0728 20.4652 39.3317 19.8476 38.8199ZM17.6772 41.7844C17.483 41.9079 17.3066 41.9256 16.989 41.9256H16.5302V40.2492H16.989C17.3066 40.2492 17.483 40.2845 17.6772 40.408C17.8536 40.5492 17.9948 40.7433 17.9948 41.0962C17.9948 41.4491 17.8713 41.6432 17.6772 41.7844Z" fill="#4B4F54"/>
</g>
<path id="Vector_8" d="M27.2034 44.4136V46.7075H21.5039V38.1494H24.2919V44.4136H27.2034Z" fill="#4B4F54"/>
<path id="Vector_9" d="M33.2927 38.1494H30.1871L27.2227 46.7075H30.1342L30.4518 45.5076H32.9045L33.2398 46.7075H36.2748L33.2927 38.1494ZM31.0517 43.3549L31.687 41.0609L32.3222 43.3549H31.0517Z" fill="#4B4F54"/>
<path id="Vector_10" d="M43.5452 38.1494L40.5631 43.3549V46.7075H37.7574V43.3549L34.793 38.1494H37.8986L39.1691 41.0433L40.4396 38.1494H43.5452Z" fill="#4B4F54"/>
<path id="Vector_11" d="M59.0725 42.3492L47.0206 49.3016C46.8971 49.3898 46.7383 49.3016 46.7383 49.1428V35.2204C46.7383 35.0792 46.8971 34.9734 47.0206 35.044L59.0725 42.014C59.2137 42.0845 59.2137 42.2786 59.0725 42.3492Z" fill="#EF4C25"/>
</g>
<defs>
<clipPath id="clip0_1896_8161">
<rect width="70" height="70" fill="white" transform="translate(0.753906)"/>
</clipPath>
</defs>
</svg>
