<svg width="71" height="70" viewBox="0 0 71 70" fill="none" xmlns="http://www.w3.org/2000/svg">
<g id="Layer_1" clip-path="url(#clip0_1896_8197)">
<path id="Vector" d="M48.7818 66.4347C66.1407 59.2444 74.3839 39.3434 67.1937 21.9845C60.0034 4.62564 40.1024 -3.61763 22.7435 3.57265C5.38464 10.7629 -2.85863 30.6639 4.33165 48.0228C11.5219 65.3817 31.4229 73.6249 48.7818 66.4347Z" stroke="#4B4F55" stroke-width="1.11"/>
<path id="Vector_2" d="M28.046 26.3444L20.7407 32.5733L20.4937 32.4674L24.9404 25.3916C25.011 25.268 25.0462 25.1092 24.9933 24.9681C24.958 24.8269 24.8521 24.7034 24.711 24.6504C22.5406 23.6799 20.4231 22.6388 18.7115 21.7919L18.4115 21.6507C18.2174 21.5625 17.988 21.5978 17.8292 21.7389L16.294 23.1329L15.747 22.9212L17.5998 18.2804L18.1468 18.4921L18.3056 20.539C18.3233 20.7508 18.4644 20.9272 18.6762 20.9978L18.9938 21.086C20.829 21.6154 23.0876 22.2859 25.3462 23.0447C25.4874 23.0976 25.6462 23.08 25.7697 23.0094C25.8932 22.9388 25.9815 22.8153 26.0168 22.6565L27.6225 14.4689L27.8695 14.5748L28.9283 24.0858C28.9459 24.2622 29.0694 24.421 29.2459 24.5093C32.6338 25.9386 33.1279 26.7503 33.1809 27.0502C32.9338 27.2267 31.9986 27.4914 28.5577 26.2562C28.3813 26.2033 28.1872 26.2385 28.046 26.3444ZM34.1337 27.5267C34.1337 27.5267 34.1867 27.4208 34.2043 27.3502C34.4337 26.1856 33.1103 25.0386 29.9341 23.6799L28.8753 14.169C28.8577 13.9749 28.7342 13.8161 28.5577 13.7455L27.4284 13.3043C27.2872 13.2514 27.1284 13.2514 26.9873 13.322C26.8461 13.3926 26.7579 13.5337 26.7226 13.6749L25.1168 21.8801C23.0347 21.1919 20.9878 20.592 19.3114 20.0979L19.1526 18.0686C19.1526 17.8745 19.0115 17.6981 18.835 17.6275L17.4939 17.0981C17.2293 16.9923 16.9293 17.1158 16.8234 17.3981L14.6001 22.9918C14.4942 23.2564 14.6177 23.5564 14.9 23.6623L16.2411 24.1917C16.4176 24.2622 16.6293 24.2269 16.7705 24.0858L18.288 22.7094C19.8584 23.4858 21.7818 24.421 23.7758 25.321L19.3114 32.4145C19.2232 32.538 19.2056 32.6968 19.2585 32.838C19.3114 32.9792 19.4173 33.1027 19.5585 33.1556L20.6878 33.5968C20.6878 33.5968 20.8113 33.632 20.8819 33.632C21.0054 33.632 21.1289 33.5791 21.2172 33.5085L28.5224 27.262C31.7869 28.4089 33.5338 28.4795 34.169 27.4561M50.9147 42.1549C51.744 42.1549 52.4322 42.8254 52.4322 43.6547C52.4322 44.4841 51.744 45.1546 50.9147 45.1546C50.0853 45.1546 49.3971 44.4841 49.3971 43.6547C49.3971 42.8254 50.0677 42.1549 50.9147 42.1549ZM50.9147 46.1957C52.3263 46.1957 53.4733 45.0664 53.4733 43.6724C53.4733 42.2784 52.3263 41.1491 50.9147 41.1491C49.503 41.1491 48.3561 42.2784 48.3561 43.6724C48.3561 45.0664 49.503 46.1957 50.9147 46.1957ZM50.9147 53.501C48.4266 53.501 46.6974 52.4952 46.6974 51.5776C46.6974 50.8718 47.7032 50.1659 49.1325 49.8483L50.4735 51.8599C50.5618 52.0011 50.7206 52.0893 50.897 52.0893C51.0735 52.0893 51.2323 52.0011 51.3205 51.8599L52.6616 49.8483C54.0909 50.1659 55.0967 50.8718 55.0967 51.5776C55.0967 52.4775 53.3674 53.501 50.8794 53.501M46.8738 43.6547C46.8738 41.449 48.6913 39.6492 50.9147 39.6492C53.138 39.6492 54.9555 41.449 54.9555 43.6547C54.9555 45.0487 53.9497 46.3721 52.9968 47.6603C52.6969 48.0661 52.3616 48.4896 52.0969 48.9131L50.9323 50.66L49.7677 48.9131C49.4854 48.4896 49.1678 48.0661 48.8678 47.6603C47.8973 46.3721 46.9091 45.0487 46.9091 43.6547M27.2696 32.1675C27.2696 31.5322 27.799 31.0205 28.4342 31.0205C29.0694 31.0205 29.5988 31.5322 29.5988 32.1675C29.5988 32.8027 29.0694 33.3144 28.4342 33.3144C27.799 33.3144 27.2696 32.8027 27.2696 32.1675ZM53.3145 48.966C53.4733 48.7367 53.6497 48.5249 53.8262 48.2779C54.8849 46.8662 55.9966 45.4016 55.9966 43.6724C55.9966 40.902 53.7203 38.6434 50.9323 38.6434C48.1443 38.6434 45.868 40.902 45.868 43.6724C45.868 45.4016 46.9621 46.8662 48.0384 48.2779C48.2149 48.5073 48.3737 48.7367 48.5502 48.966C47.0679 49.3719 46.0445 50.1483 45.7798 51.0835C39.9391 50.9953 39.5156 49.0896 39.0392 46.8839C38.5098 44.5194 37.9099 41.8372 30.7281 41.8019C29.687 41.8019 28.9812 41.5549 28.593 41.0608C27.746 40.0374 28.1872 37.9023 28.6283 35.8554C28.7342 35.3437 28.84 34.8319 28.9283 34.3379C29.9341 34.1261 30.6752 33.2438 30.6752 32.2027C30.6752 31.0028 29.687 30.0147 28.4695 30.0147C27.2519 30.0147 26.2638 30.9852 26.2638 32.2027C26.2638 33.1909 26.952 34.0379 27.8695 34.3026C27.799 34.7437 27.6931 35.1848 27.6049 35.6613C27.1284 37.9552 26.6343 40.3197 27.7813 41.7314C28.3813 42.4725 29.3694 42.843 30.7281 42.843C37.0805 42.8783 37.5217 44.837 38.0157 47.1309C38.2804 48.3484 38.5628 49.6013 39.7274 50.5894C40.9273 51.5952 42.8683 52.107 45.7798 52.1422C46.2033 53.5362 48.3208 54.5773 50.95 54.5773C53.8968 54.5773 56.1907 53.2892 56.1907 51.6305C56.1907 50.4836 55.0967 49.4954 53.3321 49.0013" fill="#EC4A26"/>
</g>
<defs>
<clipPath id="clip0_1896_8197">
<rect width="70" height="70" fill="white" transform="translate(0.75)"/>
</clipPath>
</defs>
</svg>
