<svg width="430" height="192" viewBox="0 0 430 192" fill="none" xmlns="http://www.w3.org/2000/svg">
<g clip-path="url(#clip0_1871_4656)">
<path d="M390.717 163.856C380.507 160.185 370.298 156.506 360.089 152.835C350.537 149.395 340.994 145.963 331.442 142.523C315.863 136.915 300.285 131.315 284.706 125.706C270.502 120.593 256.306 115.48 242.102 110.367H242.094C241.155 110.034 240.224 109.692 239.285 109.359C237.553 108.728 235.811 108.105 234.078 107.481C247.77 103.768 276.392 95.9743 308.198 87.0794C316.341 84.8088 328.019 81.5223 343.409 76.5712C352.526 73.6432 359.987 71.0737 365.006 69.3067C365.117 68.7945 365.219 67.958 365.04 66.9677C364.792 65.6531 364.161 64.7398 363.811 64.2959C363.256 64.4154 362.701 64.5349 362.138 64.6544C361.728 64.1764 361.327 63.6898 360.917 63.2117H360.908C352.859 53.7278 344.69 44.1927 336.393 34.6149C334.899 32.882 333.388 31.1406 331.877 29.3992C325.56 22.1347 319.244 14.9386 312.952 7.81072C312.474 7.27292 311.996 6.73513 311.527 6.19734C309.811 4.26812 308.112 2.34744 306.405 0.426758C301.173 0.768213 296.776 1.18649 293.473 1.54502C287.421 2.20232 284.331 2.55231 281.241 3.38888C277.263 4.46446 271.851 6.45343 271.851 6.45343C271.655 6.54733 271.467 6.6327 271.296 6.70952C270.4 7.12781 269.862 7.39243 269.538 7.55463C269.333 7.64853 269.136 7.75096 269.068 7.78511C268.539 8.05827 267.711 8.66435 266.627 10.1497C266.465 10.3716 266.294 10.6106 266.123 10.8753C255.41 21.5201 244.689 32.1735 233.976 42.8184C221.59 45.4305 209.213 48.0426 196.827 50.6547C196.613 48.5292 196.306 46.7622 196.033 45.439C195.7 43.8 195.222 41.8281 194.326 39.5916C193.557 37.6795 193.062 36.4844 192.448 36.5014C192.26 36.5014 191.474 36.6295 190.527 40.7611C189.929 43.3391 189.34 47.2146 189.648 52.2852C172.379 55.9302 155.11 59.5838 137.842 63.2374C135.435 63.7495 133.019 64.2532 130.612 64.7654C129.143 64.0654 127.675 63.3654 126.207 62.6654C124.807 61.9996 123.416 61.3337 122.016 60.6679C113.778 56.7412 105.532 52.8144 97.2951 48.8877C89.8857 45.3622 82.4763 41.8281 75.067 38.2941C70.7904 36.2624 66.5223 34.2222 62.2457 32.182C58.6093 30.4492 54.9814 28.7248 51.345 26.9919C47.4696 25.1395 43.5856 23.2957 39.7102 21.4433C36.5262 21.247 33.6154 21.1616 31.0204 21.1445C29.6973 21.136 28.4596 21.1445 27.3157 21.1616C21.8953 21.2555 19.1552 21.597 16.287 23.1676C14.7249 24.0298 13.5811 25.003 12.8384 25.7286C37.542 39.9757 62.2371 54.2144 86.9407 68.4616C89.6638 70.0323 92.3953 71.603 95.1184 73.1737C96.3732 73.8993 99.0962 75.6834 101.478 78.9272C103.561 81.7442 104.559 84.621 105.08 86.7465L104.286 87.7197C100.539 88.0014 95.6988 88.4709 90.0479 89.2903C89.9625 89.2989 89.8772 89.3074 89.7918 89.3245H89.7833C87.1115 89.7086 84.2519 90.1781 81.2386 90.7415C63.031 94.1219 47.8879 99.3547 35.2629 105.1C24.55 109.974 18.7113 113.798 15.0151 116.837C13.6494 117.964 12.5738 118.98 11.6519 119.91C7.35821 124.247 -1.51938 133.193 0.828061 138.392C1.03293 138.852 1.32316 139.271 1.69021 139.646C7.39236 145.494 31.5667 141.43 54.9387 137.504C68.9124 135.156 80.0777 132.501 90.7649 129.958C93.3514 129.343 95.8013 128.754 98.1316 128.199L98.1658 128.336C98.1658 128.822 98.1572 129.582 98.1658 130.512C98.1658 130.956 98.1829 133.543 98.2255 134.123C98.4389 136.906 102.886 141.49 108.162 140.918C112.746 140.423 115.059 136.36 115.289 135.933C116.348 134.012 116.484 132.169 116.484 131.178C116.416 128.711 116.348 126.253 116.279 123.794C130.364 120.32 135.716 118.852 135.716 118.852C143.766 116.649 149.989 114.814 157.099 114.071C159.686 113.807 162.383 113.679 165.337 113.73C165.892 113.739 174.428 113.935 183.835 116.342C184.202 116.427 184.56 116.521 184.927 116.624C187.454 117.307 191.159 118.468 195.956 120.072C224.825 129.676 293.208 155.174 381.489 189.507C382.744 189.994 384.007 190.48 385.279 190.976C385.783 191.172 386.295 191.377 386.807 191.573C388.907 191.548 392.125 191.377 395.958 190.643C402.872 189.32 406.799 187.126 416.709 182.96C419.706 181.697 424.119 179.887 429.582 177.838C416.632 173.177 403.675 168.516 390.725 163.856H390.717ZM196.716 68.7945V68.7775C196.716 68.7775 197.074 67.9665 197.168 66.9934C197.253 66.1483 197.245 63.3739 197.134 59.3277C207.804 56.8607 218.722 54.1888 229.862 51.2694C233.353 50.356 236.81 49.434 240.241 48.495C248.044 46.378 255.683 44.2013 263.161 41.9989C263.477 41.9135 263.733 41.683 263.861 41.3843C264.211 40.5477 264.561 39.7111 264.911 38.8831C264.945 38.7977 264.988 38.7209 265.048 38.6526C265.073 38.6099 265.107 38.5672 265.141 38.5331C270.741 32.9162 276.341 27.2992 281.941 21.6823H281.949C282.419 21.2043 282.888 20.7348 283.366 20.2567C296.973 37.7392 310.571 55.2132 324.177 72.6957C324.288 72.8408 324.314 73.0115 324.28 73.1737C324.229 73.3615 324.084 73.5237 323.879 73.5749C291.057 81.7271 258.253 89.8794 225.431 98.0401C220.446 99.2779 215.452 100.516 210.467 101.753C207.497 102.496 204.364 101.89 201.88 100.123C201.735 100.029 201.598 99.9267 201.462 99.8157C200.028 98.6804 198.594 97.545 197.16 96.4097C196.989 96.2816 196.861 96.1024 196.81 95.8975H196.801C196.767 95.7865 196.75 95.667 196.75 95.5475C196.383 94.1988 196.016 92.2695 196.101 89.9477C196.161 88.044 196.502 86.4477 196.852 85.2526C196.852 85.1673 196.861 85.0307 196.92 84.877C196.963 84.7575 197.031 84.6551 197.108 84.5527C197.108 84.5527 197.125 84.5356 197.134 84.5271C197.202 84.4588 197.27 84.3905 197.33 84.3222C197.834 83.7844 198.329 83.2381 198.833 82.6832C199.183 82.3076 199.524 81.932 199.865 81.5649C200.079 81.3345 200.361 81.2064 200.659 81.2064C200.864 81.2064 201.078 81.2662 201.265 81.3942C202.964 82.5637 205.32 83.9466 208.299 85.0307C211.901 86.3453 216.955 87.4209 217.373 86.4221C217.757 85.5429 214.326 83.2978 213.148 82.5295C210.305 80.6686 207.539 79.5077 205.209 78.7565C205.166 78.7394 205.124 78.7223 205.081 78.7053C204.321 78.3638 204.227 77.2797 204.97 76.8187C205.038 76.776 205.115 76.7334 205.183 76.6821C205.721 76.3321 206.191 75.9651 206.592 75.6151C207.113 75.1712 207.096 74.3602 206.549 73.942C206.037 73.5578 205.431 73.1395 204.74 72.7298C202.273 71.2701 200.147 70.775 199.669 70.6725C199.114 70.5445 198.423 70.425 197.629 70.3482C197.006 70.2884 196.579 69.7335 196.63 69.1531C196.639 69.0335 196.664 68.914 196.716 68.7945ZM144.722 71.8164C149.699 70.6469 154.675 69.4774 159.652 68.308C159.728 68.2909 159.814 68.2738 159.891 68.2482C170.04 65.8666 180.181 63.4764 190.331 61.0862C190.535 63.1691 190.74 65.0129 191.62 67.2665C192.072 68.4189 192.559 69.3238 192.917 69.9384C190.885 69.964 188.854 69.9982 186.822 70.0238C185.345 69.2555 183.305 68.3848 180.77 67.8129C178.636 67.3263 176.724 67.1812 175.187 67.1726C174.778 67.1726 174.436 67.497 174.428 67.9067V68.0945C174.419 68.2141 174.385 68.3336 174.334 68.436C174.206 68.6665 173.975 68.8201 173.694 68.8287C171.15 68.8884 168.538 68.9909 165.849 69.1445C164.44 69.2299 163.049 69.3238 161.683 69.4348C161.265 69.4604 160.855 69.4945 160.446 69.5287C160.36 69.5372 160.275 69.5543 160.198 69.5628C160.113 69.5799 160.036 69.6055 159.959 69.6226C159.489 69.7677 159.063 70.0665 158.755 70.4591C157.748 71.7481 156.937 72.892 155.887 74.2493C155.341 74.9493 154.735 75.7175 154.001 76.5882C153.804 76.8187 153.429 77.2541 152.84 77.3907C151.926 77.5955 151.073 76.9638 150.697 76.6907C149.366 75.7261 147.266 74.2834 144.611 72.4225C144.474 72.3286 144.432 72.1664 144.483 72.0298C144.517 71.9274 144.602 71.842 144.722 71.8164Z" fill="#E5E1E6" stroke="#4A4F54" stroke-linejoin="round"/>
<path d="M429.573 177.838C424.11 179.887 419.697 181.696 416.701 182.96C406.79 187.125 402.864 189.319 395.949 190.642C392.117 191.377 388.898 191.547 386.798 191.573C386.286 191.377 385.774 191.172 385.271 190.975C386.739 189.225 389.24 186.579 392.927 184.223C400.584 179.323 408.583 178.734 417.81 178.043C422.702 177.684 426.773 177.727 429.573 177.838Z" fill="#E5E1E6" stroke="#4A4F54" stroke-linejoin="round"/>
<path d="M429.573 177.838C426.773 177.727 422.702 177.684 417.81 178.043C408.583 178.734 400.584 179.323 392.927 184.223C389.24 186.579 386.739 189.225 385.271 190.975C383.999 190.48 382.735 189.994 381.48 189.507C382.215 188.414 383.375 186.886 385.049 185.324C388.489 182.123 393.141 179.699 402.864 178.145C405.45 177.735 408.625 177.343 412.322 177.155C417.221 176.907 423.026 177.001 429.573 177.838Z" fill="#E5E1E6" stroke="#4A4F54" stroke-linejoin="round"/>
<path d="M429.573 177.838C423.026 177.001 417.221 176.908 412.321 177.155C400.311 172.904 388.258 168.593 376.171 164.24C381.028 164.112 385.868 163.984 390.717 163.855C403.666 168.516 416.624 173.177 429.573 177.838Z" fill="#E5E1E6" stroke="#4A4F54" stroke-linejoin="round"/>
<path d="M239.285 109.359C233.353 108.975 228.385 109.146 224.757 109.402C216.69 109.974 211.022 110.435 204.782 113.593C200.727 115.642 197.817 118.134 195.99 119.936L195.947 120.072C191.15 118.467 187.445 117.306 184.919 116.624C184.551 116.521 184.193 116.427 183.826 116.342C184.338 115.556 185.158 114.447 186.327 113.286C190.774 108.881 196.374 107.805 201.726 107.063C211.5 105.706 220.736 105.432 228.385 105.595C229.298 106.397 230.152 106.79 230.263 106.841C231.85 107.566 233.31 107.549 234.078 107.481C235.811 108.104 237.552 108.727 239.285 109.359Z" fill="#E5E1E6" stroke="#4A4F54" stroke-linejoin="round"/>
<path d="M412.322 177.155C408.625 177.343 405.45 177.735 402.864 178.145C393.141 179.699 388.489 182.123 385.049 185.324C383.375 186.886 382.215 188.414 381.48 189.507C293.2 155.174 224.817 129.676 195.947 120.072L195.99 119.936C197.817 118.134 200.728 115.642 204.782 113.593C211.022 110.435 216.69 109.974 224.757 109.402C228.385 109.146 233.353 108.975 239.285 109.359C240.224 109.692 241.155 110.033 242.094 110.366C239.738 110.827 237.39 111.288 235.034 111.749C247.54 116.547 260.122 121.335 272.773 126.107C287.301 131.588 301.915 137.051 316.631 142.497C316.802 142.565 316.981 142.625 317.152 142.693H317.161C326.508 146.151 335.829 149.582 345.125 152.98H345.134C355.505 156.77 365.851 160.526 376.162 164.239H376.171C388.258 168.593 400.311 172.904 412.322 177.155Z" fill="#E5E1E6" stroke="#4A4F54" stroke-linejoin="round"/>
<path d="M365.006 69.3067C359.986 71.0738 352.526 73.6432 343.409 76.5712C328.019 81.5223 316.341 84.8088 308.198 87.0795C276.392 95.9744 247.77 103.768 234.078 107.481C233.31 107.55 231.85 107.567 230.263 106.841C230.152 106.79 229.298 106.397 228.385 105.595C227.659 104.955 226.899 104.058 226.421 102.889C226.191 102.325 226.063 101.771 225.892 101.028C225.602 99.7987 225.491 98.7658 225.431 98.0402C258.253 89.8794 291.057 81.7272 323.879 73.5749C324.083 73.5237 324.229 73.3615 324.28 73.1737C336.905 70.3396 349.521 67.497 362.138 64.6544C362.701 64.5349 363.256 64.4154 363.811 64.2959C364.161 64.7398 364.792 65.6532 365.04 66.9678C365.219 67.958 365.117 68.7946 365.006 69.3067Z" fill="#E5E1E6" stroke="#4A4F54" stroke-linejoin="round"/>
<path d="M228.385 105.595C220.736 105.433 211.5 105.706 201.726 107.063C196.374 107.806 190.775 108.881 186.327 113.286C185.158 114.447 184.338 115.557 183.826 116.342C174.419 113.935 165.883 113.738 165.328 113.73C162.375 113.679 159.677 113.807 157.091 114.071C151.542 114.404 143.868 115.002 134.675 116.129C134.487 115.335 134.282 114.08 134.487 112.586C134.487 112.586 134.786 110.443 136.118 108.412C141.325 100.49 164.876 99.2778 164.876 99.2778C174.12 98.8083 186.728 98.6803 201.88 100.123C204.364 101.89 207.497 102.496 210.467 101.753C215.453 100.516 220.446 99.2778 225.431 98.04C225.491 98.7656 225.602 99.7985 225.892 101.028C226.063 101.77 226.191 102.325 226.421 102.889C226.9 104.058 227.659 104.954 228.385 105.595Z" fill="#E5E1E6" stroke="#4A4F54" stroke-linejoin="round"/>
<path d="M206.592 75.6154C206.191 75.9653 205.721 76.3324 205.183 76.6824C205.115 76.7336 205.038 76.7763 204.97 76.819C204.227 77.2799 204.321 78.3641 205.081 78.7055C203.775 78.4238 202.196 78.1933 200.403 78.1677C199.413 78.1507 198.482 78.1933 197.646 78.2787C196.502 76.0166 195.35 73.763 194.206 71.5008C195 70.724 195.802 69.9387 196.596 69.1533H196.63C196.579 69.7338 197.006 70.2887 197.629 70.3484C198.423 70.4252 199.114 70.5447 199.669 70.6728C200.147 70.7752 202.272 71.2703 204.739 72.7301C205.431 73.1398 206.037 73.5581 206.549 73.9422C207.095 74.3605 207.112 75.1715 206.592 75.6154Z" fill="#E5E1E6" stroke="#4A4F54" stroke-linejoin="round"/>
<path d="M197.322 84.3223C197.262 84.3906 197.194 84.4588 197.134 84.5271C197.202 84.4588 197.27 84.3906 197.33 84.3223H197.322Z" fill="#E5E1E6" stroke="#4A4F54" stroke-linejoin="round"/>
<path d="M51.3363 26.9919C48.5279 27.0944 45.7024 27.2054 42.8855 27.3163C38.8991 25.2676 34.9383 23.2103 31.0117 21.1445C33.6067 21.1616 36.5175 21.247 39.7015 21.4433C43.5769 23.2957 47.4609 25.1396 51.3363 26.9919Z" fill="#E5E1E6" stroke="#4A4F54" stroke-linejoin="round"/>
<path d="M62.237 32.1823C59.0274 32.2079 55.8263 32.2421 52.6167 32.2677C50.918 31.4055 49.2193 30.5519 47.5121 29.6811C45.9671 28.8958 44.4305 28.1105 42.894 27.3166C45.711 27.2056 48.5364 27.0946 51.3448 26.9922C54.9812 28.7251 58.6091 30.4494 62.2455 32.1823H62.237Z" fill="#E5E1E6" stroke="#4A4F54" stroke-linejoin="round"/>
<path d="M75.0582 38.2939C71.6182 38.2939 68.1696 38.2939 64.7295 38.2939C60.709 36.322 56.6714 34.316 52.6167 32.2758C55.8263 32.2502 59.0274 32.216 62.2369 32.1904C66.5136 34.2306 70.7816 36.2708 75.0582 38.3025V38.2939Z" fill="#E5E1E6" stroke="#4A4F54" stroke-linejoin="round"/>
<path d="M97.2866 48.8873C93.8892 48.9215 90.5004 48.9556 87.1115 48.9898C79.6936 45.5325 72.233 41.9643 64.7297 38.2852C68.1698 38.2852 71.6184 38.2852 75.0585 38.2852C82.4679 41.8192 89.8772 45.3533 97.2866 48.8788V48.8873Z" fill="#E5E1E6" stroke="#4A4F54" stroke-linejoin="round"/>
<path d="M122.007 60.6679C119.19 60.7789 116.373 60.8728 113.548 60.9752C104.798 57.1338 95.9889 53.1388 87.1113 48.9901C90.5002 48.956 93.889 48.9218 97.2864 48.8877C105.524 52.8144 113.77 56.7412 122.007 60.6679Z" fill="#E5E1E6" stroke="#4A4F54" stroke-linejoin="round"/>
<path d="M126.198 62.6659C121.341 62.4439 112.515 62.1793 102.69 62.828C98.7462 63.0841 93.8464 63.5451 89.1003 66.7633C88.1528 67.4121 87.4102 68.0267 86.9322 68.462C62.2285 54.2148 37.5335 39.9762 12.8298 25.729C13.5725 25.0034 14.7163 24.0302 16.2784 23.1681C19.1466 21.5974 21.8867 21.2559 27.3071 21.162C28.451 21.145 29.6887 21.1364 31.0118 21.145C34.9385 23.2108 38.8992 25.268 42.8856 27.3167C44.4221 28.1106 45.9586 28.896 47.5037 29.6813C49.2109 30.552 50.9096 31.4057 52.6083 32.2678C56.663 34.308 60.7006 36.3141 64.7211 38.286C72.2244 41.9652 79.685 45.5334 87.1029 48.9906C95.9805 53.1393 104.79 57.1343 113.539 60.9756C116.365 60.8732 119.182 60.7793 121.999 60.6769C123.399 61.3342 124.79 62 126.19 62.6659H126.198Z" fill="#E5E1E6" stroke="#4A4F54" stroke-linejoin="round"/>
<path d="M130.603 64.7654C129.434 65.141 128.264 65.5081 127.095 65.8837C125.413 66.0203 123.723 66.1654 122.033 66.302C116.322 66.1227 111.687 66.7032 108.418 67.3007C103.919 68.1287 101.58 69.0848 99.8473 69.9897C97.7645 71.0738 96.1853 72.2604 95.1098 73.1737C92.3867 71.6031 89.6552 70.0324 86.9321 68.4617C87.4102 68.0263 88.1528 67.4117 89.1003 66.7629C93.8464 63.5447 98.7462 63.0838 102.69 62.8277C112.515 62.1789 121.341 62.4435 126.198 62.6655C127.667 63.3655 129.135 64.0654 130.603 64.7654Z" fill="#E5E1E6" stroke="#4A4F54" stroke-linejoin="round"/>
<path d="M190.331 61.0862C180.181 63.4763 170.04 65.8665 159.891 68.2482C159.814 68.2738 159.728 68.2908 159.652 68.3079C154.675 69.4774 149.698 70.6469 144.722 71.8164C144.602 71.842 144.517 71.9273 144.483 72.0298C144.022 72.0639 143.279 72.0639 142.443 71.7737C140.915 71.2444 140.112 70.092 139.848 69.6823C139.72 68.5384 139.455 67.1214 138.883 65.5592C138.567 64.68 138.2 63.9032 137.833 63.2373C155.102 59.5838 172.371 55.9302 189.639 52.2852C189.801 55.0595 190.023 57.996 190.331 61.0862Z" fill="#E5E1E6" stroke="#4A4F54" stroke-linejoin="round"/>
<path d="M240.242 48.495C236.81 49.434 233.353 50.356 229.862 51.2694C218.722 54.1888 207.804 56.8607 197.134 59.3277C197.066 56.8607 196.963 53.9242 196.818 50.6547C209.204 48.0426 221.581 45.4305 233.967 42.8184C232.977 43.9366 231.987 45.0464 231.005 46.1646C233.856 46.1305 236.716 46.0878 239.576 46.0536L240.242 48.495Z" fill="#E5E1E6" stroke="#4A4F54" stroke-linejoin="round"/>
<path d="M281.94 21.6826C276.341 27.2995 270.741 32.9165 265.141 38.5334C265.107 38.5676 265.073 38.6102 265.047 38.6529C262.777 39.0285 260.515 39.4041 258.253 39.7883C262.418 35.3408 266.721 30.8592 271.176 26.3349C271.74 25.763 272.312 25.1825 272.875 24.6191C275.897 23.6374 278.91 22.6558 281.94 21.6826Z" fill="#E5E1E6" stroke="#4A4F54" stroke-linejoin="round"/>
<path d="M283.366 20.2571C282.888 20.7352 282.418 21.2047 281.949 21.6827H281.94C278.91 22.6558 275.897 23.6375 272.875 24.6192C275.649 21.8193 278.415 19.0876 281.164 16.4072C282.094 17.8072 282.811 19.1218 283.366 20.2571Z" fill="#E5E1E6" stroke="#4A4F54" stroke-linejoin="round"/>
<path d="M281.164 16.4066C278.415 19.087 275.649 21.8186 272.875 24.6185C272.312 25.1819 271.74 25.7624 271.177 26.3344C266.721 30.8586 262.418 35.3402 258.253 39.7877C260.515 39.4035 262.777 39.0279 265.048 38.6523C264.988 38.7206 264.945 38.7975 264.911 38.8828C264.561 39.7108 264.211 40.5474 263.861 41.384C263.733 41.6827 263.477 41.9132 263.161 41.9986C255.683 44.201 248.044 46.3778 240.242 48.4948L239.576 46.0534C251.723 34.1622 263.878 22.271 276.025 10.3799C276.87 11.1567 277.732 12.0359 278.586 13.0262C279.585 14.17 280.43 15.3139 281.164 16.4066Z" fill="#E5E1E6" stroke="#4A4F54" stroke-linejoin="round"/>
<path d="M276.025 10.3806C275.59 10.6794 272.389 12.8476 268.974 11.6269C267.933 11.2513 267.156 10.6623 266.618 10.1501C267.702 8.66479 268.53 8.05871 269.06 7.78554C269.128 7.7514 269.324 7.64896 269.529 7.55506C269.853 7.39287 270.391 7.12824 271.287 6.70996C272.645 7.58067 274.301 8.77576 276.025 10.3806Z" fill="#E5E1E6" stroke="#4A4F54" stroke-linejoin="round"/>
<path d="M311.518 6.19734C308.343 6.43636 305.586 6.73513 303.349 7.0083C299.662 7.46073 296.879 7.93023 294.992 8.24607C291.825 8.78386 290.246 9.04849 288.693 9.41555C286.209 10.0046 282.709 11.046 278.586 13.0264C277.732 12.0362 276.87 11.157 276.025 10.3802C274.301 8.77533 272.645 7.58024 271.287 6.70953C271.458 6.6327 271.646 6.54733 271.842 6.45343C271.842 6.45343 277.254 4.46446 281.232 3.38888C284.322 2.55231 287.412 2.20232 293.464 1.54502C296.768 1.18649 301.164 0.768213 306.397 0.426758C308.104 2.34744 309.802 4.26812 311.518 6.19734Z" fill="#E5E1E6" stroke="#4A4F54" stroke-linejoin="round"/>
<path d="M336.384 34.6147C333.319 35.2123 330.255 35.8098 327.191 36.4074C319.457 27.1881 311.732 17.9603 304.006 8.73247C306.985 8.42517 309.965 8.11786 312.944 7.81055C319.235 14.9384 325.552 22.1346 331.868 29.399C333.379 31.1404 334.89 32.8819 336.384 34.6147Z" fill="#E5E1E6" stroke="#4A4F54" stroke-linejoin="round"/>
<path d="M360.908 63.2121C357.724 63.895 354.54 64.5779 351.357 65.2608C343.298 55.6488 335.24 46.0284 327.191 36.4079C330.255 35.8103 333.32 35.2128 336.384 34.6152C344.681 44.193 352.85 53.7282 360.9 63.2121H360.908Z" fill="#E5E1E6" stroke="#4A4F54" stroke-linejoin="round"/>
<path d="M324.28 73.1736C324.314 73.0114 324.288 72.8407 324.177 72.6956C310.571 55.2131 296.973 37.7391 283.366 20.2567C282.811 19.1213 282.094 17.8067 281.164 16.4068C280.43 15.3141 279.584 14.1702 278.586 13.0264C282.709 11.0459 286.208 10.0045 288.693 9.41548C290.246 9.04841 291.825 8.78378 294.992 8.24599C296.879 7.93015 299.661 7.46065 303.349 7.00822C305.586 6.73506 308.343 6.43628 311.518 6.19727C311.988 6.73506 312.466 7.27285 312.944 7.81064C309.965 8.11795 306.985 8.42526 304.006 8.73257C311.732 17.9604 319.457 27.1882 327.191 36.4075C335.24 46.028 343.298 55.6484 351.356 65.2604C354.54 64.5775 357.724 63.8946 360.908 63.2117H360.917C361.327 63.6897 361.728 64.1763 362.138 64.6543C349.521 67.4969 336.905 70.3395 324.28 73.1736Z" fill="#E5E1E6" stroke="#4A4F54" stroke-linejoin="round"/>
<path d="M197.168 66.9931C197.074 67.9662 196.724 68.7772 196.724 68.7772V68.7942C196.664 68.9137 196.639 69.0333 196.63 69.1528H196.596C195.802 69.9381 195 70.7235 194.206 71.5003C193.779 70.9795 193.344 70.4588 192.917 69.9381C192.558 69.3235 192.072 68.4186 191.619 67.2662C190.74 65.0126 190.535 63.1688 190.331 61.0859C190.023 57.9957 189.801 55.0592 189.639 52.2849C189.332 47.2143 189.921 43.3388 190.518 40.7608C191.466 36.6292 192.251 36.5012 192.439 36.5012C193.054 36.4841 193.549 37.6792 194.317 39.5913C195.213 41.8279 195.691 43.7998 196.024 45.4387C196.297 46.7619 196.605 48.5289 196.818 50.6545C196.963 53.9239 197.066 56.8604 197.134 59.3274C197.245 63.3736 197.253 66.148 197.168 66.9931Z" fill="#E5E1E6" stroke="#4A4F54" stroke-linejoin="round"/>
<path d="M200.659 81.1728V81.2069C200.36 81.2069 200.079 81.335 199.865 81.5655C199.524 81.9325 199.182 82.3081 198.832 82.6837C198.329 83.2386 197.834 83.7849 197.33 84.3227H197.322C193.301 83.6483 189.195 83.0081 184.995 82.4106C178.67 81.5057 172.507 80.763 166.515 80.1399C166.566 79.9521 166.626 79.7643 166.677 79.5594C166.736 79.346 166.788 79.1411 166.847 78.9448C167.582 76.179 168.025 74.1217 166.967 72.3291C165.746 70.2633 163.168 69.6914 161.973 69.5121C161.862 69.495 161.768 69.478 161.683 69.4694V69.4353C163.049 69.3243 164.44 69.2304 165.849 69.145C168.538 68.9914 171.15 68.889 173.693 68.8292C173.975 68.8207 174.206 68.667 174.334 68.4365C175.887 68.8548 177.629 69.2304 179.532 69.5121C182.23 69.9133 184.688 70.0414 186.822 70.0243C188.854 69.9987 190.885 69.9645 192.917 69.9389C193.344 70.4596 193.779 70.9804 194.206 71.5011C195.35 73.7632 196.502 76.0168 197.646 78.279C197.842 79.0216 198.039 79.7643 198.235 80.4984C199.037 80.7289 199.848 80.9508 200.659 81.1728Z" fill="#E5E1E6" stroke="#4A4F54" stroke-linejoin="round"/>
<path d="M152.84 77.3906C152.626 77.7918 152.328 78.2869 151.926 78.7906C151.568 79.2259 151.124 79.6698 150.578 80.071C149.553 80.8222 148.623 81.0783 146.685 81.5734C143.305 82.4527 141.615 82.888 141.171 82.9649C138.115 83.5453 136.553 83.5539 133.07 83.8868C133.07 83.8868 130.765 84.1087 124.858 84.9197C122.246 85.2782 118.704 85.8501 114.239 86.8062H114.222C112.344 87.2074 110.296 87.6769 108.085 88.2318V88.2659C106.847 88.1037 105.575 87.9159 104.278 87.7196L105.072 86.7465C104.551 84.6209 103.552 81.7442 101.469 78.9271C99.0877 75.6833 96.3647 73.8992 95.1099 73.1736C96.1854 72.2602 97.7646 71.0737 99.8474 69.9896C101.58 69.0847 103.919 68.1286 108.418 67.3006C111.687 66.7031 116.322 66.1226 122.033 66.3019C123.723 66.1653 125.413 66.0202 127.095 65.8836C128.264 65.508 129.434 65.1409 130.603 64.7653C133.01 64.2531 135.426 63.7495 137.833 63.2373C138.2 63.9031 138.567 64.68 138.883 65.5592C139.455 67.1214 139.72 68.5384 139.848 69.6823C140.112 70.092 140.915 71.2444 142.443 71.7737C143.279 72.0639 144.022 72.0639 144.483 72.0298C144.432 72.1663 144.474 72.3285 144.611 72.4224C147.266 74.2834 149.366 75.726 150.697 76.6906C151.073 76.9638 151.926 77.5955 152.84 77.3906Z" fill="#E5E1E6" stroke="#4A4F54" stroke-linejoin="round"/>
<path d="M156.758 74.6332C156.715 75.5722 156.681 76.5026 156.638 77.4416C156.203 77.7575 155.563 78.1416 154.726 78.4233C153.565 78.816 152.558 78.8331 151.926 78.7904C152.327 78.2867 152.626 77.7916 152.84 77.3904C153.429 77.2538 153.804 76.8185 154.001 76.588C154.735 75.7173 155.341 74.949 155.887 74.249C156.135 74.3771 156.425 74.5051 156.758 74.6332Z" fill="#E5E1E6" stroke="#4A4F54" stroke-linejoin="round"/>
<path d="M97.5938 104.271C97.3121 107.404 97.0902 109.521 95.511 111.544C95.383 111.707 95.2549 111.86 95.1184 112.005C93.8038 113.474 91.9771 114.387 90.0479 114.754C68.0161 118.98 51.951 122.181 44.0722 124.153C42.2198 124.614 39.0102 125.467 34.8531 124.946C33.402 124.759 30.9009 124.298 22.2452 120.32C19.1722 118.911 16.6711 117.682 15.0066 116.837C18.7027 113.798 24.5415 109.974 35.2543 105.099C47.8793 99.3544 63.0224 94.1216 81.23 90.7412C84.2433 90.1778 87.1029 89.7083 89.7747 89.3242H89.7833C89.8686 89.3071 89.954 89.2986 90.0394 89.29L89.8942 89.7595C91.2942 90.1778 95.1184 91.5266 97.0134 95.1716C98.217 97.4935 98.0121 99.7556 97.5938 104.271Z" fill="#E5E1E6" stroke="#4A4F54" stroke-linejoin="round"/>
<path d="M157.091 114.071C149.98 114.814 143.757 116.649 135.708 118.852C135.708 118.852 130.356 120.32 116.271 123.794C111.337 125.006 105.336 126.466 98.1231 128.199C95.7927 128.754 93.3428 129.343 90.7564 129.957C80.0691 132.501 68.9038 135.156 54.9301 137.504C31.5582 141.43 7.38379 145.494 1.68164 139.646C5.0022 139.493 9.58611 139.194 15.0236 138.554C21.3404 137.819 26.0694 136.94 28.6729 136.454C46.044 133.201 58.3787 130.555 58.3787 130.555C58.3787 130.555 74.5547 127.055 95.1781 122.992C111.354 119.799 119.626 118.177 128.341 116.957C130.526 116.649 132.635 116.376 134.675 116.129C143.868 115.002 151.542 114.404 157.091 114.071Z" fill="#E5E1E6" stroke="#4A4F54" stroke-linejoin="round"/>
<path d="M201.462 99.8158C200.028 98.6804 198.594 97.5451 197.16 96.4098C196.989 96.2817 196.861 96.1024 196.81 95.8976H196.801C195.23 95.8122 193.754 95.7268 192.362 95.6329C188.581 95.3768 185.482 95.1037 183.263 94.8817C175.136 94.0793 172.14 93.4391 162.998 92.5257C158.277 92.0562 154.854 91.8086 151.141 91.5355C139.754 90.7075 135.247 90.7245 128.128 90.2892C125.353 90.1099 121.99 89.8538 118.098 89.4697C115.067 89.1624 111.713 88.7697 108.076 88.2661C106.847 88.1039 105.575 87.9161 104.278 87.7197C100.53 88.0014 95.6903 88.4709 90.0394 89.2904L89.8942 89.7599C91.2942 90.1782 95.1184 91.5269 97.0134 95.172C98.217 97.4939 98.0121 99.756 97.5939 104.272C97.3122 107.405 97.0902 109.522 95.511 111.545C95.383 111.707 95.2549 111.861 95.1184 112.006C93.8038 113.474 91.9771 114.387 90.0479 114.754C68.0161 118.98 51.9511 122.181 44.0722 124.153C42.2198 124.614 39.0103 125.468 34.8531 124.947C33.402 124.759 30.9009 124.298 22.2453 120.32C19.1722 118.912 16.6711 117.682 15.0066 116.837C13.6408 117.964 12.5653 118.98 11.6434 119.91C7.34967 124.247 -1.52793 133.193 0.819516 138.392C1.02438 138.853 1.31461 139.271 1.68167 139.646C5.00223 139.493 9.58614 139.194 15.0237 138.554C21.3404 137.82 26.0695 136.94 28.673 136.454C46.044 133.202 58.3788 130.555 58.3788 130.555C58.3788 130.555 74.5548 127.055 95.1781 122.992C111.354 119.799 119.626 118.177 128.341 116.957C130.526 116.649 132.635 116.376 134.675 116.129C134.487 115.335 134.282 114.08 134.487 112.586C134.487 112.586 134.786 110.444 136.118 108.412C141.325 100.49 164.876 99.278 164.876 99.278C174.12 98.8085 186.728 98.6804 201.88 100.123C201.735 100.029 201.598 99.9267 201.462 99.8158ZM124.064 100.507L123.8 101.036L123.621 101.404C123.407 101.839 122.972 102.104 122.485 102.095C117.953 102.018 113.428 101.941 108.896 101.856C108.025 101.839 107.188 101.497 106.591 100.874C106.156 100.413 105.737 99.8328 105.43 99.1243C104.815 97.6817 105.14 96.7341 104.798 95.3427C104.568 94.3781 103.987 93.0976 102.459 91.7318C102.169 91.4757 102.297 90.9977 102.681 90.9379C104.901 90.5879 107.649 90.3745 110.799 90.605C112.797 90.7501 114.589 91.0574 116.16 91.416C117.236 91.6635 118.192 92.2355 118.9 93.0806C119.941 94.3269 122.152 96.0427 124.039 99.3463C124.244 99.7048 124.244 100.14 124.064 100.507Z" fill="#E5E1E6" stroke="#4A4F54" stroke-linejoin="round"/>
<path d="M390.717 163.855C385.868 163.983 381.028 164.112 376.171 164.24H376.163C365.851 160.526 355.505 156.77 345.134 152.98C350.119 152.929 355.104 152.878 360.089 152.835C370.298 156.506 380.508 160.185 390.717 163.855Z" fill="#E5E1E6" stroke="#4A4F54" stroke-linejoin="round"/>
<path d="M360.089 152.835C355.104 152.878 350.119 152.929 345.134 152.98H345.125C335.829 149.583 326.508 146.151 317.161 142.694C321.924 142.634 326.678 142.583 331.442 142.523C340.994 145.964 350.537 149.395 360.089 152.835Z" fill="#E5E1E6" stroke="#4A4F54" stroke-linejoin="round"/>
<path d="M331.442 142.524C326.678 142.583 321.924 142.635 317.161 142.694H317.152C316.981 142.626 316.802 142.566 316.631 142.498C301.915 137.052 287.301 131.589 272.773 126.108C276.751 125.972 280.728 125.835 284.706 125.707C300.285 131.315 315.863 136.915 331.442 142.524Z" fill="#E5E1E6" stroke="#4A4F54" stroke-linejoin="round"/>
<path d="M284.706 125.706C280.728 125.834 276.751 125.971 272.773 126.107C260.122 121.335 247.54 116.547 235.034 111.749C237.39 111.288 239.738 110.827 242.094 110.366H242.102C256.307 115.479 270.502 120.593 284.706 125.706Z" fill="#E5E1E6" stroke="#4A4F54" stroke-linejoin="round"/>
<path d="M186.822 70.024C184.688 70.0411 182.23 69.913 179.532 69.5118C177.629 69.2301 175.887 68.8545 174.334 68.4362C174.385 68.3338 174.419 68.2143 174.428 68.0948V67.907C174.436 67.4972 174.778 67.1729 175.187 67.1729C176.724 67.1814 178.636 67.3265 180.77 67.8131C183.305 68.385 185.345 69.2557 186.822 70.024Z" fill="#E5E1E6" stroke="#4A4F54" stroke-linejoin="round"/>
<path d="M116.476 131.178C116.476 132.168 116.339 134.012 115.281 135.933C115.05 136.359 112.737 140.423 108.153 140.918C102.878 141.49 98.4303 136.906 98.2169 134.123C98.1743 133.542 98.1572 130.956 98.1572 130.512C98.1487 129.582 98.1572 128.822 98.1572 128.335L98.123 128.199C105.336 126.466 111.337 125.006 116.271 123.794C116.339 126.252 116.407 128.711 116.476 131.178Z" fill="#E5E1E6" stroke="#4A4F54" stroke-linejoin="round"/>
<path d="M385.27 190.976C385.228 191.035 385.185 191.086 385.143 191.137L385.27 190.976Z" fill="#E5E1E6"/>
<path d="M385.27 190.976C385.228 191.035 385.185 191.086 385.143 191.137" stroke="#4A4F54" stroke-linejoin="round"/>
<path d="M324.281 73.1738H324.271" stroke="#4A4F54" stroke-linejoin="round"/>
<path d="M281.251 16.3213C281.251 16.3213 281.19 16.3735 281.164 16.4083L281.251 16.3213Z" fill="#E5E1E6"/>
<path d="M281.251 16.3213C281.251 16.3213 281.19 16.3735 281.164 16.4083" stroke="#4A4F54" stroke-linejoin="round"/>
<path d="M276.025 10.3799C263.878 22.2711 251.723 34.1622 239.576 46.0534C236.716 46.0875 233.856 46.1302 231.005 46.1644C231.987 45.0461 232.977 43.9364 233.967 42.8181C244.68 32.1732 255.402 21.5199 266.115 10.875C266.285 10.6104 266.456 10.3714 266.618 10.1494C267.156 10.6616 267.933 11.2506 268.974 11.6262C272.389 12.8469 275.59 10.6787 276.025 10.3799Z" fill="#E5E1E6" stroke="#4A4F54" stroke-linejoin="round"/>
<path d="M89.8959 89.7607C89.8959 89.7607 89.852 89.7607 89.8345 89.7432L89.8959 89.7607Z" fill="#E5E1E6"/>
<path d="M89.8959 89.7607C89.8959 89.7607 89.852 89.7607 89.8345 89.7432" stroke="#4A4F54" stroke-linejoin="round"/>
<path d="M124.064 100.507L123.8 101.036L123.621 101.403C123.407 101.839 122.972 102.103 122.485 102.095C117.953 102.018 113.428 101.941 108.896 101.856C108.025 101.839 107.188 101.497 106.591 100.874C106.156 100.413 105.737 99.8326 105.43 99.1241C104.815 97.6815 105.14 96.7339 104.798 95.3425C104.568 94.3779 103.987 93.0974 102.459 91.7316C102.169 91.4755 102.297 90.9975 102.681 90.9377C104.901 90.5877 107.649 90.3743 110.799 90.6048C112.797 90.7499 114.589 91.0572 116.16 91.4158C117.235 91.6633 118.192 92.2353 118.9 93.0804C119.941 94.3267 122.152 96.0425 124.039 99.3461C124.244 99.7046 124.244 100.14 124.064 100.507Z" fill="#E5E1E6" stroke="#4A4F54" stroke-linejoin="round"/>
<path d="M166.267 79.1494C166.344 79.3714 166.446 79.7128 166.506 80.1396C166.873 82.7774 164.611 84.3993 163.868 87.1395C163.262 89.3845 163.066 91.2881 162.989 92.5259C158.269 92.0564 154.846 91.8089 151.133 91.5357C139.745 90.7077 135.238 90.7247 128.119 90.2894C125.345 90.1101 121.982 89.854 118.089 89.4699C123.621 89.8028 128.512 89.6235 132.541 89.2735C138.806 88.7187 143.177 87.7285 148.631 86.4822C154.624 85.1163 157.825 84.1432 161.871 81.9408C163.8 80.8908 165.303 79.8579 166.267 79.1494Z" fill="#E5E1E6" stroke="#4A4F54" stroke-linejoin="round"/>
<path d="M161.649 73.4552C161.658 74.0698 161.683 74.6588 161.734 75.2137C161.18 75.2905 160.531 75.3417 159.814 75.3076C158.593 75.2393 157.56 74.9491 156.758 74.6332C156.425 74.5052 156.135 74.3771 155.887 74.2491C156.937 72.8918 157.748 71.7479 158.755 70.4589C159.063 70.0663 159.489 69.7675 159.959 69.6224C160.036 69.6053 160.113 69.5797 160.198 69.5626C160.275 69.5541 160.36 69.537 160.446 69.5285C160.855 69.4943 161.265 69.4602 161.683 69.4346V69.4687C161.769 69.4773 161.863 69.4943 161.973 69.5114C161.786 70.6211 161.641 71.9528 161.649 73.4552Z" fill="#E5E1E6" stroke="#4A4F54" stroke-linejoin="round"/>
<path d="M166.848 78.9444H166.839C166.626 78.9871 166.378 79.0212 166.096 79.0468C165.584 79.0981 164.97 79.1151 164.295 79.0298C163.467 78.9359 162.776 78.731 162.264 78.5347C162.042 77.5957 161.837 76.4859 161.734 75.214C161.683 74.6591 161.658 74.0701 161.649 73.4555C161.641 71.9531 161.786 70.6214 161.973 69.5117C163.168 69.691 165.746 70.2629 166.967 72.3287C168.026 74.1214 167.582 76.1786 166.848 78.9444Z" fill="#E5E1E6" stroke="#4A4F54" stroke-linejoin="round"/>
<path d="M196.852 85.2527C196.391 86.849 195.947 89.1538 196.135 91.9111C196.229 93.3025 196.468 94.5232 196.75 95.5476C196.75 95.5988 196.75 95.6585 196.767 95.7268C196.775 95.7866 196.792 95.8463 196.801 95.8976C195.23 95.8122 193.753 95.7268 192.362 95.6329C192.379 94.8988 192.439 94.1135 192.584 93.2769C193.292 89.1624 195.529 86.2259 197.108 84.5527C197.023 84.7832 196.937 85.0222 196.852 85.2527Z" fill="#E5E1E6" stroke="#4A4F54" stroke-linejoin="round"/>
<path d="M192.362 95.7292V95.6328V95.7292Z" fill="#E5E1E6"/>
<path d="M192.362 95.7292V95.6328" stroke="#4A4F54" stroke-linejoin="round"/>
<path d="M179.191 85.1841C178.849 84.7829 178.389 84.8939 175.691 84.9793C173.386 85.0561 172.917 85.0049 172.499 85.4488C172.14 85.8329 172.063 86.4475 171.901 87.6853C171.833 88.1719 171.807 88.6157 171.79 88.9999C171.764 89.4438 172.072 89.8364 172.507 89.9474C173.634 90.2206 174.598 90.3657 175.324 90.4511C177.97 90.7498 178.474 90.323 178.645 90.1523C178.96 89.8364 179.046 89.2133 179.208 87.9755C179.413 86.3792 179.515 85.5768 179.191 85.1927V85.1841Z" fill="#E5E1E6" stroke="#4A4F54" stroke-linejoin="round"/>
<path d="M217.373 86.4224C216.955 87.4212 211.901 86.3456 208.299 85.031C205.32 83.9469 202.964 82.564 201.265 81.3945C201.078 81.2665 200.864 81.2067 200.659 81.2067V81.1726C199.848 80.9506 199.037 80.7287 198.235 80.4982C198.039 79.7641 197.842 79.0214 197.646 78.2787C198.483 78.1934 199.413 78.1507 200.403 78.1678C202.196 78.1934 203.775 78.4239 205.081 78.7141C205.081 78.7141 205.166 78.7397 205.209 78.7568C207.539 79.508 210.305 80.6689 213.148 82.5299C214.326 83.2981 217.757 85.5432 217.373 86.4224Z" fill="#E5E1E6" stroke="#4A4F54" stroke-linejoin="round"/>
<path d="M162.264 78.5342C162.17 78.6622 161.239 79.9085 159.703 79.9C159.413 79.9 159.122 79.8573 158.841 79.7634C157.825 79.4476 156.971 78.5854 156.638 77.4415C156.681 76.5025 156.715 75.5721 156.758 74.6416C157.56 74.9489 158.593 75.2391 159.814 75.3074C160.531 75.3416 161.18 75.2904 161.735 75.2135C161.837 76.4855 162.042 77.5952 162.264 78.5342Z" fill="#E5E1E6" stroke="#4A4F54" stroke-linejoin="round"/>
<path d="M158.841 79.7643L158.815 79.8582C152.754 82.1886 144.858 84.5959 135.435 85.9275C127.308 87.0799 120.104 87.1482 114.239 86.8068C118.704 85.8507 122.246 85.2788 124.858 84.9202C130.765 84.1093 133.07 83.8873 133.07 83.8873C136.553 83.5544 138.115 83.5459 141.171 82.9654C141.615 82.8886 143.305 82.4532 146.685 81.574C148.623 81.0789 149.553 80.8228 150.578 80.0716C151.124 79.6704 151.568 79.2265 151.926 78.7911C152.558 78.8338 153.565 78.8167 154.726 78.4241C155.563 78.1424 156.203 77.7582 156.638 77.4424C156.971 78.5863 157.825 79.4484 158.841 79.7643Z" fill="#E5E1E6" stroke="#4A4F54" stroke-linejoin="round"/>
<path d="M165.268 79.089C164.56 79.8146 163.425 80.8817 161.88 81.9402C160.642 82.7853 158.465 84.2365 148.64 86.4815C143.185 87.7278 138.815 88.7181 132.549 89.2729C128.52 89.6229 123.629 89.8022 118.098 89.4693C115.067 89.162 111.713 88.7693 108.076 88.2656V88.2315C110.296 87.6766 112.344 87.2071 114.222 86.8059H114.239C120.104 87.1474 127.308 87.0791 135.435 85.9267C144.858 84.595 152.754 82.1877 158.815 79.8573L158.841 79.7634C159.122 79.8573 159.413 79.9 159.703 79.9C161.239 79.9085 162.17 78.6622 162.264 78.5342C162.81 78.7391 163.493 78.9354 164.295 79.0293C164.645 79.072 164.97 79.089 165.268 79.089Z" fill="#E5E1E6" stroke="#4A4F54" stroke-linejoin="round"/>
<path d="M166.115 79.0381C166.115 79.0381 166.105 79.0471 166.096 79.0471L166.115 79.0381Z" fill="#E5E1E6"/>
<path d="M166.115 79.0381C166.115 79.0381 166.105 79.0471 166.096 79.0471" stroke="#4A4F54" stroke-linejoin="round"/>
<path d="M42.8867 27.3164H42.8687H42.8867Z" fill="#E5E1E6"/>
<path d="M42.8867 27.3164H42.8687" stroke="#4A4F54" stroke-linejoin="round"/>
</g>
<defs>
<clipPath id="clip0_1871_4656">
<rect width="430" height="192" fill="white"/>
</clipPath>
</defs>
</svg>
