<svg width="431" height="192" viewBox="0 0 431 192" fill="none" xmlns="http://www.w3.org/2000/svg">
<g clip-path="url(#clip0_1964_4313)">
<path d="M391.625 163.856C381.392 160.185 371.159 156.506 360.926 152.835C351.352 149.395 341.787 145.963 332.212 142.523C316.598 136.915 300.983 131.315 285.368 125.706C271.131 120.593 256.902 115.48 242.665 110.367H242.657C241.716 110.034 240.783 109.692 239.842 109.359C238.105 108.728 236.36 108.105 234.623 107.481C248.347 103.768 277.035 95.9743 308.914 87.0794C317.077 84.8088 328.781 81.5223 344.208 76.5712C353.346 73.6432 360.824 71.0737 365.855 69.3067C365.966 68.7945 366.069 67.958 365.889 66.9678C365.641 65.6531 365.008 64.7398 364.657 64.2959C364.101 64.4154 363.544 64.5349 362.98 64.6544C362.569 64.1764 362.167 63.6898 361.756 63.2118H361.748C353.679 53.7278 345.491 44.1927 337.175 34.6149C335.678 32.882 334.163 31.1406 332.649 29.3992C326.317 22.1347 319.986 14.9386 313.68 7.81072C313.201 7.27292 312.722 6.73513 312.251 6.19734C310.532 4.26812 308.829 2.34744 307.118 0.426758C301.873 0.768213 297.466 1.18649 294.155 1.54502C288.089 2.20232 284.992 2.55231 281.895 3.38888C277.908 4.46446 272.483 6.45343 272.483 6.45343C272.286 6.54733 272.098 6.6327 271.927 6.70953C271.028 7.12781 270.489 7.39244 270.164 7.55463C269.959 7.64853 269.762 7.75096 269.694 7.78511C269.163 8.05827 268.333 8.66435 267.247 10.1497C267.084 10.3716 266.913 10.6106 266.742 10.8753C256.004 21.5201 245.258 32.1735 234.52 42.8184C222.105 45.4305 209.699 48.0426 197.284 50.6548C197.07 48.5292 196.762 46.7622 196.489 45.439C196.155 43.8 195.676 41.8281 194.777 39.5916C194.007 37.6795 193.511 36.4844 192.895 36.5014C192.707 36.5014 191.92 36.6295 190.97 40.7611C190.371 43.3391 189.781 47.2146 190.089 52.2852C172.78 55.9302 155.471 59.5838 138.162 63.2374C135.75 63.7495 133.328 64.2532 130.915 64.7654C129.444 64.0654 127.972 63.3654 126.5 62.6654C125.097 61.9996 123.703 61.3337 122.299 60.6679C114.043 56.7412 105.778 52.8145 97.5213 48.8877C90.0947 45.3622 82.6681 41.8281 75.2415 38.2941C70.9549 36.2624 66.6769 34.2222 62.3904 32.182C58.7455 30.4492 55.1092 28.7248 51.4644 26.9919C47.5799 25.1395 43.687 23.2957 39.8025 21.4433C36.6111 21.247 33.6935 21.1616 31.0925 21.1445C29.7663 21.136 28.5257 21.1445 27.3792 21.1616C21.9462 21.2555 19.1997 21.597 16.3249 23.1676C14.7591 24.0298 13.6126 25.003 12.8682 25.7286C37.6293 39.9758 62.3818 54.2144 87.1429 68.4616C89.8722 70.0323 92.6102 71.603 95.3395 73.1737C96.5973 73.8993 99.3266 75.6834 101.714 78.9272C103.801 81.7442 104.802 84.621 105.324 86.7465L104.529 87.7197C100.773 88.0014 95.9213 88.4709 90.2573 89.2904C90.1717 89.2989 90.0862 89.3074 90.0006 89.3245H89.992C87.314 89.7086 84.4477 90.1781 81.4275 90.7415C63.1775 94.1219 47.9992 99.3547 35.3448 105.1C24.6071 109.974 18.7548 113.798 15.05 116.837C13.6811 117.964 12.603 118.98 11.679 119.91C7.37528 124.247 -1.52296 133.193 0.829942 138.392C1.03529 138.853 1.32619 139.271 1.6941 139.646C7.40951 145.494 31.6401 141.43 55.0664 137.504C69.0726 135.156 80.2639 132.501 90.976 129.958C93.5684 129.343 96.024 128.754 98.3598 128.199L98.394 128.336C98.394 128.822 98.3855 129.582 98.394 130.512C98.394 130.956 98.4111 133.543 98.4539 134.123C98.6678 136.906 103.125 141.49 108.413 140.918C113.008 140.423 115.326 136.36 115.557 135.933C116.618 134.012 116.755 132.169 116.755 131.178C116.687 128.711 116.618 126.253 116.55 123.794C130.667 120.32 136.032 118.852 136.032 118.852C144.1 116.649 150.337 114.814 157.465 114.071C160.057 113.807 162.761 113.679 165.721 113.73C166.277 113.739 174.833 113.935 184.262 116.342C184.63 116.427 184.989 116.521 185.357 116.624C187.89 117.307 191.603 118.468 196.412 120.073C225.348 129.676 293.89 155.174 382.376 189.507C383.634 189.994 384.9 190.48 386.175 190.976C386.68 191.172 387.193 191.377 387.707 191.573C389.811 191.548 393.037 191.377 396.879 190.643C403.809 189.32 407.745 187.126 417.678 182.96C420.681 181.697 425.105 179.887 430.581 177.838C417.601 173.177 404.613 168.516 391.634 163.856H391.625ZM197.173 68.7945V68.7775C197.173 68.7775 197.532 67.9665 197.627 66.9934C197.712 66.1483 197.704 63.3739 197.592 59.3277C208.287 56.8607 219.23 54.1888 230.396 51.2694C233.895 50.356 237.361 49.4341 240.8 48.4951C248.62 46.378 256.278 44.2013 263.773 41.9989C264.09 41.9135 264.346 41.683 264.475 41.3843C264.825 40.5477 265.176 39.7111 265.527 38.8831C265.561 38.7977 265.604 38.7209 265.664 38.6526C265.69 38.6099 265.724 38.5673 265.758 38.5331C271.371 32.9162 276.983 27.2992 282.596 21.6823H282.605C283.075 21.2043 283.546 20.7348 284.025 20.2567C297.663 37.7392 311.293 55.2132 324.931 72.6957C325.042 72.8408 325.068 73.0115 325.034 73.1737C324.983 73.3615 324.837 73.5237 324.632 73.5749C291.734 81.7271 258.853 89.8794 225.955 98.0401C220.959 99.2779 215.953 100.516 210.957 101.753C207.979 102.496 204.839 101.89 202.349 100.123C202.204 100.029 202.067 99.9267 201.93 99.8157C200.493 98.6804 199.055 97.545 197.618 96.4097C197.447 96.2816 197.318 96.1024 197.267 95.8975H197.259C197.224 95.7865 197.207 95.667 197.207 95.5475C196.839 94.1988 196.471 92.2695 196.557 89.9477C196.617 88.044 196.959 86.4477 197.31 85.2527C197.31 85.1673 197.319 85.0307 197.378 84.8771C197.421 84.7575 197.49 84.6551 197.567 84.5527C197.567 84.5527 197.584 84.5356 197.592 84.5271C197.661 84.4588 197.729 84.3905 197.789 84.3222C198.294 83.7844 198.79 83.2381 199.295 82.6832C199.646 82.3076 199.988 81.932 200.33 81.5649C200.544 81.3345 200.826 81.2064 201.126 81.2064C201.331 81.2064 201.545 81.2662 201.733 81.3942C203.436 82.5637 205.798 83.9466 208.784 85.0307C212.394 86.3453 217.459 87.4209 217.879 86.4221C218.264 85.5429 214.824 83.2978 213.643 82.5295C210.794 80.6686 208.022 79.5077 205.686 78.7565C205.643 78.7394 205.601 78.7223 205.558 78.7053C204.796 78.3638 204.702 77.2797 205.447 76.8187C205.515 76.776 205.592 76.7334 205.661 76.6821C206.2 76.3321 206.67 75.9651 207.072 75.6151C207.594 75.1712 207.577 74.3603 207.03 73.942C206.516 73.5578 205.909 73.1395 205.216 72.7298C202.743 71.2701 200.613 70.775 200.133 70.6725C199.577 70.5445 198.884 70.425 198.089 70.3482C197.464 70.2884 197.036 69.7335 197.087 69.1531C197.096 69.0336 197.122 68.914 197.173 68.7945ZM145.058 71.8164C150.047 70.6469 155.035 69.4774 160.023 68.308C160.1 68.2909 160.185 68.2738 160.262 68.2482C170.436 65.8666 180.6 63.4764 190.773 61.0862C190.979 63.1691 191.184 65.0129 192.065 67.2665C192.519 68.4189 193.006 69.3238 193.366 69.9384C191.329 69.964 189.293 69.9982 187.257 70.0238C185.776 69.2555 183.732 68.3848 181.19 67.8129C179.051 67.3263 177.135 67.1812 175.595 67.1726C175.184 67.1726 174.842 67.497 174.833 67.9068V68.0946C174.825 68.2141 174.791 68.3336 174.739 68.436C174.611 68.6665 174.38 68.8201 174.098 68.8287C171.548 68.8884 168.93 68.9909 166.235 69.1445C164.823 69.2299 163.428 69.3238 162.059 69.4348C161.64 69.4604 161.229 69.4945 160.819 69.5287C160.733 69.5372 160.647 69.5543 160.57 69.5628C160.485 69.5799 160.408 69.6055 160.331 69.6226C159.86 69.7677 159.433 70.0665 159.125 70.4591C158.115 71.7481 157.302 72.892 156.25 74.2493C155.702 74.9493 155.095 75.7175 154.359 76.5882C154.162 76.8187 153.786 77.2541 153.195 77.3907C152.28 77.5955 151.424 76.9638 151.048 76.6907C149.713 75.7261 147.608 74.2834 144.947 72.4225C144.81 72.3286 144.768 72.1664 144.819 72.0298C144.853 71.9274 144.939 71.842 145.058 71.8164Z" fill="#4A4F54" stroke="#E5E1E6" stroke-linejoin="round"/>
<path d="M430.572 177.838C425.096 179.887 420.673 181.696 417.67 182.96C407.736 187.125 403.8 189.319 396.87 190.642C393.028 191.377 389.803 191.547 387.698 191.573C387.185 191.377 386.671 191.172 386.167 190.975C387.638 189.225 390.145 186.579 393.841 184.223C401.516 179.323 409.533 178.734 418.782 178.043C423.685 177.684 427.766 177.727 430.572 177.838Z" fill="#4A4F54" stroke="#E5E1E6" stroke-linejoin="round"/>
<path d="M430.572 177.838C427.766 177.727 423.685 177.684 418.782 178.043C409.533 178.734 401.516 179.323 393.841 184.223C390.145 186.579 387.638 189.225 386.167 190.975C384.892 190.48 383.625 189.994 382.368 189.507C383.103 188.414 384.267 186.886 385.944 185.324C389.392 182.123 394.055 179.699 403.8 178.145C406.393 177.735 409.576 177.343 413.281 177.155C418.192 176.907 424.01 177.001 430.572 177.838Z" fill="#4A4F54" stroke="#E5E1E6" stroke-linejoin="round"/>
<path d="M430.572 177.838C424.01 177.001 418.192 176.908 413.281 177.155C401.242 172.904 389.161 168.593 377.046 164.24C381.914 164.112 386.766 163.984 391.625 163.855C404.605 168.516 417.593 173.177 430.572 177.838Z" fill="#4A4F54" stroke="#E5E1E6" stroke-linejoin="round"/>
<path d="M239.842 109.359C233.895 108.975 228.916 109.146 225.279 109.402C217.194 109.974 211.513 110.435 205.258 113.593C201.194 115.642 198.277 118.134 196.446 119.936L196.403 120.072C191.594 118.467 187.881 117.306 185.349 116.624C184.981 116.521 184.621 116.427 184.253 116.342C184.767 115.556 185.588 114.447 186.76 113.286C191.218 108.881 196.831 107.805 202.195 107.063C211.992 105.706 221.25 105.432 228.916 105.595C229.831 106.397 230.687 106.79 230.798 106.841C232.389 107.566 233.853 107.549 234.623 107.481C236.359 108.104 238.105 108.727 239.842 109.359Z" fill="#4A4F54" stroke="#E5E1E6" stroke-linejoin="round"/>
<path d="M413.28 177.155C409.576 177.343 406.393 177.735 403.8 178.145C394.055 179.699 389.392 182.123 385.944 185.324C384.267 186.886 383.103 188.414 382.368 189.507C293.881 155.174 225.339 129.676 196.403 120.072L196.446 119.936C198.277 118.134 201.194 115.642 205.258 113.593C211.513 110.435 217.194 109.974 225.279 109.402C228.916 109.146 233.895 108.975 239.842 109.359C240.783 109.692 241.715 110.033 242.657 110.366C240.295 110.827 237.942 111.288 235.581 111.749C248.115 116.547 260.727 121.335 273.407 126.107C287.969 131.588 302.617 137.051 317.368 142.497C317.539 142.565 317.718 142.625 317.89 142.693H317.898C327.267 146.151 336.61 149.582 345.928 152.98H345.936C356.332 156.77 366.702 160.526 377.037 164.239H377.046C389.161 168.593 401.242 172.904 413.28 177.155Z" fill="#4A4F54" stroke="#E5E1E6" stroke-linejoin="round"/>
<path d="M365.855 69.3067C360.824 71.0738 353.346 73.6432 344.208 76.5712C328.782 81.5223 317.077 84.8088 308.915 87.0795C277.035 95.9744 248.347 103.768 234.623 107.481C233.853 107.55 232.39 107.567 230.798 106.841C230.687 106.79 229.831 106.397 228.916 105.595C228.189 104.955 227.427 104.058 226.948 102.889C226.717 102.325 226.589 101.771 226.418 101.028C226.127 99.7986 226.015 98.7657 225.956 98.0402C258.853 89.8794 291.734 81.7272 324.632 73.5749C324.837 73.5237 324.983 73.3615 325.034 73.1737C337.688 70.3396 350.334 67.497 362.98 64.6544C363.545 64.5349 364.101 64.4154 364.657 64.2959C365.008 64.7398 365.641 65.6532 365.889 66.9678C366.069 67.958 365.966 68.7946 365.855 69.3067Z" fill="#4A4F54" stroke="#E5E1E6" stroke-linejoin="round"/>
<path d="M228.916 105.595C221.25 105.433 211.992 105.706 202.195 107.063C196.831 107.806 191.218 108.881 186.76 113.286C185.588 114.447 184.767 115.557 184.254 116.342C174.825 113.935 166.269 113.738 165.713 113.73C162.752 113.679 160.049 113.807 157.456 114.071C151.895 114.404 144.203 115.002 134.988 116.129C134.8 115.335 134.595 114.08 134.8 112.586C134.8 112.586 135.099 110.443 136.434 108.412C141.653 100.49 165.259 99.2778 165.259 99.2778C174.525 98.8083 187.163 98.6803 202.349 100.123C204.839 101.89 207.979 102.496 210.957 101.753C215.954 100.516 220.959 99.2778 225.955 98.04C226.015 98.7656 226.127 99.7985 226.418 101.028C226.589 101.77 226.717 102.325 226.948 102.889C227.427 104.058 228.189 104.954 228.916 105.595Z" fill="#4A4F54" stroke="#E5E1E6" stroke-linejoin="round"/>
<path d="M207.072 75.6154C206.67 75.9653 206.2 76.3324 205.661 76.6824C205.592 76.7336 205.515 76.7763 205.447 76.819C204.702 77.2799 204.797 78.3641 205.558 78.7055C204.249 78.4238 202.666 78.1933 200.869 78.1677C199.877 78.1507 198.944 78.1933 198.106 78.2787C196.959 76.0166 195.804 73.763 194.658 71.5008C195.453 70.724 196.258 69.9387 197.053 69.1533H197.088C197.036 69.7338 197.464 70.2887 198.089 70.3484C198.884 70.4252 199.577 70.5447 200.134 70.6728C200.613 70.7752 202.743 71.2703 205.216 72.7301C205.909 73.1398 206.516 73.5581 207.03 73.9422C207.577 74.3605 207.594 75.1715 207.072 75.6154Z" fill="#4A4F54" stroke="#E5E1E6" stroke-linejoin="round"/>
<path d="M197.78 84.3223C197.72 84.3906 197.652 84.4588 197.592 84.5271C197.661 84.4588 197.729 84.3906 197.789 84.3223H197.78Z" fill="#4A4F54" stroke="#E5E1E6" stroke-linejoin="round"/>
<path d="M51.4558 26.9919C48.6409 27.0944 45.8089 27.2054 42.9854 27.3163C38.9897 25.2676 35.0197 23.2103 31.084 21.1445C33.685 21.1616 36.6026 21.247 39.794 21.4433C43.6784 23.2957 47.5714 25.1396 51.4558 26.9919Z" fill="#4A4F54" stroke="#E5E1E6" stroke-linejoin="round"/>
<path d="M62.382 32.1823C59.165 32.2079 55.9565 32.2421 52.7394 32.2677C51.0368 31.4055 49.3341 30.5519 47.6229 29.6811C46.0743 28.8958 44.5342 28.1105 42.9941 27.3166C45.8176 27.2056 48.6497 27.0946 51.4646 26.9922C55.1094 28.7251 58.7457 30.4494 62.3906 32.1823H62.382Z" fill="#4A4F54" stroke="#E5E1E6" stroke-linejoin="round"/>
<path d="M75.233 38.2939C71.7849 38.2939 68.3283 38.2939 64.8802 38.2939C60.8503 36.322 56.8034 34.316 52.7393 32.2758C55.9563 32.2502 59.1648 32.216 62.3819 32.1904C66.6684 34.2306 70.9464 36.2708 75.233 38.3025V38.2939Z" fill="#4A4F54" stroke="#E5E1E6" stroke-linejoin="round"/>
<path d="M97.513 48.8873C94.1077 48.9215 90.7109 48.9556 87.3142 48.9898C79.879 45.5325 72.4011 41.9643 64.8804 38.2852C68.3284 38.2852 71.7851 38.2852 75.2331 38.2852C82.6597 41.8192 90.0863 45.3533 97.513 48.8788V48.8873Z" fill="#4A4F54" stroke="#E5E1E6" stroke-linejoin="round"/>
<path d="M122.291 60.6679C119.467 60.7789 116.644 60.8728 113.812 60.9752C105.042 57.1338 96.2122 53.1388 87.314 48.9901C90.7107 48.956 94.1074 48.9218 97.5127 48.8877C105.769 52.8144 114.034 56.7412 122.291 60.6679Z" fill="#4A4F54" stroke="#E5E1E6" stroke-linejoin="round"/>
<path d="M126.492 62.6658C121.624 62.4439 112.777 62.1793 102.929 62.828C98.976 63.0841 94.0649 63.5451 89.3077 66.7633C88.358 67.4121 87.6136 68.0267 87.1345 68.462C62.3734 54.2148 37.6209 39.9762 12.8599 25.729C13.6042 25.0034 14.7507 24.0302 16.3165 23.1681C19.1913 21.5974 21.9378 21.2559 27.3708 21.162C28.5173 21.145 29.758 21.1364 31.0841 21.145C35.0199 23.2108 38.9899 25.268 42.9855 27.3167C44.5256 28.1106 46.0657 28.896 47.6143 29.6813C49.3255 30.552 51.0282 31.4057 52.7308 32.2678C56.7949 34.308 60.8419 36.3141 64.8718 38.286C72.3925 41.9652 79.8705 45.5334 87.3056 48.9906C96.2039 53.1393 105.034 57.1343 113.804 60.9756C116.636 60.8732 119.459 60.7793 122.283 60.6769C123.686 61.3342 125.08 62 126.484 62.6658H126.492Z" fill="#4A4F54" stroke="#E5E1E6" stroke-linejoin="round"/>
<path d="M130.907 64.7654C129.735 65.141 128.562 65.5081 127.39 65.8837C125.705 66.0203 124.011 66.1654 122.317 66.302C116.593 66.1227 111.947 66.7032 108.67 67.3007C104.161 68.1287 101.816 69.0848 100.08 69.9897C97.9918 71.0738 96.409 72.2604 95.3309 73.1737C92.6016 71.6031 89.8636 70.0324 87.1343 68.4617C87.6134 68.0263 88.3578 67.4117 89.3075 66.7629C94.0646 63.5447 98.9758 63.0838 102.929 62.8277C112.777 62.1789 121.624 62.4435 126.492 62.6655C127.964 63.3655 129.435 64.0654 130.907 64.7654Z" fill="#4A4F54" stroke="#E5E1E6" stroke-linejoin="round"/>
<path d="M190.773 61.0861C180.6 63.4763 170.436 65.8665 160.263 68.2482C160.186 68.2738 160.1 68.2908 160.023 68.3079C155.035 69.4774 150.047 70.6469 145.058 71.8164C144.939 71.842 144.853 71.9273 144.819 72.0298C144.357 72.0639 143.613 72.0639 142.774 71.7737C141.243 71.2444 140.438 70.092 140.173 69.6823C140.045 68.5384 139.779 67.1214 139.206 65.5592C138.89 64.68 138.522 63.9032 138.154 63.2373C155.463 59.5838 172.771 55.9302 190.08 52.2852C190.243 55.0595 190.465 57.996 190.773 61.0861Z" fill="#4A4F54" stroke="#E5E1E6" stroke-linejoin="round"/>
<path d="M240.8 48.495C237.361 49.434 233.896 50.356 230.396 51.2694C219.231 54.1888 208.287 56.8607 197.592 59.3277C197.524 56.8607 197.421 53.9242 197.276 50.6547C209.691 48.0426 222.097 45.4305 234.512 42.8184C233.519 43.9366 232.527 45.0464 231.543 46.1646C234.4 46.1305 237.267 46.0878 240.133 46.0536L240.8 48.495Z" fill="#4A4F54" stroke="#E5E1E6" stroke-linejoin="round"/>
<path d="M282.596 21.6826C276.984 27.2995 271.371 32.9165 265.758 38.5334C265.724 38.5676 265.69 38.6102 265.664 38.6529C263.388 39.0285 261.121 39.4041 258.854 39.7883C263.029 35.3408 267.341 30.8592 271.807 26.3349C272.372 25.763 272.945 25.1825 273.51 24.6191C276.539 23.6374 279.559 22.6558 282.596 21.6826Z" fill="#4A4F54" stroke="#E5E1E6" stroke-linejoin="round"/>
<path d="M284.025 20.2571C283.546 20.7352 283.075 21.2047 282.605 21.6827H282.596C279.559 22.6558 276.539 23.6375 273.51 24.6192C276.29 21.8193 279.063 19.0876 281.818 16.4072C282.75 17.8072 283.469 19.1218 284.025 20.2571Z" fill="#4A4F54" stroke="#E5E1E6" stroke-linejoin="round"/>
<path d="M281.818 16.4066C279.063 19.087 276.29 21.8186 273.51 24.6185C272.945 25.1819 272.372 25.7624 271.807 26.3344C267.341 30.8586 263.029 35.3402 258.853 39.7877C261.121 39.4035 263.388 39.0279 265.664 38.6523C265.604 38.7206 265.561 38.7975 265.527 38.8828C265.176 39.7108 264.825 40.5474 264.475 41.384C264.346 41.6827 264.09 41.9132 263.773 41.9986C256.278 44.201 248.62 46.3778 240.8 48.4948L240.133 46.0534C252.308 34.1622 264.492 22.271 276.667 10.3799C277.514 11.1567 278.378 12.0359 279.234 13.0262C280.235 14.17 281.082 15.3139 281.818 16.4066Z" fill="#4A4F54" stroke="#E5E1E6" stroke-linejoin="round"/>
<path d="M276.667 10.3806C276.231 10.6794 273.022 12.8476 269.6 11.6269C268.556 11.2513 267.777 10.6623 267.238 10.1501C268.325 8.66479 269.155 8.05871 269.685 7.78554C269.754 7.7514 269.951 7.64896 270.156 7.55506C270.481 7.39287 271.02 7.12824 271.918 6.70996C273.279 7.58067 274.939 8.77576 276.667 10.3806Z" fill="#4A4F54" stroke="#E5E1E6" stroke-linejoin="round"/>
<path d="M312.243 6.19734C309.06 6.43636 306.296 6.73513 304.055 7.0083C300.359 7.46073 297.569 7.93023 295.678 8.24607C292.504 8.78386 290.921 9.04849 289.364 9.41555C286.874 10.0046 283.366 11.046 279.234 13.0264C278.378 12.0362 277.514 11.157 276.667 10.3802C274.939 8.77533 273.279 7.58024 271.918 6.70953C272.09 6.6327 272.278 6.54733 272.475 6.45343C272.475 6.45343 277.899 4.46446 281.886 3.38888C284.983 2.55231 288.081 2.20232 294.147 1.54502C297.458 1.18649 301.864 0.768213 307.109 0.426758C308.82 2.34744 310.523 4.26812 312.243 6.19734Z" fill="#4A4F54" stroke="#E5E1E6" stroke-linejoin="round"/>
<path d="M337.166 34.6147C334.095 35.2123 331.023 35.8098 327.951 36.4074C320.2 27.1881 312.457 17.9603 304.713 8.73247C307.699 8.42517 310.685 8.11786 313.671 7.81055C319.977 14.9384 326.309 22.1346 332.64 29.399C334.155 31.1404 335.669 32.8819 337.166 34.6147Z" fill="#4A4F54" stroke="#E5E1E6" stroke-linejoin="round"/>
<path d="M361.748 63.2121C358.556 63.895 355.365 64.5779 352.174 65.2608C344.097 55.6488 336.02 46.0284 327.952 36.4079C331.023 35.8103 334.095 35.2128 337.166 34.6152C345.483 44.193 353.671 53.7282 361.739 63.2121H361.748Z" fill="#4A4F54" stroke="#E5E1E6" stroke-linejoin="round"/>
<path d="M325.034 73.1736C325.068 73.0114 325.042 72.8407 324.931 72.6956C311.293 55.2131 297.663 37.7391 284.025 20.2567C283.469 19.1213 282.75 17.8067 281.817 16.4068C281.082 15.3141 280.234 14.1702 279.233 13.0264C283.366 11.0459 286.874 10.0045 289.364 9.41548C290.921 9.04841 292.504 8.78378 295.678 8.24599C297.569 7.93015 300.358 7.46065 304.054 7.00822C306.296 6.73506 309.06 6.43628 312.242 6.19727C312.713 6.73506 313.192 7.27285 313.671 7.81064C310.685 8.11795 307.699 8.42526 304.713 8.73257C312.456 17.9604 320.2 27.1882 327.951 36.4075C336.02 46.028 344.096 55.6484 352.173 65.2604C355.365 64.5775 358.556 63.8946 361.747 63.2117H361.756C362.167 63.6897 362.569 64.1763 362.98 64.6543C350.334 67.4969 337.688 70.3395 325.034 73.1736Z" fill="#4A4F54" stroke="#E5E1E6" stroke-linejoin="round"/>
<path d="M197.626 66.9931C197.532 67.9662 197.181 68.7772 197.181 68.7772V68.7942C197.122 68.9137 197.096 69.0333 197.087 69.1528H197.053C196.257 69.9381 195.453 70.7235 194.657 71.5003C194.23 70.9795 193.793 70.4588 193.365 69.9381C193.006 69.3235 192.518 68.4186 192.065 67.2662C191.184 65.0126 190.978 63.1688 190.773 61.0859C190.465 57.9957 190.243 55.0592 190.08 52.2849C189.772 47.2143 190.362 43.3388 190.961 40.7608C191.911 36.6292 192.698 36.5012 192.886 36.5012C193.502 36.4841 193.999 37.6792 194.769 39.5913C195.667 41.8279 196.146 43.7998 196.48 45.4387C196.754 46.7619 197.062 48.5289 197.276 50.6545C197.421 53.9239 197.524 56.8604 197.592 59.3274C197.703 63.3736 197.712 66.148 197.626 66.9931Z" fill="#4A4F54" stroke="#E5E1E6" stroke-linejoin="round"/>
<path d="M201.126 81.1728V81.2069C200.826 81.2069 200.544 81.335 200.33 81.5655C199.988 81.9325 199.646 82.3081 199.295 82.6837C198.79 83.2386 198.294 83.7849 197.789 84.3227H197.78C193.751 83.6483 189.635 83.0081 185.426 82.4106C179.086 81.5057 172.908 80.763 166.902 80.1399C166.953 79.9521 167.013 79.7643 167.064 79.5594C167.124 79.346 167.176 79.1411 167.235 78.9448C167.971 76.179 168.416 74.1217 167.355 72.3291C166.132 70.2633 163.548 69.6914 162.35 69.5121C162.239 69.495 162.145 69.478 162.059 69.4694V69.4353C163.428 69.3243 164.823 69.2304 166.234 69.145C168.93 68.9914 171.548 68.889 174.097 68.8292C174.38 68.8207 174.611 68.667 174.739 68.4365C176.296 68.8548 178.042 69.2304 179.95 69.5121C182.653 69.9133 185.118 70.0414 187.257 70.0243C189.293 69.9987 191.329 69.9645 193.365 69.9389C193.793 70.4596 194.23 70.9804 194.657 71.5011C195.804 73.7632 196.959 76.0168 198.106 78.279C198.302 79.0216 198.499 79.7643 198.696 80.4984C199.5 80.7289 200.313 80.9508 201.126 81.1728Z" fill="#4A4F54" stroke="#E5E1E6" stroke-linejoin="round"/>
<path d="M153.195 77.3906C152.981 77.7918 152.682 78.2869 152.28 78.7906C151.92 79.2259 151.476 79.6698 150.928 80.071C149.901 80.8222 148.969 81.0783 147.026 81.5734C143.638 82.4527 141.944 82.888 141.499 82.9648C138.436 83.5453 136.87 83.5539 133.38 83.8868C133.38 83.8868 131.069 84.1087 125.149 84.9197C122.531 85.2782 118.98 85.8501 114.505 86.8062H114.488C112.606 87.2074 110.552 87.6769 108.336 88.2318V88.2659C107.096 88.1037 105.821 87.9159 104.52 87.7196L105.316 86.7465C104.794 84.6209 103.793 81.7441 101.705 78.9271C99.3182 75.6833 96.5888 73.8992 95.3311 73.1736C96.4091 72.2602 97.992 71.0737 100.08 69.9896C101.817 69.0847 104.161 68.1286 108.67 67.3006C111.947 66.7031 116.593 66.1226 122.317 66.3019C124.011 66.1653 125.705 66.0202 127.39 65.8836C128.563 65.508 129.735 65.1409 130.907 64.7653C133.32 64.2531 135.741 63.7495 138.154 63.2373C138.522 63.9031 138.89 64.68 139.206 65.5592C139.779 67.1214 140.045 68.5384 140.173 69.6823C140.438 70.092 141.243 71.2444 142.774 71.7737C143.613 72.0639 144.357 72.0639 144.819 72.0298C144.768 72.1663 144.81 72.3285 144.947 72.4224C147.608 74.2834 149.713 75.726 151.048 76.6906C151.424 76.9638 152.28 77.5955 153.195 77.3906Z" fill="#4A4F54" stroke="#E5E1E6" stroke-linejoin="round"/>
<path d="M157.122 74.6332C157.08 75.5722 157.045 76.5026 157.003 77.4416C156.566 77.7575 155.925 78.1416 155.086 78.4233C153.923 78.816 152.913 78.8331 152.28 78.7904C152.682 78.2867 152.981 77.7916 153.195 77.3904C153.786 77.2538 154.162 76.8185 154.359 76.588C155.095 75.7173 155.702 74.949 156.25 74.249C156.498 74.3771 156.789 74.5051 157.122 74.6332Z" fill="#4A4F54" stroke="#E5E1E6" stroke-linejoin="round"/>
<path d="M97.8208 104.271C97.5385 107.404 97.316 109.521 95.7331 111.544C95.6048 111.707 95.4765 111.86 95.3396 112.005C94.0219 113.474 92.191 114.387 90.2573 114.754C68.1743 118.98 52.0719 122.181 44.1747 124.153C42.318 124.614 39.101 125.467 34.9342 124.946C33.4797 124.759 30.9728 124.298 22.297 120.32C19.2168 118.911 16.7099 117.682 15.0415 116.837C18.7463 113.798 24.5986 109.974 35.3363 105.099C47.9907 99.3544 63.169 94.1216 81.419 90.7412C84.4392 90.1778 87.3055 89.7083 89.9835 89.3242H89.9921C90.0776 89.3071 90.1632 89.2986 90.2488 89.29L90.1033 89.7595C91.5065 90.1778 95.3396 91.5266 97.239 95.1716C98.4454 97.4935 98.2401 99.7556 97.8208 104.271Z" fill="#4A4F54" stroke="#E5E1E6" stroke-linejoin="round"/>
<path d="M157.456 114.071C150.329 114.814 144.092 116.649 136.023 118.852C136.023 118.852 130.659 120.32 116.541 123.794C111.596 125.006 105.581 126.466 98.3513 128.199C96.0155 128.754 93.5599 129.343 90.9674 129.957C80.2553 132.501 69.0641 135.156 55.0579 137.504C31.6316 141.43 7.40096 145.494 1.68555 139.646C5.01383 139.493 9.60841 139.194 15.0586 138.554C21.39 137.819 26.13 136.94 28.7396 136.454C46.1511 133.201 58.5145 130.555 58.5145 130.555C58.5145 130.555 74.7281 127.055 95.3994 122.992C111.613 119.799 119.904 118.177 128.64 116.957C130.83 116.649 132.943 116.376 134.988 116.129C144.203 115.002 151.895 114.404 157.456 114.071Z" fill="#4A4F54" stroke="#E5E1E6" stroke-linejoin="round"/>
<path d="M201.93 99.8158C200.493 98.6804 199.055 97.5451 197.618 96.4098C197.447 96.2817 197.318 96.1024 197.267 95.8976H197.258C195.684 95.8122 194.204 95.7268 192.809 95.6329C189.019 95.3768 185.913 95.1037 183.689 94.8817C175.543 94.0793 172.54 93.4391 163.377 92.5257C158.645 92.0562 155.214 91.8086 151.492 91.5355C140.079 90.7075 135.561 90.7245 128.425 90.2892C125.645 90.1099 122.274 89.8538 118.372 89.4697C115.335 89.1624 111.972 88.7697 108.327 88.2661C107.095 88.1039 105.82 87.9161 104.52 87.7197C100.764 88.0014 95.9126 88.4709 90.2485 89.2904L90.103 89.7599C91.5062 90.1782 95.3393 91.5269 97.2387 95.172C98.4451 97.4939 98.2398 99.756 97.8205 104.272C97.5382 107.405 97.3157 109.522 95.7329 111.545C95.6045 111.707 95.4762 111.861 95.3393 112.006C94.0217 113.474 92.1907 114.387 90.257 114.754C68.174 118.98 52.0716 122.181 44.1744 124.153C42.3178 124.614 39.1007 125.468 34.9339 124.947C33.4794 124.759 30.9725 124.298 22.2967 120.32C19.2166 118.912 16.7096 117.682 15.0412 116.837C13.6723 117.964 12.5942 118.98 11.6702 119.91C7.36649 124.247 -1.53175 133.193 0.821152 138.392C1.0265 138.853 1.3174 139.271 1.68531 139.646C5.01359 139.493 9.60817 139.194 15.0583 138.554C21.3898 137.82 26.1298 136.94 28.7394 136.454C46.1508 133.202 58.5143 130.555 58.5143 130.555C58.5143 130.555 74.7279 127.055 95.3992 122.992C111.613 119.799 119.904 118.177 128.639 116.957C130.83 116.649 132.943 116.376 134.988 116.129C134.8 115.335 134.594 114.08 134.8 112.586C134.8 112.586 135.099 110.444 136.434 108.412C141.653 100.49 165.259 99.278 165.259 99.278C174.525 98.8085 187.162 98.6804 202.349 100.123C202.204 100.029 202.067 99.9267 201.93 99.8158ZM124.353 100.507L124.087 101.036L123.908 101.404C123.694 101.839 123.258 102.104 122.77 102.095C118.227 102.018 113.692 101.941 109.149 101.856C108.276 101.839 107.437 101.497 106.839 100.874C106.402 100.413 105.983 99.8328 105.675 99.1243C105.059 97.6817 105.384 96.7341 105.042 95.3427C104.811 94.3781 104.229 93.0976 102.697 91.7318C102.407 91.4757 102.535 90.9977 102.92 90.9379C105.144 90.5879 107.9 90.3745 111.057 90.605C113.059 90.7501 114.856 91.0574 116.43 91.416C117.508 91.6635 118.466 92.2355 119.176 93.0806C120.22 94.3269 122.436 96.0427 124.327 99.3463C124.532 99.7048 124.532 100.14 124.353 100.507Z" fill="#4A4F54" stroke="#E5E1E6" stroke-linejoin="round"/>
<path d="M391.625 163.855C386.765 163.983 381.914 164.112 377.046 164.24H377.037C366.701 160.526 356.332 156.77 345.936 152.98C350.933 152.929 355.929 152.878 360.926 152.835C371.159 156.506 381.392 160.185 391.625 163.855Z" fill="#4A4F54" stroke="#E5E1E6" stroke-linejoin="round"/>
<path d="M360.927 152.835C355.93 152.878 350.933 152.929 345.936 152.98H345.928C336.61 149.583 327.267 146.151 317.898 142.694C322.673 142.634 327.438 142.583 332.213 142.523C341.787 145.964 351.352 149.395 360.927 152.835Z" fill="#4A4F54" stroke="#E5E1E6" stroke-linejoin="round"/>
<path d="M332.213 142.524C327.438 142.583 322.673 142.635 317.898 142.694H317.89C317.719 142.626 317.539 142.566 317.368 142.498C302.617 137.052 287.97 131.589 273.407 126.108C277.394 125.972 281.381 125.835 285.369 125.707C300.983 131.315 316.598 136.915 332.213 142.524Z" fill="#4A4F54" stroke="#E5E1E6" stroke-linejoin="round"/>
<path d="M285.368 125.706C281.381 125.834 277.394 125.971 273.407 126.107C260.727 121.335 248.116 116.547 235.581 111.749C237.943 111.288 240.295 110.827 242.657 110.366H242.665C256.903 115.479 271.131 120.593 285.368 125.706Z" fill="#4A4F54" stroke="#E5E1E6" stroke-linejoin="round"/>
<path d="M187.257 70.024C185.118 70.0411 182.654 69.913 179.95 69.5118C178.042 69.2301 176.296 68.8545 174.739 68.4362C174.791 68.3338 174.825 68.2143 174.833 68.0948V67.907C174.842 67.4972 175.184 67.1729 175.595 67.1729C177.135 67.1814 179.051 67.3265 181.19 67.8131C183.732 68.385 185.777 69.2557 187.257 70.024Z" fill="#4A4F54" stroke="#E5E1E6" stroke-linejoin="round"/>
<path d="M116.746 131.178C116.746 132.168 116.61 134.012 115.549 135.933C115.318 136.359 112.999 140.423 108.404 140.918C103.117 141.49 98.6591 136.906 98.4452 134.123C98.4024 133.542 98.3853 130.956 98.3853 130.512C98.3767 129.582 98.3853 128.822 98.3853 128.335L98.3511 128.199C105.581 126.466 111.596 125.006 116.541 123.794C116.61 126.252 116.678 128.711 116.746 131.178Z" fill="#4A4F54" stroke="#E5E1E6" stroke-linejoin="round"/>
<path d="M386.166 190.976C386.123 191.035 386.081 191.086 386.038 191.137L386.166 190.976Z" fill="#4A4F54"/>
<path d="M386.166 190.976C386.123 191.035 386.081 191.086 386.038 191.137" stroke="#E5E1E6" stroke-linejoin="round"/>
<path d="M325.033 73.1738H325.025" stroke="#E5E1E6" stroke-linejoin="round"/>
<path d="M281.903 16.3213C281.903 16.3213 281.843 16.3729 281.818 16.4072L281.903 16.3213Z" fill="#4A4F54"/>
<path d="M281.903 16.3213C281.903 16.3213 281.843 16.3729 281.818 16.4072" stroke="#E5E1E6" stroke-linejoin="round"/>
<path d="M276.667 10.3799C264.492 22.2711 252.308 34.1622 240.133 46.0534C237.266 46.0875 234.4 46.1302 231.542 46.1644C232.526 45.0461 233.519 43.9364 234.511 42.8181C245.249 32.1732 255.996 21.5199 266.733 10.875C266.904 10.6104 267.076 10.3714 267.238 10.1494C267.777 10.6616 268.556 11.2506 269.6 11.6262C273.022 12.8469 276.23 10.6787 276.667 10.3799Z" fill="#4A4F54" stroke="#E5E1E6" stroke-linejoin="round"/>
<path d="M90.1038 89.7606C90.1038 89.7606 90.0607 89.7606 90.0435 89.7432L90.1038 89.7606Z" fill="#4A4F54"/>
<path d="M90.1038 89.7606C90.1038 89.7606 90.0607 89.7606 90.0435 89.7432" stroke="#E5E1E6" stroke-linejoin="round"/>
<path d="M124.353 100.507L124.088 101.036L123.908 101.403C123.694 101.839 123.258 102.103 122.77 102.095C118.227 102.018 113.692 101.941 109.149 101.856C108.276 101.839 107.438 101.497 106.839 100.874C106.402 100.413 105.983 99.8326 105.675 99.1241C105.059 97.6815 105.384 96.7339 105.042 95.3425C104.811 94.3779 104.229 93.0974 102.698 91.7316C102.407 91.4755 102.535 90.9975 102.92 90.9377C105.145 90.5877 107.9 90.3743 111.057 90.6048C113.059 90.7499 114.856 91.0572 116.43 91.4158C117.508 91.6633 118.466 92.2353 119.176 93.0804C120.22 94.3267 122.436 96.0425 124.327 99.3461C124.532 99.7046 124.532 100.14 124.353 100.507Z" fill="#4A4F54" stroke="#E5E1E6" stroke-linejoin="round"/>
<path d="M166.654 79.1494C166.731 79.3714 166.834 79.7128 166.893 80.1396C167.261 82.7774 164.994 84.3993 164.25 87.1395C163.642 89.3845 163.445 91.2881 163.368 92.5259C158.637 92.0564 155.206 91.8089 151.484 91.5357C140.07 90.7077 135.553 90.7247 128.417 90.2894C125.636 90.1101 122.265 89.854 118.364 89.4699C123.908 89.8028 128.811 89.6235 132.849 89.2735C139.129 88.7187 143.51 87.7285 148.977 86.4822C154.983 85.1163 158.192 84.1432 162.248 81.9408C164.181 80.8908 165.687 79.8579 166.654 79.1494Z" fill="#4A4F54" stroke="#E5E1E6" stroke-linejoin="round"/>
<path d="M162.025 73.4552C162.033 74.0698 162.059 74.6588 162.11 75.2137C161.554 75.2905 160.904 75.3417 160.185 75.3076C158.962 75.2393 157.926 74.9491 157.122 74.6332C156.789 74.5052 156.498 74.3771 156.25 74.2491C157.302 72.8918 158.115 71.7479 159.124 70.4589C159.432 70.0663 159.86 69.7675 160.331 69.6224C160.408 69.6053 160.485 69.5797 160.57 69.5626C160.647 69.5541 160.733 69.537 160.818 69.5285C161.229 69.4943 161.64 69.4602 162.059 69.4346V69.4687C162.145 69.4773 162.239 69.4943 162.35 69.5114C162.162 70.6211 162.016 71.9528 162.025 73.4552Z" fill="#4A4F54" stroke="#E5E1E6" stroke-linejoin="round"/>
<path d="M167.235 78.9444H167.227C167.013 78.9871 166.765 79.0212 166.482 79.0468C165.969 79.0981 165.353 79.1151 164.677 79.0298C163.847 78.9359 163.154 78.731 162.641 78.5347C162.418 77.5957 162.213 76.4859 162.11 75.214C162.059 74.6591 162.033 74.0701 162.025 73.4555C162.016 71.9531 162.162 70.6214 162.35 69.5117C163.548 69.691 166.132 70.2629 167.355 72.3287C168.416 74.1214 167.971 76.1786 167.235 78.9444Z" fill="#4A4F54" stroke="#E5E1E6" stroke-linejoin="round"/>
<path d="M197.31 85.2527C196.848 86.849 196.403 89.1538 196.591 91.9111C196.685 93.3025 196.925 94.5232 197.207 95.5476C197.207 95.5988 197.207 95.6585 197.224 95.7268C197.233 95.7866 197.25 95.8463 197.259 95.8976C195.684 95.8122 194.204 95.7268 192.81 95.6329C192.827 94.8988 192.887 94.1135 193.032 93.2769C193.742 89.1624 195.984 86.2259 197.567 84.5527C197.481 84.7832 197.396 85.0222 197.31 85.2527Z" fill="#4A4F54" stroke="#E5E1E6" stroke-linejoin="round"/>
<path d="M192.81 95.7273V95.6328V95.7273Z" fill="#4A4F54"/>
<path d="M192.81 95.7273V95.6328" stroke="#E5E1E6" stroke-linejoin="round"/>
<path d="M179.608 85.1841C179.265 84.7829 178.803 84.8939 176.1 84.9793C173.789 85.0561 173.319 85.0049 172.9 85.4488C172.54 85.8329 172.463 86.4475 172.301 87.6853C172.232 88.1719 172.207 88.6157 172.189 88.9999C172.164 89.4438 172.472 89.8364 172.908 89.9474C174.038 90.2206 175.004 90.3657 175.732 90.4511C178.384 90.7498 178.889 90.323 179.06 90.1523C179.377 89.8364 179.462 89.2133 179.625 87.9755C179.83 86.3792 179.933 85.5768 179.608 85.1927V85.1841Z" fill="#4A4F54" stroke="#E5E1E6" stroke-linejoin="round"/>
<path d="M217.878 86.4224C217.459 87.4212 212.394 86.3456 208.783 85.031C205.797 83.9469 203.436 82.564 201.733 81.3945C201.545 81.2665 201.331 81.2067 201.126 81.2067V81.1726C200.313 80.9506 199.5 80.7287 198.696 80.4982C198.499 79.7641 198.302 79.0214 198.105 78.2787C198.944 78.1934 199.877 78.1507 200.869 78.1678C202.666 78.1934 204.249 78.4239 205.558 78.7141C205.558 78.7141 205.643 78.7397 205.686 78.7568C208.022 79.508 210.794 80.6689 213.643 82.5299C214.824 83.2981 218.263 85.5432 217.878 86.4224Z" fill="#4A4F54" stroke="#E5E1E6" stroke-linejoin="round"/>
<path d="M162.641 78.5342C162.547 78.6622 161.614 79.9085 160.074 79.9C159.783 79.9 159.492 79.8573 159.21 79.7634C158.192 79.4476 157.336 78.5854 157.002 77.4415C157.045 76.5025 157.079 75.5721 157.122 74.6416C157.926 74.9489 158.962 75.2391 160.185 75.3074C160.904 75.3416 161.554 75.2904 162.11 75.2135C162.213 76.4855 162.418 77.5952 162.641 78.5342Z" fill="#4A4F54" stroke="#E5E1E6" stroke-linejoin="round"/>
<path d="M159.21 79.7643L159.184 79.8582C153.11 82.1886 145.195 84.5959 135.749 85.9275C127.604 87.0799 120.383 87.1482 114.505 86.8068C118.98 85.8507 122.53 85.2788 125.149 84.9202C131.069 84.1093 133.379 83.8873 133.379 83.8873C136.87 83.5544 138.436 83.5459 141.499 82.9654C141.944 82.8886 143.638 82.4532 147.026 81.574C148.968 81.0789 149.901 80.8228 150.928 80.0716C151.475 79.6704 151.92 79.2265 152.28 78.7911C152.913 78.8338 153.922 78.8167 155.086 78.4241C155.924 78.1424 156.566 77.7582 157.003 77.4424C157.336 78.5863 158.192 79.4484 159.21 79.7643Z" fill="#4A4F54" stroke="#E5E1E6" stroke-linejoin="round"/>
<path d="M165.653 79.089C164.943 79.8146 163.805 80.8817 162.256 81.9402C161.015 82.7853 158.834 84.2365 148.986 86.4815C143.518 87.7278 139.138 88.7181 132.858 89.2729C128.819 89.6229 123.917 89.8022 118.372 89.4693C115.335 89.162 111.972 88.7693 108.328 88.2656V88.2315C110.552 87.6766 112.606 87.2071 114.488 86.8059H114.505C120.383 87.1474 127.604 87.0791 135.75 85.9267C145.195 84.595 153.11 82.1877 159.185 79.8573L159.21 79.7634C159.493 79.8573 159.783 79.9 160.074 79.9C161.614 79.9085 162.547 78.6622 162.641 78.5342C163.189 78.7391 163.873 78.9354 164.677 79.0293C165.028 79.072 165.353 79.089 165.653 79.089Z" fill="#4A4F54" stroke="#E5E1E6" stroke-linejoin="round"/>
<path d="M166.498 79.0381C166.498 79.0381 166.49 79.0462 166.482 79.0462L166.498 79.0381Z" fill="#4A4F54"/>
<path d="M166.498 79.0381C166.498 79.0381 166.49 79.0462 166.482 79.0462" stroke="#E5E1E6" stroke-linejoin="round"/>
<path d="M42.9843 27.3164H42.9683H42.9843Z" fill="#4A4F54"/>
<path d="M42.9843 27.3164H42.9683" stroke="#E5E1E6" stroke-linejoin="round"/>
<path d="M109.737 104.025L44.0488 117.24L46.4046 128.897L112.093 115.682L109.737 104.025Z" fill="#4A4F54"/>
<path d="M55.708 124.947L55.2032 122.514L54.4246 124.734L53.8428 124.853L52.2771 123.18L52.7562 125.545L51.5498 125.792L50.6172 121.2L51.6867 120.986L53.8428 123.308L54.8781 120.337L55.9476 120.124L56.8973 124.717L55.6995 124.956L55.708 124.947Z" fill="white"/>
<path d="M60.5677 123.035L58.6255 123.428L58.4458 124.392L57.1196 124.657L58.2148 119.655L59.4982 119.398L62.4671 123.581L61.1153 123.854L60.5763 123.035H60.5677ZM59.9944 122.156L59.1046 120.807L58.8137 122.395L59.9944 122.156Z" fill="white"/>
<path d="M64.4437 121.908L63.7335 122.054L63.9817 123.274L62.6811 123.539L61.7485 118.946L63.8533 118.519C64.2726 118.434 64.649 118.434 64.9827 118.502C65.3164 118.579 65.5902 118.724 65.8126 118.946C66.0351 119.168 66.172 119.45 66.249 119.8C66.326 120.15 66.3003 120.44 66.1891 120.713C66.0864 120.995 65.8982 121.234 65.6415 121.43L66.9249 122.668L65.5303 122.95L64.4437 121.9V121.908ZM64.6148 119.612C64.4522 119.518 64.2383 119.501 63.9731 119.561L63.2458 119.706L63.5196 121.055L64.2469 120.91C64.5121 120.858 64.7004 120.756 64.8201 120.611C64.9314 120.466 64.9656 120.286 64.9228 120.073C64.88 119.86 64.7774 119.706 64.6148 119.612Z" fill="white"/>
<path d="M67.909 122.43C67.5411 122.413 67.2331 122.344 66.9764 122.233L67.2074 121.192C67.4384 121.286 67.7037 121.346 67.9946 121.371C68.2855 121.397 68.5593 121.388 68.8245 121.337C69.3207 121.235 69.5518 121.064 69.5004 120.808C69.4748 120.68 69.3806 120.594 69.2266 120.56C69.0726 120.526 68.833 120.509 68.4994 120.501C68.14 120.501 67.832 120.475 67.5839 120.441C67.3357 120.407 67.1047 120.304 66.8994 120.151C66.6941 119.997 66.5572 119.758 66.4973 119.442C66.4374 119.16 66.463 118.896 66.5743 118.64C66.6855 118.383 66.8737 118.162 67.1561 117.965C67.4299 117.769 67.7978 117.632 68.2341 117.538C68.5336 117.479 68.8416 117.453 69.1496 117.462C69.4576 117.462 69.74 117.513 69.9881 117.607L69.7828 118.648C69.2951 118.503 68.8502 118.469 68.4395 118.554C68.1828 118.605 68.0031 118.682 67.9004 118.785C67.7978 118.887 67.755 118.998 67.7807 119.118C67.8063 119.237 67.8919 119.314 68.0459 119.348C68.1999 119.382 68.4395 119.399 68.7646 119.399C69.1325 119.399 69.4405 119.425 69.6801 119.459C69.9282 119.502 70.1507 119.596 70.3646 119.741C70.5699 119.894 70.7068 120.125 70.7753 120.449C70.8352 120.722 70.8009 120.987 70.6983 121.243C70.587 121.499 70.3988 121.721 70.1164 121.918C69.8341 122.114 69.4748 122.259 69.0384 122.344C68.6619 122.421 68.294 122.447 67.9261 122.43H67.909Z" fill="white"/>
<path d="M75.0018 119.775L74.2916 119.92L74.5398 121.14L73.2392 121.405L72.3066 116.812L74.4114 116.386C74.8307 116.3 75.2071 116.3 75.5408 116.369C75.8745 116.445 76.1483 116.591 76.3707 116.812C76.5932 117.034 76.7301 117.316 76.8071 117.666C76.8841 118.016 76.8584 118.306 76.7472 118.58C76.6445 118.861 76.4563 119.1 76.1996 119.297L77.483 120.534L76.0884 120.816L75.0018 119.766V119.775ZM75.1729 117.478C75.0103 117.384 74.7964 117.367 74.5312 117.427L73.8039 117.572L74.0777 118.921L74.805 118.776C75.0702 118.725 75.2585 118.622 75.3782 118.477C75.4895 118.332 75.5237 118.153 75.4809 117.939C75.4381 117.726 75.3355 117.572 75.1729 117.478Z" fill="white"/>
<path d="M78.9036 120.03C78.4758 119.902 78.1078 119.68 77.8169 119.364C77.526 119.048 77.3292 118.656 77.2351 118.203C77.141 117.751 77.1667 117.316 77.3207 116.906C77.4661 116.496 77.7143 116.155 78.0651 115.864C78.4073 115.583 78.8265 115.386 79.3142 115.292C79.8019 115.199 80.2554 115.207 80.6918 115.335C81.1196 115.463 81.4875 115.685 81.7784 116.001C82.0693 116.317 82.2661 116.71 82.3602 117.162C82.4543 117.614 82.4286 118.05 82.2746 118.459C82.1292 118.869 81.881 119.211 81.5302 119.501C81.188 119.783 80.7688 119.979 80.2811 120.073C79.7934 120.167 79.3399 120.158 78.9036 120.03ZM80.6575 118.707C80.8201 118.562 80.9399 118.374 81.0083 118.152C81.0768 117.93 81.0853 117.691 81.034 117.435C80.9827 117.179 80.88 116.957 80.7345 116.786C80.5805 116.607 80.4009 116.488 80.1955 116.411C79.9816 116.342 79.7591 116.325 79.5281 116.377C79.2971 116.428 79.1003 116.522 78.9292 116.667C78.7667 116.812 78.6469 117 78.5784 117.222C78.51 117.444 78.5014 117.683 78.5528 117.939C78.6041 118.195 78.7068 118.417 78.8522 118.588C79.0062 118.767 79.1859 118.886 79.3912 118.963C79.6051 119.031 79.8276 119.048 80.0586 118.997C80.2896 118.946 80.4864 118.852 80.6575 118.707Z" fill="white"/>
<path d="M87.0998 116.548C87.2881 116.71 87.4078 116.932 87.4677 117.205C87.5533 117.606 87.4506 117.948 87.1683 118.238C86.8859 118.519 86.441 118.724 85.825 118.852L83.3437 119.356L82.4111 114.763L84.764 114.285C85.3544 114.166 85.8164 114.183 86.1672 114.337C86.518 114.49 86.7319 114.755 86.8089 115.122C86.8517 115.344 86.8431 115.549 86.7661 115.745C86.6977 115.942 86.5694 116.104 86.3897 116.249C86.672 116.291 86.903 116.385 87.0913 116.556L87.0998 116.548ZM83.8913 115.438L84.071 116.326L84.9608 116.146C85.3972 116.061 85.5854 115.865 85.5255 115.566C85.4656 115.267 85.2175 115.173 84.7811 115.259L83.8913 115.438ZM86.1244 117.333C86.0645 117.026 85.7993 116.915 85.3458 117.009L84.2507 117.231L84.4389 118.161L85.5341 117.939C85.9875 117.845 86.1843 117.649 86.1244 117.333Z" fill="white"/>
<path d="M89.2048 117.948C88.777 117.82 88.4091 117.598 88.1182 117.282C87.8273 116.966 87.6305 116.574 87.5364 116.121C87.4423 115.669 87.468 115.234 87.622 114.824C87.7674 114.414 88.0155 114.073 88.3663 113.782C88.7086 113.501 89.1278 113.304 89.6155 113.21C90.1032 113.117 90.5567 113.125 90.993 113.253C91.4208 113.381 91.7887 113.603 92.0796 113.919C92.3705 114.235 92.5673 114.627 92.6614 115.08C92.7556 115.532 92.7299 115.968 92.5759 116.377C92.4304 116.787 92.1823 117.129 91.8315 117.419C91.4893 117.701 91.07 117.897 90.5823 117.991C90.0946 118.085 89.6412 118.076 89.2048 117.948ZM90.9588 116.616C91.1214 116.471 91.2411 116.284 91.3096 116.062C91.378 115.84 91.3866 115.601 91.3353 115.345C91.2839 115.088 91.1813 114.867 91.0358 114.696C90.8818 114.517 90.7021 114.397 90.4968 114.32C90.2829 114.252 90.0604 114.235 89.8294 114.286C89.5984 114.337 89.4016 114.431 89.2305 114.576C89.0679 114.721 88.9481 114.909 88.8797 115.131C88.8112 115.353 88.8027 115.592 88.854 115.848C88.9054 116.104 89.008 116.326 89.1535 116.497C89.3075 116.676 89.4872 116.796 89.6925 116.873C89.9064 116.941 90.1289 116.958 90.3599 116.907C90.5909 116.855 90.7877 116.762 90.9588 116.616Z" fill="white"/>
<path d="M93.8334 113.526L92.4217 113.816L92.2163 112.783L96.3403 111.946L96.5456 112.979L95.1425 113.261L95.8697 116.821L94.5692 117.085L93.842 113.526H93.8334Z" fill="white"/>
<path d="M96.6655 111.878L97.966 111.613L98.8986 116.206L97.5981 116.47L96.6655 111.878Z" fill="white"/>
<path d="M100.619 115.635C100.191 115.507 99.8315 115.285 99.5406 114.969C99.2497 114.653 99.0529 114.26 98.9588 113.799C98.8647 113.338 98.8903 112.903 99.0358 112.502C99.1812 112.092 99.4208 111.751 99.763 111.469C100.105 111.187 100.516 110.999 100.995 110.897C101.414 110.812 101.808 110.812 102.176 110.897C102.544 110.974 102.869 111.136 103.151 111.367L102.475 112.28C102.107 111.981 101.705 111.879 101.277 111.964C101.029 112.015 100.815 112.118 100.644 112.263C100.473 112.408 100.353 112.596 100.285 112.818C100.217 113.04 100.208 113.279 100.259 113.535C100.311 113.791 100.413 114.013 100.559 114.184C100.704 114.363 100.892 114.482 101.106 114.551C101.32 114.619 101.56 114.627 101.808 114.576C102.236 114.491 102.561 114.235 102.783 113.816L103.767 114.397C103.605 114.721 103.365 114.994 103.057 115.208C102.749 115.421 102.39 115.575 101.962 115.66C101.483 115.754 101.029 115.746 100.602 115.618L100.619 115.635Z" fill="white"/>
<path d="M104.837 114.96C104.469 114.943 104.161 114.875 103.904 114.764L104.135 113.722C104.366 113.816 104.631 113.876 104.922 113.901C105.213 113.927 105.487 113.919 105.752 113.867C106.248 113.765 106.479 113.594 106.428 113.338C106.402 113.21 106.308 113.125 106.154 113.091C106 113.056 105.761 113.039 105.427 113.031C105.068 113.031 104.76 113.005 104.512 112.971C104.263 112.937 104.032 112.834 103.827 112.681C103.622 112.527 103.485 112.288 103.425 111.972C103.365 111.691 103.391 111.426 103.502 111.17C103.613 110.914 103.801 110.692 104.084 110.495C104.358 110.299 104.726 110.163 105.162 110.069C105.461 110.009 105.769 109.983 106.077 109.992C106.385 109.992 106.668 110.043 106.916 110.137L106.711 111.178C106.223 111.033 105.778 110.999 105.367 111.084C105.111 111.136 104.931 111.213 104.828 111.315C104.726 111.417 104.683 111.528 104.708 111.648C104.734 111.767 104.82 111.844 104.974 111.878C105.128 111.913 105.367 111.93 105.692 111.93C106.06 111.93 106.368 111.955 106.608 111.989C106.856 112.032 107.078 112.126 107.292 112.271C107.498 112.425 107.635 112.655 107.703 112.98C107.763 113.253 107.737 113.517 107.626 113.773C107.515 114.03 107.327 114.251 107.044 114.448C106.762 114.644 106.402 114.789 105.966 114.875C105.59 114.951 105.222 114.977 104.854 114.96H104.837Z" fill="white"/>
<path d="M108.446 107.323L104.933 108.034L105.141 109.055L108.654 108.344L108.446 107.323Z" fill="#FF4713"/>
</g>
<defs>
<clipPath id="clip0_1964_4313">
<rect width="431" height="192" fill="white"/>
</clipPath>
</defs>
</svg>
