<svg width="71" height="70" viewBox="0 0 71 70" fill="none" xmlns="http://www.w3.org/2000/svg">
<g id="Layer_1" clip-path="url(#clip0_1896_7771)">
<path id="Vector" d="M66.739 47.995C73.9149 30.6709 65.6881 10.8098 48.364 3.6339C31.0399 -3.54197 11.1787 4.68478 4.00284 22.0089C-3.17303 39.333 5.05373 59.1942 22.3778 66.37C39.7019 73.5459 59.5631 65.3191 66.739 47.995Z" stroke="#4B4F55" stroke-width="1.11"/>
<path id="Vector_2" d="M33.1373 16.3822C34.232 16.3822 35.3266 16.3822 36.4212 16.3822C37.5159 16.3822 38.5916 16.3822 39.6863 16.3822C39.6863 16.2501 39.6863 16.0991 39.6863 15.967C39.6863 15.8915 39.6863 15.816 39.6863 15.7217C38.0066 15.7783 36.308 15.7972 34.6283 15.7972C34.0999 15.7972 33.5714 15.7972 33.043 15.7972C33.043 15.8727 33.0618 15.967 33.0807 16.0614C33.0996 16.1746 33.1185 16.2879 33.1373 16.4011" fill="#4A4F54"/>
<path id="Vector_3" d="M39.6096 15.2873L39.1566 14.8721C37.4769 14.8909 35.5141 14.9098 33.6268 14.8909C33.5325 15.0608 33.4192 15.2118 33.2871 15.3628C35.382 15.3628 37.4958 15.3628 39.5907 15.2873" fill="#4A4F54"/>
<path id="Vector_4" d="M34.1367 17.0238L34.1933 18.7978C34.7973 18.7978 35.4012 18.7978 36.0051 18.7789C36.8167 18.7789 37.6471 18.7601 38.4775 18.7412V17.0049C37.7792 17.0049 37.0998 17.0049 36.4204 17.0049C35.6654 17.0049 34.8916 17.0049 34.1367 17.0049" fill="#4A4F54"/>
<path id="Vector_5" d="M36.138 24.8179C36.138 25.0255 36.1191 25.2142 36.1002 25.4218C36.1002 25.5728 36.0814 25.7238 36.0625 25.8748H38.3273C38.7236 25.8559 39.1388 25.8371 39.4974 25.7238C39.7427 25.6483 39.9503 25.5351 40.1202 25.3841C40.1202 25.2331 40.1013 25.101 40.0825 24.95C40.0825 24.799 40.0447 24.6481 40.0447 24.4971C39.3842 24.6858 38.6859 24.7047 38.0253 24.7424C37.4025 24.7802 36.7797 24.799 36.138 24.8179Z" fill="#4A4F54"/>
<path id="Vector_6" d="M38.0064 24.308C38.5348 24.2891 39.101 24.2514 39.6294 24.1382C39.6106 24.1004 39.5917 24.0438 39.5917 23.9872C39.5917 23.1568 39.5728 22.3452 39.5539 21.5148C39.5539 20.7976 39.5162 20.0805 39.5162 19.3633C38.3649 19.3633 37.1759 19.3822 36.0247 19.401C34.8734 19.4199 33.6844 19.4388 32.5332 19.4388C32.5332 20.1559 32.5332 20.892 32.4954 21.5903C32.4954 22.4018 32.4766 23.2322 32.4766 24.0627C34.2884 24.459 36.1945 24.3646 38.0252 24.2703" fill="#4A4F54"/>
<path id="Vector_7" d="M35.7609 25.3846C35.7609 25.1958 35.7986 25.0071 35.7986 24.8184H35.5344C35.5344 24.8184 35.4023 24.9127 35.3457 24.9505C35.3079 24.9693 35.2702 25.0071 35.2324 25.026L35.2702 26.1017C35.2702 26.1017 35.3834 26.0451 35.44 26.0262C35.5344 25.9885 35.6288 25.9507 35.742 25.8941C35.742 25.7243 35.7609 25.5355 35.7797 25.3657" fill="#4A4F54"/>
<path id="Vector_8" d="M34.8918 24.8179C33.9293 24.7801 32.9479 24.6858 32.0043 24.4404C31.3815 24.4782 30.7398 24.497 30.1358 24.5159C29.5319 24.5159 28.9091 24.5537 28.3052 24.5914C28.2297 24.648 28.1542 24.6858 28.0975 24.7235C28.0032 24.7613 27.9088 24.8179 27.8145 24.8556H34.8918V24.8179Z" fill="#4A4F54"/>
<path id="Vector_9" d="M38.7787 26.4038C38.7787 26.4038 38.8353 26.3661 38.8542 26.3661C39.1562 26.2717 39.477 26.1774 39.7413 26.0264C39.7035 26.0264 39.6469 26.0641 39.6091 26.0641C39.1939 26.1962 38.7599 26.1962 38.3446 26.1962H35.91V26.2151C35.7968 26.2717 35.6836 26.3095 35.5703 26.3661H38.4579C38.5522 26.3661 38.6655 26.3661 38.7976 26.4038" fill="#4A4F54"/>
<path id="Vector_10" d="M39.3652 26.8749C39.4219 27.007 39.4596 27.1391 39.4785 27.2712C39.6295 28.0827 39.6106 28.8943 39.5728 29.7058C40.2523 29.7247 40.9694 29.7624 41.6489 29.7436H41.7621C41.7621 28.6678 41.7432 27.592 41.7244 26.5352C41.7244 26.5352 41.7055 26.5352 41.6866 26.5352C40.9317 26.7428 40.139 26.856 39.3652 26.8749Z" fill="#4A4F54"/>
<path id="Vector_11" d="M39.9121 26.4219C40.4783 26.3841 41.0256 26.2709 41.5729 26.1199C41.6296 26.1199 41.6673 26.0822 41.7239 26.0633V25.7991C41.3465 25.6858 41.0067 25.6292 40.7048 25.6104C40.5915 25.8934 40.3651 26.1388 40.0631 26.3275C40.0253 26.3653 39.9687 26.3841 39.9121 26.403" fill="#4A4F54"/>
<path id="Vector_12" d="M33.2695 42.0488C33.3073 42.6905 33.3262 43.3322 33.3073 43.9927C35.0247 44.5778 36.8365 44.6156 38.4596 44.1437C38.4596 43.8418 38.4785 43.5398 38.4974 43.2378C38.4974 42.8981 38.5351 42.5584 38.5351 42.2187C37.7991 42.3697 37.0441 42.4452 36.2892 42.4452C35.2701 42.4452 34.2698 42.3131 33.2884 42.0488" fill="#4A4F54"/>
<path id="Vector_13" d="M26.3997 22.0622C24.9276 19.6087 23.7197 17.4194 22.644 15.3057C20.2849 15.5888 18.0012 16.589 16.0762 18.1177L20.2282 25.2706C22.191 24.1005 24.2293 22.9115 26.3997 22.0622Z" fill="#4A4F54"/>
<path id="Vector_14" d="M38.3464 41.8038C38.3464 41.8038 38.3464 41.7849 38.3464 41.7661C38.2709 41.5962 38.1955 41.4452 38.12 41.3131H34.8927L34.7983 41.332C34.4775 41.332 34.1378 41.3131 33.8547 41.2188C33.7603 41.2942 33.6848 41.3886 33.5904 41.4641C33.5527 41.5018 33.4961 41.5585 33.4395 41.6151C35.0437 42.0303 36.7234 42.1058 38.3464 41.7849" fill="#4A4F54"/>
<path id="Vector_15" d="M36.2692 40.426C35.3255 40.426 34.4951 40.3883 33.6836 40.3128C33.778 40.426 33.8723 40.5393 33.9667 40.6336C34.0422 40.6902 34.0799 40.7846 34.0611 40.879C34.3064 40.9356 34.5706 40.9545 34.8348 40.9356H38.1565V40.8978C38.3264 40.7846 38.4962 40.6525 38.7038 40.5581C38.7038 40.426 38.7038 40.3128 38.7038 40.1807C38.081 40.3883 37.4016 40.4071 36.7788 40.4071C36.59 40.4071 36.4013 40.4071 36.2315 40.4071" fill="#4A4F54"/>
<path id="Vector_16" d="M33.5332 37.6327V39.8409C34.5335 39.9541 35.5715 39.9919 36.7982 39.973C37.421 39.973 38.1193 39.9541 38.7422 39.7088C38.7422 39.5012 38.7422 39.2936 38.7422 39.086C38.7422 38.5386 38.761 37.9913 38.7799 37.4629C37.1946 37.5384 35.5904 37.6139 34.0239 37.6139C33.854 37.6139 33.7031 37.6139 33.5332 37.6139" fill="#4A4F54"/>
<path id="Vector_17" d="M35.2133 35.5C33.8733 35.5 32.5522 35.4245 31.25 35.349C31.7596 35.8586 32.2125 36.4437 32.5711 36.9721C34.9114 37.0476 37.3837 36.9155 39.7617 36.7645L40.4034 36.7268C40.762 35.953 41.1395 35.2735 41.5358 34.6885C40.0071 35.1414 38.3274 35.4057 36.3835 35.4623C35.9871 35.4623 35.6097 35.4623 35.2133 35.4623" fill="#4A4F54"/>
<path id="Vector_18" d="M36.363 35.0471C38.4391 34.9716 40.232 34.6885 41.8173 34.1601C41.8173 33.2542 41.7985 32.3105 41.7796 31.3857C41.572 31.4424 41.3455 31.4424 41.1568 31.4424H31.3428C31.0975 31.4424 30.8332 31.4424 30.5879 31.4424C30.7577 32.386 30.871 33.5184 30.9842 34.8961C32.7583 35.0094 34.5701 35.1037 36.363 35.0471Z" fill="#4A4F54"/>
<path id="Vector_19" d="M26.7206 25.6294L21.908 28.5547C21.908 28.5547 21.8325 28.5925 21.7947 28.5925C21.7947 28.5925 21.757 28.5925 21.7381 28.5925C21.6815 28.5925 21.6249 28.5359 21.606 28.4981L15.7554 18.4199C15.3024 18.8163 14.8495 19.2503 14.4531 19.7033L18.2089 26.0824C18.2089 26.0824 18.2655 26.29 18.2089 26.3843C18.1711 26.4787 18.0767 26.5542 17.9824 26.5731C17.9069 26.5731 17.7936 26.6297 17.6615 26.6486C17.586 26.6674 17.5106 26.6863 17.4351 26.724L19.228 29.4229C19.379 29.6494 19.5111 29.8381 19.6809 29.9136C19.8319 29.9891 20.0207 29.9891 20.2283 29.9891C21.7381 29.9891 23.2479 29.9891 24.7389 30.0079C25.4372 30.0079 26.1355 30.0079 26.8527 30.0079C26.9282 29.1775 26.8527 28.3283 26.8149 27.4978C26.7772 26.8939 26.7395 26.2711 26.7395 25.6483" fill="#4A4F54"/>
<path id="Vector_20" d="M41.0633 31.0269C41.2709 31.0269 41.5918 31.0269 41.7805 30.9514C41.7805 30.706 41.7805 30.4418 41.7805 30.1776C41.7427 30.1776 41.6861 30.1776 41.6673 30.1776C40.9312 30.1776 40.1952 30.1776 39.478 30.1398H39.3459C39.3459 30.1398 39.2326 30.1021 39.1949 30.0644C39.1571 30.0266 39.1383 29.97 39.1383 29.9134C39.176 29.0641 39.2326 28.1959 39.0628 27.3655C39.025 27.1957 38.9684 26.9881 38.8363 26.8937C38.7419 26.8371 38.6098 26.8182 38.44 26.8182H34.873C33.7217 26.7993 32.7969 26.8371 31.9665 26.9314C31.891 28.0072 31.8722 28.9697 31.891 29.8567C31.891 29.97 31.8155 30.0644 31.7023 30.0832C30.9851 30.1965 30.2868 30.3097 29.5508 30.2908V30.5362C29.5885 30.6683 29.664 30.8004 29.7584 30.9136C29.7773 30.9325 29.7961 30.9514 29.815 30.9703C30.3057 31.0457 30.8153 31.0458 31.3248 31.0458H41.0256L41.0633 31.0269Z" fill="#4A4F54"/>
<path id="Vector_21" d="M26.5875 22.3643C24.4171 23.2135 22.3788 24.4025 20.416 25.5727L21.8692 28.0828L26.7385 25.1197C26.7385 25.1197 26.6819 25.0442 26.6819 24.9876C26.6819 24.9121 26.7196 24.8555 26.7951 24.8366C26.814 24.78 26.8706 24.7423 26.9272 24.7234C27.2292 24.629 27.5311 24.4969 27.8331 24.3648C27.399 23.6854 27.0027 23.0059 26.6252 22.3643" fill="#4A4F54"/>
<path id="Vector_22" d="M31.4574 29.6874C31.4385 28.8004 31.4574 27.819 31.5517 26.7432C31.5517 26.6489 31.6272 26.5545 31.7405 26.5356C32.6275 26.4224 33.6278 26.3658 34.8734 26.3846H34.93L34.8922 25.1768H27.1543C27.0977 25.9317 27.1543 26.7243 27.2109 27.4604C27.2676 28.2908 27.3242 29.159 27.2487 30.0082C27.8715 30.0082 28.5132 30.0082 29.136 30.0082C29.136 29.9705 29.1549 29.9139 29.1926 29.895C29.2303 29.8573 29.287 29.8384 29.3625 29.8384C30.0608 29.895 30.7402 29.8006 31.4574 29.6874Z" fill="#4A4F54"/>
<path id="Vector_23" d="M37.0428 44.8795V46.4649C37.0428 46.7291 36.9296 46.9556 36.7597 47.1443C36.571 47.333 36.3257 47.4274 36.0803 47.4274H35.9293C35.4009 47.4274 34.9668 46.9933 34.9668 46.4649V44.8418C35.6651 44.9362 36.3634 44.955 37.0617 44.8795" fill="#EF4A26"/>
<path id="Vector_24" d="M35.4004 49.3719C35.4004 49.0888 35.6269 48.8623 35.91 48.8623C36.1931 48.8623 36.4195 49.0888 36.4195 49.3719V49.7116C36.4195 49.8437 36.3629 49.9758 36.2686 50.0702C36.1742 50.1645 36.0609 50.2212 35.91 50.2212C35.6269 50.2212 35.4004 49.9947 35.4004 49.7305V49.3908V49.3719Z" fill="#EF4A26"/>
<path id="Vector_25" d="M36.402 51.825V52.1647C36.402 52.2968 36.3453 52.4289 36.251 52.5233C36.1566 52.6177 36.0245 52.6743 35.8924 52.6743C35.6093 52.6743 35.4017 52.4478 35.3828 52.1647V51.825C35.3828 51.5419 35.6093 51.3154 35.8924 51.3154C36.1755 51.3154 36.402 51.5419 36.402 51.825Z" fill="#EF4A26"/>
<path id="Vector_26" d="M35.8917 53.8066C36.1748 53.8066 36.4013 54.0331 36.3824 54.3162V54.6559C36.3824 54.788 36.3258 54.9201 36.2314 55.0145C36.1371 55.1089 36.0238 55.1655 35.8728 55.1655C35.5898 55.1655 35.3633 54.939 35.3633 54.6748V54.3351C35.3633 54.052 35.5898 53.8255 35.8728 53.8255" fill="#EF4A26"/>
<path id="Vector_27" d="M37.5712 48.7863L37.741 49.0694C37.8542 49.277 37.8165 49.5223 37.6655 49.6733C37.6278 49.711 37.59 49.7299 37.5523 49.7488C37.3069 49.8809 37.005 49.8054 36.8729 49.5601L36.703 49.277C36.5709 49.0316 36.6464 48.7296 36.8917 48.5975C37.1371 48.4654 37.439 48.5409 37.5712 48.7863Z" fill="#EF4A26"/>
<path id="Vector_28" d="M38.8173 50.9191L38.9871 51.2022C39.1003 51.4098 39.0626 51.6551 38.9116 51.8061C38.8739 51.8439 38.8361 51.8627 38.7984 51.8816C38.553 52.0137 38.2511 51.9382 38.1189 51.6929L37.9491 51.4098C37.817 51.1644 37.8925 50.8625 38.1378 50.7303C38.3832 50.5982 38.6851 50.6737 38.8173 50.9191Z" fill="#EF4A26"/>
<path id="Vector_29" d="M40.0438 53.0519L40.2137 53.335C40.3269 53.5426 40.2892 53.7879 40.1382 53.9389C40.1004 53.9767 40.0627 53.9955 40.0249 54.0144C39.7796 54.1465 39.4776 54.071 39.3455 53.8257L39.1757 53.5426C39.0435 53.2972 39.119 52.9953 39.3644 52.8632C39.6097 52.731 39.9117 52.8065 40.0438 53.0519Z" fill="#EF4A26"/>
<path id="Vector_30" d="M38.78 48.5415C38.78 48.5415 38.7234 48.617 38.7045 48.6548C38.5536 48.8058 38.3082 48.8435 38.1006 48.7303L37.8175 48.5604C37.5722 48.4283 37.4967 48.1075 37.6288 47.881C37.7609 47.6356 38.0817 47.5601 38.3082 47.6923L38.5913 47.8621C38.8367 47.9942 38.9121 48.3151 38.78 48.5415Z" fill="#EF4A26"/>
<path id="Vector_31" d="M40.9128 49.7681C40.9128 49.7681 40.8562 49.8436 40.8374 49.8813C40.6864 50.0323 40.441 50.0701 40.2334 49.9568L39.9503 49.787C39.705 49.6549 39.6295 49.334 39.7616 49.1075C39.8937 48.8622 40.2145 48.7867 40.441 48.9188L40.7241 49.0887C40.9695 49.2208 41.045 49.5416 40.9128 49.7681Z" fill="#EF4A26"/>
<path id="Vector_32" d="M43.0457 50.9947C43.0457 50.9947 42.989 51.0702 42.9702 51.1079C42.8192 51.2589 42.5738 51.2966 42.3662 51.1834L42.0831 51.0135C41.8378 50.8814 41.7623 50.5606 41.8944 50.3341C42.0265 50.0888 42.3474 50.0133 42.5738 50.1454L42.8569 50.3152C43.1023 50.4473 43.1778 50.7682 43.0457 50.9947Z" fill="#EF4A26"/>
<path id="Vector_33" d="M33.0604 48.5601C32.9283 48.3147 33.0038 48.0128 33.2491 47.8807L33.5322 47.7108C33.7776 47.5787 34.0796 47.6542 34.2117 47.8995C34.3249 48.1071 34.2872 48.3525 34.1362 48.5035C34.0984 48.5412 34.0607 48.5601 34.0418 48.579L33.7587 48.7488C33.5134 48.8809 33.2114 48.8054 33.0793 48.5601" fill="#EF4A26"/>
<path id="Vector_34" d="M32.0789 49.1261C32.1921 49.3337 32.1544 49.5791 32.0034 49.73C31.9656 49.7489 31.9279 49.7867 31.8901 49.8055L31.607 49.9754C31.3617 50.1075 31.0597 50.032 30.9276 49.7867C30.7955 49.5413 30.871 49.2393 31.1163 49.1072L31.3994 48.9374C31.6448 48.8053 31.9467 48.8808 32.0789 49.1261Z" fill="#EF4A26"/>
<path id="Vector_35" d="M28.7772 51.0328C28.6451 50.7874 28.7206 50.4854 28.9659 50.3533L29.249 50.1835C29.4944 50.0514 29.7964 50.1268 29.9285 50.3722C30.0417 50.5798 30.004 50.8251 29.853 50.9761C29.8152 51.0139 29.7775 51.0327 29.7397 51.0516L29.4566 51.2215C29.2113 51.3536 28.9093 51.2781 28.7772 51.0328Z" fill="#EF4A26"/>
<path id="Vector_36" d="M34.2491 49.7683C34.0038 49.6362 33.9283 49.3342 34.0604 49.0889L34.2303 48.8058C34.3624 48.5604 34.6832 48.4849 34.9097 48.6171C35.1551 48.7492 35.2305 49.07 35.0984 49.2965L34.9286 49.5796C34.9286 49.5796 34.872 49.6551 34.8531 49.6928C34.7021 49.8438 34.4568 49.8816 34.2491 49.7683Z" fill="#EF4A26"/>
<path id="Vector_37" d="M33.6831 50.7492C33.9285 50.8813 34.004 51.2022 33.8719 51.4286L33.702 51.7117C33.702 51.7117 33.6454 51.7872 33.6265 51.8061C33.4755 51.9571 33.2302 51.9948 33.0226 51.8816C32.7772 51.7495 32.7017 51.4286 32.8339 51.2022L33.0037 50.9191C33.1358 50.6737 33.4567 50.5982 33.6831 50.7303" fill="#EF4A26"/>
<path id="Vector_38" d="M32.3824 53.9575C32.2314 54.1085 31.9672 54.1462 31.7784 54.033C31.5331 53.9008 31.4576 53.58 31.5897 53.3535L31.7596 53.0704C31.8917 52.8251 32.2125 52.7496 32.439 52.8817C32.6843 53.0138 32.7598 53.3158 32.6277 53.5611L32.4579 53.8442C32.4579 53.8442 32.4013 53.9197 32.3824 53.9575Z" fill="#EF4A26"/>
</g>
<defs>
<clipPath id="clip0_1896_7771">
<rect width="70" height="70" fill="white" transform="translate(0.373047)"/>
</clipPath>
</defs>
</svg>
