<svg width="71" height="70" viewBox="0 0 71 70" fill="none" xmlns="http://www.w3.org/2000/svg">
<g id="Layer_1" clip-path="url(#clip0_1896_4937)">
<path id="Vector" d="M48.5318 66.4347C65.8907 59.2444 74.1339 39.3434 66.9437 21.9845C59.7534 4.62564 39.8524 -3.61763 22.4935 3.57265C5.13464 10.7629 -3.10863 30.6639 4.08165 48.0228C11.2719 65.3817 31.1729 73.6249 48.5318 66.4347Z" stroke="#4B4F55" stroke-width="1.11"/>
<path id="Vector_2" d="M42.7252 27.668H28.2559V42.3491H42.7252V27.668Z" fill="#EF4A26"/>
<path id="Vector_3" d="M42.7252 27.668H28.2559V42.3491H42.7252V27.668Z" fill="#EF4A26"/>
<path id="Vector_4" d="M42.7252 27.668H28.2559V42.3491H42.7252V27.668Z" fill="#EF4A26"/>
<g id="Group">
<path id="Vector_5" d="M44.5958 43.2673C44.5958 43.3909 44.5781 43.5144 44.5252 43.6202C44.4722 43.7261 44.4193 43.832 44.3311 43.9202C44.2429 44.0084 44.137 44.079 44.0311 44.132C43.9252 44.1849 43.8017 44.2025 43.6782 44.2025H27.356C27.2325 44.2025 27.109 44.1849 27.0031 44.132C26.8796 44.079 26.7914 44.0084 26.7032 43.9202C26.6149 43.832 26.5443 43.7261 26.5091 43.6202C26.4561 43.4967 26.4385 43.3909 26.4385 43.2673V26.7334C26.4385 26.6099 26.4561 26.4864 26.5091 26.3805C26.562 26.2746 26.6326 26.1688 26.7032 26.0805C26.7914 25.9923 26.8796 25.9217 27.0031 25.8864C27.109 25.8335 27.2325 25.8159 27.356 25.8159H43.6782C43.8017 25.8159 43.9252 25.8335 44.0311 25.8864C44.1546 25.9394 44.2429 26.01 44.3311 26.0805C44.4193 26.1688 44.4899 26.2746 44.5252 26.3805C44.5781 26.504 44.5958 26.6099 44.5958 26.7334V43.2673ZM48.8484 24.0866C48.8131 23.8925 48.7425 23.6984 48.6719 23.5043C48.6013 23.3102 48.4954 23.1337 48.3896 22.9749C48.2837 22.7985 48.1425 22.6573 48.0014 22.5161C47.8602 22.375 47.7014 22.2515 47.5426 22.1279C47.3661 22.0221 47.1897 21.9162 47.0132 21.8456C46.8191 21.775 46.625 21.7044 46.4309 21.6691C46.2368 21.6339 46.0251 21.6162 45.831 21.6162H25.168C24.9739 21.6162 24.7621 21.6339 24.568 21.6691C24.3739 21.7044 24.1798 21.775 23.9857 21.8456C23.8093 21.9162 23.6328 22.0221 23.4564 22.1279C23.2799 22.2515 23.1387 22.375 22.9976 22.5161C22.8564 22.6573 22.7329 22.8161 22.6094 22.9749C22.5035 23.1514 22.3976 23.3102 22.327 23.5043C22.2565 23.6807 22.1859 23.8748 22.1506 24.0866C22.1153 24.2807 22.0977 24.4924 22.0977 24.6865V45.2966C22.0977 45.5083 22.1153 45.7024 22.1506 45.8965C22.1859 46.0906 22.2565 46.2847 22.327 46.4788C22.3976 46.6729 22.5035 46.8494 22.6094 47.0082C22.7153 47.1847 22.8564 47.3258 22.9976 47.467C23.1387 47.6081 23.2976 47.7493 23.4564 47.8552C23.6152 47.9611 23.7916 48.0669 23.9857 48.1375C24.1798 48.2081 24.3563 48.2787 24.568 48.314C24.7621 48.3493 24.9739 48.3669 25.168 48.3669H45.831C46.0251 48.3669 46.2368 48.3493 46.4309 48.314C46.625 48.2787 46.8191 48.2081 47.0132 48.1375C47.1897 48.0669 47.3661 47.9611 47.5426 47.8552C47.719 47.7493 47.8602 47.6081 48.0014 47.467C48.1425 47.3258 48.266 47.167 48.3896 47.0082C48.4954 46.8317 48.6013 46.6553 48.6719 46.4788C48.7425 46.2847 48.8131 46.1083 48.8484 45.8965C48.8836 45.7024 48.9013 45.5083 48.9013 45.2966V24.6865C48.9013 24.4924 48.8836 24.2807 48.8484 24.0866Z" fill="#4A4F54"/>
<path id="Vector_6" d="M50.7559 26.9278V30.8275H54.3203C54.4438 30.8275 54.5673 30.7922 54.6732 30.6863C54.7967 30.5981 54.8849 30.4569 54.9732 30.2628C55.0614 30.0864 55.132 29.857 55.1849 29.6276C55.2378 29.3805 55.2555 29.1335 55.2555 28.8688C55.2555 28.6041 55.2378 28.3571 55.1849 28.1101C55.132 27.863 55.0614 27.6513 54.9732 27.4748C54.8849 27.2984 54.7791 27.1572 54.6732 27.0513C54.5497 26.9454 54.4438 26.9102 54.3203 26.9102H50.7559V26.9278Z" fill="#EF4A26"/>
<path id="Vector_7" d="M54.3203 31.6915H50.7559V35.5911H54.3203C54.4438 35.5911 54.5673 35.5559 54.6732 35.45C54.7967 35.3618 54.8849 35.2206 54.9732 35.0265C55.0614 34.85 55.132 34.6206 55.1849 34.3912C55.2378 34.1442 55.2555 33.8972 55.2555 33.6325C55.2555 33.3678 55.2378 33.1208 55.1849 32.8737C55.132 32.6267 55.0614 32.4149 54.9732 32.2385C54.8849 32.062 54.7791 31.9209 54.6732 31.815C54.5497 31.7091 54.4438 31.6738 54.3203 31.6738" fill="#EF4A26"/>
<path id="Vector_8" d="M54.3203 36.4561H50.7559V40.3558H54.3203C54.4438 40.3558 54.5673 40.3205 54.6732 40.2146C54.7967 40.1088 54.8849 39.9852 54.9732 39.7911C55.0614 39.6147 55.132 39.4029 55.1849 39.1559C55.2378 38.9089 55.2555 38.6618 55.2555 38.3971C55.2555 38.1325 55.2378 37.8854 55.1849 37.6384C55.132 37.3913 55.0614 37.1796 54.9732 37.0031C54.8849 36.8267 54.7791 36.6855 54.6732 36.5796C54.5497 36.4738 54.4438 36.4385 54.3203 36.4385" fill="#EF4A26"/>
<path id="Vector_9" d="M54.3203 41.2208H50.7559V45.1204H54.3203C54.4438 45.1204 54.5673 45.0852 54.6732 44.9793C54.7967 44.8734 54.8849 44.7499 54.9732 44.5558C55.0614 44.3793 55.132 44.1676 55.1849 43.9205C55.2378 43.6735 55.2555 43.4265 55.2555 43.1618C55.2555 42.8971 55.2378 42.6501 55.1849 42.403C55.132 42.156 55.0614 41.9442 54.9732 41.7678C54.8849 41.5913 54.7791 41.4502 54.6732 41.3443C54.5497 41.2384 54.4438 41.2031 54.3203 41.2031" fill="#EF4A26"/>
<path id="Vector_10" d="M20.2456 26.9279H16.6812C16.5577 26.9279 16.4342 26.9808 16.3283 27.069C16.2225 27.1749 16.1166 27.3161 16.0284 27.4925C15.9401 27.669 15.8695 27.8807 15.8343 28.1278C15.7813 28.3748 15.7637 28.6218 15.7637 28.8689C15.7637 29.1159 15.7813 29.3806 15.8343 29.61C15.8872 29.857 15.9401 30.0688 16.0284 30.2452C16.1166 30.4217 16.2225 30.5629 16.3283 30.6687C16.4342 30.7746 16.5577 30.8099 16.6812 30.8099H20.2456V26.8926V26.9279Z" fill="#EF4A26"/>
<path id="Vector_11" d="M20.2457 31.6924H16.6813C16.5578 31.6924 16.4343 31.7277 16.3284 31.8336C16.2049 31.9218 16.1167 32.0629 16.0284 32.257C15.9402 32.4511 15.8696 32.6629 15.8167 32.8923C15.7637 33.1393 15.7461 33.3864 15.7461 33.651C15.7461 33.9157 15.7637 34.1628 15.8167 34.4098C15.8696 34.6568 15.9402 34.8686 16.0284 35.045C16.1167 35.2215 16.2225 35.3627 16.3284 35.4685C16.4519 35.5744 16.5578 35.6097 16.6813 35.6097H20.2457V31.71V31.6924Z" fill="#EF4A26"/>
<path id="Vector_12" d="M20.2457 36.4561H16.6813C16.5578 36.4561 16.4343 36.4913 16.3284 36.5972C16.2049 36.6854 16.1167 36.8266 16.0284 37.0207C15.9402 37.2148 15.8696 37.4266 15.8167 37.656C15.7637 37.903 15.7461 38.15 15.7461 38.4147C15.7461 38.6794 15.7637 38.9264 15.8167 39.1735C15.8696 39.4205 15.9402 39.6323 16.0284 39.8087C16.1167 40.0028 16.2225 40.1263 16.3284 40.2322C16.4519 40.3204 16.5578 40.3734 16.6813 40.3734H20.2457V36.4737V36.4561Z" fill="#EF4A26"/>
<path id="Vector_13" d="M20.2456 41.2208H16.6812C16.5577 41.2208 16.4342 41.2738 16.3283 41.362C16.2225 41.4679 16.1166 41.609 16.0284 41.7855C15.9401 41.962 15.8695 42.1737 15.8343 42.4207C15.7813 42.6501 15.7637 42.9148 15.7637 43.1618C15.7637 43.4089 15.7813 43.6736 15.8343 43.903C15.8872 44.15 15.9401 44.3618 16.0284 44.5382C16.1166 44.7147 16.2225 44.8558 16.3283 44.9617C16.4342 45.0676 16.5577 45.1029 16.6812 45.1029H20.2456V41.1855V41.2208Z" fill="#EF4A26"/>
<path id="Vector_14" d="M27.4629 50.2549V53.8369C27.4629 53.9605 27.4982 54.084 27.6041 54.1898C27.6923 54.3134 27.8334 54.4016 28.0276 54.5075C28.204 54.5957 28.4334 54.6663 28.6628 54.7192C28.9098 54.7722 29.1569 54.7898 29.4215 54.7898C29.6862 54.7898 29.9333 54.7722 30.1803 54.7192C30.4273 54.6663 30.6391 54.5957 30.8156 54.5075C30.992 54.4192 31.1332 54.3134 31.239 54.1898C31.3273 54.0663 31.3802 53.9605 31.3802 53.8369V50.2549H27.4805H27.4629Z" fill="#EF4A26"/>
<path id="Vector_15" d="M32.209 50.2549V53.8369C32.209 53.9605 32.2443 54.084 32.3501 54.1898C32.4384 54.3134 32.5795 54.4016 32.7736 54.5075C32.9501 54.5957 33.1795 54.6663 33.4089 54.7192C33.6559 54.7722 33.903 54.7898 34.1676 54.7898C34.4323 54.7898 34.6794 54.7722 34.9264 54.7192C35.1734 54.6663 35.3852 54.5957 35.5616 54.5075C35.7381 54.4192 35.8793 54.3134 35.9851 54.1898C36.0734 54.0663 36.1263 53.9605 36.1263 53.8369V50.2549H32.2266H32.209Z" fill="#EF4A26"/>
<path id="Vector_16" d="M36.9375 50.2549V53.8369C36.9375 53.9605 36.9728 54.084 37.0787 54.1898C37.1669 54.3134 37.3081 54.4016 37.5022 54.5075C37.6963 54.5957 37.908 54.6663 38.1374 54.7192C38.3844 54.7722 38.6315 54.7898 38.8962 54.7898C39.1608 54.7898 39.4079 54.7722 39.6549 54.7192C39.902 54.6663 40.1137 54.5957 40.2902 54.5075C40.4666 54.4192 40.6078 54.3134 40.7137 54.1898C40.8195 54.0663 40.8548 53.9605 40.8548 53.8369V50.2549H36.9551H36.9375Z" fill="#EF4A26"/>
<path id="Vector_17" d="M41.6855 50.2549V53.8369C41.6855 53.9605 41.7208 54.084 41.8267 54.1898C41.9149 54.3134 42.0561 54.4016 42.2502 54.5075C42.4443 54.5957 42.6561 54.6663 42.8854 54.7192C43.1325 54.7722 43.3795 54.7898 43.6442 54.7898C43.9089 54.7898 44.1559 54.7722 44.403 54.7192C44.65 54.6663 44.8618 54.5957 45.0382 54.5075C45.2323 54.4192 45.3558 54.3134 45.4617 54.1898C45.5676 54.0663 45.6029 53.9605 45.6029 53.8369V50.2549H41.7032H41.6855Z" fill="#EF4A26"/>
<path id="Vector_18" d="M27.463 19.7459H31.3626V16.1638C31.3626 16.0403 31.3273 15.9168 31.2215 15.8109C31.1156 15.6874 30.9921 15.5991 30.798 15.4933C30.6039 15.405 30.3921 15.3345 30.1627 15.2815C29.9157 15.2286 29.6687 15.2109 29.404 15.2109C29.1393 15.2109 28.8922 15.2286 28.6452 15.2815C28.3982 15.3345 28.1864 15.405 28.01 15.4933C27.8159 15.5815 27.6924 15.6874 27.5865 15.8109C27.4982 15.9344 27.4453 16.0403 27.4453 16.1638V19.7459H27.463Z" fill="#EF4A26"/>
<path id="Vector_19" d="M32.2091 16.1638V19.7459H36.1087V16.1638C36.1087 16.0403 36.0734 15.9168 35.9676 15.8109C35.8617 15.6874 35.7205 15.5991 35.5441 15.4933C35.35 15.405 35.1382 15.3345 34.9088 15.2815C34.6618 15.2286 34.4148 15.2109 34.1501 15.2109C33.8854 15.2109 33.6383 15.2286 33.3913 15.2815C33.1443 15.3345 32.9325 15.405 32.7561 15.4933C32.5796 15.5815 32.4384 15.6874 32.3326 15.8109C32.2443 15.9168 32.1914 16.0403 32.1914 16.1638" fill="#EF4A26"/>
<path id="Vector_20" d="M36.9376 16.1638V19.7459H40.8372V16.1638C40.8372 16.0403 40.802 15.9168 40.6961 15.8109C40.6078 15.6874 40.4667 15.5991 40.2726 15.4933C40.0785 15.405 39.8667 15.3345 39.6373 15.2815C39.3903 15.2286 39.1433 15.2109 38.8786 15.2109C38.6139 15.2109 38.3669 15.2286 38.1198 15.2815C37.8728 15.3345 37.661 15.405 37.4846 15.4933C37.3081 15.5815 37.167 15.6874 37.0611 15.8109C36.9552 15.9168 36.9199 16.0403 36.9199 16.1638" fill="#EF4A26"/>
<path id="Vector_21" d="M41.6856 16.1638V19.7459H45.5853V16.1638C45.5853 16.0403 45.55 15.9168 45.4441 15.8109C45.3559 15.6874 45.2147 15.5991 45.0206 15.4933C44.8442 15.405 44.6324 15.3345 44.3854 15.2815C44.1384 15.2286 43.8913 15.2109 43.6266 15.2109C43.3619 15.2109 43.1149 15.2286 42.8679 15.2815C42.6208 15.3345 42.4091 15.405 42.2326 15.4933C42.0562 15.5815 41.915 15.6874 41.8091 15.8109C41.7033 15.9168 41.668 16.0403 41.668 16.1638" fill="#EF4A26"/>
</g>
</g>
<defs>
<clipPath id="clip0_1896_4937">
<rect width="70" height="70" fill="white" transform="translate(0.5)"/>
</clipPath>
</defs>
</svg>
