<svg width="401" height="270" viewBox="0 0 401 270" fill="none" xmlns="http://www.w3.org/2000/svg">
<path d="M213.303 72.2646V98.8215C224.2 102.683 232.823 111.3 236.678 122.196H263.235C258.146 97.1115 238.388 77.3537 213.303 72.2646Z" fill="#FF4713"/>
<path d="M236.665 147.804C231.396 162.715 217.222 173.413 200.499 173.413C179.282 173.413 162.085 156.216 162.085 135C162.085 118.283 172.783 104.109 187.694 98.8329V72.2842C158.474 78.2186 136.476 104.027 136.476 135.001C136.476 170.36 165.139 199.023 200.499 199.023C231.466 199.023 257.28 177.026 263.215 147.805L236.665 147.804Z" fill="#FF4713"/>
<path d="M397.426 130.84C394.212 127.088 317.34 38.9668 200.499 38.9668C83.6574 38.9668 6.78673 127.086 3.57297 130.84L0 134.998L3.57297 139.16C6.78673 142.912 83.6588 231.033 200.5 231.033C317.341 231.033 394.213 142.912 397.427 139.16L401 134.998L397.426 130.84ZM283.729 134.998C283.729 180.89 246.391 218.228 200.499 218.228C154.606 218.228 117.27 180.89 117.27 134.998C117.27 89.1072 154.609 51.7686 200.499 51.7686C246.389 51.7686 283.729 89.1072 283.729 134.998ZM17.1573 134.993C30.1927 121.452 75.3342 78.6027 140.343 60.253C118.492 77.872 104.464 104.813 104.464 135C104.464 165.167 118.472 192.095 140.291 209.714C75.3861 191.338 30.1995 148.52 17.1573 134.993ZM260.655 209.745C282.505 192.126 296.533 165.186 296.533 134.998C296.533 104.83 282.525 77.9034 260.706 60.2844C325.619 78.6587 370.799 121.477 383.841 135.005C370.806 148.546 325.663 191.397 260.655 209.745Z" fill="#2C2F32"/>
<path d="M200.498 13.3572C254.513 13.3572 307.172 30.1444 357.014 63.2558L364.094 52.5902C312.85 18.5501 256.274 0.552734 200.497 0.552734C155.982 0.552734 111.921 11.609 69.5195 33.4087L75.3775 44.7982C115.945 23.9341 158.046 13.3572 200.498 13.3572Z" fill="#2C2F32"/>
<path d="M62.8313 51.6566L56.4735 40.543C49.6103 44.4669 43.0229 48.5261 36.9014 52.5922L43.9817 63.2578C49.8739 59.3516 56.2112 55.4467 62.8313 51.6566Z" fill="#2C2F32"/>
<path d="M200.499 256.644C146.484 256.644 93.825 239.857 43.9837 206.745L36.9033 217.411C88.1473 251.451 144.723 269.448 200.5 269.448C245.022 269.448 289.082 258.385 331.478 236.585L325.62 225.196C285.061 246.067 242.959 256.644 200.499 256.644Z" fill="#2C2F32"/>
<path d="M338.167 218.344L344.525 229.458C351.388 225.534 357.975 221.475 364.097 217.409L357.017 206.743C351.124 210.649 344.787 214.556 338.167 218.344Z" fill="#2C2F32"/>
</svg>
