<svg width="71" height="70" viewBox="0 0 71 70" fill="none" xmlns="http://www.w3.org/2000/svg">
<g id="Layer_1" clip-path="url(#clip0_1896_7550)">
<path id="Vector" d="M43.2955 68.0449C61.5455 63.7375 72.8482 45.4511 68.5408 27.201C64.2334 8.95099 45.947 -2.35176 27.697 1.95564C9.44693 6.26304 -1.85582 24.5495 2.45159 42.7995C6.75899 61.0496 25.0454 72.3523 43.2955 68.0449Z" stroke="#4B4F55" stroke-width="1.11"/>
<path id="Vector_2" d="M29.0373 40.9547C27.6219 39.3505 26.8858 37.1801 26.8858 35.0097C26.8858 32.8393 27.6219 30.6501 29.0373 29.0647C30.2641 27.687 32.2646 27.0076 34.6049 26.7622V43.2572C32.2646 43.0119 30.2641 42.3325 29.0373 40.9547ZM35.1711 23.5538C28.9996 23.7425 24.0549 28.8194 24.0549 35.0097C24.036 38.7655 25.4515 41.7097 27.6219 43.6536C29.7923 45.5975 32.661 46.5411 35.5108 46.5411C38.3606 46.5411 41.2293 45.5975 43.3997 43.6536C45.5701 41.7097 46.9856 38.7843 46.9667 35.0097C46.9667 28.5552 41.6256 23.3651 35.1899 23.5538" fill="#EF4A26"/>
<path id="Vector_3" d="M45.8689 25.9691C46.2464 25.9879 46.6616 25.8181 46.9447 25.5539L52.2102 20.2694C52.4745 19.9863 52.6254 19.5711 52.6066 19.2125C52.5877 18.8351 52.4178 18.5331 52.1914 18.3066C51.9649 18.0801 51.6629 17.9103 51.2855 17.8914C50.908 17.8725 50.4928 18.0047 50.2097 18.2878L44.9441 23.5533C44.661 23.8364 44.5101 24.2516 44.5289 24.6291C44.5478 25.0065 44.7177 25.3274 44.9441 25.5539C45.1706 25.7803 45.4914 25.9502 45.8689 25.9691Z" fill="#EF4A26"/>
<path id="Vector_4" d="M58.7788 34.047C58.5334 33.7639 58.1182 33.5752 57.7219 33.5752H50.267C49.8707 33.5752 49.4555 33.7639 49.2101 34.047C48.9648 34.3301 48.8516 34.6698 48.8516 34.9907C48.8516 35.3115 48.9459 35.6512 49.2101 35.9343C49.4555 36.2174 49.8707 36.3873 50.267 36.3873H57.7219C58.1182 36.3873 58.5334 36.1985 58.7788 35.9343C59.0241 35.6512 59.1374 35.3115 59.1374 34.9907C59.1374 34.6698 59.043 34.3301 58.7788 34.047Z" fill="#EF4A26"/>
<path id="Vector_5" d="M52.2298 49.7305L46.9642 44.4461C46.6811 44.163 46.2659 44.012 45.8884 44.0309C45.511 44.0497 45.209 44.2196 44.9637 44.4461C44.7372 44.6726 44.5673 44.9934 44.5485 45.3709C44.5296 45.7483 44.6806 46.1635 44.9637 46.4466L50.2481 51.7311C50.5312 51.9953 50.9464 52.1463 51.3239 52.1274C51.6825 52.0897 52.0033 51.9387 52.2298 51.7122C52.4562 51.4857 52.6261 51.1649 52.645 50.8063C52.6638 50.4477 52.5317 50.0325 52.2486 49.7494L52.2298 49.7305Z" fill="#EF4A26"/>
<path id="Vector_6" d="M35.4897 48.3529C35.1689 48.3529 34.8291 48.4661 34.546 48.7114C34.2629 48.9568 34.0742 49.372 34.0742 49.7683V57.2043C34.0742 57.6006 34.2629 58.0158 34.546 58.2612C34.8291 58.5065 35.1689 58.6198 35.4897 58.6198C35.8105 58.6198 36.1691 58.5254 36.4333 58.2612C36.7164 58.0158 36.9052 57.6006 36.9052 57.2043V49.7495C36.9052 49.3531 36.7164 48.9568 36.4333 48.6926C36.1502 48.4472 35.8105 48.334 35.4897 48.334" fill="#EF4A26"/>
<path id="Vector_7" d="M25.1299 44.0309C24.7713 44.012 24.3561 44.163 24.073 44.4272L18.7885 49.7305C18.5243 50.0136 18.3733 50.4288 18.3922 50.8063C18.4111 51.1649 18.5809 51.4857 18.8074 51.7122C19.0339 51.9387 19.3547 52.1085 19.7133 52.1274C20.0908 52.1463 20.4871 51.9953 20.7702 51.7311V51.7122L26.0358 46.4466C26.3 46.1447 26.451 45.7295 26.4132 45.3709C26.3944 45.0123 26.2245 44.6914 25.998 44.465C25.7716 44.2385 25.4507 44.0686 25.0921 44.0498" fill="#EF4A26"/>
<path id="Vector_8" d="M21.7872 35.9529C22.0326 35.6698 22.127 35.3301 22.127 35.0092C22.127 34.6884 22.0326 34.3487 21.7872 34.0656C21.5419 33.7825 21.1267 33.5938 20.7492 33.5938H13.2755C12.8792 33.5938 12.4828 33.7825 12.2375 34.0656C11.9921 34.3487 11.8789 34.6884 11.8789 35.0092C11.8789 35.3301 11.9921 35.6698 12.2375 35.9529C12.4828 36.236 12.898 36.4058 13.2755 36.4247H20.7492C21.1456 36.4247 21.5419 36.236 21.7872 35.9529Z" fill="#EF4A26"/>
<path id="Vector_9" d="M18.7692 20.2692L24.0348 25.5537C24.3179 25.8368 24.7142 25.9689 25.0917 25.95C25.4502 25.9311 25.7711 25.7613 25.9976 25.5348C26.224 25.3083 26.3939 25.0064 26.4128 24.6289C26.4505 24.2514 26.2995 23.8551 26.0353 23.572L20.7509 18.2876C20.4678 18.0233 20.0526 17.8724 19.694 17.8912C19.3354 17.9101 19.0145 18.08 18.7881 18.3064C18.5616 18.5329 18.3917 18.8538 18.3729 19.2123C18.354 19.5898 18.4861 19.9861 18.7692 20.2692Z" fill="#EF4A26"/>
<path id="Vector_10" d="M35.4897 21.6282C35.8105 21.6282 36.1691 21.5339 36.4333 21.2697C36.7164 21.0243 36.9052 20.6091 36.9052 20.2128V12.7768C36.9052 12.3805 36.7164 11.9653 36.4333 11.7199C36.1502 11.4746 35.8105 11.3613 35.4897 11.3613C35.1689 11.3613 34.8291 11.4746 34.546 11.7199C34.2629 11.9653 34.0742 12.3805 34.0742 12.7768V20.2128C34.0742 20.6091 34.2629 21.0243 34.546 21.2697C34.8291 21.515 35.1689 21.6282 35.4897 21.6282Z" fill="#EF4A26"/>
</g>
<defs>
<clipPath id="clip0_1896_7550">
<rect width="70" height="70" fill="white" transform="translate(0.5)"/>
</clipPath>
</defs>
</svg>
