<svg width="71" height="70" viewBox="0 0 71 70" fill="none" xmlns="http://www.w3.org/2000/svg">
<g id="Layer_1" clip-path="url(#clip0_1896_4971)">
<path id="Vector" d="M48.2779 66.4347C65.6368 59.2444 73.88 39.3434 66.6897 21.9845C59.4995 4.62564 39.5985 -3.61763 22.2396 3.57265C4.88073 10.7629 -3.36253 30.6639 3.82774 48.0228C11.018 65.3817 30.919 73.6249 48.2779 66.4347Z" stroke="#4B4F55" stroke-width="1.11"/>
<path id="Vector_2" d="M27.4563 28.7971L29.2032 27.7913L34.4087 24.7916L35.238 24.3151L36.085 24.7916L41.2905 27.7737L43.0374 28.7971L42.1551 29.2912L35.2557 33.2791L28.3562 29.2912L27.4916 28.7971H27.4563ZM32.6265 46.5839L25.7976 42.6313L24.8271 42.0842V33.332L25.6918 33.8261L32.6088 37.814V46.5839H32.6265ZM45.6489 42.1019L44.6961 42.6665L37.8672 46.6015V37.8317L44.7843 33.8438L45.6489 33.3497V42.1019ZM48.6134 28.1795L37.9202 22.0036L36.0674 20.9448L35.5909 20.6625C35.3615 20.5213 35.0969 20.5213 34.8851 20.6625L34.4087 20.9448L32.5559 22.0036L21.8627 28.1795C21.6333 28.3207 21.5098 28.5501 21.5098 28.7971V43.6018C21.5098 43.8664 21.6509 44.0958 21.8627 44.2194L22.4626 44.5723L34.8851 51.754C34.8851 51.754 34.8851 51.754 34.9028 51.754C35.1145 51.8599 35.3792 51.8599 35.5909 51.754L48.0134 44.5723L48.6134 44.2194C48.8428 44.0958 48.9663 43.8664 48.9663 43.6018V28.7971C48.9663 28.5501 48.8251 28.3207 48.6134 28.1795Z" fill="#4A4F54"/>
<path id="Vector_3" d="M32.6249 46.5847L25.7961 42.6321L24.8432 42.0851V33.3152L25.7079 33.8269L32.6249 37.8148V46.5847ZM26.6607 32.2035L22.9375 30.0508V43.1967L23.8904 43.7614L34.513 49.9021V36.7561L26.6431 32.2212L26.6607 32.2035Z" fill="#4A4F54"/>
<path id="Vector_4" d="M35.2376 33.2976L28.3382 29.3097L27.4736 28.798L29.2205 27.7922L34.4259 24.7925L35.2729 24.316L36.1022 24.7925L41.3077 27.7746L43.0546 28.798L42.1723 29.3097L35.2729 33.2976H35.2376ZM39.3667 24.4925L36.0846 22.5868L35.2553 22.1104L34.4083 22.5868L31.1262 24.4925L23.6621 28.798L27.403 30.9508L35.2553 35.4857L43.1075 30.9508L46.8484 28.798L39.3843 24.4925H39.3667Z" fill="#4A4F54"/>
<path id="Vector_5" d="M45.6484 42.1028L44.6955 42.6674L37.8667 46.6024V37.8325L44.7837 33.8446L45.6484 33.3329V42.1028ZM43.8309 32.2036L35.9609 36.7385V49.8845L46.5836 43.7438L47.5364 43.1792V30.0332L43.8132 32.186L43.8309 32.2036Z" fill="#4A4F54"/>
<path id="Vector_6" d="M26.1138 42.4726L25.7962 42.649L23.8905 43.7607L22.4612 44.5724L20.5908 45.6488L17.2911 47.5545L18.9145 47.9957C19.285 48.1015 19.5144 48.4897 19.4262 48.8603C19.3203 49.2308 18.9321 49.4779 18.5615 49.3544L15.0677 48.4191C14.6972 48.3133 14.4678 47.9251 14.556 47.5545L15.4912 44.0607C15.5971 43.6901 16.0029 43.4607 16.3735 43.5666C16.744 43.6725 16.9734 44.0607 16.8852 44.4312C16.8852 44.4312 16.6382 45.3312 16.4441 46.1252L19.7085 44.2371L21.526 43.1784L22.9553 42.3491L24.861 41.255L25.3021 40.9904C25.708 40.761 26.2197 40.8845 26.4491 41.2903C26.6785 41.6962 26.5373 42.2079 26.1315 42.4373" fill="#EF4A26"/>
<path id="Vector_7" d="M55.4235 48.4367L51.9296 49.3719C51.5591 49.4778 51.1532 49.2484 51.065 48.8602C50.9591 48.4896 51.1885 48.0838 51.5591 47.9955C51.5591 47.9955 52.4237 47.7661 53.1825 47.5544L49.8827 45.6487L48.0123 44.5723L46.583 43.7606L44.6773 42.6666L44.3597 42.4725C43.9715 42.2431 43.8303 41.7137 44.0597 41.3255C44.2891 40.9373 44.8008 40.7961 45.2067 41.0255L45.6478 41.2902L47.5535 42.3842L48.9828 43.2136L50.8003 44.2547L54.0824 46.1427L53.6236 44.4488C53.5177 44.0606 53.7471 43.6724 54.1177 43.5841C54.5059 43.4783 54.8941 43.7076 55 44.0959L55.9352 47.5897C56.041 47.9602 55.794 48.3661 55.4235 48.4543" fill="#EF4A26"/>
<path id="Vector_8" d="M38.3074 15.1571L35.7488 12.5985C35.4665 12.3161 35.0253 12.3161 34.743 12.5985L32.1844 15.1571C31.9021 15.4394 31.9021 15.8805 32.1844 16.1629C32.4667 16.4452 32.9255 16.4452 33.1902 16.1629L34.4077 14.9453V26.1503C34.4077 26.6091 34.7783 26.9973 35.2547 26.9973C35.7312 26.9973 36.0841 26.6267 36.0841 26.1503V14.9453C36.6487 15.51 37.284 16.1452 37.284 16.1452C37.5663 16.4276 38.0251 16.4276 38.2898 16.1452C38.5721 15.8629 38.5721 15.4218 38.2898 15.1394" fill="#EF4A26"/>
</g>
<defs>
<clipPath id="clip0_1896_4971">
<rect width="70" height="70" fill="white" transform="translate(0.246094)"/>
</clipPath>
</defs>
</svg>
