<svg width="71" height="70" viewBox="0 0 71 70" fill="none" xmlns="http://www.w3.org/2000/svg">
<g id="Layer_1" clip-path="url(#clip0_1896_7841)">
<path id="Vector" d="M35.6166 68.9432C54.3681 68.9432 69.5692 53.7421 69.5692 34.9906C69.5692 16.2392 54.3681 1.03809 35.6166 1.03809C16.8651 1.03809 1.66406 16.2392 1.66406 34.9906C1.66406 53.7421 16.8651 68.9432 35.6166 68.9432Z" stroke="#4B4F55" stroke-width="1.11"/>
<path id="Vector_2" d="M34.8068 10.0781C33.6367 10.0781 32.4665 10.1536 31.3153 10.3235C30.164 10.4933 29.0128 10.7198 27.8993 11.0595C26.7669 11.3804 25.6911 11.7956 24.6154 12.2674C23.5585 12.7392 22.5205 13.3054 21.5391 13.9282L22.3883 15.2871C22.9545 14.9285 23.5396 14.5888 24.1435 14.2868C24.7475 13.9848 25.3514 13.7017 25.9742 13.4375C26.597 13.1733 27.2198 12.9468 27.8615 12.7581C28.5032 12.5505 29.1449 12.3806 29.8054 12.2485C30.466 12.0975 31.1266 11.9843 31.7871 11.9088C32.4477 11.8144 33.1271 11.7578 33.7876 11.7389C34.4482 11.7201 35.1276 11.7012 35.8071 11.7389C36.4676 11.7767 37.147 11.8333 37.8076 11.9088C38.4682 12.0032 39.1287 12.1164 39.7893 12.2485C40.4498 12.3995 41.0915 12.5694 41.7332 12.7581C42.3749 12.9657 42.9977 13.1922 43.6205 13.4375C44.2433 13.7017 44.8472 13.966 45.4512 14.2868C46.0551 14.5888 46.6213 14.9285 47.2064 15.2871C47.7725 15.6457 48.3199 16.0231 48.8672 16.4383C49.3956 16.8347 49.9241 17.2687 50.4148 17.7217C50.9055 18.1746 51.3962 18.6465 51.8491 19.1372C52.3021 19.6279 52.7361 20.1374 53.1514 20.6659C53.5666 21.1943 53.9629 21.7416 54.3215 22.3078C54.6801 22.874 55.0198 23.4402 55.3406 24.0442C55.6615 24.6292 55.9446 25.252 56.2088 25.856C56.473 26.4788 56.6995 27.1016 56.926 27.7433C57.1336 28.3849 57.3223 29.0266 57.4733 29.6872C57.6243 30.3477 57.7564 31.0083 57.8507 31.6689C57.9451 32.3294 58.0206 33.0088 58.0583 33.6694C58.0961 34.3488 58.115 35.0094 58.0772 35.6888C58.0772 36.3682 58.0017 37.0288 57.9262 37.7082C57.8507 38.3876 57.7375 39.0482 57.6054 39.6899C57.4733 40.3316 57.3034 41.011 57.1147 41.6527C56.926 42.2944 56.6995 42.936 56.4541 43.5588C56.2088 44.1817 55.9446 44.8045 55.6426 45.4084C55.3406 46.0123 55.0198 46.5974 54.6612 47.1636C54.3215 47.7298 53.944 48.296 53.5477 48.8433L51.5283 47.0504L50.8111 53.2596L56.8882 51.8064L54.7556 49.9002C55.0953 49.4472 55.4161 48.9754 55.737 48.4847C56.0578 47.994 56.3409 47.5033 56.6051 47.0126C56.8882 46.503 57.1336 45.9935 57.3789 45.465C57.6243 44.9555 57.8507 44.4081 58.0395 43.8797C58.2282 43.3512 58.4358 42.8039 58.5868 42.2566C58.7566 41.7093 58.9076 41.162 59.0209 40.5958C59.153 40.0296 59.2662 39.4634 59.3417 38.8972C59.4361 38.331 59.4927 37.7648 59.5493 37.1986C59.6059 36.6325 59.6248 36.0474 59.6437 35.4812C59.6437 34.915 59.6437 34.3299 59.6248 33.7638C59.6059 33.1976 59.5493 32.6125 59.4738 32.0463C59.3983 31.4801 59.3228 30.9139 59.2096 30.3477C59.0964 29.7815 58.9831 29.2154 58.8321 28.668C58.6811 28.1207 58.5302 27.5734 58.3414 27.0261C58.1527 26.4788 57.9451 25.9503 57.7375 25.4219C57.511 24.8934 57.2845 24.365 57.0203 23.8554C56.7561 23.3459 56.4919 22.8363 56.1899 22.3456C55.9068 21.8549 55.586 21.3642 55.2651 20.8924C54.9443 20.4205 54.6046 19.9676 54.246 19.5146C53.8874 19.0617 53.5099 18.6276 53.1325 18.2124C52.755 17.7972 52.3398 17.382 51.9246 16.9856C51.5094 16.5893 51.0753 16.2119 50.6412 15.8344C50.2072 15.4758 49.7542 15.1172 49.2824 14.7775C48.8106 14.4378 48.3387 14.1169 47.848 13.815C47.3573 13.513 46.8666 13.2299 46.3571 12.9657C45.8475 12.7015 45.3379 12.4561 44.8095 12.2108C44.281 11.9843 43.7526 11.7578 43.2053 11.5691C42.658 11.3804 42.1295 11.1916 41.5633 11.0406C41.016 10.8897 40.4498 10.7387 39.9025 10.6254C39.3363 10.5122 38.7701 10.4178 38.2039 10.3235C37.6377 10.248 37.0716 10.1914 36.5054 10.1536C35.9392 10.1159 35.3541 10.097 34.7879 10.097" fill="#EF4A26"/>
<path id="Vector_3" d="M34.8069 58.3172C34.2785 58.3172 33.7312 58.3172 33.2027 58.2606C32.6743 58.2228 32.1458 58.1662 31.6174 58.0907C31.0889 58.0152 30.5605 57.9208 30.0321 57.8265C29.5036 57.7132 28.994 57.5811 28.4845 57.449C27.9749 57.298 27.4653 57.1471 26.9558 56.9583C26.4462 56.7885 25.9555 56.5809 25.4648 56.3733C24.9741 56.1657 24.5023 55.9203 24.0304 55.675C23.5586 55.4296 23.0868 55.1654 22.6338 54.8823C22.1809 54.5992 21.7279 54.3161 21.2939 53.9953C20.8598 53.6933 20.4257 53.3536 20.0294 53.0139C19.6142 52.6742 19.2178 52.3156 18.8215 51.957C18.4252 51.5984 18.0666 51.2021 17.6891 50.8246C17.3305 50.4283 16.9719 50.0319 16.6511 49.5979C16.3114 49.1826 15.9905 48.7486 15.6886 48.3145C15.3866 47.8804 15.0846 47.4275 14.8204 46.9556C14.5562 46.5027 14.292 46.0309 14.0466 45.559C13.8013 45.0872 13.5748 44.5965 13.3672 44.1058C13.1596 43.6151 12.9709 43.1055 12.801 42.6148C12.6311 42.1053 12.4802 41.5957 12.3292 41.0861C12.1971 40.5766 12.065 40.0481 11.9706 39.5197C11.8762 38.9912 11.7819 38.4628 11.7252 37.9343C11.6497 37.4059 11.612 36.8774 11.5743 36.3301C11.5554 35.8017 11.5365 35.2544 11.5365 34.7259C11.5365 34.1975 11.5743 33.6502 11.612 33.1217C11.6497 32.5933 11.7252 32.046 11.8007 31.5175C11.8762 30.9891 11.9895 30.4606 12.1027 29.9322C12.2159 29.4037 12.348 28.8942 12.499 28.3846C12.65 27.875 12.8199 27.3654 13.0086 26.8559C13.1973 26.3463 13.4049 25.8556 13.6314 25.3649C13.8579 24.8742 14.0844 24.4024 14.3486 23.9306C14.5939 23.4587 14.877 23.0058 15.1601 22.5528C15.4432 22.0999 15.7452 21.6658 16.066 21.2317L18.0854 23.0247L18.8026 16.8154L12.7255 18.2687L14.8582 20.1748C14.4241 20.7599 14.0277 21.345 13.6503 21.9678C13.2728 22.5717 12.9142 23.2134 12.5934 23.8551C12.2726 24.4967 11.9706 25.1573 11.7064 25.8179C11.4421 26.4784 11.1968 27.1578 10.9892 27.8561C10.7816 28.5544 10.6117 29.2527 10.4607 29.951C10.3098 30.6493 10.1965 31.3665 10.121 32.0837C10.0455 32.8009 9.98892 33.518 9.95118 34.2352C9.9323 34.9524 9.95118 35.6696 9.97005 36.3867C10.0078 37.1039 10.0833 37.8211 10.1777 38.5383C10.272 39.2554 10.4041 39.9537 10.574 40.652C10.7438 41.3503 10.9326 42.0486 11.1402 42.7281C11.3667 43.4075 11.612 44.0869 11.8951 44.7475C12.1782 45.408 12.4802 46.0686 12.8199 46.6914C13.1596 47.3331 13.5182 47.9559 13.9145 48.5598C14.3108 49.1638 14.726 49.7488 15.1601 50.315C15.5942 50.8812 16.066 51.4285 16.5567 51.957C17.0474 52.4854 17.557 52.995 18.0854 53.4857C18.6139 53.9764 19.1612 54.4293 19.7463 54.8634C20.3125 55.2975 20.8975 55.7127 21.5203 56.0902C22.1243 56.4676 22.7471 56.8262 23.3888 57.1659C24.0304 57.5056 24.6721 57.8076 25.3516 58.0718C26.0121 58.3361 26.6915 58.5814 27.371 58.8079C28.0504 59.0155 28.7487 59.2042 29.447 59.3741C30.1453 59.5251 30.8625 59.6572 31.5608 59.7515C32.2591 59.8459 32.9951 59.9025 33.7123 59.9403C34.4295 59.978 35.1466 59.978 35.8638 59.9403C36.581 59.9025 37.2982 59.8459 38.0153 59.7515C38.7325 59.6572 39.4308 59.5439 40.1291 59.3741C40.8274 59.2231 41.5257 59.0344 42.2052 58.8268C42.8846 58.6192 43.564 58.3738 44.2246 58.0907C44.8851 57.8265 45.5457 57.5245 46.1685 57.1848C46.8102 56.864 47.433 56.5054 48.0369 56.109L47.1876 54.7502C46.2629 55.3352 45.3003 55.8448 44.3001 56.2978C43.2998 56.7507 42.2806 57.1282 41.2238 57.4302C40.1669 57.7321 39.11 57.9586 38.0342 58.1096C36.9585 58.2606 35.8638 58.3361 34.7692 58.3361" fill="#EF4A26"/>
<path id="Vector_4" d="M30.8995 40.7845C30.7296 40.9544 30.522 41.0488 30.2766 41.0488C30.0313 41.0488 29.8237 40.9544 29.6538 40.7845L29.5595 40.6902C29.2198 40.3505 29.2198 39.8032 29.5595 39.4634L30.7107 38.3311L32.0507 39.671L30.8995 40.8034V40.7845Z" fill="#EF4A26"/>
<path id="Vector_5" d="M33.8066 39.7652C33.8066 39.7652 33.4292 39.7652 33.1272 39.4444L30.9191 37.2363C30.6171 36.9343 30.5605 36.6323 30.5982 36.5757L34.4106 32.7822L37.619 35.9718L33.8066 39.7652Z" fill="#4A4F54"/>
<path id="Vector_6" d="M39.1836 36.2363L34.1445 31.216L37.8625 27.498L42.9205 32.5183L39.1836 36.2363Z" fill="#4A4F54"/>
<path id="Vector_7" d="M44.3933 32.7074L37.6934 26.0263L42.9778 20.7607L49.6777 27.4418L44.3933 32.7074Z" fill="#4A4F54"/>
<path id="Vector_8" d="M27.333 42.2758C27.5029 42.106 27.8049 42.106 27.9747 42.2758C28.1635 42.4457 28.1635 42.7477 27.9747 42.9175L27.7671 43.1251C27.7671 43.1251 27.5595 43.2572 27.4463 43.2572C27.333 43.2572 27.2198 43.2195 27.1254 43.1251C26.9556 42.9553 26.9556 42.6533 27.1254 42.4834L27.333 42.2758Z" fill="#EF4A26"/>
<path id="Vector_9" d="M26.3893 44.5028L26.1817 44.7104C26.1817 44.7104 25.9741 44.8425 25.8608 44.8425C25.7476 44.8425 25.6344 44.8048 25.54 44.7104C25.3513 44.5406 25.3513 44.2386 25.54 44.0687L25.7476 43.8611C25.9363 43.6913 26.2194 43.6724 26.3893 43.8611C26.5591 44.0499 26.5591 44.333 26.3893 44.5028Z" fill="#EF4A26"/>
<path id="Vector_10" d="M24.8033 45.4272C24.9732 45.5971 24.9732 45.899 24.8033 46.0689L24.5957 46.2765C24.5957 46.2765 24.3881 46.4086 24.2749 46.4086C24.1617 46.4086 24.0484 46.3708 23.954 46.2765C23.7653 46.1066 23.7653 45.8047 23.954 45.6348L24.1617 45.4272C24.3315 45.2573 24.6335 45.2573 24.8033 45.4272Z" fill="#EF4A26"/>
<path id="Vector_11" d="M23.2174 47.0131C23.3873 47.183 23.3873 47.485 23.2174 47.6548L23.0098 47.8624C23.0098 47.8624 22.8022 47.9945 22.6889 47.9945C22.5757 47.9945 22.4625 47.9568 22.3681 47.8624C22.1794 47.6737 22.1794 47.3906 22.3681 47.2207L22.5757 47.0131C22.7456 46.8433 23.0475 46.8433 23.2174 47.0131Z" fill="#EF4A26"/>
<path id="Vector_12" d="M21.6334 48.5981C21.8033 48.768 21.8033 49.0699 21.6334 49.2398L21.4258 49.4474C21.4258 49.4474 21.2182 49.5795 21.105 49.5795C20.9917 49.5795 20.8785 49.5417 20.7841 49.4474C20.5954 49.2587 20.5954 48.9756 20.7841 48.8057L20.9917 48.5981C21.1805 48.4282 21.4636 48.4282 21.6334 48.5981Z" fill="#EF4A26"/>
<path id="Vector_13" d="M29.1058 43.2947L29.0303 43.5778C28.9737 43.7854 28.7849 43.9175 28.5962 43.9175C28.5584 43.9175 28.5207 43.9175 28.483 43.9175C28.2376 43.842 28.0866 43.5967 28.1621 43.3513L28.2376 43.0682C28.2942 42.8229 28.5584 42.6908 28.8038 42.7474C29.0491 42.804 29.2001 43.0682 29.1246 43.2947" fill="#EF4A26"/>
<path id="Vector_14" d="M28.5218 45.4457L28.4463 45.7288C28.3897 45.9364 28.2009 46.0686 28.0122 46.0686C27.9745 46.0686 27.9367 46.0686 27.899 46.0686C27.6536 46.0119 27.5026 45.7477 27.5781 45.5212L27.6536 45.2381C27.7102 44.9928 27.9745 44.8607 28.2198 44.9173C28.4652 44.9739 28.6161 45.2381 28.5407 45.4646" fill="#EF4A26"/>
<path id="Vector_15" d="M27.9358 47.617L27.8603 47.9001C27.8037 48.1077 27.615 48.2398 27.4263 48.2398C27.3885 48.2398 27.3508 48.2398 27.313 48.2398C27.0677 48.1643 26.9167 47.9189 26.9922 47.6736L27.0677 47.3905C27.1243 47.1451 27.3885 47.013 27.6339 47.0696C27.8792 47.1263 28.0302 47.3905 27.9547 47.617" fill="#EF4A26"/>
<path id="Vector_16" d="M27.3519 49.768L27.2764 50.0511C27.2197 50.2587 27.031 50.3908 26.8423 50.3908C26.8045 50.3908 26.7668 50.3908 26.729 50.3908C26.4837 50.3153 26.3327 50.07 26.4082 49.8435L26.4837 49.5604C26.5403 49.3151 26.8045 49.1829 27.0499 49.2396C27.2952 49.3151 27.4462 49.5604 27.3707 49.8058" fill="#EF4A26"/>
<path id="Vector_17" d="M30.0128 43.899C30.0128 43.899 29.9373 43.899 29.8995 43.899C29.6919 43.899 29.5032 43.7669 29.4655 43.5593L29.39 43.2762C29.3333 43.0308 29.4655 42.7855 29.7108 42.71C29.9561 42.6345 30.2015 42.7855 30.277 43.0308L30.3525 43.3139C30.4091 43.5593 30.277 43.8046 30.0316 43.8612" fill="#EF4A26"/>
<path id="Vector_18" d="M30.5968 46.0689C30.5968 46.0689 30.5213 46.0689 30.4835 46.0689C30.2759 46.0689 30.0872 45.9368 30.0494 45.7292L29.9739 45.4461C29.9173 45.2007 30.0494 44.9554 30.2948 44.8799C30.5401 44.8044 30.7855 44.9554 30.861 45.2007L30.9365 45.4838C31.012 45.7292 30.861 45.9745 30.6156 46.0311" fill="#EF4A26"/>
<path id="Vector_19" d="M31.1827 48.2203C31.1827 48.2203 31.1072 48.2203 31.0695 48.2203C30.8618 48.2203 30.6731 48.0881 30.6354 47.8805L30.5599 47.5974C30.5033 47.3521 30.6354 47.1067 30.8807 47.0313C31.1261 46.9558 31.3714 47.1067 31.4469 47.3521L31.5224 47.6352C31.579 47.8805 31.4469 48.1259 31.2016 48.1825" fill="#EF4A26"/>
<path id="Vector_20" d="M32.0882 49.8246C32.1448 50.07 32.0127 50.3153 31.7673 50.3908C31.7296 50.3908 31.6919 50.3908 31.6541 50.3908C31.4465 50.3908 31.2578 50.2587 31.22 50.0511L31.1445 49.768C31.069 49.5227 31.22 49.2773 31.4654 49.2207C31.7107 49.1452 31.9561 49.2962 32.0316 49.5415L32.1071 49.8246H32.0882Z" fill="#EF4A26"/>
<path id="Vector_21" d="M26.3327 40.2369C26.3893 39.9915 26.6535 39.8405 26.8989 39.916L27.182 39.9915C27.4273 40.0481 27.5783 40.3124 27.5028 40.5577C27.4462 40.7653 27.2575 40.8974 27.0687 40.8974C27.031 40.8974 26.9932 40.8974 26.9555 40.8974L26.6724 40.8219C26.4271 40.7653 26.2761 40.5011 26.3516 40.2557" fill="#EF4A26"/>
<path id="Vector_22" d="M25.3505 39.9727C25.2939 40.1803 25.1051 40.3124 24.9164 40.3124C24.8787 40.3124 24.8409 40.3124 24.8032 40.3124L24.5201 40.237C24.2747 40.1803 24.1237 39.9161 24.1992 39.6708C24.2558 39.4254 24.5201 39.2933 24.7654 39.3499L25.0485 39.4254C25.2939 39.482 25.4448 39.7463 25.3693 39.9727" fill="#EF4A26"/>
<path id="Vector_23" d="M21.9909 39.0858C22.0475 38.8404 22.3117 38.7083 22.5571 38.765L22.8402 38.8404C23.0855 38.9159 23.2365 39.1613 23.161 39.4066C23.1044 39.6142 22.9157 39.7464 22.7269 39.7464C22.6892 39.7464 22.6515 39.7464 22.6137 39.7464L22.3306 39.6709C22.0853 39.6142 21.9343 39.35 22.0098 39.1047" fill="#EF4A26"/>
<path id="Vector_24" d="M19.821 38.5008C19.8776 38.2555 20.1418 38.1234 20.3872 38.18L20.6703 38.2555C20.9156 38.331 21.0666 38.5763 20.9911 38.8217C20.9345 39.0293 20.7458 39.1614 20.557 39.1614C20.5193 39.1614 20.4815 39.1614 20.4438 39.1614L20.1607 39.0859C19.9153 39.0293 19.7644 38.7651 19.8398 38.5197" fill="#EF4A26"/>
<path id="Vector_25" d="M26.332 41.7852C26.2565 41.5399 26.4075 41.2945 26.6529 41.2379L26.936 41.1624C27.1813 41.1058 27.4267 41.2379 27.5022 41.4833C27.5777 41.7286 27.4267 41.974 27.1813 42.0495L26.8982 42.1249C26.8982 42.1249 26.8227 42.1249 26.785 42.1249C26.5774 42.1249 26.3887 41.9928 26.3509 41.7852" fill="#EF4A26"/>
<path id="Vector_26" d="M25.3505 42.0487C25.4071 42.2941 25.275 42.5394 25.0296 42.6149L24.7465 42.6904C24.7465 42.6904 24.671 42.6904 24.6333 42.6904C24.4257 42.6904 24.237 42.5583 24.1992 42.3507C24.1237 42.1053 24.2747 41.86 24.5201 41.7845L24.8032 41.709C25.0485 41.6335 25.2939 41.7845 25.3693 42.0298" fill="#EF4A26"/>
<path id="Vector_27" d="M22.4438 43.2753C22.2362 43.2753 22.0475 43.1432 22.0098 42.9356C21.9343 42.6903 22.0853 42.4449 22.3306 42.3694L22.6137 42.2939C22.8591 42.2185 23.1044 42.3694 23.1799 42.6148C23.2554 42.8601 23.1044 43.1055 22.8591 43.1621L22.576 43.2376C22.576 43.2376 22.5005 43.2376 22.4627 43.2376" fill="#EF4A26"/>
<path id="Vector_28" d="M20.6898 43.7663L20.3878 43.8418C20.3878 43.8418 20.3123 43.8418 20.2746 43.8418C20.0669 43.8418 19.8782 43.7096 19.8216 43.502C19.765 43.2567 19.8971 43.0113 20.1424 42.9358L20.4255 42.8604C20.6709 42.7849 20.9162 42.9358 20.9917 43.1812C21.0672 43.4265 20.9162 43.6719 20.6709 43.7285" fill="#EF4A26"/>
</g>
<defs>
<clipPath id="clip0_1896_7841">
<rect width="70" height="70" fill="white" transform="translate(0.626953)"/>
</clipPath>
</defs>
</svg>
