<svg width="71" height="70" viewBox="0 0 71 70" fill="none" xmlns="http://www.w3.org/2000/svg">
<g id="Layer_1" clip-path="url(#clip0_1896_6683)">
<path id="Vector" d="M35.635 64.0845C51.6935 64.0845 64.7114 51.0665 64.7114 35.0081C64.7114 18.9496 51.6935 5.93164 35.635 5.93164C19.5766 5.93164 6.55859 18.9496 6.55859 35.0081C6.55859 51.0665 19.5766 64.0845 35.635 64.0845Z" stroke="#4B4F55" stroke-width="1.11"/>
<path id="Vector_2" d="M31.9819 34.3615C28.911 34.3777 26.7452 35.4929 25.4846 37.691C24.2239 39.8891 23.5935 42.1034 23.5935 44.3338C23.5935 46.5642 24.5148 47.5825 26.3735 47.5825C28.2322 47.5825 29.6383 46.4026 30.8828 44.0267C32.1112 41.6508 32.7254 39.4204 32.7254 37.3354C32.7254 36.0747 32.4829 35.105 31.9981 34.3938L31.9819 34.3615ZM39.546 31.7593L38.8187 34.3615H32.8708C34.5841 35.8 35.4568 37.4001 35.4568 39.1779C35.4568 41.5053 34.5517 43.6388 32.7577 45.5298C30.9637 47.437 28.7979 48.3906 26.2927 48.3906C24.531 48.3906 23.1895 47.9057 22.2197 46.936C21.2661 45.9662 20.7812 44.657 20.7812 42.9923C20.7812 41.4407 21.1368 39.7921 21.8803 38.0789C22.6076 36.3657 23.6097 35.0242 24.8704 34.0544C26.1472 33.0847 27.4725 32.4543 28.8302 32.1634C30.204 31.8725 32.3375 31.7432 35.2467 31.7432H39.5298L39.546 31.7593Z" fill="#4B4F55"/>
<path id="Vector_3" d="M50.4694 33.1175C50.4694 33.1175 50.4694 33.263 50.4209 33.457C50.3885 33.6671 50.3401 33.958 50.2916 34.3621L50.0976 36.0591L50.0168 37.1905L49.9845 37.5622C47.6571 37.4814 46.2024 37.4491 45.5721 37.4491L39.4788 37.5622C39.2041 37.5622 39.0586 37.4653 39.0586 37.2713C39.0586 37.0935 39.495 36.6733 40.3678 36.0268C42.8083 34.1681 44.473 32.6003 45.3458 31.2912C46.2186 29.9982 46.655 28.4304 46.655 26.6202C46.655 23.8241 45.6852 22.4341 43.7457 22.4341C43.0507 22.4341 42.4366 22.6119 41.9355 22.9836C41.4183 23.3554 41.1597 23.7918 41.1597 24.2928C41.1597 24.5029 41.3052 24.5837 41.5638 24.5837C42.6628 24.5837 43.2124 25.0686 43.2124 26.0545C43.2124 26.9596 42.7275 27.4122 41.7577 27.4122C40.4647 27.4122 39.8021 26.7495 39.8021 25.3919C39.8021 24.2605 40.2223 23.3554 41.0789 22.6604C41.9194 21.9816 43.0507 21.626 44.4407 21.626C45.96 21.626 47.1884 22.0785 48.1096 22.9998C49.0309 23.9211 49.4996 25.1171 49.4996 26.5879C49.4996 28.2203 48.9501 29.7072 47.8349 31.0487C46.7358 32.3902 44.8286 33.8772 42.1618 35.5096H43.6649C44.3276 35.4773 45.0226 35.4773 45.7176 35.4773C47.1399 35.4773 48.0126 35.445 48.3682 35.3965C48.7076 35.348 48.9662 35.2187 49.1763 35.0247C49.2733 34.8631 49.4188 34.2813 49.6289 33.2468C49.7097 32.9236 49.8552 32.762 50.1138 32.762C50.3724 32.762 50.4855 32.8913 50.4855 33.1337L50.4694 33.1175Z" fill="#F04C24"/>
<path id="Vector_4" d="M35.6025 7.64517C20.5229 7.64517 8.23935 19.9125 8.23935 35.0084C8.23935 50.1042 20.5067 62.3716 35.6025 62.3716C50.6984 62.3716 62.9657 50.1042 62.9657 35.0084C62.9657 19.9125 50.6984 7.64517 35.6025 7.64517ZM35.6025 65.9273C18.5511 65.9273 4.68359 52.0598 4.68359 35.0084C4.68359 17.9569 18.5511 4.07324 35.6025 4.07324C52.654 4.07324 66.5215 17.9407 66.5215 34.9922C66.5215 52.0437 52.654 65.9111 35.6025 65.9111" fill="#4B4F55"/>
<path id="Vector_5" d="M37.4112 0H33.8555V11.7663H37.4112V0Z" fill="#4B4F55"/>
<path id="Vector_6" d="M37.4112 58.2334H33.8555V69.9997H37.4112V58.2334Z" fill="#4B4F55"/>
<path id="Vector_7" d="M70.6257 33.2139H58.8594V36.7696H70.6257V33.2139Z" fill="#4B4F55"/>
<path id="Vector_8" d="M12.3913 33.2139H0.625V36.7696H12.3913V33.2139Z" fill="#4B4F55"/>
</g>
<defs>
<clipPath id="clip0_1896_6683">
<rect width="70" height="70" fill="white" transform="translate(0.625)"/>
</clipPath>
</defs>
</svg>
