<svg width="71" height="70" viewBox="0 0 71 70" fill="none" xmlns="http://www.w3.org/2000/svg">
<g id="Layer_1" clip-path="url(#clip0_1896_4798)">
<path id="Vector" d="M35.7629 69.0296C54.552 69.0296 69.7835 53.798 69.7835 35.009C69.7835 16.2199 54.552 0.988281 35.7629 0.988281C16.9738 0.988281 1.74219 16.2199 1.74219 35.009C1.74219 53.798 16.9738 69.0296 35.7629 69.0296Z" stroke="#4B4F55" stroke-width="1.11"/>
<path id="Vector_2" d="M23.2163 31.8859L21.3458 31.3213L21.3105 31.6918L23.4633 37.1267L23.2163 31.8859Z" fill="#4A4F54"/>
<path id="Vector_3" d="M51.1147 31.6386C51.4853 31.2857 51.5912 30.6681 51.3618 30.0328L51.1147 29.3623L33.3633 40.6731L38.2511 42.173L51.1147 31.6386Z" fill="#4A4F54"/>
<path id="Vector_4" d="M53.9725 47.8198L58.0839 49.0903C58.1721 49.1256 58.278 49.0726 58.3133 48.9668C58.3486 48.8609 58.2957 48.7727 58.1898 48.7374L54.0784 47.4669C54.0254 46.4082 51.3962 44.2731 48.5024 43.3908C46.2614 42.7026 44.7615 42.4026 42.9264 42.8261C41.3912 43.179 39.7854 43.1614 38.2856 42.7026L23.3221 38.1147L20.1812 30.1919L18.099 29.5566L20.093 37.1266L19.9695 37.0913C19.7577 37.0207 19.546 37.1442 19.4754 37.356L19.3695 37.6736C19.3342 37.7971 19.3695 37.9383 19.4401 38.0442L20.4635 39.2264C20.9929 39.844 21.6811 40.2851 22.4398 40.5145L29.5157 42.685L30.945 41.6968L31.492 41.9262L13.1406 54.5428L13.6876 55.0545C13.9347 55.2662 14.1817 55.4251 14.4464 55.5133C14.764 55.6192 15.0816 55.6192 15.364 55.4956L35.1799 45.0142L44.9027 47.9963C45.3262 48.1198 45.7496 48.2257 46.1908 48.3139C47.7436 48.6139 49.4023 48.6844 50.8139 48.6139C52.3315 48.6139 53.5843 48.2962 53.9372 47.8198" fill="#4A4F54"/>
<path id="Vector_5" d="M34.7211 24.1387C33.6977 24.1387 32.8684 23.3094 32.8684 22.2859C32.8684 21.2625 33.6977 20.4331 34.7211 20.4331C35.7446 20.4331 36.5739 21.2625 36.5739 22.2859C36.5739 23.3094 35.7446 24.1387 34.7211 24.1387ZM39.0796 18.5098H30.3803C30.1862 18.5098 30.0098 18.6686 30.0098 18.8803V25.7268C30.0098 25.9386 30.1862 26.0974 30.3803 26.0974H39.0796C39.2737 26.0974 39.4501 25.9386 39.4501 25.7268V18.8803C39.4501 18.6686 39.2737 18.5098 39.0796 18.5098Z" fill="#EF4A26"/>
<path id="Vector_6" d="M34.0152 17.0809V12.1049C32.9388 11.3991 33.4328 9.70508 34.721 9.70508C36.0091 9.70508 36.5032 11.3991 35.4268 12.1049V17.0809H34.0152Z" fill="#EF4A26"/>
<path id="Vector_7" d="M44.3728 27.1039C45.008 27.1922 45.5021 27.7392 45.5021 28.3921C45.5021 29.1155 44.9198 29.6978 44.1963 29.6978C43.1729 29.6978 42.5553 28.5509 43.1023 27.7039L41.9906 25.3394H40.8613V23.9277H42.4318C42.7494 23.9277 42.9964 24.1218 43.1023 24.3865L44.3728 27.1039Z" fill="#EF4A26"/>
<path id="Vector_8" d="M25.0863 27.1039C24.4511 27.1922 23.957 27.7392 23.957 28.3921C23.957 29.1155 24.5393 29.6978 25.2628 29.6978C26.2862 29.6978 26.9038 28.5509 26.3568 27.7039L27.4685 25.3394H28.5978V23.9277H27.0274C26.7274 23.9277 26.4627 24.1218 26.3568 24.3865L25.0863 27.1039Z" fill="#EF4A26"/>
<path id="Vector_9" d="M21.1163 20.998C21.5751 20.998 21.981 21.2274 22.2103 21.598H28.5804V23.0096H22.2103C21.5045 24.086 19.8105 23.5919 19.8105 22.3038C19.8105 21.5804 20.3929 20.998 21.1163 20.998Z" fill="#EF4A26"/>
<path id="Vector_10" d="M22.2472 13.5693C21.5237 13.5693 20.9414 14.1516 20.9414 14.8751C20.9414 15.4574 21.3296 15.9515 21.8413 16.1103L22.9177 20.1158C22.9883 20.4335 23.2706 20.6805 23.6059 20.6805H28.5819V19.2689H24.1529L23.2177 15.7574C23.9764 14.928 23.3765 13.587 22.2472 13.587" fill="#EF4A26"/>
<path id="Vector_11" d="M32.4103 17.0813H30.9987V15.5991L28.493 13.6757C27.646 13.9757 26.7461 13.3581 26.7461 12.4405C26.7461 11.7171 27.3284 11.1348 28.0519 11.1348C28.8106 11.1348 29.4106 11.7877 29.3576 12.5464L32.1104 14.6462C32.3045 14.7698 32.428 14.9815 32.428 15.2462V17.0813H32.4103Z" fill="#EF4A26"/>
<path id="Vector_12" d="M41.4092 11.1524C42.1327 11.1524 42.715 11.7347 42.715 12.4582C42.715 13.3581 41.8151 13.9933 40.9681 13.6757L38.4624 15.5991V17.0813H37.0508V15.2462C37.0508 14.9991 37.1743 14.7874 37.3684 14.6462L40.1211 12.5464C40.0682 11.7877 40.6505 11.1348 41.4269 11.1348" fill="#EF4A26"/>
<path id="Vector_13" d="M35.4444 27.5098V32.4858C36.5208 33.1916 36.0267 34.8856 34.7386 34.8856C33.4504 34.8856 32.9563 33.1916 34.0327 32.4858V27.5098H35.4444Z" fill="#EF4A26"/>
<path id="Vector_14" d="M37.0508 27.5098H38.4625V28.992L40.9682 30.9154C41.8152 30.6154 42.7151 31.233 42.7151 32.1506C42.7151 32.874 42.1328 33.4563 41.4093 33.4563C40.6505 33.4563 40.0506 32.8034 40.1035 32.0447L37.3508 29.9449C37.1567 29.8213 37.0332 29.6096 37.0332 29.3449V27.5098H37.0508Z" fill="#EF4A26"/>
<path id="Vector_15" d="M28.0519 33.4563C27.3284 33.4563 26.7461 32.874 26.7461 32.1505C26.7461 31.2506 27.646 30.6153 28.493 30.9329L30.9987 29.0096V27.5273H32.4103V29.3625C32.4103 29.6095 32.2868 29.8213 32.0927 29.9624L29.34 32.0623C29.3929 32.821 28.8106 33.4739 28.0342 33.4739" fill="#EF4A26"/>
<path id="Vector_16" d="M40.8613 19.2689V20.6805H45.8374C46.1726 20.6805 46.4726 20.4335 46.5256 20.1158L47.6019 16.1103C48.1313 15.9338 48.5019 15.4574 48.5019 14.8751C48.5019 14.1516 47.9196 13.5693 47.1961 13.5693C46.0668 13.5693 45.4845 14.9104 46.2256 15.7397L45.2904 19.2512H40.8613V19.2689Z" fill="#EF4A26"/>
<path id="Vector_17" d="M48.3449 20.998C47.8862 20.998 47.4803 21.2274 47.2509 21.598H40.8809V23.0096H47.2509C47.9567 24.086 49.6507 23.5919 49.6507 22.3038C49.6507 21.5804 49.0684 20.998 48.3449 20.998Z" fill="#EF4A26"/>
<path id="Vector_18" d="M29.5334 55.9184C29.304 55.689 29.304 55.3361 29.5334 55.1067C29.7628 54.8773 30.1157 54.8773 30.3451 55.1067C32.7625 57.5241 36.6975 57.5241 39.1326 55.089C39.362 54.8596 39.7149 54.8596 39.9443 55.089C40.1737 55.3184 40.1737 55.6713 39.9443 55.9007C37.0857 58.777 32.4096 58.7946 29.5334 55.9184Z" fill="#EF4A26"/>
<path id="Vector_19" d="M35.3918 50.8541C35.3918 50.4836 35.0919 50.1836 34.7213 50.1836C34.3508 50.1836 34.0508 50.4836 34.0508 50.8541C34.0508 51.2247 34.3508 51.5247 34.7213 51.5247C35.0919 51.5247 35.3918 51.2247 35.3918 50.8541Z" fill="#EF4A26"/>
<path id="Vector_20" d="M31.7396 53.6955C31.5102 53.4661 31.1573 53.4661 30.9279 53.6955C30.6985 53.9249 30.6985 54.2778 30.9279 54.5072C33.0277 56.5894 36.4157 56.5894 38.5155 54.5072C38.7449 54.2778 38.7449 53.9249 38.5155 53.6955C38.2861 53.4661 37.9332 53.4661 37.7038 53.6955C36.0451 55.3542 33.3806 55.3542 31.722 53.6955H31.7396Z" fill="#EF4A26"/>
<path id="Vector_21" d="M37.1043 52.2658C36.8749 52.0364 36.5219 52.0364 36.2926 52.2658C35.4279 53.1304 34.0339 53.1304 33.1693 52.2658C32.9399 52.0364 32.587 52.0364 32.3576 52.2658C32.1282 52.4952 32.1282 52.8481 32.3576 53.0775C33.6634 54.3833 35.7808 54.3833 37.1043 53.0775C37.3336 52.8481 37.3336 52.4952 37.1043 52.2658Z" fill="#EF4A26"/>
</g>
<defs>
<clipPath id="clip0_1896_4798">
<rect width="70" height="70" fill="white" transform="translate(0.753906)"/>
</clipPath>
</defs>
</svg>
