<svg width="71" height="70" viewBox="0 0 71 70" fill="none" xmlns="http://www.w3.org/2000/svg">
<g clip-path="url(#clip0_1896_6919)">
<path d="M35.2522 64.0845C51.3107 64.0845 64.3286 51.0665 64.3286 35.0081C64.3286 18.9496 51.3107 5.93164 35.2522 5.93164C19.1937 5.93164 6.17578 18.9496 6.17578 35.0081C6.17578 51.0665 19.1937 64.0845 35.2522 64.0845Z" stroke="#4B4F55" stroke-width="1.11"/>
<path d="M33.9912 44.7544C33.8781 44.7544 33.7811 44.6251 33.7811 44.4473V43.0896L33.5387 43.0412C30.985 42.5078 29.0778 40.5198 28.8838 38.2086C28.8677 37.95 28.8838 37.8368 29.0455 37.6752C29.1748 37.5297 29.4657 37.5136 29.7566 37.5136H30.9526C31.5022 37.5136 31.7931 37.6914 31.8254 38.0469C31.9547 39.3723 33.3285 40.3905 34.9448 40.3905C35.559 40.3905 36.157 40.245 36.6742 39.9703C37.0783 39.744 37.3369 39.4046 37.4015 38.9844C37.4985 38.4187 37.1752 37.8207 36.5772 37.5136L31.4537 34.8144C31.4537 34.8144 31.3406 34.7498 31.2759 34.7013C30.0637 33.8285 29.401 32.4547 29.5142 31.0324C29.6273 29.6262 30.4839 28.3656 31.8093 27.6706C32.3426 27.3958 32.9083 27.1857 33.5063 27.0564L33.7649 27.0079V25.5048C33.7649 25.3432 33.8619 25.2139 33.975 25.2139H35.8014C35.9146 25.2139 36.0115 25.3432 36.0115 25.5048V27.0079L36.254 27.0564C37.3369 27.2827 38.3066 27.7675 39.0662 28.4949C40.036 29.4 40.6017 30.6122 40.6987 31.9213C40.7148 32.1961 40.6987 32.2931 40.5532 32.4385C40.4077 32.584 40.0845 32.6002 39.8259 32.6002H38.646C38.0965 32.6002 37.8056 32.4062 37.7732 32.0506C37.6601 30.6768 36.4964 29.7232 34.9286 29.7232C34.3306 29.7232 33.7488 29.8687 33.2477 30.1273C32.779 30.3697 32.4881 30.7899 32.4558 31.2748C32.4396 31.5657 32.5043 31.8567 32.6659 32.1153C32.7952 32.2931 32.9568 32.4547 33.1831 32.5678L38.0157 35.1215C39.6804 35.9943 40.6017 37.7398 40.3108 39.4692C40.1007 40.7137 39.3087 41.7805 38.145 42.427C37.5631 42.7341 36.949 42.9603 36.2863 43.1058L36.0277 43.1543V44.4958C36.0277 44.6574 35.9307 44.8029 35.8176 44.8029H33.9912V44.7544Z" fill="#F04C24"/>
<path d="M45.0771 45.6597C42.4103 48.2295 38.7737 49.8135 34.7977 49.8135C26.6195 49.8135 19.9605 43.1707 19.9605 35.0086C19.9605 26.8465 26.6195 20.2037 34.7977 20.2037C42.976 20.2037 49.6349 26.8465 49.6349 35.0086C49.6349 35.5096 49.6026 36.0268 49.5541 36.5117H51.6714C51.7199 36.0106 51.7361 35.5096 51.7361 35.0086C51.7361 25.6828 44.1397 18.1025 34.7977 18.1025C25.4558 18.1025 17.8594 25.6828 17.8594 35.0086C17.8594 44.3344 25.4558 51.9146 34.7977 51.9146C39.3232 51.9146 43.4447 50.1205 46.4994 47.2275L45.0933 45.6758L45.0771 45.6597Z" fill="#4B4F55"/>
<path d="M51.7376 43.364V37.3516H46.1453V43.364H44.125L48.9414 48.6653L53.774 43.364H51.7376Z" fill="#F04C24"/>
<path d="M35.2197 7.64517C20.1401 7.64517 7.85654 19.9125 7.85654 35.0084C7.85654 50.1042 20.1239 62.3716 35.2197 62.3716C50.3156 62.3716 62.5829 50.1042 62.5829 35.0084C62.5829 19.9125 50.3156 7.64517 35.2197 7.64517ZM35.2197 65.9273C18.1682 65.9273 4.30078 52.0598 4.30078 35.0084C4.30078 17.9569 18.1682 4.07324 35.2197 4.07324C52.2712 4.07324 66.1387 17.9407 66.1387 34.9922C66.1387 52.0437 52.2712 65.9111 35.2197 65.9111" fill="#4B4F55"/>
<path d="M37.0128 0H33.457V11.7663H37.0128V0Z" fill="#4B4F55"/>
<path d="M37.0128 58.2334H33.457V69.9997H37.0128V58.2334Z" fill="#4B4F55"/>
<path d="M70.2429 33.2139H58.4766V36.7696H70.2429V33.2139Z" fill="#4B4F55"/>
<path d="M12.0085 33.2139H0.242188V36.7696H12.0085V33.2139Z" fill="#4B4F55"/>
</g>
<defs>
<clipPath id="clip0_1896_6919">
<rect width="70" height="70" fill="white" transform="translate(0.242188)"/>
</clipPath>
</defs>
</svg>
