<svg width="71" height="70" viewBox="0 0 71 70" fill="none" xmlns="http://www.w3.org/2000/svg">
<g clip-path="url(#clip0_1896_7178)">
<path d="M42.1806 63.2995C57.8097 59.6107 67.4892 43.9505 63.8004 28.3215C60.1116 12.6924 44.4514 3.01292 28.8223 6.70171C13.1933 10.3905 3.51379 26.0507 7.20258 41.6798C10.8914 57.3088 26.5516 66.9883 42.1806 63.2995Z" stroke="#4B4F55" stroke-width="1.11"/>
<path d="M29.3016 29.2706C29.3016 25.8441 32.0815 23.0642 35.508 23.0642C37.7223 23.0642 39.6779 24.2279 40.7608 25.9896L44.7206 22.0298C42.571 19.3145 39.2415 17.5527 35.508 17.5527C29.0268 17.5527 23.7578 22.8056 23.7578 29.3029C23.7578 32.3415 24.6144 35.2992 26.2468 37.8529L27.2651 39.4692L32.2108 34.5234C30.4653 33.4244 29.3016 31.4849 29.3016 29.2706ZM47.0642 27.2018L30.1905 44.0755L35.508 52.4477L44.7691 37.8852C46.4015 35.3315 47.2582 32.3576 47.2582 29.3352C47.2582 28.6079 47.1935 27.8968 47.0642 27.2179" fill="#F04C24"/>
<path d="M48.1066 20.5624L21.0664 47.6025L22.9178 49.454L49.958 22.4138L48.1066 20.5624Z" fill="#4B4F55"/>
<path d="M35.4775 7.64517C20.3979 7.64517 8.11435 19.9125 8.11435 35.0084C8.11435 50.1042 20.3817 62.3716 35.4775 62.3716C50.5734 62.3716 62.8407 50.1042 62.8407 35.0084C62.8407 19.9125 50.5734 7.64517 35.4775 7.64517ZM35.4775 65.9273C18.4261 65.9273 4.55859 52.0598 4.55859 35.0084C4.55859 17.9569 18.4261 4.07324 35.4775 4.07324C52.529 4.07324 66.3965 17.9407 66.3965 34.9922C66.3965 52.0437 52.529 65.9111 35.4775 65.9111" fill="#4B4F55"/>
<path d="M37.2862 0H33.7305V11.7663H37.2862V0Z" fill="#4B4F55"/>
<path d="M37.2862 58.2334H33.7305V69.9997H37.2862V58.2334Z" fill="#4B4F55"/>
<path d="M70.5007 33.2139H58.7344V36.7696H70.5007V33.2139Z" fill="#4B4F55"/>
<path d="M12.2663 33.2139H0.5V36.7696H12.2663V33.2139Z" fill="#4B4F55"/>
</g>
<defs>
<clipPath id="clip0_1896_7178">
<rect width="70" height="70" fill="white" transform="translate(0.5)"/>
</clipPath>
</defs>
</svg>
