<svg width="71" height="70" viewBox="0 0 71 70" fill="none" xmlns="http://www.w3.org/2000/svg">
<g id="Layer_1" clip-path="url(#clip0_1896_7385)">
<path id="Vector" d="M35.6166 68.9432C54.3681 68.9432 69.5692 53.7421 69.5692 34.9906C69.5692 16.2392 54.3681 1.03809 35.6166 1.03809C16.8651 1.03809 1.66406 16.2392 1.66406 34.9906C1.66406 53.7421 16.8651 68.9432 35.6166 68.9432Z" stroke="#4B4F55" stroke-width="1.11"/>
<path id="Vector_2" d="M18.5361 23.5342C17.1207 23.5342 15.9883 24.6854 15.9883 26.082V43.8982C15.9883 45.3136 17.1395 46.446 18.5361 46.446H40.2401C41.6556 46.446 42.788 45.3136 42.788 43.8982V26.082C42.788 24.6854 41.6367 23.5342 40.2401 23.5342H18.5361Z" fill="#EF4A26"/>
<path id="Vector_3" d="M53.0179 26.082C52.6782 26.082 52.3762 26.1953 52.1309 26.4406L45.3555 32.4422V37.5379L52.1497 43.5773C52.3951 43.8038 52.6782 43.917 52.999 43.917C53.1689 43.917 53.3388 43.8793 53.4897 43.8227C53.6407 43.7472 53.7917 43.6717 53.9049 43.5396C54.0182 43.4075 54.1125 43.2753 54.188 43.1244C54.2635 42.9734 54.2824 42.8035 54.2824 42.6337V27.3654C54.2824 27.1955 54.2447 27.0257 54.188 26.8747C54.1314 26.7237 54.0371 26.5916 53.9049 26.4595C53.7917 26.3463 53.6407 26.2519 53.4897 26.1764C53.3388 26.1198 53.1689 26.082 52.999 26.082" fill="#EF4A26"/>
</g>
<defs>
<clipPath id="clip0_1896_7385">
<rect width="70" height="70" fill="white" transform="translate(0.625)"/>
</clipPath>
</defs>
</svg>
