<svg width="71" height="70" viewBox="0 0 71 70" fill="none" xmlns="http://www.w3.org/2000/svg">
<g id="Layer_1" clip-path="url(#clip0_1896_7398)">
<path id="Vector" d="M35.7457 30.9143L27.7812 17.1182H43.7101L35.7457 30.9143Z" fill="#EF4A26"/>
<path id="Vector_2" d="M38.9727 33.2543L49.6359 21.4209L54.5429 36.5571L38.9727 33.2543Z" fill="#EF4A26"/>
<path id="Vector_3" d="M37.7461 37.0293L52.2972 43.5216L39.4069 52.8826L37.7461 37.0293Z" fill="#EF4A26"/>
<path id="Vector_4" d="M33.762 37.0293L32.1012 52.8826L19.2109 43.5216L33.762 37.0293Z" fill="#EF4A26"/>
<path id="Vector_5" d="M32.5344 33.2543L16.9453 36.5571L21.8712 21.4209L32.5344 33.2543Z" fill="#EF4A26"/>
<path id="Vector_6" d="M69.5233 38.3431C71.3695 19.6827 57.7388 3.05889 39.0784 1.21278C20.418 -0.633326 3.79425 12.9973 1.94814 31.6577C0.102036 50.3181 13.7327 66.9419 32.3931 68.788C51.0535 70.6341 67.6772 57.0034 69.5233 38.3431Z" stroke="#4B4F55" stroke-width="1.11"/>
</g>
<defs>
<clipPath id="clip0_1896_7398">
<rect width="70" height="70" fill="white" transform="translate(0.753906)"/>
</clipPath>
</defs>
</svg>
