<svg width="71" height="70" viewBox="0 0 71 70" fill="none" xmlns="http://www.w3.org/2000/svg">
<g clip-path="url(#clip0_1896_6896)">
<path d="M35.51 64.0845C51.5685 64.0845 64.5864 51.0665 64.5864 35.0081C64.5864 18.9496 51.5685 5.93164 35.51 5.93164C19.4516 5.93164 6.43359 18.9496 6.43359 35.0081C6.43359 51.0665 19.4516 64.0845 35.51 64.0845Z" stroke="#4B4F55" stroke-width="1.11"/>
<path d="M40.6137 32.7134C40.6137 34.7014 39.4823 36.4146 37.8176 37.2712C37.6398 37.3682 37.5428 37.5298 37.5428 37.74V43.5423C36.8802 43.7039 36.2013 43.7847 35.4902 43.7847C34.779 43.7847 34.1002 43.7039 33.4537 43.5423V37.74C33.4537 37.546 33.3567 37.3682 33.1628 37.2712C31.5142 36.4308 30.3828 34.7014 30.3828 32.7134C30.3828 30.9517 31.2718 29.3839 32.6456 28.4788C32.8072 28.3657 33.0011 28.3495 33.1789 28.4465C33.3567 28.5435 33.4537 28.7051 33.4537 28.899V33.3599C33.4537 33.6508 33.6961 33.8771 33.9709 33.8771H37.0256C37.3165 33.8771 37.5428 33.6508 37.5428 33.3599V28.899C37.5428 28.7051 37.6398 28.5273 37.8176 28.4465C37.9954 28.3495 38.1893 28.3657 38.3509 28.4788C39.7086 29.4001 40.6137 30.9517 40.6137 32.7134Z" fill="#4B4F55"/>
<path d="M35.5094 44.9808C29.998 44.9808 25.5371 40.52 25.5371 34.9924C25.5371 29.4648 29.998 25.0201 35.5094 25.0201C41.0208 25.0201 45.4817 29.4809 45.4817 34.9924C45.4817 40.5038 41.0208 44.9808 35.5094 44.9808ZM51.7689 39.3724C50.3466 38.435 49.4092 36.8187 49.4092 34.9924C49.4092 33.166 50.3466 31.5498 51.7689 30.6123C52.076 30.4184 52.2053 30.0466 52.0922 29.7072C51.8013 28.7698 51.4295 27.8809 50.977 27.0081C50.8153 26.6848 50.4598 26.5232 50.1042 26.5879C48.4395 26.9273 46.6292 26.4585 45.3362 25.1655C44.0432 23.8725 43.5745 22.0623 43.9139 20.3976C43.9948 20.042 43.817 19.6864 43.4937 19.5248C42.6371 19.0884 41.732 18.7005 40.8107 18.4096C40.4552 18.2965 40.0996 18.4258 39.8895 18.7329C38.952 20.1552 37.3358 21.0926 35.5094 21.0926C33.683 21.0926 32.0668 20.1552 31.1294 18.7329C30.9354 18.4258 30.5637 18.2965 30.2243 18.4096C29.2868 18.7005 28.3979 19.0884 27.5413 19.5248C27.218 19.6864 27.0402 20.042 27.1211 20.3976C27.4605 22.0623 26.9918 23.8725 25.6988 25.1655C24.4057 26.4585 22.5955 26.9434 20.9308 26.5879C20.5752 26.507 20.2196 26.6848 20.058 27.0081C19.6055 27.8647 19.2337 28.7698 18.9428 29.7072C18.8297 30.0466 18.959 30.4184 19.2661 30.6123C20.6884 31.5498 21.6258 33.166 21.6258 34.9924C21.6258 36.8187 20.6884 38.435 19.2661 39.3724C18.959 39.5664 18.8297 39.9381 18.9428 40.2937C19.2337 41.2311 19.6055 42.1201 20.058 42.9928C20.2196 43.3161 20.5752 43.4777 20.9308 43.4131C22.5955 43.0737 24.4057 43.5424 25.6988 44.8354C26.9918 46.1284 27.4766 47.9386 27.1211 49.6033C27.0402 49.9589 27.218 50.3145 27.5413 50.4761C28.3979 50.9125 29.303 51.3004 30.2243 51.5913C30.5637 51.7045 30.9354 51.5751 31.1294 51.2681C32.0668 49.8458 33.683 48.9083 35.5094 48.9083C37.3358 48.9083 38.952 49.8458 39.8895 51.2681C40.0834 51.5751 40.4552 51.7045 40.8107 51.5913C41.7482 51.3004 42.6371 50.9125 43.4937 50.4761C43.817 50.3145 43.9786 49.9589 43.9139 49.6033C43.5745 47.9386 44.0432 46.1284 45.3362 44.8354C46.6292 43.5424 48.4395 43.0575 50.1042 43.4131C50.4598 43.4939 50.8153 43.3161 50.977 42.9928C51.4295 42.1362 51.8013 41.2311 52.0922 40.2937C52.2053 39.9381 52.0922 39.5825 51.7689 39.3724Z" fill="#F04C24"/>
<path d="M40.6137 32.7134C40.6137 34.7014 39.4823 36.4146 37.8176 37.2712C37.6398 37.3682 37.5428 37.5298 37.5428 37.74V43.5423C36.8802 43.7039 36.2013 43.7847 35.4902 43.7847C34.779 43.7847 34.1002 43.7039 33.4537 43.5423V37.74C33.4537 37.546 33.3567 37.3682 33.1628 37.2712C31.5142 36.4308 30.3828 34.7014 30.3828 32.7134C30.3828 30.9517 31.2718 29.3839 32.6456 28.4788C32.8072 28.3657 33.0011 28.3495 33.1789 28.4465C33.3567 28.5435 33.4537 28.7051 33.4537 28.899V33.3599C33.4537 33.6508 33.6961 33.8771 33.9709 33.8771H37.0256C37.3165 33.8771 37.5428 33.6508 37.5428 33.3599V28.899C37.5428 28.7051 37.6398 28.5273 37.8176 28.4465C37.9954 28.3495 38.1893 28.3657 38.3509 28.4788C39.7086 29.4001 40.6137 30.9517 40.6137 32.7134Z" fill="#4B4F55"/>
<path d="M40.6137 32.7134C40.6137 34.7014 39.4823 36.4146 37.8176 37.2712C37.6398 37.3682 37.5428 37.5298 37.5428 37.74V43.5423C36.8802 43.7039 36.2013 43.7847 35.4902 43.7847C34.779 43.7847 34.1002 43.7039 33.4537 43.5423V37.74C33.4537 37.546 33.3567 37.3682 33.1628 37.2712C31.5142 36.4308 30.3828 34.7014 30.3828 32.7134C30.3828 30.9517 31.2718 29.3839 32.6456 28.4788C32.8072 28.3657 33.0011 28.3495 33.1789 28.4465C33.3567 28.5435 33.4537 28.7051 33.4537 28.899V33.3599C33.4537 33.6508 33.6961 33.8771 33.9709 33.8771H37.0256C37.3165 33.8771 37.5428 33.6508 37.5428 33.3599V28.899C37.5428 28.7051 37.6398 28.5273 37.8176 28.4465C37.9954 28.3495 38.1893 28.3657 38.3509 28.4788C39.7086 29.4001 40.6137 30.9517 40.6137 32.7134Z" fill="#4B4F55"/>
<path d="M35.4775 7.64517C20.3979 7.64517 8.11435 19.9125 8.11435 35.0084C8.11435 50.1042 20.3817 62.3716 35.4775 62.3716C50.5734 62.3716 62.8407 50.1042 62.8407 35.0084C62.8407 19.9125 50.5734 7.64517 35.4775 7.64517ZM35.4775 65.9273C18.4261 65.9273 4.55859 52.0598 4.55859 35.0084C4.55859 17.9569 18.4261 4.07324 35.4775 4.07324C52.529 4.07324 66.3965 17.9407 66.3965 34.9922C66.3965 52.0437 52.529 65.9111 35.4775 65.9111" fill="#4B4F55"/>
<path d="M37.2862 0H33.7305V11.7663H37.2862V0Z" fill="#4B4F55"/>
<path d="M37.2862 58.2334H33.7305V69.9997H37.2862V58.2334Z" fill="#4B4F55"/>
<path d="M70.5007 33.2139H58.7344V36.7696H70.5007V33.2139Z" fill="#4B4F55"/>
<path d="M12.2663 33.2139H0.5V36.7696H12.2663V33.2139Z" fill="#4B4F55"/>
</g>
<defs>
<clipPath id="clip0_1896_6896">
<rect width="70" height="70" fill="white" transform="translate(0.5)"/>
</clipPath>
</defs>
</svg>
