<svg width="71" height="70" viewBox="0 0 71 70" fill="none" xmlns="http://www.w3.org/2000/svg">
<g clip-path="url(#clip0_1896_6705)">
<path d="M62.2439 46.1313C68.3892 31.2952 61.344 14.2864 46.5079 8.14107C31.6718 1.99576 14.663 9.04104 8.51769 23.8771C2.37238 38.7132 9.41765 55.722 24.2537 61.8673C39.0898 68.0126 56.0986 60.9673 62.2439 46.1313Z" stroke="#4B4F55" stroke-width="1.11"/>
<path d="M55.4712 34.2486C55.0348 33.8283 54.4044 33.8283 53.9681 34.2486L53.1923 35.0244V34.9759C53.1438 25.2137 45.1756 17.2617 35.4134 17.2617C30.4354 17.2617 25.8614 19.2335 22.4672 22.8216C22.2895 23.0317 22.1602 23.2903 22.1602 23.5489C22.1602 23.856 22.2895 24.1146 22.4996 24.3248C22.936 24.7127 23.6148 24.7127 24.0027 24.2763C26.9604 21.1084 31.0334 19.3467 35.365 19.3467C43.9796 19.3467 51.0103 26.3774 51.0103 34.9759V35.0244L50.2345 34.2486C49.7981 33.8283 49.1678 33.8283 48.7314 34.2486C48.5213 34.4587 48.4243 34.7173 48.4243 35.0244C48.4243 35.3314 48.5051 35.5739 48.7314 35.8002L51.3497 38.4185C51.5598 38.6286 51.8184 38.7256 52.1255 38.7256C52.4326 38.7256 52.6912 38.5963 52.9013 38.4185L55.5197 35.8002C55.8591 35.3314 55.8591 34.6365 55.4712 34.2486Z" fill="#4B4F55"/>
<path d="M46.7727 45.6758C43.815 48.8436 39.7905 50.5892 35.4266 50.5892C26.812 50.5892 19.7813 43.5746 19.7813 34.96V34.9115L20.5571 35.6873C20.9935 36.1237 21.6238 36.1237 22.0602 35.6873C22.4966 35.2509 22.4966 34.6206 22.0602 34.1842L19.4419 31.5659C19.2318 31.3558 18.9732 31.2588 18.6661 31.2588C18.359 31.2588 18.1165 31.3881 17.8903 31.5659L15.2719 34.1842C15.0618 34.3943 14.9648 34.6529 14.9648 34.96C14.9648 35.2671 15.0457 35.5257 15.2719 35.7358C15.6922 36.1722 16.3387 36.1722 16.775 35.7358L17.5509 34.96V35.0085C17.5509 44.7707 25.519 52.7388 35.2973 52.7388C40.2754 52.7388 44.8494 50.767 48.2435 47.1789C48.6314 46.7425 48.6314 46.0637 48.195 45.6758C47.8556 45.2394 47.2091 45.2394 46.7889 45.6758" fill="#4B4F55"/>
<path d="M35.5068 29.6749C38.4161 29.6749 40.8728 32.067 40.8728 35.0247C40.8728 37.9825 38.4645 40.3745 35.5068 40.3745C32.5491 40.3745 30.1408 37.9825 30.1408 35.0247C30.1408 32.067 32.5491 29.6749 35.5068 29.6749ZM25.082 32.665C24.5163 32.7135 24.1445 33.2307 24.1445 33.7802V36.1723C24.1445 36.7379 24.5324 37.2067 25.082 37.2875L27.1346 37.5946C27.4255 38.1926 27.474 38.3704 27.7003 39.0007L26.4558 40.6654C26.1164 41.1018 26.1648 41.7322 26.5851 42.1201L28.2498 43.7848C28.6377 44.1727 29.2842 44.2212 29.7044 43.9141L31.3692 42.6696C31.9672 42.9767 32.145 43.009 32.7753 43.2353L33.0663 45.2879C33.1147 45.8536 33.6319 46.2254 34.1815 46.2254H36.5735C37.1715 46.2739 37.6403 45.8375 37.6887 45.2879L37.9958 43.2353C38.5939 42.9282 38.7716 42.8959 39.402 42.6696L41.0667 43.9141C41.4869 44.2535 42.1334 44.2212 42.5213 43.7848L44.1861 42.1201C44.574 41.7322 44.6225 41.0857 44.3154 40.6654L43.0709 39.0007C43.378 38.4027 43.4103 38.2249 43.6366 37.5946L45.6892 37.2875C46.2549 37.239 46.6266 36.7218 46.6266 36.1723V33.7802C46.6266 33.2145 46.2387 32.7458 45.6892 32.665L43.6366 32.3579C43.3295 31.7599 43.2972 31.5821 43.0709 30.9518L44.3154 29.287C44.6548 28.8506 44.6225 28.2203 44.1861 27.8324L42.5213 26.1515C42.1334 25.7636 41.4869 25.7151 41.0667 26.0222L39.3535 27.2667C38.7555 26.9596 38.5777 26.9273 37.9473 26.701L37.6403 24.6484C37.5918 24.0827 37.0746 23.7109 36.525 23.7109H34.1168C33.5511 23.7109 33.0824 24.0988 33.0016 24.6484L32.6945 26.701C32.0965 27.0081 31.9187 27.0404 31.2884 27.2667L29.6075 26.0222C29.1872 25.6828 28.5407 25.7151 28.1528 26.1515L26.4881 27.8162C26.1002 28.2041 26.0517 28.8506 26.3588 29.2709L27.6033 30.9356C27.2962 31.5336 27.2639 31.7114 27.0376 32.3417L25.0173 32.6488L25.082 32.665Z" fill="#F04C24"/>
<path d="M34.3117 37.9663L38.5463 35.5742C39.015 35.3156 39.015 34.6368 38.5463 34.3782L34.3117 31.9862C33.843 31.7276 33.2773 32.067 33.2773 32.5842V37.336C33.2773 37.8855 33.843 38.2411 34.3117 37.9825" fill="#4B4F55"/>
<path d="M35.3486 7.64517C20.269 7.64517 7.98545 19.9125 7.98545 35.0084C7.98545 50.1042 20.2528 62.3716 35.3486 62.3716C50.4445 62.3716 62.7118 50.1042 62.7118 35.0084C62.7118 19.9125 50.4445 7.64517 35.3486 7.64517ZM35.3486 65.9273C18.2972 65.9273 4.42969 52.0598 4.42969 35.0084C4.42969 17.9569 18.2972 4.07324 35.3486 4.07324C52.4001 4.07324 66.2676 17.9407 66.2676 34.9922C66.2676 52.0437 52.4001 65.9111 35.3486 65.9111" fill="#4B4F55"/>
<path d="M37.1417 0H33.5859V11.7663H37.1417V0Z" fill="#4B4F55"/>
<path d="M37.1417 58.2334H33.5859V69.9997H37.1417V58.2334Z" fill="#4B4F55"/>
<path d="M70.3718 33.2139H58.6055V36.7696H70.3718V33.2139Z" fill="#4B4F55"/>
<path d="M12.1374 33.2139H0.371094V36.7696H12.1374V33.2139Z" fill="#4B4F55"/>
</g>
<defs>
<clipPath id="clip0_1896_6705">
<rect width="70" height="70" fill="white" transform="translate(0.371094)"/>
</clipPath>
</defs>
</svg>
