<svg width="71" height="70" viewBox="0 0 71 70" fill="none" xmlns="http://www.w3.org/2000/svg">
<g id="Layer_1" clip-path="url(#clip0_1896_7577)">
<path id="Vector" d="M53.0794 63.8766C69.03 54.0177 73.9682 33.095 64.1092 17.1444C54.2503 1.19391 33.3276 -3.7443 17.3771 6.11463C1.42655 15.9736 -3.51166 36.8963 6.34728 52.8468C16.2062 68.7973 37.1289 73.7355 53.0794 63.8766Z" stroke="#4B4F55" stroke-width="1.11"/>
<path id="Vector_2" d="M48.329 34.6701H45.7057V25.5167H48.329V34.6701ZM44.4034 34.6701H41.7801V25.5167H44.4034V34.6701ZM40.4778 34.6701H37.8545V25.5167H40.4778V34.6701ZM36.5523 34.6701H33.9289V25.5167H36.5523V34.6701ZM32.6078 34.6701H29.9844V25.5167H32.6078V34.6701ZM28.7011 34.6701H26.0777V25.5167H28.7011V34.6701ZM24.7755 34.6701H22.1521V25.5167H24.7755V34.6701ZM18.2266 21.5723V42.5024H23.4544V46.428H28.6822V50.3536H41.7612V46.428H46.989V42.5024H52.2357V21.5723H18.2266Z" fill="#EF4A26"/>
</g>
<defs>
<clipPath id="clip0_1896_7577">
<rect width="70" height="70" fill="white" transform="translate(0.242188)"/>
</clipPath>
</defs>
</svg>
