<svg width="71" height="70" viewBox="0 0 71 70" fill="none" xmlns="http://www.w3.org/2000/svg">
<g id="Layer_1" clip-path="url(#clip0_1896_7930)">
<path id="Vector" d="M35.7436 68.9432C54.495 68.9432 69.6961 53.7421 69.6961 34.9906C69.6961 16.2392 54.495 1.03809 35.7436 1.03809C16.9921 1.03809 1.79102 16.2392 1.79102 34.9906C1.79102 53.7421 16.9921 68.9432 35.7436 68.9432Z" stroke="#4B4F55" stroke-width="1.11"/>
<path id="Vector_2" d="M40.2368 36.9345C40.2368 36.5004 40.067 36.0663 39.7461 35.7644L33.5181 29.5551C32.933 28.9701 32.0082 28.9135 31.3477 29.3853L39.916 37.9159C40.1236 37.6328 40.2368 37.2931 40.2368 36.9345Z" fill="#4A4F54"/>
<path id="Vector_3" d="M28.5723 33.3485L31.29 30.6307L29.4216 28.7623C29.3083 28.6491 29.1762 28.6113 29.0253 28.6113C28.8743 28.6113 28.7422 28.6679 28.6289 28.7623L26.685 30.7062C26.4774 30.9138 26.4774 31.2724 26.685 31.48L28.5534 33.3485H28.5723Z" fill="#EF4A26"/>
<path id="Vector_4" d="M29.2148 33.9899L31.9514 31.291L38.0097 37.3304L35.292 40.0481L29.2148 33.9899Z" fill="#EF4A26"/>
<g id="Group">
<path id="Vector_5" d="M38.6689 37.9912L35.9512 40.7089L37.8196 42.5774C37.9328 42.6717 38.065 42.7283 38.2159 42.7283C38.3669 42.7283 38.499 42.6717 38.6123 42.5774L40.5562 40.6334C40.7638 40.4258 40.7638 40.0672 40.5562 39.8596L38.6878 37.9912H38.6689Z" fill="#EF4A26"/>
<path id="Vector_6" d="M24.892 35.8021C24.4579 36.2362 24.4579 36.9157 24.892 37.3497L31.9316 44.3705C32.1392 44.5781 32.4223 44.6913 32.7054 44.6913C32.9885 44.6913 33.2716 44.5781 33.4792 44.3705L35.8949 41.9736L27.3077 33.4053L24.892 35.8021Z" fill="#4A4F54"/>
<path id="Vector_7" d="M52.4094 18.4958L50.843 16.9293C50.843 16.9293 50.7109 16.835 50.6165 16.835C50.5221 16.835 50.4466 16.8727 50.39 16.9293L47.125 20.1755C47.125 20.1755 47.276 20.3076 47.3515 20.3831L48.9368 21.9495C48.9368 21.9495 49.0689 22.1005 49.1444 22.176L52.4094 18.9299C52.5227 18.7978 52.5227 18.609 52.4094 18.4958Z" fill="#4A4F54"/>
<path id="Vector_8" d="M21.9473 48.7116L22.287 48.3718L20.8526 46.9375L20.5129 47.2772C20.3242 47.4659 20.2109 47.7302 20.2109 47.9944C20.2109 48.2586 20.3242 48.5228 20.5129 48.7116C20.7016 48.9003 20.9659 49.0135 21.2301 49.0135C21.4943 49.0135 21.7585 48.9003 21.9473 48.7116Z" fill="#EF4A26"/>
<path id="Vector_9" d="M22.4389 40.4448L25.3642 43.3513C25.5529 43.54 25.5529 43.8231 25.3642 44.0118C25.2698 44.1062 25.1566 44.1439 25.0434 44.1439C24.9301 44.1439 24.798 44.1062 24.7225 44.0118L21.7972 41.1054L20.7781 42.1245L24.3639 45.7104C24.5527 45.8991 24.5527 46.1822 24.3639 46.371C24.2696 46.4653 24.1563 46.5031 24.0431 46.5031C23.9299 46.5031 23.7977 46.4653 23.7223 46.371L20.1364 42.804C19.6268 43.5023 19.6834 44.4837 20.3062 45.1065L24.5904 49.3718L24.4206 49.5416L23.76 50.2022L22.2124 51.7498C21.9482 52.014 21.5896 52.165 21.1933 52.165C20.8158 52.165 20.4572 52.014 20.1741 51.7498L18.0415 49.6171C17.8339 49.4095 17.4942 49.4095 17.2866 49.6171C17.079 49.8247 17.079 50.1644 17.2866 50.372L19.4192 52.5047C19.891 52.9765 20.5138 53.2407 21.1744 53.2407C21.835 53.2407 22.4578 52.9765 22.9296 52.5047L25.3076 50.1267L25.3642 50.1833L30.894 44.6535L24.5527 38.3311L22.42 40.4448H22.4389Z" fill="#4A4F54"/>
<path id="Vector_10" d="M46.7091 21.0626C45.8976 20.27 44.652 20.119 43.6895 20.6474L48.6908 25.6299C49.2381 24.6674 49.0871 23.4406 48.2756 22.6291L46.6903 21.0626H46.7091Z" fill="#4A4F54"/>
<path id="Vector_11" d="M34.1029 28.8382C34.1029 28.8382 34.1406 28.876 34.1595 28.8949L40.3876 35.1041C40.3876 35.1041 40.4253 35.1418 40.4442 35.1607L46.3703 28.3287L40.9349 22.9121L34.084 28.8194L34.1029 28.8382Z" fill="#4A4F54"/>
</g>
<path id="Vector_12" d="M41.6699 22.3264L47.011 27.6297L48.1245 26.3652L42.9533 21.2129L41.6699 22.3264Z" fill="#4A4F54"/>
</g>
<defs>
<clipPath id="clip0_1896_7930">
<rect width="70" height="70" fill="white" transform="translate(0.753906)"/>
</clipPath>
</defs>
</svg>
