<svg width="71" height="70" viewBox="0 0 71 70" fill="none" xmlns="http://www.w3.org/2000/svg">
<g id="Layer_1" clip-path="url(#clip0_1896_8212)">
<path id="Vector" d="M35.259 69.0296C54.0481 69.0296 69.2796 53.7981 69.2796 35.009C69.2796 16.2199 54.0481 0.988281 35.259 0.988281C16.4699 0.988281 1.23828 16.2199 1.23828 35.009C1.23828 53.7981 16.4699 69.0296 35.259 69.0296Z" stroke="#4B4F55" stroke-width="1.11"/>
<path id="Vector_2" d="M16.6089 41.4667C16.8559 41.7137 16.8559 42.1196 16.6089 42.3666C16.3618 42.6136 15.956 42.6136 15.7089 42.3666C13.7503 40.4079 12.6562 37.7611 12.6562 35.0084C12.6562 32.2557 13.7503 29.5912 15.7089 27.6325C15.956 27.3855 16.3618 27.3855 16.6089 27.6325C16.8559 27.8796 16.8559 28.2854 16.6089 28.5325C14.8796 30.2617 13.9267 32.5557 13.9267 34.9907C13.9267 37.4258 14.8796 39.7198 16.6089 41.449" fill="#EF4A26"/>
<path id="Vector_3" d="M37.9759 32.5028V37.4965C37.9759 37.62 37.87 37.7259 37.7465 37.7259H32.7528C32.6293 37.7259 32.5234 37.62 32.5234 37.4965V32.5028C32.5234 32.3793 32.6293 32.2734 32.7528 32.2734H37.7465C37.87 32.2734 37.9759 32.3793 37.9759 32.5028Z" fill="#EF4A26"/>
<path id="Vector_4" d="M40.006 34.3555C40.3589 34.3555 40.6412 34.6378 40.6412 34.9907C40.6412 35.3436 40.3589 35.626 40.006 35.626H39.2649V37.0376H40.006C40.3589 37.0376 40.6412 37.3199 40.6412 37.6728C40.6412 38.0258 40.3589 38.3081 40.006 38.3081H39.0002C38.8943 38.4669 38.7532 38.6081 38.5944 38.7139V39.7197C38.5944 40.0726 38.312 40.355 37.9415 40.355C37.5709 40.355 37.3062 40.0726 37.3062 39.7197V38.9786H35.8946V39.7197C35.8946 40.0726 35.6123 40.355 35.2593 40.355C34.9064 40.355 34.6241 40.0726 34.6241 39.7197V38.9786H33.2125V39.7197C33.2125 40.0726 32.9301 40.355 32.5772 40.355C32.2243 40.355 31.942 40.0726 31.942 39.7197V38.7139C31.7832 38.6081 31.642 38.4669 31.5361 38.3081H30.5303C30.1774 38.3081 29.8774 38.0258 29.8774 37.6728C29.8774 37.3199 30.1598 37.0376 30.5303 37.0376H31.2714V35.626H30.5303C30.1774 35.626 29.8774 35.3436 29.8774 34.9907C29.8774 34.6378 30.1598 34.3555 30.5303 34.3555H31.2714V32.9438H30.5303C30.1774 32.9438 29.8774 32.6615 29.8774 32.3086C29.8774 31.9557 30.1598 31.6734 30.5303 31.6734H31.5361C31.642 31.5145 31.7832 31.3734 31.942 31.2675V30.2617C31.942 29.9088 32.2243 29.6265 32.5772 29.6265C32.9301 29.6265 33.2125 29.9088 33.2125 30.2617V31.0028H34.6241V30.2617C34.6241 29.9088 34.9064 29.6265 35.2593 29.6265C35.6123 29.6265 35.8946 29.9088 35.8946 30.2617V31.0028H37.3062V30.2617C37.3062 29.9088 37.5886 29.6265 37.9415 29.6265C38.2944 29.6265 38.5944 29.9088 38.5944 30.2617V31.2675C38.7532 31.3734 38.8943 31.5145 39.0002 31.6734H40.006C40.3589 31.6734 40.6412 31.9557 40.6412 32.3086C40.6412 32.6615 40.3589 32.9438 40.006 32.9438H39.2649V34.3555H40.006ZM41.7 26.9443H28.8011C27.9188 26.9443 27.1953 27.6678 27.1953 28.5501V41.449C27.1953 42.3313 27.9188 43.0547 28.8011 43.0547H41.7C42.5823 43.0547 43.3057 42.3313 43.3057 41.449V28.5501C43.3057 27.6678 42.5823 26.9443 41.7 26.9443Z" fill="#4A4F54"/>
<path id="Vector_5" d="M41.7186 53.6423C41.9657 53.3953 42.3715 53.3953 42.6186 53.6423C42.8656 53.8893 42.8656 54.2952 42.6186 54.5422C40.6599 56.5009 38.0131 57.5949 35.2603 57.5949C32.5076 57.5949 29.8432 56.5009 27.8845 54.5422C27.6375 54.2952 27.6375 53.8893 27.8845 53.6423C28.1315 53.3953 28.5374 53.3953 28.7844 53.6423C30.5137 55.3716 32.8076 56.3244 35.2427 56.3244C37.6778 56.3244 39.9717 55.3716 41.701 53.6423" fill="#EF4A26"/>
<path id="Vector_6" d="M37.3591 49.4075C37.6061 48.984 38.012 48.984 38.259 49.4075C38.506 49.831 38.506 50.5015 38.259 50.925C37.4826 52.2131 36.4239 53.0072 35.2592 53.0072C34.0946 53.0072 33.0535 52.2484 32.2595 50.925C32.0125 50.5015 32.0125 49.831 32.2595 49.4075C32.5065 48.984 32.9124 48.984 33.1594 49.4075C33.7241 50.3603 34.4652 50.8544 35.2592 50.8544C36.0533 50.8544 36.8297 50.3074 37.3591 49.4075Z" fill="#EF4A26"/>
<path id="Vector_7" d="M30.072 52.6012C31.4484 54.2599 33.3188 55.1951 35.2598 55.1951C37.2008 55.1951 39.0712 54.2599 40.4476 52.6012C40.6946 52.3013 40.6946 51.8072 40.4476 51.5072C40.2006 51.2072 39.7947 51.2072 39.5477 51.5072C38.4007 52.8836 36.8832 53.6423 35.2598 53.6423C33.6364 53.6423 32.1189 52.8836 30.9719 51.5072C30.7249 51.2072 30.319 51.2072 30.072 51.5072C29.825 51.8072 29.825 52.3013 30.072 52.6012Z" fill="#EF4A26"/>
<path id="Vector_8" d="M53.8923 28.5325C53.6453 28.2854 53.6453 27.8796 53.8923 27.6325C54.1393 27.3855 54.5452 27.3855 54.7922 27.6325C56.7509 29.5912 57.8449 32.238 57.8449 35.0084C57.8449 37.7788 56.7509 40.4256 54.7922 42.3842C54.5452 42.6313 54.1393 42.6313 53.8923 42.3842C53.6453 42.1372 53.6453 41.7314 53.8923 41.4843C55.6216 39.7551 56.5744 37.4611 56.5744 35.026C56.5744 32.591 55.6216 30.297 53.8923 28.5678" fill="#EF4A26"/>
<path id="Vector_9" d="M49.6575 32.9094C49.234 32.6624 49.234 32.2565 49.6575 32.0095C50.081 31.7625 50.7515 31.7625 51.175 32.0095C52.4631 32.7859 53.2572 33.8446 53.2572 35.0092C53.2572 36.1739 52.4984 37.2149 51.175 38.009C50.7515 38.256 50.081 38.256 49.6575 38.009C49.234 37.762 49.234 37.3561 49.6575 37.1091C50.5927 36.5444 51.1044 35.8033 51.1044 35.0092C51.1044 34.2152 50.5397 33.4388 49.6575 32.9094Z" fill="#EF4A26"/>
<path id="Vector_10" d="M52.8503 40.179C54.5089 38.8027 55.4442 36.9323 55.4442 34.9912C55.4442 33.0502 54.5089 31.1798 52.8503 29.8034C52.5503 29.5564 52.0562 29.5564 51.7562 29.8034C51.4563 30.0505 51.4563 30.4563 51.7562 30.7034C53.1326 31.8503 53.8913 33.3679 53.8913 34.9912C53.8913 36.6146 53.1326 38.1322 51.7562 39.2791C51.4563 39.5262 51.4563 39.932 51.7562 40.179C52.0562 40.4261 52.5503 40.4261 52.8503 40.179Z" fill="#EF4A26"/>
<path id="Vector_11" d="M28.7844 16.3579C28.5374 16.6049 28.1315 16.6049 27.8845 16.3579C27.6375 16.1108 27.6375 15.705 27.8845 15.458C29.8432 13.4993 32.49 12.4053 35.2427 12.4053C37.9954 12.4053 40.6599 13.4993 42.6186 15.458C42.8656 15.705 42.8656 16.1108 42.6186 16.3579C42.3715 16.6049 41.9657 16.6049 41.7186 16.3579C39.9894 14.6286 37.6954 13.6758 35.2603 13.6758C32.8253 13.6758 30.5313 14.6286 28.8021 16.3579" fill="#EF4A26"/>
<path id="Vector_12" d="M33.1594 22.1632C32.9124 22.5867 32.5065 22.5867 32.2595 22.1632C32.0125 21.7397 32.0125 21.0691 32.2595 20.6457C33.0359 19.3575 34.0946 18.5635 35.2592 18.5635C36.4239 18.5635 37.4649 19.3222 38.259 20.6457C38.506 21.0691 38.506 21.7397 38.259 22.1632C38.012 22.5867 37.6061 22.5867 37.3591 22.1632C36.7944 21.228 36.0533 20.7162 35.2592 20.7162C34.4652 20.7162 33.6888 21.2632 33.1594 22.1632Z" fill="#EF4A26"/>
<path id="Vector_13" d="M40.4281 18.0695C39.0517 16.4108 37.1813 15.4756 35.2403 15.4756C33.2993 15.4756 31.4288 16.4108 30.0525 18.0695C29.8054 18.3695 29.8054 18.8635 30.0525 19.1635C30.2995 19.4635 30.7054 19.4635 30.9524 19.1635C32.0994 17.7872 33.6169 17.0284 35.2403 17.0284C36.8637 17.0284 38.3812 17.7872 39.5281 19.1635C39.7752 19.4635 40.181 19.4635 40.4281 19.1635C40.6751 18.8635 40.6751 18.3695 40.4281 18.0695Z" fill="#EF4A26"/>
<path id="Vector_14" d="M37.9759 32.5028V37.4965C37.9759 37.62 37.87 37.7259 37.7465 37.7259H32.7528C32.6293 37.7259 32.5234 37.62 32.5234 37.4965V32.5028C32.5234 32.3793 32.6293 32.2734 32.7528 32.2734H37.7465C37.87 32.2734 37.9759 32.3793 37.9759 32.5028Z" fill="#EF4A26"/>
<path id="Vector_15" d="M37.9759 32.5028V37.4965C37.9759 37.62 37.87 37.7259 37.7465 37.7259H32.7528C32.6293 37.7259 32.5234 37.62 32.5234 37.4965V32.5028C32.5234 32.3793 32.6293 32.2734 32.7528 32.2734H37.7465C37.87 32.2734 37.9759 32.3793 37.9759 32.5028Z" fill="#EF4A26"/>
<path id="Vector_16" d="M37.2337 44.3262H33.3164V46.2848C33.3164 46.8142 33.4399 47.3083 33.634 47.6612C33.8281 48.0141 34.1105 48.2435 34.3928 48.2435H36.1221C36.422 48.2435 36.6867 48.0141 36.8808 47.6612C37.0749 47.3083 37.1984 46.8142 37.1984 46.2848V44.3262H37.2337Z" fill="#4A4F54"/>
<path id="Vector_17" d="M27.8118 36.9856V33.0859H25.8532C24.7768 33.0859 23.8945 33.58 23.8945 34.18V35.9092C23.8945 36.5092 24.7768 36.9856 25.8532 36.9856H27.8118Z" fill="#4A4F54"/>
<path id="Vector_18" d="M33.5645 27.5628H37.4642V25.6042C37.4642 24.5278 36.9701 23.6455 36.3702 23.6455H34.6409C34.0409 23.6455 33.5469 24.5278 33.5469 25.6042V27.5628H33.5645Z" fill="#4A4F54"/>
<path id="Vector_19" d="M44.5742 33.3145V37.2318H46.5329C47.6093 37.2318 48.4915 36.7377 48.4915 36.1377V34.4085C48.4915 33.8085 47.6093 33.3145 46.5329 33.3145H44.5742Z" fill="#4A4F54"/>
<path id="Vector_20" d="M22.4122 37.0915C22.8357 37.3385 22.8357 37.7444 22.4122 37.9914C21.9887 38.2385 21.3182 38.2385 20.8947 37.9914C19.6065 37.2327 18.8125 36.1563 18.8125 34.9917C18.8125 33.8271 19.5713 32.786 20.8947 31.9919C21.3182 31.7449 21.9887 31.7449 22.4122 31.9919C22.8357 32.239 22.8357 32.6448 22.4122 32.8918C21.477 33.4565 20.9653 34.1976 20.9653 34.9917C20.9653 35.7857 21.5123 36.5621 22.4122 37.0915Z" fill="#EF4A26"/>
<path id="Vector_21" d="M18.3205 29.821C16.6618 31.1974 15.7266 33.0678 15.7266 35.0088C15.7266 36.9498 16.6618 38.8203 18.3205 40.1966C18.6204 40.4437 19.1145 40.4437 19.4145 40.1966C19.7145 39.9496 19.7145 39.5437 19.4145 39.2967C18.0381 38.1497 17.2794 36.6322 17.2794 35.0088C17.2794 33.3854 18.0381 31.8679 19.4145 30.7209C19.7145 30.4739 19.7145 30.0681 19.4145 29.821C19.1145 29.574 18.6204 29.574 18.3205 29.821Z" fill="#EF4A26"/>
</g>
<defs>
<clipPath id="clip0_1896_8212">
<rect width="70" height="70" fill="white" transform="translate(0.25)"/>
</clipPath>
</defs>
</svg>
