<svg width="71" height="70" viewBox="0 0 71 70" fill="none" xmlns="http://www.w3.org/2000/svg">
<g clip-path="url(#clip0_1896_6792)">
<path d="M50.5386 58.8909C64.1984 50.4478 68.4274 32.53 59.9844 18.8702C51.5413 5.2104 33.6235 0.981406 19.9637 9.42444C6.3039 17.8675 2.0749 35.7853 10.5179 49.4451C18.961 63.1049 36.8788 67.3339 50.5386 58.8909Z" stroke="#4B4F55" stroke-width="1.11"/>
<path d="M35.252 39.34C33.0377 39.34 31.2437 37.546 31.2437 35.3317C31.2437 33.1174 33.0377 31.3234 35.252 31.3234C37.4662 31.3234 39.2603 33.1174 39.2603 35.3317C39.2603 37.546 37.4662 39.34 35.252 39.34ZM41.1028 35.3317C41.1028 34.4751 41.5877 33.7316 42.315 33.3599C42.1534 32.778 41.9271 32.2285 41.6362 31.7274C40.8765 31.9699 40.0038 31.7921 39.3896 31.1941C38.7754 30.5799 38.5976 29.7071 38.8562 28.9475C38.3552 28.6566 37.8056 28.4303 37.2238 28.2687C36.8682 28.9798 36.1086 29.4808 35.252 29.4808C34.3953 29.4808 33.6519 28.996 33.2801 28.2687C32.6983 28.4303 32.1488 28.6566 31.6477 28.9475C31.9063 29.7071 31.7124 30.5799 31.1144 31.1941C30.5002 31.8082 29.6274 31.986 28.8678 31.7274C28.5768 32.2446 28.3506 32.778 28.1889 33.3599C28.9001 33.7316 29.4011 34.4589 29.4011 35.3317C29.4011 36.2045 28.9001 36.9318 28.1889 37.3035C28.3506 37.8854 28.5768 38.4349 28.8678 38.9359C29.6274 38.6935 30.5002 38.8713 31.1144 39.4693C31.7285 40.0835 31.9063 40.9563 31.6477 41.7159C32.1649 42.0068 32.6983 42.2331 33.2801 42.3947C33.6519 41.6836 34.3953 41.1825 35.252 41.1825C36.1086 41.1825 36.8521 41.6674 37.2238 42.3947C37.8056 42.2331 38.3552 42.0068 38.8562 41.7159C38.6138 40.9563 38.7916 40.0835 39.3896 39.4693C40.0038 38.8551 40.8765 38.6773 41.6362 38.9359C41.9271 38.4187 42.1534 37.8854 42.315 37.3035C41.6038 36.9479 41.1028 36.1883 41.1028 35.3317ZM35.252 39.34C33.0377 39.34 31.2437 37.546 31.2437 35.3317C31.2437 33.1174 33.0377 31.3234 35.252 31.3234C37.4662 31.3234 39.2603 33.1174 39.2603 35.3317C39.2603 37.546 37.4662 39.34 35.252 39.34ZM41.1028 35.3317C41.1028 34.4751 41.5877 33.7316 42.315 33.3599C42.1534 32.778 41.9271 32.2285 41.6362 31.7274C40.8765 31.9699 40.0038 31.7921 39.3896 31.1941C38.7754 30.5799 38.5976 29.7071 38.8562 28.9475C38.3552 28.6566 37.8056 28.4303 37.2238 28.2687C36.8682 28.9798 36.1086 29.4808 35.252 29.4808C34.3953 29.4808 33.6519 28.996 33.2801 28.2687C32.6983 28.4303 32.1488 28.6566 31.6477 28.9475C31.9063 29.7071 31.7124 30.5799 31.1144 31.1941C30.5002 31.8082 29.6274 31.986 28.8678 31.7274C28.5768 32.2446 28.3506 32.778 28.1889 33.3599C28.9001 33.7316 29.4011 34.4589 29.4011 35.3317C29.4011 36.2045 28.9001 36.9318 28.1889 37.3035C28.3506 37.8854 28.5768 38.4349 28.8678 38.9359C29.6274 38.6935 30.5002 38.8713 31.1144 39.4693C31.7285 40.0835 31.9063 40.9563 31.6477 41.7159C32.1649 42.0068 32.6983 42.2331 33.2801 42.3947C33.6519 41.6836 34.3953 41.1825 35.252 41.1825C36.1086 41.1825 36.8521 41.6674 37.2238 42.3947C37.8056 42.2331 38.3552 42.0068 38.8562 41.7159C38.6138 40.9563 38.7916 40.0835 39.3896 39.4693C40.0038 38.8551 40.8765 38.6773 41.6362 38.9359C41.9271 38.4187 42.1534 37.8854 42.315 37.3035C41.6038 36.9479 41.1028 36.1883 41.1028 35.3317ZM35.252 39.34C33.0377 39.34 31.2437 37.546 31.2437 35.3317C31.2437 33.1174 33.0377 31.3234 35.252 31.3234C37.4662 31.3234 39.2603 33.1174 39.2603 35.3317C39.2603 37.546 37.4662 39.34 35.252 39.34ZM41.1028 35.3317C41.1028 34.4751 41.5877 33.7316 42.315 33.3599C42.1534 32.778 41.9271 32.2285 41.6362 31.7274C40.8765 31.9699 40.0038 31.7921 39.3896 31.1941C38.7754 30.5799 38.5976 29.7071 38.8562 28.9475C38.3552 28.6566 37.8056 28.4303 37.2238 28.2687C36.8682 28.9798 36.1086 29.4808 35.252 29.4808C34.3953 29.4808 33.6519 28.996 33.2801 28.2687C32.6983 28.4303 32.1488 28.6566 31.6477 28.9475C31.9063 29.7071 31.7124 30.5799 31.1144 31.1941C30.5002 31.8082 29.6274 31.986 28.8678 31.7274C28.5768 32.2446 28.3506 32.778 28.1889 33.3599C28.9001 33.7316 29.4011 34.4589 29.4011 35.3317C29.4011 36.2045 28.9001 36.9318 28.1889 37.3035C28.3506 37.8854 28.5768 38.4349 28.8678 38.9359C29.6274 38.6935 30.5002 38.8713 31.1144 39.4693C31.7285 40.0835 31.9063 40.9563 31.6477 41.7159C32.1649 42.0068 32.6983 42.2331 33.2801 42.3947C33.6519 41.6836 34.3953 41.1825 35.252 41.1825C36.1086 41.1825 36.8521 41.6674 37.2238 42.3947C37.8056 42.2331 38.3552 42.0068 38.8562 41.7159C38.6138 40.9563 38.7916 40.0835 39.3896 39.4693C40.0038 38.8551 40.8765 38.6773 41.6362 38.9359C41.9271 38.4187 42.1534 37.8854 42.315 37.3035C41.6038 36.9479 41.1028 36.1883 41.1028 35.3317ZM35.252 39.34C33.0377 39.34 31.2437 37.546 31.2437 35.3317C31.2437 33.1174 33.0377 31.3234 35.252 31.3234C37.4662 31.3234 39.2603 33.1174 39.2603 35.3317C39.2603 37.546 37.4662 39.34 35.252 39.34ZM41.1028 35.3317C41.1028 34.4751 41.5877 33.7316 42.315 33.3599C42.1534 32.778 41.9271 32.2285 41.6362 31.7274C40.8765 31.9699 40.0038 31.7921 39.3896 31.1941C38.7754 30.5799 38.5976 29.7071 38.8562 28.9475C38.3552 28.6566 37.8056 28.4303 37.2238 28.2687C36.8682 28.9798 36.1086 29.4808 35.252 29.4808C34.3953 29.4808 33.6519 28.996 33.2801 28.2687C32.6983 28.4303 32.1488 28.6566 31.6477 28.9475C31.9063 29.7071 31.7124 30.5799 31.1144 31.1941C30.5002 31.8082 29.6274 31.986 28.8678 31.7274C28.5768 32.2446 28.3506 32.778 28.1889 33.3599C28.9001 33.7316 29.4011 34.4589 29.4011 35.3317C29.4011 36.2045 28.9001 36.9318 28.1889 37.3035C28.3506 37.8854 28.5768 38.4349 28.8678 38.9359C29.6274 38.6935 30.5002 38.8713 31.1144 39.4693C31.7285 40.0835 31.9063 40.9563 31.6477 41.7159C32.1649 42.0068 32.6983 42.2331 33.2801 42.3947C33.6519 41.6836 34.3953 41.1825 35.252 41.1825C36.1086 41.1825 36.8521 41.6674 37.2238 42.3947C37.8056 42.2331 38.3552 42.0068 38.8562 41.7159C38.6138 40.9563 38.7916 40.0835 39.3896 39.4693C40.0038 38.8551 40.8765 38.6773 41.6362 38.9359C41.9271 38.4187 42.1534 37.8854 42.315 37.3035C41.6038 36.9479 41.1028 36.1883 41.1028 35.3317ZM35.252 39.34C33.0377 39.34 31.2437 37.546 31.2437 35.3317C31.2437 33.1174 33.0377 31.3234 35.252 31.3234C37.4662 31.3234 39.2603 33.1174 39.2603 35.3317C39.2603 37.546 37.4662 39.34 35.252 39.34ZM42.315 33.3599C42.1534 32.778 41.9271 32.2285 41.6362 31.7274C40.8765 31.9699 40.0038 31.7921 39.3896 31.1941C38.7754 30.5799 38.5976 29.7071 38.8562 28.9475C38.3552 28.6566 37.8056 28.4303 37.2238 28.2687C36.8682 28.9798 36.1086 29.4808 35.252 29.4808C34.3953 29.4808 33.6519 28.996 33.2801 28.2687C32.6983 28.4303 32.1488 28.6566 31.6477 28.9475C31.9063 29.7071 31.7124 30.5799 31.1144 31.1941C30.5002 31.8082 29.6274 31.986 28.8678 31.7274C28.5768 32.2446 28.3506 32.778 28.1889 33.3599C28.9001 33.7316 29.4011 34.4589 29.4011 35.3317C29.4011 36.2045 28.9001 36.9318 28.1889 37.3035C28.3506 37.8854 28.5768 38.4349 28.8678 38.9359C29.6274 38.6935 30.5002 38.8713 31.1144 39.4693C31.7285 40.0835 31.9063 40.9563 31.6477 41.7159C32.1649 42.0068 32.6983 42.2331 33.2801 42.3947C33.6519 41.6836 34.3953 41.1825 35.252 41.1825C36.1086 41.1825 36.8521 41.6674 37.2238 42.3947C37.8056 42.2331 38.3552 42.0068 38.8562 41.7159C38.6138 40.9563 38.7916 40.0835 39.3896 39.4693C40.0038 38.8551 40.8765 38.6773 41.6362 38.9359C41.9271 38.4187 42.1534 37.8854 42.315 37.3035C41.6038 36.9479 41.1028 36.1883 41.1028 35.3317C41.1028 34.4751 41.5877 33.7316 42.315 33.3599ZM45.8061 44.3181C45.8061 44.5282 45.6122 44.7221 45.402 44.7221H25.118C24.8918 44.7221 24.6978 44.5282 24.6978 44.3181V25.9897C24.6978 25.7635 24.8918 25.5695 25.118 25.5695H45.402C45.6122 25.5695 45.8061 25.7635 45.8061 25.9897V44.3181ZM24.4069 23.4037C24.4069 23.0158 24.6978 22.7249 25.0857 22.7249C25.4413 22.7249 25.7484 23.0158 25.7484 23.4037C25.7484 23.7916 25.4575 24.0664 25.0857 24.0664C24.6978 24.0664 24.4069 23.7755 24.4069 23.4037ZM26.9283 22.7249C27.3 22.7249 27.5909 23.0158 27.5909 23.4037C27.5909 23.7916 27.3 24.0664 26.9283 24.0664C26.5565 24.0664 26.2494 23.7755 26.2494 23.4037C26.2494 23.0158 26.5404 22.7249 26.9283 22.7249ZM28.7708 22.7249C29.1587 22.7249 29.4496 23.0158 29.4496 23.4037C29.4496 23.7916 29.1587 24.0664 28.7708 24.0664C28.3829 24.0664 28.1081 23.7755 28.1081 23.4037C28.1081 23.0158 28.399 22.7249 28.7708 22.7249ZM35.2843 22.7411H44.6747C45.0465 22.7411 45.3536 23.032 45.3536 23.4037C45.3536 23.7755 45.0465 24.0825 44.6747 24.0825H35.2843C34.9287 24.0825 34.6216 23.7916 34.6216 23.4037C34.6216 23.0158 34.9126 22.7411 35.2843 22.7411ZM46.3556 21.1895H24.1483C23.1301 21.1895 22.2734 22.0299 22.2734 23.0643V45.2717C22.2734 46.3061 23.1301 47.1465 24.1483 47.1465H46.3556C47.39 47.1465 48.2305 46.3222 48.2305 45.2717V23.0643C48.2305 22.0461 47.4062 21.1895 46.3556 21.1895ZM35.252 39.34C33.0377 39.34 31.2437 37.546 31.2437 35.3317C31.2437 33.1174 33.0377 31.3234 35.252 31.3234C37.4662 31.3234 39.2603 33.1174 39.2603 35.3317C39.2603 37.546 37.4662 39.34 35.252 39.34ZM41.1028 35.3317C41.1028 34.4751 41.5877 33.7316 42.315 33.3599C42.1534 32.778 41.9271 32.2285 41.6362 31.7274C40.8765 31.9699 40.0038 31.7921 39.3896 31.1941C38.7754 30.5799 38.5976 29.7071 38.8562 28.9475C38.3552 28.6566 37.8056 28.4303 37.2238 28.2687C36.8682 28.9798 36.1086 29.4808 35.252 29.4808C34.3953 29.4808 33.6519 28.996 33.2801 28.2687C32.6983 28.4303 32.1488 28.6566 31.6477 28.9475C31.9063 29.7071 31.7124 30.5799 31.1144 31.1941C30.5002 31.8082 29.6274 31.986 28.8678 31.7274C28.5768 32.2446 28.3506 32.778 28.1889 33.3599C28.9001 33.7316 29.4011 34.4589 29.4011 35.3317C29.4011 36.2045 28.9001 36.9318 28.1889 37.3035C28.3506 37.8854 28.5768 38.4349 28.8678 38.9359C29.6274 38.6935 30.5002 38.8713 31.1144 39.4693C31.7285 40.0835 31.9063 40.9563 31.6477 41.7159C32.1649 42.0068 32.6983 42.2331 33.2801 42.3947C33.6519 41.6836 34.3953 41.1825 35.252 41.1825C36.1086 41.1825 36.8521 41.6674 37.2238 42.3947C37.8056 42.2331 38.3552 42.0068 38.8562 41.7159C38.6138 40.9563 38.7916 40.0835 39.3896 39.4693C40.0038 38.8551 40.8765 38.6773 41.6362 38.9359C41.9271 38.4187 42.1534 37.8854 42.315 37.3035C41.6038 36.9479 41.1028 36.1883 41.1028 35.3317ZM35.252 39.34C33.0377 39.34 31.2437 37.546 31.2437 35.3317C31.2437 33.1174 33.0377 31.3234 35.252 31.3234C37.4662 31.3234 39.2603 33.1174 39.2603 35.3317C39.2603 37.546 37.4662 39.34 35.252 39.34ZM41.1028 35.3317C41.1028 34.4751 41.5877 33.7316 42.315 33.3599C42.1534 32.778 41.9271 32.2285 41.6362 31.7274C40.8765 31.9699 40.0038 31.7921 39.3896 31.1941C38.7754 30.5799 38.5976 29.7071 38.8562 28.9475C38.3552 28.6566 37.8056 28.4303 37.2238 28.2687C36.8682 28.9798 36.1086 29.4808 35.252 29.4808C34.3953 29.4808 33.6519 28.996 33.2801 28.2687C32.6983 28.4303 32.1488 28.6566 31.6477 28.9475C31.9063 29.7071 31.7124 30.5799 31.1144 31.1941C30.5002 31.8082 29.6274 31.986 28.8678 31.7274C28.5768 32.2446 28.3506 32.778 28.1889 33.3599C28.9001 33.7316 29.4011 34.4589 29.4011 35.3317C29.4011 36.2045 28.9001 36.9318 28.1889 37.3035C28.3506 37.8854 28.5768 38.4349 28.8678 38.9359C29.6274 38.6935 30.5002 38.8713 31.1144 39.4693C31.7285 40.0835 31.9063 40.9563 31.6477 41.7159C32.1649 42.0068 32.6983 42.2331 33.2801 42.3947C33.6519 41.6836 34.3953 41.1825 35.252 41.1825C36.1086 41.1825 36.8521 41.6674 37.2238 42.3947C37.8056 42.2331 38.3552 42.0068 38.8562 41.7159C38.6138 40.9563 38.7916 40.0835 39.3896 39.4693C40.0038 38.8551 40.8765 38.6773 41.6362 38.9359C41.9271 38.4187 42.1534 37.8854 42.315 37.3035C41.6038 36.9479 41.1028 36.1883 41.1028 35.3317ZM35.252 39.34C33.0377 39.34 31.2437 37.546 31.2437 35.3317C31.2437 33.1174 33.0377 31.3234 35.252 31.3234C37.4662 31.3234 39.2603 33.1174 39.2603 35.3317C39.2603 37.546 37.4662 39.34 35.252 39.34ZM41.1028 35.3317C41.1028 34.4751 41.5877 33.7316 42.315 33.3599C42.1534 32.778 41.9271 32.2285 41.6362 31.7274C40.8765 31.9699 40.0038 31.7921 39.3896 31.1941C38.7754 30.5799 38.5976 29.7071 38.8562 28.9475C38.3552 28.6566 37.8056 28.4303 37.2238 28.2687C36.8682 28.9798 36.1086 29.4808 35.252 29.4808C34.3953 29.4808 33.6519 28.996 33.2801 28.2687C32.6983 28.4303 32.1488 28.6566 31.6477 28.9475C31.9063 29.7071 31.7124 30.5799 31.1144 31.1941C30.5002 31.8082 29.6274 31.986 28.8678 31.7274C28.5768 32.2446 28.3506 32.778 28.1889 33.3599C28.9001 33.7316 29.4011 34.4589 29.4011 35.3317C29.4011 36.2045 28.9001 36.9318 28.1889 37.3035C28.3506 37.8854 28.5768 38.4349 28.8678 38.9359C29.6274 38.6935 30.5002 38.8713 31.1144 39.4693C31.7285 40.0835 31.9063 40.9563 31.6477 41.7159C32.1649 42.0068 32.6983 42.2331 33.2801 42.3947C33.6519 41.6836 34.3953 41.1825 35.252 41.1825C36.1086 41.1825 36.8521 41.6674 37.2238 42.3947C37.8056 42.2331 38.3552 42.0068 38.8562 41.7159C38.6138 40.9563 38.7916 40.0835 39.3896 39.4693C40.0038 38.8551 40.8765 38.6773 41.6362 38.9359C41.9271 38.4187 42.1534 37.8854 42.315 37.3035C41.6038 36.9479 41.1028 36.1883 41.1028 35.3317ZM35.252 39.34C33.0377 39.34 31.2437 37.546 31.2437 35.3317C31.2437 33.1174 33.0377 31.3234 35.252 31.3234C37.4662 31.3234 39.2603 33.1174 39.2603 35.3317C39.2603 37.546 37.4662 39.34 35.252 39.34ZM41.1028 35.3317C41.1028 34.4751 41.5877 33.7316 42.315 33.3599C42.1534 32.778 41.9271 32.2285 41.6362 31.7274C40.8765 31.9699 40.0038 31.7921 39.3896 31.1941C38.7754 30.5799 38.5976 29.7071 38.8562 28.9475C38.3552 28.6566 37.8056 28.4303 37.2238 28.2687C36.8682 28.9798 36.1086 29.4808 35.252 29.4808C34.3953 29.4808 33.6519 28.996 33.2801 28.2687C32.6983 28.4303 32.1488 28.6566 31.6477 28.9475C31.9063 29.7071 31.7124 30.5799 31.1144 31.1941C30.5002 31.8082 29.6274 31.986 28.8678 31.7274C28.5768 32.2446 28.3506 32.778 28.1889 33.3599C28.9001 33.7316 29.4011 34.4589 29.4011 35.3317C29.4011 36.2045 28.9001 36.9318 28.1889 37.3035C28.3506 37.8854 28.5768 38.4349 28.8678 38.9359C29.6274 38.6935 30.5002 38.8713 31.1144 39.4693C31.7285 40.0835 31.9063 40.9563 31.6477 41.7159C32.1649 42.0068 32.6983 42.2331 33.2801 42.3947C33.6519 41.6836 34.3953 41.1825 35.252 41.1825C36.1086 41.1825 36.8521 41.6674 37.2238 42.3947C37.8056 42.2331 38.3552 42.0068 38.8562 41.7159C38.6138 40.9563 38.7916 40.0835 39.3896 39.4693C40.0038 38.8551 40.8765 38.6773 41.6362 38.9359C41.9271 38.4187 42.1534 37.8854 42.315 37.3035C41.6038 36.9479 41.1028 36.1883 41.1028 35.3317Z" fill="#4B4F55"/>
<path d="M35.2505 39.3399C33.0363 39.3399 31.2422 37.5459 31.2422 35.3316C31.2422 33.1173 33.0363 31.3233 35.2505 31.3233C37.4648 31.3233 39.2588 33.1173 39.2588 35.3316C39.2588 37.5459 37.4648 39.3399 35.2505 39.3399ZM41.1014 35.3316C41.1014 34.475 41.5863 33.7315 42.3136 33.3598C42.1519 32.7779 41.9257 32.2284 41.6347 31.7273C40.8751 31.9698 40.0023 31.792 39.3881 31.194C38.774 30.5798 38.5962 29.707 38.8548 28.9474C38.3537 28.6565 37.8042 28.4302 37.2224 28.2686C36.8668 28.9797 36.1071 29.4807 35.2505 29.4807C34.3939 29.4807 33.6504 28.9959 33.2787 28.2686C32.6969 28.4302 32.1473 28.6565 31.6463 28.9474C31.9049 29.707 31.7109 30.5798 31.1129 31.194C30.4987 31.8082 29.626 31.9859 28.8663 31.7273C28.5754 32.2445 28.3491 32.7779 28.1875 33.3598C28.8987 33.7315 29.3997 34.4588 29.3997 35.3316C29.3997 36.2044 28.8987 36.9317 28.1875 37.3034C28.3491 37.8853 28.5754 38.4348 28.8663 38.9358C29.626 38.6934 30.4987 38.8712 31.1129 39.4692C31.7271 40.0834 31.9049 40.9562 31.6463 41.7158C32.1635 42.0067 32.6969 42.233 33.2787 42.3946C33.6504 41.6835 34.3939 41.1824 35.2505 41.1824C36.1071 41.1824 36.8506 41.6673 37.2224 42.3946C37.8042 42.233 38.3537 42.0067 38.8548 41.7158C38.6123 40.9562 38.7901 40.0834 39.3881 39.4692C40.0023 38.855 40.8751 38.6772 41.6347 38.9358C41.9257 38.4186 42.1519 37.8853 42.3136 37.3034C41.6024 36.9478 41.1014 36.1882 41.1014 35.3316Z" fill="#4B4F55"/>
<path d="M35.2505 39.3399C33.0363 39.3399 31.2422 37.5459 31.2422 35.3316C31.2422 33.1173 33.0363 31.3233 35.2505 31.3233C37.4648 31.3233 39.2588 33.1173 39.2588 35.3316C39.2588 37.5459 37.4648 39.3399 35.2505 39.3399ZM41.1014 35.3316C41.1014 34.475 41.5863 33.7315 42.3136 33.3598C42.1519 32.7779 41.9257 32.2284 41.6347 31.7273C40.8751 31.9698 40.0023 31.792 39.3881 31.194C38.774 30.5798 38.5962 29.707 38.8548 28.9474C38.3537 28.6565 37.8042 28.4302 37.2224 28.2686C36.8668 28.9797 36.1071 29.4807 35.2505 29.4807C34.3939 29.4807 33.6504 28.9959 33.2787 28.2686C32.6969 28.4302 32.1473 28.6565 31.6463 28.9474C31.9049 29.707 31.7109 30.5798 31.1129 31.194C30.4987 31.8082 29.626 31.9859 28.8663 31.7273C28.5754 32.2445 28.3491 32.7779 28.1875 33.3598C28.8987 33.7315 29.3997 34.4588 29.3997 35.3316C29.3997 36.2044 28.8987 36.9317 28.1875 37.3034C28.3491 37.8853 28.5754 38.4348 28.8663 38.9358C29.626 38.6934 30.4987 38.8712 31.1129 39.4692C31.7271 40.0834 31.9049 40.9562 31.6463 41.7158C32.1635 42.0067 32.6969 42.233 33.2787 42.3946C33.6504 41.6835 34.3939 41.1824 35.2505 41.1824C36.1071 41.1824 36.8506 41.6673 37.2224 42.3946C37.8042 42.233 38.3537 42.0067 38.8548 41.7158C38.6123 40.9562 38.7901 40.0834 39.3881 39.4692C40.0023 38.855 40.8751 38.6772 41.6347 38.9358C41.9257 38.4186 42.1519 37.8853 42.3136 37.3034C41.6024 36.9478 41.1014 36.1882 41.1014 35.3316Z" fill="#F04C24"/>
<path d="M35.2197 7.64517C20.1401 7.64517 7.85654 19.9125 7.85654 35.0084C7.85654 50.1042 20.1239 62.3716 35.2197 62.3716C50.3156 62.3716 62.5829 50.1042 62.5829 35.0084C62.5829 19.9125 50.3156 7.64517 35.2197 7.64517ZM35.2197 65.9273C18.1682 65.9273 4.30078 52.0598 4.30078 35.0084C4.30078 17.9569 18.1682 4.07324 35.2197 4.07324C52.2712 4.07324 66.1387 17.9407 66.1387 34.9922C66.1387 52.0437 52.2712 65.9111 35.2197 65.9111" fill="#4B4F55"/>
<path d="M37.0128 0H33.457V11.7663H37.0128V0Z" fill="#4B4F55"/>
<path d="M37.0128 58.2334H33.457V69.9997H37.0128V58.2334Z" fill="#4B4F55"/>
<path d="M70.2429 33.2139H58.4766V36.7696H70.2429V33.2139Z" fill="#4B4F55"/>
<path d="M12.0085 33.2139H0.242188V36.7696H12.0085V33.2139Z" fill="#4B4F55"/>
</g>
<defs>
<clipPath id="clip0_1896_6792">
<rect width="70" height="70" fill="white" transform="translate(0.242188)"/>
</clipPath>
</defs>
</svg>
