<svg width="71" height="70" viewBox="0 0 71 70" fill="none" xmlns="http://www.w3.org/2000/svg">
<g id="Layer_1" clip-path="url(#clip0_1896_7418)">
<path id="Vector" d="M35.7455 68.9432C54.497 68.9432 69.6981 53.7421 69.6981 34.9906C69.6981 16.2392 54.497 1.03809 35.7455 1.03809C16.994 1.03809 1.79297 16.2392 1.79297 34.9906C1.79297 53.7421 16.994 68.9432 35.7455 68.9432Z" stroke="#4B4F55" stroke-width="1.11"/>
<g id="Group">
<path id="Vector_2" d="M30.7461 41.3134C30.7461 41.3134 30.5574 41.4643 30.4442 41.5021C30.3309 41.5398 30.2177 41.5776 30.0856 41.5776C29.9535 41.5776 29.8402 41.5587 29.727 41.5021C29.6138 41.4643 29.5005 41.3889 29.425 41.3134C29.3307 41.219 29.274 41.1246 29.2174 41.0114C29.1608 40.8982 29.1419 40.7849 29.1419 40.6528C29.1419 40.5207 29.1608 40.4075 29.2174 40.2942C29.2552 40.181 29.3307 40.0866 29.425 39.9923C29.5194 39.8979 29.6138 39.8413 29.727 39.7847C29.8402 39.728 29.9535 39.7092 30.0856 39.7092C30.2177 39.7092 30.3309 39.728 30.4442 39.7847C30.5574 39.8413 30.6707 39.8979 30.7461 39.9923C30.8405 40.0866 30.8971 40.181 30.9537 40.2942C31.0104 40.4075 31.0292 40.5207 31.0292 40.6528C31.0292 40.7849 31.0104 40.8982 30.9537 41.0114C30.916 41.1246 30.8405 41.219 30.7461 41.3134ZM53.4126 17.4013C53.4126 17.4013 53.2239 17.2503 53.1107 17.1937C52.9974 17.1559 52.8653 17.1182 52.7521 17.1182C52.6388 17.1182 52.5067 17.137 52.3935 17.1937C52.2802 17.2314 52.167 17.3069 52.0915 17.4013L31.2746 38.1427C31.0104 38.0295 30.7273 37.9351 30.4442 37.8974C30.1611 37.8596 29.878 37.8596 29.5949 37.8974C29.3118 37.9351 29.0476 38.0295 28.7833 38.1616C28.5191 38.2937 28.2926 38.4447 28.085 38.6523C27.8397 38.8976 27.6321 39.1807 27.5 39.5016C27.349 39.8224 27.2735 40.1432 27.2546 40.5018C27.2358 40.8415 27.2735 41.1813 27.3867 41.521C27.5 41.8607 27.651 42.1627 27.8774 42.4269C28.085 42.71 28.3493 42.9176 28.6512 43.1063C28.9532 43.2762 29.274 43.4083 29.6138 43.4649C29.9535 43.5215 30.3121 43.5215 30.6518 43.4649C30.9915 43.3894 31.3123 43.2762 31.6143 43.0874C31.9163 42.8987 32.1616 42.6722 32.3692 42.3891C32.5768 42.106 32.7278 41.8041 32.841 41.4643C32.9354 41.1246 32.9732 40.7849 32.9354 40.4452C32.9165 40.1055 32.8222 39.7658 32.6712 39.4638L53.4692 18.7412C53.4692 18.7412 53.6202 18.5525 53.6769 18.4393C53.7335 18.326 53.7523 18.2128 53.7523 18.0807C53.7523 17.9486 53.7335 17.8353 53.6769 17.7221C53.6391 17.6089 53.5636 17.4956 53.4692 17.4201" fill="#EF4A26"/>
<path id="Vector_3" d="M22.7409 32.0087C22.7409 32.0087 22.5522 31.8577 22.439 31.8011C22.3257 31.7445 22.1936 31.7256 22.0804 31.7256C21.9483 31.7256 21.835 31.7445 21.7218 31.8011C21.6085 31.8577 21.4953 31.9143 21.4198 32.0087C21.3254 32.103 21.2688 32.1974 21.2122 32.3107C21.1556 32.4239 21.1367 32.556 21.1367 32.6692C21.1367 32.7825 21.1556 32.9146 21.2122 33.0278C21.2688 33.1411 21.3254 33.2543 21.4198 33.3298L25.4209 37.312C25.4209 37.312 25.6096 37.463 25.7229 37.5007C25.8361 37.5385 25.9493 37.5762 26.0814 37.5762C26.2136 37.5762 26.3268 37.5573 26.44 37.5007C26.5533 37.4441 26.6476 37.3875 26.742 37.2931C26.8364 37.2176 26.893 37.1044 26.9496 36.9912C27.0062 36.8779 27.0251 36.7647 27.0251 36.6326C27.0251 36.5005 27.0062 36.3872 26.9496 36.274C26.893 36.1607 26.8364 36.0664 26.742 35.972L22.7409 31.9898V32.0087Z" fill="#EF4A26"/>
<path id="Vector_4" d="M34.7448 43.9745C34.7448 43.9745 34.5561 43.8235 34.4429 43.7669C34.3296 43.7103 34.1975 43.6914 34.0843 43.6914C33.9522 43.6914 33.8389 43.7103 33.7257 43.7669C33.6124 43.8046 33.4992 43.8801 33.4237 43.9745C33.3294 44.0689 33.2727 44.1632 33.2161 44.2765C33.1784 44.3897 33.1406 44.5218 33.1406 44.6351C33.1406 44.7672 33.1595 44.8804 33.2161 44.9936C33.2727 45.1069 33.3294 45.2201 33.4237 45.2956L37.4248 49.2778C37.4248 49.2778 37.6135 49.4288 37.7268 49.4665C37.84 49.5043 37.9532 49.542 38.0854 49.542C38.2175 49.542 38.3307 49.5232 38.4439 49.4665C38.5572 49.4099 38.6515 49.3533 38.7459 49.2589C38.8403 49.1835 38.8969 49.0702 38.9535 48.957C38.9913 48.8437 39.029 48.7305 39.029 48.5984C39.029 48.4663 39.029 48.353 38.9724 48.2398C38.9158 48.1266 38.8591 48.0322 38.7648 47.9378L34.7637 43.9556L34.7448 43.9745Z" fill="#EF4A26"/>
<path id="Vector_5" d="M25.4053 43.9745L21.4042 47.9567C21.4042 47.9567 21.2343 48.1454 21.1966 48.2587C21.14 48.3719 21.1211 48.4852 21.1211 48.6173C21.1211 48.7494 21.14 48.8626 21.1966 48.9759C21.2532 49.0891 21.3098 49.1835 21.4042 49.2778C21.4986 49.3722 21.5929 49.4288 21.7062 49.4854C21.8194 49.542 21.9515 49.5609 22.0647 49.5609C22.178 49.5609 22.3101 49.542 22.4233 49.4854C22.5366 49.4477 22.6309 49.3722 22.7253 49.2778L26.7264 45.2956C26.7264 45.2956 26.8774 45.1069 26.934 44.9936C26.9906 44.8804 27.0095 44.7483 27.0095 44.6351C27.0095 44.5029 26.9906 44.3897 26.934 44.2765C26.8774 44.1632 26.8207 44.05 26.7264 43.9745C26.632 43.8801 26.5376 43.8235 26.4244 43.7669C26.3112 43.7103 26.1791 43.6914 26.0658 43.6914C25.9337 43.6914 25.8205 43.7103 25.7072 43.7669C25.594 43.8235 25.4996 43.8801 25.4053 43.9745Z" fill="#EF4A26"/>
<path id="Vector_6" d="M30.0647 34.0854C30.1969 34.0854 30.3101 34.0665 30.4233 34.0099C30.5366 33.9722 30.6498 33.8967 30.7253 33.8023C30.8197 33.708 30.8763 33.6136 30.9329 33.5004C30.9895 33.3871 31.0084 33.2739 31.0084 33.1418V29.386C31.0084 29.2539 30.9895 29.1407 30.9329 29.0274C30.8763 28.9142 30.8197 28.801 30.7253 28.7255C30.6309 28.6311 30.5366 28.5745 30.4233 28.5179C30.3101 28.4613 30.1969 28.4424 30.0647 28.4424C29.9326 28.4424 29.8194 28.4613 29.7062 28.5179C29.5929 28.5745 29.4797 28.6311 29.4042 28.7255C29.3098 28.8198 29.2532 28.9142 29.1966 29.0274C29.14 29.1407 29.1211 29.2539 29.1211 29.386V33.1418C29.1211 33.2739 29.14 33.3871 29.1966 33.5004C29.2532 33.6136 29.3098 33.7268 29.4042 33.8023C29.4986 33.8967 29.5929 33.9533 29.7062 34.0099C29.8194 34.0665 29.9326 34.0854 30.0647 34.0854Z" fill="#EF4A26"/>
<path id="Vector_7" d="M30.0647 47.2393C29.9326 47.2393 29.8194 47.2581 29.7062 47.3147C29.5929 47.3714 29.4797 47.428 29.4042 47.5224C29.3098 47.6167 29.2532 47.7111 29.1966 47.8243C29.14 47.9376 29.1211 48.0508 29.1211 48.1829V51.9386C29.1211 52.0707 29.14 52.184 29.1966 52.2972C29.2532 52.4105 29.3098 52.5048 29.4042 52.5992C29.4986 52.6936 29.5929 52.7502 29.7062 52.8068C29.8194 52.8634 29.9326 52.8823 30.0647 52.8823C30.1969 52.8823 30.3101 52.8634 30.4233 52.8068C30.5366 52.7502 30.6498 52.6936 30.7253 52.5992C30.8197 52.5048 30.8763 52.4105 30.9329 52.2972C30.9895 52.184 31.0084 52.0519 31.0084 51.9386V48.1829C31.0084 48.0697 30.9895 47.9376 30.9329 47.8243C30.8763 47.7111 30.8197 47.5978 30.7253 47.5224C30.6309 47.428 30.5366 47.3714 30.4233 47.3147C30.3101 47.2581 30.1969 47.2393 30.0647 47.2393Z" fill="#EF4A26"/>
<path id="Vector_8" d="M23.4783 40.6526C23.4783 40.5205 23.4594 40.4073 23.4028 40.294C23.3462 40.1808 23.2896 40.0676 23.1952 39.9921C23.1009 39.9166 23.0065 39.8411 22.8932 39.7845C22.78 39.7279 22.6668 39.709 22.5347 39.709H18.7601C18.6279 39.709 18.5147 39.7279 18.4015 39.7845C18.2882 39.8222 18.175 39.8977 18.0995 39.9921C18.0051 40.0864 17.9485 40.1808 17.8919 40.294C17.8542 40.4073 17.8164 40.5205 17.8164 40.6526C17.8164 40.7847 17.8353 40.898 17.8919 41.0112C17.9485 41.1245 18.0051 41.2188 18.0995 41.3132C18.1939 41.4076 18.2882 41.4642 18.4015 41.5208C18.5147 41.5585 18.6468 41.5963 18.7601 41.5963H22.5347C22.6668 41.5963 22.78 41.5774 22.8932 41.5208C23.0065 41.483 23.1197 41.4076 23.1952 41.3132C23.2896 41.2188 23.3462 41.1245 23.4028 41.0112C23.4594 40.898 23.4783 40.7659 23.4783 40.6526Z" fill="#EF4A26"/>
<path id="Vector_9" d="M41.3901 39.709H37.6155C37.4834 39.709 37.3702 39.7279 37.2569 39.7845C37.1437 39.8222 37.0493 39.8977 36.955 39.9921C36.8795 40.0864 36.804 40.1808 36.7474 40.294C36.6907 40.4073 36.6719 40.5205 36.6719 40.6526C36.6719 40.7847 36.6907 40.898 36.7474 41.0112C36.804 41.1245 36.8606 41.2188 36.955 41.3132C37.0493 41.4076 37.1437 41.4642 37.2569 41.5208C37.3702 41.5585 37.4834 41.5963 37.6155 41.5963H41.3901C41.5222 41.5963 41.6355 41.5774 41.7487 41.5208C41.862 41.4642 41.9752 41.4076 42.0507 41.3132C42.145 41.2188 42.2017 41.1245 42.2583 41.0112C42.3149 40.898 42.3338 40.7659 42.3338 40.6526C42.3338 40.5394 42.3149 40.4073 42.2583 40.294C42.2017 40.1808 42.145 40.0676 42.0507 39.9921C41.9563 39.8977 41.862 39.8411 41.7487 39.7845C41.6355 39.7279 41.5222 39.709 41.3901 39.709Z" fill="#EF4A26"/>
</g>
</g>
<defs>
<clipPath id="clip0_1896_7418">
<rect width="70" height="70" fill="white" transform="translate(0.753906)"/>
</clipPath>
</defs>
</svg>
