<svg width="71" height="70" viewBox="0 0 71 70" fill="none" xmlns="http://www.w3.org/2000/svg">
<g clip-path="url(#clip0_1896_7109)">
<path d="M35.635 64.0845C51.6935 64.0845 64.7114 51.0665 64.7114 35.0081C64.7114 18.9496 51.6935 5.93164 35.635 5.93164C19.5766 5.93164 6.55859 18.9496 6.55859 35.0081C6.55859 51.0665 19.5766 64.0845 35.635 64.0845Z" stroke="#4B4F55" stroke-width="1.11"/>
<path d="M31.9159 25.3105H39.7224L35.6818 33.505H42.7933L32.1907 45.7723L34.9868 37.5133H29.3945L31.9159 25.3105Z" fill="#F04C24"/>
<path d="M53.6396 34.3127C53.2517 33.9248 52.6699 33.9248 52.282 34.3127L51.587 35.0077V34.9754C51.5547 26.1021 44.2977 18.8613 35.4083 18.8613C30.8828 18.8613 26.7128 20.6554 23.642 23.9202C23.4803 24.1142 23.3672 24.3404 23.3672 24.5829C23.3672 24.8576 23.4803 25.0839 23.6743 25.2779C24.0622 25.6334 24.6764 25.6334 25.0319 25.2455C27.7149 22.3686 31.4323 20.7685 35.3598 20.7685C43.1986 20.7685 49.5828 27.1527 49.5828 34.9754V35.0077L48.8879 34.3127C48.5 33.9248 47.9181 33.9248 47.5302 34.3127C47.3362 34.5067 47.2554 34.7491 47.2554 35.0077C47.2554 35.2663 47.3362 35.5088 47.5302 35.7027L49.9061 38.0786C50.1 38.2725 50.3425 38.3534 50.6011 38.3534C50.8597 38.3534 51.1021 38.2402 51.2961 38.0786L53.672 35.7027C53.9791 35.2663 53.9791 34.6521 53.6235 34.2966" fill="#4B4F55"/>
<path d="M45.7356 44.722C43.0527 47.5989 39.3838 49.199 35.4078 49.199C27.5689 49.199 21.1847 42.8148 21.1847 34.9921V34.9598L21.8797 35.6548C22.2676 36.0427 22.8495 36.0427 23.2374 35.6548C23.6253 35.2669 23.6253 34.685 23.2374 34.2971L20.8615 31.9212C20.6675 31.7273 20.4251 31.6465 20.1503 31.6465C19.8756 31.6465 19.6493 31.7596 19.4553 31.9212L17.0795 34.2971C16.8855 34.4911 16.8047 34.7174 16.8047 34.9921C16.8047 35.2669 16.8855 35.4932 17.0795 35.6871C17.4674 36.075 18.0492 36.075 18.4371 35.6871L19.1321 34.9921V35.0245C19.1321 43.8977 26.3891 51.1547 35.2785 51.1547C39.804 51.1547 43.9739 49.3606 47.0448 46.0958C47.4004 45.7079 47.4004 45.0776 47.0125 44.7381C46.7054 44.3502 46.1235 44.3502 45.7356 44.7381" fill="#4B4F55"/>
<path d="M35.6025 7.64463C20.5229 7.64463 8.23935 19.912 8.23935 35.0078C8.23935 50.1036 20.5067 62.371 35.6025 62.371C50.6984 62.371 62.9657 50.1036 62.9657 35.0078C62.9657 19.912 50.6984 7.64463 35.6025 7.64463ZM35.6025 65.9268C18.5511 65.9268 4.68359 52.0593 4.68359 35.0078C4.68359 17.9563 18.5511 4.08887 35.6025 4.08887C52.654 4.08887 66.5215 17.9563 66.5215 35.0078C66.5215 52.0593 52.654 65.9268 35.6025 65.9268Z" fill="#4B4F55"/>
<path d="M37.4112 0H33.8555V11.7663H37.4112V0Z" fill="#4B4F55"/>
<path d="M37.4112 58.2334H33.8555V69.9997H37.4112V58.2334Z" fill="#4B4F55"/>
<path d="M70.6257 33.2139H58.8594V36.7696H70.6257V33.2139Z" fill="#4B4F55"/>
<path d="M12.3913 33.2139H0.625V36.7696H12.3913V33.2139Z" fill="#4B4F55"/>
</g>
<defs>
<clipPath id="clip0_1896_7109">
<rect width="70" height="70" fill="white" transform="translate(0.625)"/>
</clipPath>
</defs>
</svg>
