<svg width="71" height="70" viewBox="0 0 71 70" fill="none" xmlns="http://www.w3.org/2000/svg">
<g id="Layer_1" clip-path="url(#clip0_1896_7585)">
<path id="Vector" d="M35.7416 68.9432C54.4931 68.9432 69.6942 53.7421 69.6942 34.9906C69.6942 16.2392 54.4931 1.03809 35.7416 1.03809C16.9901 1.03809 1.78906 16.2392 1.78906 34.9906C1.78906 53.7421 16.9901 68.9432 35.7416 68.9432Z" stroke="#4B4F55" stroke-width="1.11"/>
<path id="Vector_2" d="M54.672 20.081L53.0867 19.1373C52.7847 18.9675 52.4073 18.8731 52.0109 18.8731C51.6146 18.8731 51.2371 18.9675 50.9352 19.1373L49.3498 20.081C48.7648 20.4396 48.2741 21.2888 48.2741 21.9872V23.8933C48.2741 24.1009 48.3118 24.3274 48.3873 24.535L37.9694 30.631C37.8373 30.4611 37.6674 30.329 37.5165 30.2347L32.7982 27.4037C32.7038 27.3471 32.5906 27.2905 32.4585 27.2527V22.8176C32.6284 22.7798 32.7793 22.7232 32.9115 22.6288L34.4968 21.6852C35.1007 21.3266 35.5725 20.4773 35.5725 19.779V17.8728C35.5725 17.1745 35.0818 16.3252 34.4968 15.9667L32.9115 15.023C32.6095 14.8532 32.232 14.7588 31.8357 14.7588C31.4394 14.7588 31.043 14.8532 30.7599 15.023L29.1746 15.9667C28.5707 16.3252 28.0988 17.1745 28.0988 17.8728V19.779C28.0988 20.4773 28.5895 21.3266 29.1746 21.6852L30.7599 22.6288C30.892 22.7043 31.043 22.7609 31.2129 22.8176V27.1961C31.0053 27.2338 30.8165 27.3093 30.6467 27.4037L25.9284 30.2347C25.3434 30.5932 24.8527 31.4614 24.8527 32.1408L24.8527 37.8594C24.8527 37.9915 24.8715 38.1236 24.9093 38.2746L22.5879 39.6334C22.4747 39.5202 22.3614 39.4069 22.2105 39.3314L20.6251 38.3878C20.3231 38.2179 19.9457 38.1236 19.5494 38.1236C19.153 38.1236 18.7756 38.2179 18.4736 38.3878L16.8883 39.3314C16.2843 39.69 15.8125 40.5393 15.8125 41.2376V43.1438C15.8125 43.8421 16.3032 44.6914 16.8883 45.05L18.4736 45.9936C18.7756 46.1635 19.153 46.2578 19.5494 46.2578C19.9457 46.2578 20.3231 46.1635 20.6251 45.9936L22.2105 45.05C22.8144 44.6914 23.2862 43.8421 23.2862 43.1438V41.2376C23.2862 41.0678 23.2673 40.8979 23.2107 40.7281L25.4944 39.4069C25.6265 39.5579 25.7775 39.69 25.9284 39.7844L30.6467 42.6154C30.8165 42.7097 31.0053 42.7852 31.2129 42.823V47.2015C31.043 47.2392 30.892 47.2959 30.7599 47.3902L29.1746 48.3339C28.5707 48.6925 28.0988 49.5418 28.0988 50.2401V52.1462C28.0988 52.8445 28.5895 53.6938 29.1746 54.0524L30.7599 54.996C31.0619 55.1659 31.4394 55.2603 31.8357 55.2603C32.232 55.2603 32.6095 55.1659 32.9115 54.996L34.4968 54.0524C35.1007 53.6938 35.5725 52.8445 35.5725 52.1462V50.2401C35.5725 49.5418 35.0818 48.6925 34.4968 48.3339L32.9115 47.3902C32.7793 47.3147 32.6284 47.2581 32.4585 47.2015V42.7663C32.5717 42.7286 32.685 42.672 32.7982 42.6154L37.5165 39.7844C37.6486 39.7089 37.7618 39.5957 37.8751 39.4824L48.0099 43.8232C47.9721 43.9553 47.9532 44.0874 47.9532 44.2007V46.1069C47.9532 46.8052 48.4439 47.6544 49.029 48.013L50.6143 48.9567C50.9163 49.1265 51.2938 49.2209 51.6901 49.2209C52.0864 49.2209 52.4639 49.1265 52.7659 48.9567L54.3512 48.013C54.9363 47.6544 55.427 46.8052 55.427 46.1069V44.2007C55.427 43.5024 54.9363 42.6531 54.3512 42.2945L52.7659 41.3509C52.4639 41.181 52.0864 41.0866 51.6901 41.0866C51.2938 41.0866 50.9163 41.181 50.6143 41.3509L49.029 42.2945C48.8591 42.3889 48.7082 42.521 48.576 42.6908L38.4979 38.3689C38.5356 38.1991 38.5734 38.0292 38.5734 37.8594V32.1408C38.5734 32.0276 38.5545 31.8955 38.5167 31.7634L49.0667 25.6108C49.0667 25.6108 49.2366 25.7618 49.331 25.8184L50.9163 26.762C51.2183 26.9319 51.5957 27.0262 51.9921 27.0262C52.3884 27.0262 52.7847 26.9319 53.0678 26.762L54.6532 25.8184C55.2382 25.4598 55.7289 24.6105 55.7289 23.9122V22.006C55.7289 21.3077 55.2382 20.4584 54.6532 20.0999" fill="#EF4A26"/>
</g>
<defs>
<clipPath id="clip0_1896_7585">
<rect width="70" height="70" fill="white" transform="translate(0.75)"/>
</clipPath>
</defs>
</svg>
