<svg width="71" height="70" viewBox="0 0 71 70" fill="none" xmlns="http://www.w3.org/2000/svg">
<g clip-path="url(#clip0_1896_7133)">
<path d="M62.2439 46.1313C68.3892 31.2952 61.344 14.2864 46.5079 8.14107C31.6718 1.99576 14.663 9.04104 8.51769 23.8771C2.37238 38.7132 9.41765 55.722 24.2537 61.8673C39.0898 68.0126 56.0986 60.9673 62.2439 46.1313Z" stroke="#4B4F55" stroke-width="1.11"/>
<path d="M26.4257 26.8941L30.935 22.3848L27.945 19.3947C27.7187 19.1523 27.3308 19.1523 27.0883 19.3947L23.4356 23.0475C23.3225 23.1606 23.2578 23.3222 23.2578 23.4677C23.2578 23.6131 23.3225 23.7748 23.4356 23.8879L26.4257 26.878V26.8941Z" fill="#4B4F55"/>
<path d="M44.9959 36.4465C44.7535 36.2041 44.3818 36.2041 44.1393 36.4465L42.6039 37.982L40.9068 36.2688L43.8969 33.2787C44.01 33.1656 44.0747 33.0039 44.0747 32.8585C44.0747 32.713 44.01 32.5514 43.8969 32.4382L38.7734 27.3147C38.5471 27.0884 38.143 27.0884 37.9167 27.3147L34.9267 30.3048L33.2296 28.5916L34.765 27.0561C34.8782 26.943 34.9428 26.7975 34.9428 26.6359C34.9428 26.4743 34.8782 26.3288 34.765 26.2157L31.775 23.2256L27.2656 27.7349L30.2557 30.725C30.3688 30.8381 30.5143 30.9028 30.6759 30.9028C30.8375 30.9028 30.9992 30.8381 31.0962 30.725L32.373 29.4482L34.0862 31.1614L31.0962 34.1515C30.983 34.2646 30.9184 34.4101 30.9184 34.5717C30.9184 34.7333 30.983 34.8788 31.0962 34.9919L33.2296 37.1254L32.3407 38.0143C31.8558 37.6911 31.2739 37.5133 30.6759 37.5133C29.8678 37.5133 29.1082 37.8204 28.5425 38.4022C27.3626 39.5821 27.3626 41.4893 28.5425 42.6691C29.1082 43.2348 29.8678 43.5581 30.6759 43.5581C31.4841 43.5581 32.2437 43.251 32.8094 42.6691C33.8438 41.6347 33.9731 40.0508 33.1973 38.8709L34.1024 37.982L36.2358 40.1154C36.349 40.2286 36.5106 40.2932 36.6561 40.2932C36.8015 40.2932 36.9632 40.2286 37.0763 40.1154L40.0664 37.1254L41.7796 38.8224L40.5028 40.0993C40.2603 40.3417 40.2603 40.7135 40.5028 40.9559L43.4928 43.946L48.0022 39.4366L45.0121 36.4465H44.9959Z" fill="#F04C24"/>
<path d="M51.8315 43.2674L48.8414 40.2773L44.332 44.7867L47.3221 47.7768C47.4352 47.8899 47.5807 47.9546 47.7423 47.9546C47.904 47.9546 48.0494 47.8899 48.1626 47.7768L51.8315 44.1079C52.0577 43.8654 52.0577 43.4937 51.8315 43.2513" fill="#4B4F55"/>
<path d="M30.6774 45.9661C27.6874 45.9661 25.2468 43.5256 25.2468 40.5355C25.2468 40.1961 24.972 39.9375 24.6488 39.9375C24.3255 39.9375 24.0508 40.2123 24.0508 40.5355C24.0508 44.1883 27.0247 47.1783 30.6936 47.1783C31.033 47.1783 31.2916 46.9036 31.2916 46.5803C31.2916 46.2571 31.0168 45.9823 30.6936 45.9823" fill="#F04C24"/>
<path d="M30.6767 49.5865C28.2524 49.5865 25.9896 48.6491 24.2764 46.9359C22.5631 45.2227 21.6257 42.9599 21.6257 40.5355C21.6257 40.1961 21.351 39.9375 21.0277 39.9375C20.7045 39.9375 20.4297 40.2123 20.4297 40.5355C20.4297 43.2831 21.4964 45.853 23.4359 47.7925C25.3754 49.732 27.9453 50.7987 30.6929 50.7987C31.0323 50.7987 31.2909 50.524 31.2909 50.2007C31.2909 49.8775 31.0162 49.6027 30.6929 49.6027" fill="#F04C24"/>
<path d="M35.3486 7.64463C20.269 7.64463 7.98545 19.912 7.98545 35.0078C7.98545 50.1036 20.2528 62.371 35.3486 62.371C50.4445 62.371 62.7118 50.1036 62.7118 35.0078C62.7118 19.912 50.4445 7.64463 35.3486 7.64463ZM35.3486 65.9268C18.2972 65.9268 4.42969 52.0593 4.42969 35.0078C4.42969 17.9563 18.2972 4.08887 35.3486 4.08887C52.4001 4.08887 66.2676 17.9563 66.2676 35.0078C66.2676 52.0593 52.4001 65.9268 35.3486 65.9268Z" fill="#4B4F55"/>
<path d="M37.1417 0H33.5859V11.7663H37.1417V0Z" fill="#4B4F55"/>
<path d="M37.1417 58.2334H33.5859V69.9997H37.1417V58.2334Z" fill="#4B4F55"/>
<path d="M70.3718 33.2139H58.6055V36.7696H70.3718V33.2139Z" fill="#4B4F55"/>
<path d="M12.1374 33.2139H0.371094V36.7696H12.1374V33.2139Z" fill="#4B4F55"/>
</g>
<defs>
<clipPath id="clip0_1896_7133">
<rect width="70" height="70" fill="white" transform="translate(0.371094)"/>
</clipPath>
</defs>
</svg>
