<svg width="71" height="70" viewBox="0 0 71 70" fill="none" xmlns="http://www.w3.org/2000/svg">
<g clip-path="url(#clip0_1896_7089)">
<path d="M64.6939 37.8506C66.2749 21.8702 54.6018 7.6338 38.6213 6.05282C22.6409 4.47184 8.40453 16.1449 6.82355 32.1254C5.24257 48.1058 16.9157 62.3422 32.8961 63.9232C48.8766 65.5041 63.1129 53.8311 64.6939 37.8506Z" stroke="#4B4F55" stroke-width="1.11"/>
<path d="M21.6523 35.8973L32.0287 38.7257L34.8571 49.1021L47.1245 23.6299L21.6523 35.8973Z" fill="#F04C24"/>
<path d="M35.7315 7.64463C20.6518 7.64463 8.36826 19.912 8.36826 35.0078C8.36826 50.1036 20.6356 62.371 35.7315 62.371C50.8273 62.371 63.0947 50.1036 63.0947 35.0078C63.0947 19.912 50.8273 7.64463 35.7315 7.64463ZM35.7315 65.9268C18.68 65.9268 4.8125 52.0593 4.8125 35.0078C4.8125 17.9563 18.68 4.08887 35.7315 4.08887C52.7829 4.08887 66.6504 17.9563 66.6504 35.0078C66.6504 52.0593 52.7829 65.9268 35.7315 65.9268Z" fill="#4B4F55"/>
<path d="M37.5245 0H33.9688V11.7663H37.5245V0Z" fill="#4B4F55"/>
<path d="M37.5245 58.2334H33.9688V69.9997H37.5245V58.2334Z" fill="#4B4F55"/>
<path d="M70.7546 33.2139H58.9883V36.7696H70.7546V33.2139Z" fill="#4B4F55"/>
<path d="M12.5202 33.2139H0.753906V36.7696H12.5202V33.2139Z" fill="#4B4F55"/>
</g>
<defs>
<clipPath id="clip0_1896_7089">
<rect width="70" height="70" fill="white" transform="translate(0.753906)"/>
</clipPath>
</defs>
</svg>
