<svg width="71" height="70" viewBox="0 0 71 70" fill="none" xmlns="http://www.w3.org/2000/svg">
<g clip-path="url(#clip0_1896_6766)">
<path d="M29.059 30.2723L30.4975 29.4481L34.7967 26.9752L35.4917 26.5711L36.1867 26.9752L40.4859 29.4481L41.9406 30.2885L41.2133 30.7087L35.5079 34.0059L29.8025 30.7087L29.0752 30.2885L29.059 30.2723ZM33.3421 44.9803L27.7014 41.7154L26.9094 41.2629V34.0221L27.6367 34.4423L33.3583 37.7394V44.9964L33.3421 44.9803ZM44.1064 41.2629L43.3144 41.7316L37.6575 44.9803V37.7233L43.379 34.4261L44.1064 34.0059V41.2467V41.2629ZM46.5631 29.7551L37.7221 24.6478L36.1867 23.775L35.7826 23.5487C35.6049 23.4356 35.3786 23.4356 35.1846 23.5487L34.7806 23.775L33.2451 24.6478L24.4042 29.7551C24.2103 29.8683 24.1133 30.0622 24.1133 30.2723V42.5236C24.1133 42.7337 24.2264 42.9276 24.4042 43.0408L24.9052 43.3317L35.1685 49.2633C35.1685 49.2633 35.1685 49.2633 35.1846 49.2633C35.3624 49.3603 35.5887 49.3603 35.7503 49.2633L46.0135 43.3317L46.5146 43.0408C46.6924 42.9438 46.8055 42.7498 46.8055 42.5236V30.2723C46.8055 30.0622 46.6924 29.8683 46.5146 29.7551" fill="#4A4F54"/>
<path d="M33.3252 44.9802L27.6845 41.7153L26.8925 41.2628V34.0058L27.6198 34.426L33.3414 37.7232V44.964L33.3252 44.9802ZM28.3956 33.0845L25.3086 31.3066V42.184L26.1006 42.6527L34.893 47.7278V36.8504L28.3795 33.1007L28.3956 33.0845Z" fill="#4A4F54"/>
<path d="M35.4906 33.9901L29.7853 30.6929L29.0579 30.2727L30.4964 29.4484L34.7956 26.9755L35.4906 26.5715L36.1856 26.9755L40.4849 29.4484L41.9395 30.2889L41.2122 30.7091L35.4906 34.0063V33.9901ZM38.9009 26.7169L36.1856 25.1492L35.4906 24.7451L34.7956 25.1492L32.0803 26.7169L25.9062 30.2727L28.9933 32.0506L35.4906 35.8003L41.988 32.0506L45.075 30.2727L38.9009 26.7169Z" fill="#4A4F54"/>
<path d="M44.1065 41.2795L43.3145 41.7482L37.6738 44.9969V37.756L43.3953 34.4589L44.1226 34.0386V41.2956L44.1065 41.2795ZM42.6033 33.0851L36.0898 36.8348V47.7122L44.8823 42.6371L45.6742 42.1684V31.291L42.6033 33.0689V33.0851Z" fill="#4A4F54"/>
<path d="M27.9421 41.5705L27.6835 41.716L26.1157 42.6372L24.9358 43.3161L23.3842 44.205L20.6528 45.7889L21.9943 46.1445C22.3013 46.2253 22.4953 46.5486 22.4145 46.8718C22.3337 47.1789 22.0104 47.389 21.6872 47.292L18.7941 46.5324C18.487 46.4516 18.293 46.1122 18.3738 45.8051L19.1335 42.912C19.2143 42.6049 19.5537 42.411 19.8608 42.4918C20.1679 42.5726 20.3618 42.8958 20.281 43.2191C20.281 43.2191 20.0709 43.9626 19.9093 44.6091L22.6084 43.0413L24.1115 42.1685L25.2914 41.4897L26.8592 40.5846L27.2148 40.3745C27.5542 40.1805 27.9744 40.2937 28.1684 40.6169C28.3623 40.9563 28.2492 41.3766 27.9097 41.5705" fill="#EF4A26"/>
<path d="M52.1893 46.5154L49.2962 47.2912C48.9891 47.372 48.6658 47.1942 48.5689 46.871C48.4881 46.5639 48.6658 46.2245 48.9891 46.1436C48.9891 46.1436 49.7003 45.9497 50.3306 45.7881L47.5991 44.2041L46.0475 43.3152L44.8676 42.6364L43.2999 41.7313L43.0251 41.5696C42.7019 41.3757 42.5887 40.9555 42.7827 40.616C42.9766 40.2766 43.3969 40.1635 43.7363 40.3736L44.0918 40.5837L45.6596 41.4888L46.8395 42.1677L48.3426 43.0404L51.0579 44.6082L50.6862 43.2182C50.6054 42.9111 50.7831 42.5717 51.1064 42.4909C51.4296 42.4101 51.7529 42.5879 51.8337 42.9111L52.6095 45.7881C52.6903 46.0952 52.4964 46.4346 52.1893 46.5154Z" fill="#EF4A26"/>
<path d="M38.0299 18.9911L35.9126 16.8738C35.6863 16.6475 35.3146 16.6475 35.0722 16.8738L32.9549 18.9911C32.7286 19.2174 32.7286 19.5891 32.9549 19.8316C33.1811 20.0578 33.569 20.0578 33.7953 19.8316L34.7974 18.8295V28.1068C34.7974 28.4947 35.1045 28.8018 35.4924 28.8018C35.8803 28.8018 36.1874 28.4947 36.1874 28.1068V18.8295C36.6561 19.2982 37.1895 19.8316 37.1895 19.8316C37.4157 20.0578 37.8036 20.0578 38.0299 19.8316C38.2562 19.6053 38.2562 19.2335 38.0299 18.9911Z" fill="#EF4A26"/>
<path d="M42.1806 63.2995C57.8097 59.6107 67.4892 43.9505 63.8004 28.3215C60.1116 12.6924 44.4514 3.01292 28.8223 6.70171C13.1933 10.3905 3.51379 26.0507 7.20258 41.6798C10.8914 57.3088 26.5516 66.9883 42.1806 63.2995Z" stroke="#4B4F55" stroke-width="1.11"/>
<path d="M35.919 7.57192C20.8393 7.57192 8.55576 19.8393 8.55576 34.9351C8.55576 50.0309 20.8231 62.2983 35.919 62.2983C51.0148 62.2983 63.2822 50.0309 63.2822 34.9351C63.2822 19.8393 51.0148 7.57192 35.919 7.57192ZM35.919 65.8541C18.8675 65.8541 5 51.9866 5 34.9351C5 17.8836 18.8675 4 35.919 4C52.9704 4 66.8379 17.8675 66.8379 34.919C66.8379 51.9704 52.9704 65.8379 35.919 65.8379" fill="#4B4F55"/>
<path d="M37.2862 0H33.7305V11.7663H37.2862V0Z" fill="#4B4F55"/>
<path d="M37.2862 58.2334H33.7305V69.9997H37.2862V58.2334Z" fill="#4B4F55"/>
<path d="M70.5007 33.2139H58.7344V36.7696H70.5007V33.2139Z" fill="#4B4F55"/>
<path d="M12.2663 33.2139H0.5V36.7696H12.2663V33.2139Z" fill="#4B4F55"/>
</g>
<defs>
<clipPath id="clip0_1896_6766">
<rect width="70" height="70" fill="white" transform="translate(0.5)"/>
</clipPath>
</defs>
</svg>
