<svg width="71" height="70" viewBox="0 0 71 70" fill="none" xmlns="http://www.w3.org/2000/svg">
<g clip-path="url(#clip0_1896_6734)">
<path d="M35.7639 64.0845C51.8224 64.0845 64.8404 51.0665 64.8404 35.0081C64.8404 18.9496 51.8224 5.93164 35.7639 5.93164C19.7055 5.93164 6.6875 18.9496 6.6875 35.0081C6.6875 51.0665 19.7055 64.0845 35.7639 64.0845Z" stroke="#4B4F55" stroke-width="1.11"/>
<path d="M35.1963 51.9786H36.2954C37.5399 51.9786 38.5582 50.9603 38.5582 49.7158H32.9336C32.9336 50.9603 33.9518 51.9786 35.1963 51.9786Z" fill="#4B4F55"/>
<path d="M26.7109 36.1396C26.7109 39.0489 28.2464 41.6349 30.5899 43.1704C31.689 43.8977 32.3678 45.0614 32.3678 46.3221H35.1963V43.7199L33.3376 41.8612C32.9497 41.4733 32.8204 40.8914 33.0467 40.3742C33.2568 39.857 33.7578 39.5338 34.3073 39.5338C34.6629 39.5338 35.0185 39.6792 35.2771 39.9378L35.6003 40.2773C35.6973 40.3742 35.8428 40.3742 35.9398 40.2773L36.2792 39.9378C36.5378 39.6792 36.8772 39.5338 37.2489 39.5338C37.7984 39.5338 38.2995 39.857 38.5096 40.3742C38.7197 40.8914 38.6066 41.4733 38.2187 41.8612L37.3136 42.7501L36.5216 41.9582L37.4105 41.0692C37.5075 40.9722 37.4752 40.8753 37.459 40.8106C37.4429 40.7621 37.3782 40.6652 37.2328 40.6652C37.1681 40.6652 37.1035 40.6813 37.0711 40.7298L36.7479 41.0692C36.2145 41.6026 35.3417 41.6026 34.8245 41.0692L34.4851 40.7298C34.4851 40.7298 34.3882 40.6652 34.3235 40.6652C34.1942 40.6652 34.1295 40.7621 34.1134 40.8106C34.0972 40.8591 34.0649 40.9722 34.1619 41.0692L36.1984 43.1057C36.2953 43.2027 36.36 43.3481 36.36 43.5098V46.3382H39.1884C39.1884 45.7079 39.3501 45.0937 39.6571 44.5603C39.9642 44.0108 40.4168 43.5421 40.9663 43.1865C43.3099 41.6349 44.8453 39.0651 44.8453 36.1558H26.7433L26.7109 36.1396Z" fill="#4B4F55"/>
<path d="M36.3267 18.0371H35.1953V20.2999H36.3267V18.0371Z" fill="#F04C24"/>
<path d="M52.7315 34.4424H50.4688V35.5738H52.7315V34.4424Z" fill="#F04C24"/>
<path d="M21.0557 34.4424H18.793V35.5738H21.0557V34.4424Z" fill="#F04C24"/>
<path d="M23.4719 21.9129L22.6719 22.7129L24.2719 24.3129L25.0719 23.5129L23.4719 21.9129Z" fill="#F04C24"/>
<path d="M49.6625 21.9146L48.0625 23.5146L48.8625 24.3147L50.4625 22.7146L49.6625 21.9146Z" fill="#F04C24"/>
<path d="M39.1555 48.0188C39.1555 47.7117 38.8969 47.4531 38.5898 47.4531H32.9329C32.6258 47.4531 32.3672 47.7117 32.3672 48.0188C32.3672 48.3259 32.6258 48.5845 32.9329 48.5845H38.5898C38.8969 48.5845 39.1555 48.3259 39.1555 48.0188Z" fill="#4B4F55"/>
<path d="M35.1956 28.7856H35.7612V27.6219L38.0402 29.2543C38.0402 29.2543 38.0402 29.319 38.0402 29.3513C38.0402 30.0463 38.4604 30.6443 39.0422 30.9029L38.7028 32.2606C38.4442 32.3252 38.2018 32.4707 38.0078 32.6485L35.7612 31.307V29.9332H35.1956C34.2581 29.9332 33.4985 30.6928 33.4985 31.6302H32.3671C32.3671 30.0786 33.6278 28.8018 35.1956 28.8018M37.0542 24.9874C37.329 25.5531 37.9109 25.9572 38.5735 25.9572C38.6059 25.9572 38.6382 25.9572 38.6705 25.9572L39.0422 27.7997C38.8321 27.8967 38.6382 28.026 38.4766 28.1876L35.7451 26.2319V25.9572C35.7451 25.6986 35.6966 25.4561 35.6319 25.2299L37.0381 24.9874H37.0542ZM38.5897 23.6944C38.8968 23.6944 39.1554 23.953 39.1554 24.2601C39.1554 24.5672 38.8968 24.8258 38.5897 24.8258C38.2826 24.8258 38.024 24.5672 38.024 24.2601C38.024 23.953 38.2664 23.6944 38.5897 23.6944ZM39.7211 28.7856C40.0282 28.7856 40.2868 29.0442 40.2868 29.3513C40.2868 29.6584 40.0282 29.917 39.7211 29.917C39.414 29.917 39.1554 29.6584 39.1554 29.3513C39.1554 29.0442 39.414 28.7856 39.7211 28.7856ZM40.1575 24.9066L41.4505 25.1167C41.4505 25.2137 41.4181 25.2945 41.4181 25.3915C41.4181 25.7955 41.5636 26.1673 41.806 26.4582L40.4484 27.8159C40.4484 27.8159 40.2868 27.7512 40.2059 27.7189L39.7534 25.4885C39.9312 25.3268 40.0605 25.1329 40.1575 24.9066ZM42.8081 27.0562C42.9051 27.0724 43.0021 27.0886 43.1152 27.0886C43.2122 27.0886 43.293 27.0886 43.39 27.0562L44.1819 29.8362C44.0365 29.9655 43.9233 30.1433 43.8425 30.3211L41.3858 29.5129C41.3858 29.5129 41.3858 29.416 41.3858 29.3513C41.3858 29.0927 41.3212 28.8503 41.2242 28.624L42.792 27.0562H42.8081ZM43.1152 24.8258C43.4223 24.8258 43.6809 25.0844 43.6809 25.3915C43.6809 25.6986 43.4223 25.9572 43.1152 25.9572C42.8081 25.9572 42.5495 25.6986 42.5495 25.3915C42.5495 25.0844 42.8081 24.8258 43.1152 24.8258ZM40.3514 32.6808C40.2059 32.5353 40.0282 32.4222 39.8342 32.3252L40.1736 30.9676C40.4645 30.8868 40.7232 30.7413 40.9171 30.5312L43.6324 31.4363L40.3352 32.6646L40.3514 32.6808ZM39.1554 34.4425C38.8483 34.4425 38.5897 34.1839 38.5897 33.8768C38.5897 33.5697 38.8483 33.3111 39.1554 33.3111C39.4625 33.3111 39.7211 33.5697 39.7211 33.8768C39.7211 34.1839 39.4625 34.4425 39.1554 34.4425ZM45.378 30.4827C45.6851 30.4827 45.9437 30.7413 45.9437 31.0484C45.9437 31.3555 45.6851 31.6141 45.378 31.6141C45.0709 31.6141 44.8123 31.3555 44.8123 31.0484C44.8123 30.7413 45.0709 30.4827 45.378 30.4827ZM27.8578 26.7491C26.8395 27.1855 26.1445 28.1876 26.1445 29.3513H26.7102C28.278 29.3513 29.5387 30.6281 29.5387 32.1798V32.7454H28.4073V32.1798C28.4073 31.2423 27.6476 30.4827 26.7102 30.4827H26.4031C26.5001 30.6766 26.5971 30.8706 26.7264 31.0484C26.3708 31.5171 26.1445 32.0989 26.1445 32.7454C26.1445 33.6667 26.5971 34.491 27.2759 35.0082H35.7612V32.6161L37.4906 33.6505C37.4906 33.6505 37.4745 33.8122 37.4745 33.8768C37.4745 34.8142 38.2341 35.5739 39.1715 35.5739C40.109 35.5739 40.8686 34.8142 40.8686 33.8768C40.8686 33.8122 40.8686 33.7637 40.8524 33.7152L44.3759 32.3899C44.4567 32.4545 44.5537 32.503 44.6506 32.5515L43.7455 34.7819L44.7961 35.2022L45.8144 32.6808C46.5578 32.503 47.1074 31.8403 47.1074 31.0322C47.1074 30.0948 46.3477 29.3351 45.4103 29.3351C45.3618 29.3351 45.3133 29.3351 45.2648 29.3351L44.4405 26.4582C44.6991 26.1673 44.8446 25.7794 44.8446 25.3592C44.8446 24.4217 44.085 23.6621 43.1475 23.6621C42.7435 23.6621 42.3717 23.8076 42.0808 24.05L40.2383 23.7429C40.0282 23.0479 39.3817 22.5469 38.622 22.5469C37.8624 22.5469 37.1512 23.1126 36.9734 23.856L35.1471 24.1631C34.6299 23.5328 33.8541 23.1126 32.9651 23.1126C32.0762 23.1126 31.3004 23.5328 30.7832 24.1631C30.9933 24.8581 31.6398 25.3753 32.3994 25.3753H32.9651V26.5067H32.3994C31.0579 26.5067 29.9266 25.5531 29.6518 24.2924C28.6336 24.5187 27.8739 25.4238 27.8739 26.5067C27.8739 26.5875 27.8901 26.6522 27.8901 26.733" fill="#F04C24"/>
<path d="M35.7315 7.64517C20.6518 7.64517 8.36826 19.9125 8.36826 35.0084C8.36826 50.1042 20.6356 62.3716 35.7315 62.3716C50.8273 62.3716 63.0947 50.1042 63.0947 35.0084C63.0947 19.9125 50.8273 7.64517 35.7315 7.64517ZM35.7315 65.9273C18.68 65.9273 4.8125 52.0598 4.8125 35.0084C4.8125 17.9569 18.68 4.07324 35.7315 4.07324C52.7829 4.07324 66.6504 17.9407 66.6504 34.9922C66.6504 52.0437 52.7829 65.9111 35.7315 65.9111" fill="#4B4F55"/>
<path d="M37.5245 0H33.9688V11.7663H37.5245V0Z" fill="#4B4F55"/>
<path d="M37.5245 58.2334H33.9688V69.9997H37.5245V58.2334Z" fill="#4B4F55"/>
<path d="M70.7546 33.2139H58.9883V36.7696H70.7546V33.2139Z" fill="#4B4F55"/>
<path d="M12.5202 33.2139H0.753906V36.7696H12.5202V33.2139Z" fill="#4B4F55"/>
</g>
<defs>
<clipPath id="clip0_1896_6734">
<rect width="70" height="70" fill="white" transform="translate(0.753906)"/>
</clipPath>
</defs>
</svg>
