<svg width="71" height="70" viewBox="0 0 71 70" fill="none" xmlns="http://www.w3.org/2000/svg">
<g clip-path="url(#clip0_1896_7157)">
<path d="M35.7639 64.0845C51.8224 64.0845 64.8404 51.0665 64.8404 35.0081C64.8404 18.9496 51.8224 5.93164 35.7639 5.93164C19.7055 5.93164 6.6875 18.9496 6.6875 35.0081C6.6875 51.0665 19.7055 64.0845 35.7639 64.0845Z" stroke="#4B4F55" stroke-width="1.11"/>
<path d="M35.3595 51.6228V46.8064C29.1531 46.5963 24.1427 41.6021 23.9488 35.3795H19.1323C19.3425 44.2366 26.5025 51.3966 35.3595 51.6067M52.3787 35.3957H47.5623C47.3522 41.6021 42.3579 46.6125 36.1515 46.8226V51.639C45.0086 51.4289 52.1686 44.2689 52.3787 35.4118M36.1515 18.3765V23.1929C42.3579 23.403 47.3683 28.3973 47.5623 34.6198H52.3787C52.1686 25.7628 45.0086 18.6028 36.1515 18.3926M29.541 34.6037C29.735 31.4843 32.2402 28.9791 35.3595 28.7852V23.9687C29.5895 24.1788 24.9347 28.8175 24.7408 34.5875H29.5572L29.541 34.6037ZM35.3595 41.2142C32.2402 41.0202 29.735 38.515 29.541 35.3957H24.7246C24.9347 41.1657 29.5734 45.8205 35.3434 46.0144V41.198L35.3595 41.2142ZM41.97 35.3957C41.7761 38.515 39.2709 41.0202 36.1515 41.2142V46.0306C41.9215 45.8205 46.5764 41.1818 46.7703 35.4118H41.97V35.3957ZM36.1515 28.7852C39.2709 28.9791 41.7761 31.4843 41.97 34.6037H46.7703C46.5602 28.8337 41.9215 24.1788 36.1515 23.9849V28.8013V28.7852ZM35.3595 34.6037V29.5771C32.6766 29.7711 30.5269 31.9207 30.333 34.6037H35.3595ZM35.3595 35.3957H30.333C30.5269 38.0786 32.6766 40.2283 35.3595 40.4222V35.3957ZM41.1781 34.6037C40.9841 31.9207 38.8345 29.7711 36.1515 29.5771V34.6037H41.1781ZM36.1515 35.3957V40.4222C38.8345 40.2283 40.9841 38.0786 41.1781 35.3957H36.1515ZM19.1323 34.6037H23.9488C24.1589 28.3973 29.1531 23.3869 35.3757 23.1768V18.3765C26.5186 18.5866 19.3586 25.7466 19.1485 34.6037M35.7636 17.5684C45.3803 17.5684 53.203 25.391 53.203 35.0077C53.203 44.6245 45.3803 52.4471 35.7636 52.4471C26.1469 52.4471 18.3242 44.6245 18.3242 35.0077C18.3242 25.391 26.1469 17.5684 35.7636 17.5684Z" fill="#4B4F55"/>
<path d="M43.3091 48.1964C43.8587 48.1964 44.295 47.76 44.295 47.2105C44.295 46.661 43.8587 46.2246 43.3091 46.2246C42.7596 46.2246 42.3232 46.661 42.3232 47.2105C42.3232 47.76 42.7596 48.1964 43.3091 48.1964ZM43.3091 45.4326C44.2789 45.4326 45.087 46.2246 45.087 47.2105C45.087 48.1964 44.295 48.9884 43.3091 48.9884C42.3232 48.9884 41.5312 48.1964 41.5312 47.2105C41.5312 46.2246 42.3232 45.4326 43.3091 45.4326Z" fill="#F04C24"/>
<path d="M44.2482 38.7574C44.2482 38.2078 43.8118 37.7715 43.2623 37.7715C42.7127 37.7715 42.2763 38.2078 42.2763 38.7574C42.2763 39.3069 42.7289 39.7433 43.2623 39.7433C43.7956 39.7433 44.2482 39.3069 44.2482 38.7574ZM41.4844 38.7574C41.4844 37.7876 42.2763 36.9795 43.2623 36.9795C44.2482 36.9795 45.0401 37.7715 45.0401 38.7574C45.0401 39.7433 44.2482 40.5353 43.2623 40.5353C42.2763 40.5353 41.4844 39.7433 41.4844 38.7574Z" fill="#F04C24"/>
<path d="M35.7315 7.64517C20.6518 7.64517 8.36826 19.9125 8.36826 35.0084C8.36826 50.1042 20.6356 62.3716 35.7315 62.3716C50.8273 62.3716 63.0947 50.1042 63.0947 35.0084C63.0947 19.9125 50.8273 7.64517 35.7315 7.64517ZM35.7315 65.9273C18.68 65.9273 4.8125 52.0598 4.8125 35.0084C4.8125 17.9569 18.68 4.07324 35.7315 4.07324C52.7829 4.07324 66.6504 17.9407 66.6504 34.9922C66.6504 52.0437 52.7829 65.9111 35.7315 65.9111" fill="#4B4F55"/>
<path d="M37.5245 0H33.9688V11.7663H37.5245V0Z" fill="#4B4F55"/>
<path d="M37.5245 58.2334H33.9688V69.9997H37.5245V58.2334Z" fill="#4B4F55"/>
<path d="M70.7546 33.2139H58.9883V36.7696H70.7546V33.2139Z" fill="#4B4F55"/>
<path d="M12.5202 33.2139H0.753906V36.7696H12.5202V33.2139Z" fill="#4B4F55"/>
</g>
<defs>
<clipPath id="clip0_1896_7157">
<rect width="70" height="70" fill="white" transform="translate(0.753906)"/>
</clipPath>
</defs>
</svg>
