<svg width="71" height="70" viewBox="0 0 71 70" fill="none" xmlns="http://www.w3.org/2000/svg">
<g id="Layer_1" clip-path="url(#clip0_1896_7949)">
<path id="Vector" d="M43.2955 68.0449C61.5455 63.7375 72.8482 45.4511 68.5408 27.201C64.2334 8.95099 45.947 -2.35176 27.697 1.95564C9.44693 6.26304 -1.85582 24.5495 2.45159 42.7995C6.75899 61.0496 25.0454 72.3523 43.2955 68.0449Z" stroke="#4B4F55" stroke-width="1.11"/>
<path id="Vector_2" d="M36.1696 34.3112C35.9998 34.1225 35.7544 34.0282 35.4902 34.0282C35.226 34.0282 34.9806 34.1414 34.8108 34.3112C34.6409 34.4811 34.5277 34.7264 34.5277 35.0095C34.5277 35.2926 34.6409 35.5191 34.8108 35.689C34.9806 35.8777 35.226 35.9721 35.4902 35.9721C35.7544 35.9721 35.9998 35.8588 36.1696 35.689C36.3395 35.5191 36.4527 35.2738 36.4527 35.0095C36.4527 34.7453 36.3395 34.5 36.1696 34.3112ZM36.1696 34.3112C35.9998 34.1225 35.7544 34.0282 35.4902 34.0282C35.226 34.0282 34.9806 34.1414 34.8108 34.3112C34.6409 34.4811 34.5277 34.7264 34.5277 35.0095C34.5277 35.2926 34.6409 35.5191 34.8108 35.689C34.9806 35.8777 35.226 35.9721 35.4902 35.9721C35.7544 35.9721 35.9998 35.8588 36.1696 35.689C36.3395 35.5191 36.4527 35.2738 36.4527 35.0095C36.4527 34.7453 36.3395 34.5 36.1696 34.3112ZM36.1696 34.3112C35.9998 34.1225 35.7544 34.0282 35.4902 34.0282C35.226 34.0282 34.9806 34.1414 34.8108 34.3112C34.6409 34.4811 34.5277 34.7264 34.5277 35.0095C34.5277 35.2926 34.6409 35.5191 34.8108 35.689C34.9806 35.8777 35.226 35.9721 35.4902 35.9721C35.7544 35.9721 35.9998 35.8588 36.1696 35.689C36.3395 35.5191 36.4527 35.2738 36.4527 35.0095C36.4527 34.7453 36.3395 34.5 36.1696 34.3112ZM36.1696 34.3112C35.9998 34.1225 35.7544 34.0282 35.4902 34.0282C35.226 34.0282 34.9806 34.1414 34.8108 34.3112C34.6409 34.4811 34.5277 34.7264 34.5277 35.0095C34.5277 35.2926 34.6409 35.5191 34.8108 35.689C34.9806 35.8777 35.226 35.9721 35.4902 35.9721C35.7544 35.9721 35.9998 35.8588 36.1696 35.689C36.3395 35.5191 36.4527 35.2738 36.4527 35.0095C36.4527 34.7453 36.3395 34.5 36.1696 34.3112ZM36.1696 34.3112C35.9998 34.1225 35.7544 34.0282 35.4902 34.0282C35.226 34.0282 34.9806 34.1414 34.8108 34.3112C34.6409 34.4811 34.5277 34.7264 34.5277 35.0095C34.5277 35.2926 34.6409 35.5191 34.8108 35.689C34.9806 35.8777 35.226 35.9721 35.4902 35.9721C35.7544 35.9721 35.9998 35.8588 36.1696 35.689C36.3395 35.5191 36.4527 35.2738 36.4527 35.0095C36.4527 34.7453 36.3395 34.5 36.1696 34.3112ZM36.1696 34.3112C35.9998 34.1225 35.7544 34.0282 35.4902 34.0282C35.226 34.0282 34.9806 34.1414 34.8108 34.3112C34.6409 34.4811 34.5277 34.7264 34.5277 35.0095C34.5277 35.2926 34.6409 35.5191 34.8108 35.689C34.9806 35.8777 35.226 35.9721 35.4902 35.9721C35.7544 35.9721 35.9998 35.8588 36.1696 35.689C36.3395 35.5191 36.4527 35.2738 36.4527 35.0095C36.4527 34.7453 36.3395 34.5 36.1696 34.3112ZM36.1696 34.3112C35.9998 34.1225 35.7544 34.0282 35.4902 34.0282C35.226 34.0282 34.9806 34.1414 34.8108 34.3112C34.6409 34.4811 34.5277 34.7264 34.5277 35.0095C34.5277 35.2926 34.6409 35.5191 34.8108 35.689C34.9806 35.8777 35.226 35.9721 35.4902 35.9721C35.7544 35.9721 35.9998 35.8588 36.1696 35.689C36.3395 35.5191 36.4527 35.2738 36.4527 35.0095C36.4527 34.7453 36.3395 34.5 36.1696 34.3112ZM36.1696 34.3112C35.9998 34.1225 35.7544 34.0282 35.4902 34.0282C35.226 34.0282 34.9806 34.1414 34.8108 34.3112C34.6409 34.4811 34.5277 34.7264 34.5277 35.0095C34.5277 35.2926 34.6409 35.5191 34.8108 35.689C34.9806 35.8777 35.226 35.9721 35.4902 35.9721C35.7544 35.9721 35.9998 35.8588 36.1696 35.689C36.3395 35.5191 36.4527 35.2738 36.4527 35.0095C36.4527 34.7453 36.3395 34.5 36.1696 34.3112ZM36.1696 34.3112C35.9998 34.1225 35.7544 34.0282 35.4902 34.0282C35.226 34.0282 34.9806 34.1414 34.8108 34.3112C34.6409 34.4811 34.5277 34.7264 34.5277 35.0095C34.5277 35.2926 34.6409 35.5191 34.8108 35.689C34.9806 35.8777 35.226 35.9721 35.4902 35.9721C35.7544 35.9721 35.9998 35.8588 36.1696 35.689C36.3395 35.5191 36.4527 35.2738 36.4527 35.0095C36.4527 34.7453 36.3395 34.5 36.1696 34.3112ZM36.1696 34.3112C35.9998 34.1225 35.7544 34.0282 35.4902 34.0282C35.226 34.0282 34.9806 34.1414 34.8108 34.3112C34.6409 34.4811 34.5277 34.7264 34.5277 35.0095C34.5277 35.2926 34.6409 35.5191 34.8108 35.689C34.9806 35.8777 35.226 35.9721 35.4902 35.9721C35.7544 35.9721 35.9998 35.8588 36.1696 35.689C36.3395 35.5191 36.4527 35.2738 36.4527 35.0095C36.4527 34.7453 36.3395 34.5 36.1696 34.3112ZM35.4902 35.9721C35.7544 35.9721 35.9998 35.8588 36.1696 35.689C36.3395 35.5191 36.4527 35.2738 36.4527 35.0095C36.4527 34.7453 36.3395 34.5 36.1696 34.3112C35.9998 34.1225 35.7544 34.0282 35.4902 34.0282C35.226 34.0282 34.9806 34.1414 34.8108 34.3112C34.6409 34.4811 34.5277 34.7264 34.5277 35.0095C34.5277 35.2926 34.6409 35.5191 34.8108 35.689C34.9806 35.8777 35.226 35.9721 35.4902 35.9721ZM50.6641 48.2018C50.3999 48.5037 49.9469 48.5415 49.645 48.2773C49.6261 48.2584 49.6072 48.2395 49.5883 48.2206C49.5506 48.2018 49.5317 48.1829 49.494 48.1452L44.5681 43.1627C44.3794 42.974 44.3794 42.672 44.5681 42.4644C44.7568 42.2757 45.0588 42.2757 45.2475 42.4644L49.7582 47.0128C51.0793 45.3897 52.1362 43.5401 52.8722 41.5207C53.5517 39.6334 53.948 37.5951 54.0046 35.4814H50.8906C50.6263 35.4814 50.4187 35.2549 50.4187 34.9907C50.4187 34.7265 50.6263 34.5 50.8906 34.5H54.0046C53.8914 29.6685 51.9663 25.2899 48.9278 22.0249L46.7196 24.2708C46.5309 24.4595 46.2289 24.4595 46.0402 24.2708C45.8515 24.0821 45.8515 23.7612 46.0402 23.5725L48.2483 21.3266C45.0399 18.2126 40.7369 16.2686 35.9809 16.1554V22.0627C35.9809 22.3269 35.7544 22.5534 35.4902 22.5534C35.226 22.5534 35.0184 22.3269 35.0184 22.0627V16.1554C30.2624 16.2875 25.9593 18.2314 22.7509 21.3266L24.959 23.5725C25.1478 23.7612 25.1478 24.0632 24.959 24.2708C24.7703 24.4595 24.4683 24.4595 24.2796 24.2708L22.0715 22.0249C19.014 25.2899 17.1079 29.6685 16.9946 34.5H20.1087C20.3729 34.5 20.5805 34.7265 20.5805 34.9907C20.5805 35.2549 20.3729 35.4814 20.1087 35.4814H16.9946C17.0513 37.5951 17.4476 39.6334 18.127 41.5207C18.8631 43.5401 19.92 45.3897 21.2411 47.0128L25.7517 42.4644C25.9404 42.2757 26.2424 42.2757 26.4311 42.4644C26.6199 42.6531 26.6199 42.9551 26.4311 43.1627L21.4864 48.1452C21.4864 48.1452 21.4298 48.1829 21.4109 48.2206C21.4109 48.2395 21.3732 48.2584 21.3354 48.2773C21.0335 48.5415 20.5805 48.5037 20.3163 48.2018C18.7876 46.39 17.5797 44.3139 16.7493 42.0303C15.9566 39.841 15.5225 37.463 15.5225 34.9907C15.5225 29.3854 17.7496 24.3085 21.3732 20.6283C24.9779 16.9481 29.9793 14.6833 35.4902 14.6833C41.0011 14.6833 46.0025 16.9669 49.6072 20.6283C53.2119 24.3085 55.4578 29.3854 55.4578 34.9907C55.4578 37.463 55.0238 39.8222 54.2311 42.0303C53.4007 44.3139 52.1928 46.39 50.6641 48.2018ZM46.361 49.4097H44.6813V49.9758H46.3233V50.7874H44.6813V52.2029H43.7754V48.617H46.361V49.4285V49.4097ZM39.3403 46.6353C39.227 46.6353 39.1327 46.6353 39.0194 46.6353H32.3573C32.244 46.6353 32.1308 46.6353 32.0364 46.6353V45.9748H32.0176C31.1871 45.7672 30.9229 45.7483 30.904 45.8427C30.8663 45.9936 30.9418 46.3145 31.0362 46.7108C31.2249 47.579 31.4702 48.6925 31.0362 49.9004C30.9984 50.0136 31.0362 50.2212 31.1116 50.4477C31.1871 50.693 31.2626 50.9761 31.2815 51.3158C31.3004 51.5801 31.1117 51.8254 30.8474 51.8443C30.5832 51.8631 30.3567 51.6744 30.3379 51.3913C30.319 51.146 30.2624 50.9195 30.2057 50.7119C30.0925 50.2967 29.9981 49.957 30.1491 49.5418C30.5077 48.5981 30.2812 47.6356 30.1303 46.8995C30.017 46.39 29.9226 45.9559 29.9981 45.5973C30.1491 44.9179 30.6776 44.6537 32.0742 44.9556V43.7855C32.0742 43.2382 32.5083 42.8041 33.0367 42.8041H38.4344C38.9628 42.8041 39.3969 43.2382 39.3969 43.7855V46.6164L39.3403 46.6353ZM39.3403 53.373C39.3403 53.9203 38.9062 54.3544 38.3778 54.3544H32.9801C32.4516 54.3544 32.0176 53.9203 32.0176 53.373V47.579C32.1308 47.579 32.244 47.579 32.3384 47.579H39.0006C39.1138 47.579 39.227 47.579 39.3214 47.579V53.373H39.3403ZM23.6568 29.0268C23.2039 28.7626 23.0529 28.1586 23.3171 27.6868C23.5813 27.215 24.1853 27.064 24.6193 27.3471L33.6406 32.7448C34.1502 32.3107 34.7919 32.0654 35.5091 32.0654C36.3017 32.0654 37.0189 32.3862 37.5473 32.9146C38.0758 33.4431 38.3966 34.1791 38.3966 34.9907C38.3966 35.8022 38.0758 36.5383 37.5473 37.0667C37.0189 37.5951 36.3017 37.9349 35.5091 37.9349C34.7164 37.9349 33.9803 37.5951 33.4708 37.0667C32.9423 36.5383 32.6215 35.8022 32.6215 34.9907C32.6215 34.8019 32.6215 34.6132 32.6781 34.4245L23.6757 29.0268H23.6568ZM27.2238 49.4097H25.5441V49.9758H27.1861V50.7874H25.5441V51.3913H27.2238V52.2029H24.6382V48.617H27.2238V49.4285V49.4097ZM52.5136 17.703C48.154 13.2678 42.1524 10.5312 35.5091 10.5312C28.8658 10.5312 22.8453 13.2678 18.5045 17.703C14.1448 22.1382 11.4648 28.253 11.4648 35.0095C11.4648 41.7661 14.1637 47.8809 18.5045 52.3161C22.8641 56.7513 28.8658 59.4878 35.5091 59.4878C42.1524 59.4878 48.1729 56.7513 52.5136 52.3161C56.8544 47.8809 59.5533 41.7661 59.5533 35.0095C59.5533 28.253 56.8544 22.1382 52.5136 17.703ZM36.1696 34.3112C35.9998 34.1225 35.7544 34.0282 35.4902 34.0282C35.226 34.0282 34.9806 34.1414 34.8108 34.3112C34.6409 34.4811 34.5277 34.7264 34.5277 35.0095C34.5277 35.2926 34.6409 35.5191 34.8108 35.689C34.9806 35.8777 35.226 35.9721 35.4902 35.9721C35.7544 35.9721 35.9998 35.8588 36.1696 35.689C36.3395 35.5191 36.4527 35.2738 36.4527 35.0095C36.4527 34.7453 36.3395 34.5 36.1696 34.3112ZM36.1696 34.3112C35.9998 34.1225 35.7544 34.0282 35.4902 34.0282C35.226 34.0282 34.9806 34.1414 34.8108 34.3112C34.6409 34.4811 34.5277 34.7264 34.5277 35.0095C34.5277 35.2926 34.6409 35.5191 34.8108 35.689C34.9806 35.8777 35.226 35.9721 35.4902 35.9721C35.7544 35.9721 35.9998 35.8588 36.1696 35.689C36.3395 35.5191 36.4527 35.2738 36.4527 35.0095C36.4527 34.7453 36.3395 34.5 36.1696 34.3112ZM36.1696 34.3112C35.9998 34.1225 35.7544 34.0282 35.4902 34.0282C35.226 34.0282 34.9806 34.1414 34.8108 34.3112C34.6409 34.4811 34.5277 34.7264 34.5277 35.0095C34.5277 35.2926 34.6409 35.5191 34.8108 35.689C34.9806 35.8777 35.226 35.9721 35.4902 35.9721C35.7544 35.9721 35.9998 35.8588 36.1696 35.689C36.3395 35.5191 36.4527 35.2738 36.4527 35.0095C36.4527 34.7453 36.3395 34.5 36.1696 34.3112ZM36.1696 34.3112C35.9998 34.1225 35.7544 34.0282 35.4902 34.0282C35.226 34.0282 34.9806 34.1414 34.8108 34.3112C34.6409 34.4811 34.5277 34.7264 34.5277 35.0095C34.5277 35.2926 34.6409 35.5191 34.8108 35.689C34.9806 35.8777 35.226 35.9721 35.4902 35.9721C35.7544 35.9721 35.9998 35.8588 36.1696 35.689C36.3395 35.5191 36.4527 35.2738 36.4527 35.0095C36.4527 34.7453 36.3395 34.5 36.1696 34.3112ZM36.1696 34.3112C35.9998 34.1225 35.7544 34.0282 35.4902 34.0282C35.226 34.0282 34.9806 34.1414 34.8108 34.3112C34.6409 34.4811 34.5277 34.7264 34.5277 35.0095C34.5277 35.2926 34.6409 35.5191 34.8108 35.689C34.9806 35.8777 35.226 35.9721 35.4902 35.9721C35.7544 35.9721 35.9998 35.8588 36.1696 35.689C36.3395 35.5191 36.4527 35.2738 36.4527 35.0095C36.4527 34.7453 36.3395 34.5 36.1696 34.3112ZM36.1696 34.3112C35.9998 34.1225 35.7544 34.0282 35.4902 34.0282C35.226 34.0282 34.9806 34.1414 34.8108 34.3112C34.6409 34.4811 34.5277 34.7264 34.5277 35.0095C34.5277 35.2926 34.6409 35.5191 34.8108 35.689C34.9806 35.8777 35.226 35.9721 35.4902 35.9721C35.7544 35.9721 35.9998 35.8588 36.1696 35.689C36.3395 35.5191 36.4527 35.2738 36.4527 35.0095C36.4527 34.7453 36.3395 34.5 36.1696 34.3112ZM36.1696 34.3112C35.9998 34.1225 35.7544 34.0282 35.4902 34.0282C35.226 34.0282 34.9806 34.1414 34.8108 34.3112C34.6409 34.4811 34.5277 34.7264 34.5277 35.0095C34.5277 35.2926 34.6409 35.5191 34.8108 35.689C34.9806 35.8777 35.226 35.9721 35.4902 35.9721C35.7544 35.9721 35.9998 35.8588 36.1696 35.689C36.3395 35.5191 36.4527 35.2738 36.4527 35.0095C36.4527 34.7453 36.3395 34.5 36.1696 34.3112ZM36.1696 34.3112C35.9998 34.1225 35.7544 34.0282 35.4902 34.0282C35.226 34.0282 34.9806 34.1414 34.8108 34.3112C34.6409 34.4811 34.5277 34.7264 34.5277 35.0095C34.5277 35.2926 34.6409 35.5191 34.8108 35.689C34.9806 35.8777 35.226 35.9721 35.4902 35.9721C35.7544 35.9721 35.9998 35.8588 36.1696 35.689C36.3395 35.5191 36.4527 35.2738 36.4527 35.0095C36.4527 34.7453 36.3395 34.5 36.1696 34.3112ZM36.1696 34.3112C35.9998 34.1225 35.7544 34.0282 35.4902 34.0282C35.226 34.0282 34.9806 34.1414 34.8108 34.3112C34.6409 34.4811 34.5277 34.7264 34.5277 35.0095C34.5277 35.2926 34.6409 35.5191 34.8108 35.689C34.9806 35.8777 35.226 35.9721 35.4902 35.9721C35.7544 35.9721 35.9998 35.8588 36.1696 35.689C36.3395 35.5191 36.4527 35.2738 36.4527 35.0095C36.4527 34.7453 36.3395 34.5 36.1696 34.3112ZM36.1696 34.3112C35.9998 34.1225 35.7544 34.0282 35.4902 34.0282C35.226 34.0282 34.9806 34.1414 34.8108 34.3112C34.6409 34.4811 34.5277 34.7264 34.5277 35.0095C34.5277 35.2926 34.6409 35.5191 34.8108 35.689C34.9806 35.8777 35.226 35.9721 35.4902 35.9721C35.7544 35.9721 35.9998 35.8588 36.1696 35.689C36.3395 35.5191 36.4527 35.2738 36.4527 35.0095C36.4527 34.7453 36.3395 34.5 36.1696 34.3112ZM36.1696 34.3112C35.9998 34.1225 35.7544 34.0282 35.4902 34.0282C35.226 34.0282 34.9806 34.1414 34.8108 34.3112C34.6409 34.4811 34.5277 34.7264 34.5277 35.0095C34.5277 35.2926 34.6409 35.5191 34.8108 35.689C34.9806 35.8777 35.226 35.9721 35.4902 35.9721C35.7544 35.9721 35.9998 35.8588 36.1696 35.689C36.3395 35.5191 36.4527 35.2738 36.4527 35.0095C36.4527 34.7453 36.3395 34.5 36.1696 34.3112ZM36.1696 34.3112C35.9998 34.1225 35.7544 34.0282 35.4902 34.0282C35.226 34.0282 34.9806 34.1414 34.8108 34.3112C34.6409 34.4811 34.5277 34.7264 34.5277 35.0095C34.5277 35.2926 34.6409 35.5191 34.8108 35.689C34.9806 35.8777 35.226 35.9721 35.4902 35.9721C35.7544 35.9721 35.9998 35.8588 36.1696 35.689C36.3395 35.5191 36.4527 35.2738 36.4527 35.0095C36.4527 34.7453 36.3395 34.5 36.1696 34.3112Z" fill="#EF4A26"/>
</g>
<defs>
<clipPath id="clip0_1896_7949">
<rect width="70" height="70" fill="white" transform="translate(0.5)"/>
</clipPath>
</defs>
</svg>
