<svg width="71" height="70" viewBox="0 0 71 70" fill="none" xmlns="http://www.w3.org/2000/svg">
<g clip-path="url(#clip0_1896_6875)">
<path d="M35.7639 64.0845C51.8224 64.0845 64.8404 51.0665 64.8404 35.0081C64.8404 18.9496 51.8224 5.93164 35.7639 5.93164C19.7055 5.93164 6.6875 18.9496 6.6875 35.0081C6.6875 51.0665 19.7055 64.0845 35.7639 64.0845Z" stroke="#4B4F55" stroke-width="1.11"/>
<path d="M35.7632 42.2168C39.7392 42.2168 42.9717 38.9843 42.9717 35.0083C42.9717 31.0323 39.7392 27.7998 35.7632 27.7998C31.7872 27.7998 28.5547 31.0323 28.5547 35.0083C28.5547 38.9843 31.7872 42.2168 35.7632 42.2168Z" fill="#F04C24"/>
<path d="M35.7315 7.64517C20.6518 7.64517 8.36826 19.9125 8.36826 35.0084C8.36826 50.1042 20.6356 62.3716 35.7315 62.3716C50.8273 62.3716 63.0947 50.1042 63.0947 35.0084C63.0947 19.9125 50.8273 7.64517 35.7315 7.64517ZM35.7315 65.9273C18.68 65.9273 4.8125 52.0598 4.8125 35.0084C4.8125 17.9569 18.68 4.07324 35.7315 4.07324C52.7829 4.07324 66.6504 17.9407 66.6504 34.9922C66.6504 52.0437 52.7829 65.9111 35.7315 65.9111" fill="#4B4F55"/>
<path d="M37.5245 0H33.9688V11.7663H37.5245V0Z" fill="#4B4F55"/>
<path d="M37.5245 58.2334H33.9688V69.9997H37.5245V58.2334Z" fill="#4B4F55"/>
<path d="M70.7546 33.2139H58.9883V36.7696H70.7546V33.2139Z" fill="#4B4F55"/>
<path d="M12.5202 33.2139H0.753906V36.7696H12.5202V33.2139Z" fill="#4B4F55"/>
</g>
<defs>
<clipPath id="clip0_1896_6875">
<rect width="70" height="70" fill="white" transform="translate(0.753906)"/>
</clipPath>
</defs>
</svg>
