<svg width="71" height="70" viewBox="0 0 71 70" fill="none" xmlns="http://www.w3.org/2000/svg">
<g clip-path="url(#clip0_1896_7210)">
<path d="M35.7639 64.0845C51.8224 64.0845 64.8404 51.0665 64.8404 35.0081C64.8404 18.9496 51.8224 5.93164 35.7639 5.93164C19.7055 5.93164 6.6875 18.9496 6.6875 35.0081C6.6875 51.0665 19.7055 64.0845 35.7639 64.0845Z" stroke="#4B4F55" stroke-width="1.11"/>
<path d="M48.8553 23.9854L44.4267 26.5552C42.1801 24.3894 39.1254 23.0479 35.7636 23.0479C28.8784 23.0479 23.3023 28.6402 23.3023 35.5254H18.3242C18.3242 25.8764 26.1307 18.0537 35.7798 18.0537C41.0003 18.0537 45.6713 20.3488 48.8714 23.9692" fill="#F04C24"/>
<path d="M50.6943 26.4908C52.2298 29.0283 53.1349 31.986 53.1995 35.1539C53.1995 35.267 53.1995 35.3963 53.1995 35.5256H48.2215C48.2215 35.3963 48.2215 35.2994 48.2215 35.2347C48.173 33.2952 47.6881 31.4527 46.8477 29.8203L50.6943 26.4746V26.4908Z" fill="#F04C24"/>
<path d="M38.3645 35.7514C38.4938 36.899 38.0412 38.095 37.0392 38.8223C35.5684 39.9052 33.4834 39.5658 32.4167 38.095C31.3338 36.608 31.6732 34.5392 33.144 33.4725C34.1461 32.7452 35.4229 32.6805 36.4735 33.1654L49.4035 24.9548C49.6944 24.777 50.0662 24.8579 50.2601 25.1326C50.2601 25.1488 50.2763 25.1649 50.2924 25.1811C50.4541 25.4559 50.3894 25.7953 50.1632 26.0054L38.3645 35.7676V35.7514Z" fill="#4B4F55"/>
<path d="M35.7315 7.64517C20.6518 7.64517 8.36826 19.9125 8.36826 35.0084C8.36826 50.1042 20.6356 62.3716 35.7315 62.3716C50.8273 62.3716 63.0947 50.1042 63.0947 35.0084C63.0947 19.9125 50.8273 7.64517 35.7315 7.64517ZM35.7315 65.9273C18.68 65.9273 4.8125 52.0598 4.8125 35.0084C4.8125 17.9569 18.68 4.07324 35.7315 4.07324C52.7829 4.07324 66.6504 17.9407 66.6504 34.9922C66.6504 52.0437 52.7829 65.9111 35.7315 65.9111" fill="#4B4F55"/>
<path d="M37.5245 0H33.9688V11.7663H37.5245V0Z" fill="#4B4F55"/>
<path d="M37.5245 58.2334H33.9688V69.9997H37.5245V58.2334Z" fill="#4B4F55"/>
<path d="M70.7546 33.2139H58.9883V36.7696H70.7546V33.2139Z" fill="#4B4F55"/>
<path d="M12.5202 33.2139H0.753906V36.7696H12.5202V33.2139Z" fill="#4B4F55"/>
</g>
<defs>
<clipPath id="clip0_1896_7210">
<rect width="70" height="70" fill="white" transform="translate(0.753906)"/>
</clipPath>
</defs>
</svg>
